<svg width="1600" height="800" xmlns="http://www.w3.org/2000/svg" preserveAspectRatio="xMidYMid meet">
 <g>
  <title>background</title>
  <rect fill="none" id="canvas_background" height="802" width="1602" y="-1" x="-1"/>
 </g>

 <g>
  <title>Layer 1</title>
  <g id="svg_1">
   <path fill="#007fff" id="svg_2" d="m175.11772,-133.98838l58.04305,58.04305l0,13.44023l0,13.44023l66.26347,66.26347l66.26347,66.26347l0,30.78751l0,30.78751l3.06312,3.06312l3.03187,3.03187l9.5957,0l9.5957,0l0.59387,0.84392c0.31256,0.5001 1.53156,2.50051 2.65679,4.50091l2.09418,3.62574l0,10.5959l0,10.5959l5.28232,5.28232l5.28232,5.28232l-0.59387,1.28151c-0.81267,1.81287 -0.78141,4.90725 0.06251,6.6576c0.78141,1.59407 3.03187,3.68825 4.56343,4.18835c0.59387,0.18754 2.03166,0.28131 3.2194,0.21879c2.78182,-0.15628 4.75097,-1.31277 6.12625,-3.62574c1.18774,-1.96915 1.53156,-3.81328 1.06272,-5.87619c-1.0002,-4.4384 -5.25107,-7.06394 -9.5957,-5.93871l-1.81287,0.46885l-4.90725,-4.90725l-4.9385,-4.90725l0,-10.34585l0,-10.34585l-3.31317,-5.6574l-3.34443,-5.68866l-10.03329,0l-10.06455,0l-1.93789,-1.96915l-1.93789,-1.96915l0,-30.75625l0,-30.78751l-66.26347,-66.26347l-66.26347,-66.26347l0,-13.44023l0,-13.44023l-57.29289,-57.29289l-57.26164,-57.26164l-2.65679,0l-2.65679,0l58.0743,58.0743l-0.00001,0.00002z" stroke="null"/>
   <path fill="#007fff" id="svg_3" d="m192.465,-135.39491l56.63651,56.63651l0,16.72215l0,16.72215l66.26347,66.26347l66.26347,66.26347l0,19.56648l0,19.56648l-1.31277,0.37508c-1.7191,0.53136 -4.34463,3.18815 -4.87599,4.90725c-0.87518,2.9381 -0.34382,5.62614 1.53156,7.75158c2.28171,2.56302 5.09479,3.46946 8.15791,2.56302c7.03268,-2.03166 7.72032,-11.87741 1.06272,-14.90928l-0.81267,-0.37508l0,-20.50417l0,-20.50417l-66.26347,-66.26347l-66.26347,-66.26347l0,-16.87843l0,-16.87843l-55.73008,-55.73008l-55.76133,-55.69882l-2.78182,0l-2.78182,0l56.66777,56.66777l0.00001,-0.00001z" stroke="null"/>
   <path fill="#007fff" id="svg_4" d="m204.96754,-139.45824l52.57319,52.57319l0,20.78547l0,20.78547l69.54539,69.54539l69.54539,69.54539l0,24.53624l0,24.53624l7.56404,7.56404l7.53278,7.53278l-1.219,0.53136c-1.59407,0.65638 -3.50071,2.50051 -4.21961,4.06333c-0.7189,1.53156 -0.78141,4.71971 -0.15628,6.22001c0.62513,1.53156 2.53176,3.50071 4.06333,4.21961c0.90643,0.43759 1.93789,0.65638 3.25066,0.65638c3.28192,0 5.56363,-1.34402 7.09519,-4.09458c0.75015,-1.37528 0.90643,-2.06292 0.90643,-3.71951c-0.03126,-3.37569 -0.5001,-4.03207 -11.18977,-14.69049l-9.56444,-9.53319l0,-24.69252l0,-24.69252l-69.54539,-69.54539l-69.54539,-69.54539l0,-20.78547l0,-20.78547l-51.82303,-51.82303l-51.79178,-51.79178l-2.81307,0l-2.81307,0l52.60444,52.60444l-0.00001,0z" stroke="null"/>
   <path fill="#007fff" id="svg_5" d="m220.43943,-140.86477l51.16665,51.16665l0,22.03573l0,22.03573l70.79564,70.79564l70.79564,70.79564l0,15.22184l0,15.2531l-0.84392,0.18754c-4.09458,0.87518 -6.62635,3.90704 -6.6576,7.8766c0,2.34423 0.5001,3.62574 2.00041,5.31358c1.65659,1.81287 3.87579,2.68805 6.43881,2.50051c1.12523,-0.09377 2.46925,-0.37508 3.03187,-0.65638c2.09418,-1.09397 3.84453,-3.50071 4.28212,-5.93871c0.5001,-2.75056 -1.09397,-6.40755 -3.4382,-7.78283l-1.06272,-0.62513l0,-16.44084l-0.03126,-16.4721l-70.76438,-70.92066l-70.79564,-70.92066l0,-22.06699l0,-22.06699l-50.26022,-50.26022l-50.22896,-50.22896l-2.81307,0l-2.81307,0l51.19791,51.19791l-0.00001,0z" stroke="null"/>
   <path fill="#007fff" id="svg_6" d="m234.03595,-142.89644l49.13499,49.13499l0,24.8488l0,24.8488l71.57705,71.57705l71.57705,71.57705l0,41.1021l0,41.1021l5.93871,5.93871l5.93871,5.96996l-0.28131,1.53156c-0.78141,4.09458 1.59407,7.97037 5.56363,9.12686c1.43779,0.40633 2.06292,0.43759 3.59448,0.15628c3.71951,-0.7189 6.18876,-3.50071 6.3763,-7.25147c0.15628,-2.65679 -0.25005,-3.9383 -1.84412,-5.71991c-2.46925,-2.84433 -6.25127,-3.56322 -9.5957,-1.87538l-1.65659,0.84392l-4.96976,-4.96976l-5.00102,-5.00102l0,-41.1021l0,-41.1021l-71.73333,-71.73333l-71.73333,-71.73333l0,-25.00508l0,-25.00508l-48.22855,-48.22855l-48.1973,-48.1973l-2.81307,0l-2.81307,0l49.16624,49.16624l-0.00001,-0.00001z" stroke="null"/>
   <path fill="#007fff" id="svg_7" d="m247.63246,-145.55323l46.4782,46.4782l0,25.31765l0,25.31765l70.79564,70.79564l70.79564,70.79564l0,27.97444l0,27.97444l4.87599,4.87599l4.87599,4.87599l-1.18774,0.21879c-2.50051,0.46885 -5.00102,2.50051 -6.00122,4.87599c-0.59387,1.40654 -0.59387,4.53217 0.03126,5.96996c1.09397,2.65679 3.68825,4.56343 6.59509,4.87599c7.1577,0.7189 11.34606,-7.65781 6.62635,-13.25269c-0.62513,-0.75015 -0.78141,-1.18774 -0.62513,-1.81287c0.18754,-0.75015 -0.34382,-1.37528 -5.46986,-6.50132l-5.6574,-5.71991l0,-27.7869l0,-27.81815l-70.95192,-70.95192l-70.95192,-70.95192l0,-25.47393l0,-25.47393l-45.54051,-45.54051l-45.57176,-45.57176l-2.81307,0l-2.81307,0l46.50945,46.50945l-0.00001,-0.00001z" stroke="null"/>
   <path fill="#007fff" id="svg_8" d="m259.97872,-148.8664l43.19628,43.22754l0,29.53725l0,29.53725l69.07654,69.07654l69.07654,69.07654l0,27.34931l0,27.34931l7.03268,7.03268l7.03268,7.03268l0,38.6016l0,38.6016l6.90765,4.00081l6.93891,3.96956l12.5338,0l12.5338,0l5.93871,-5.93871l5.93871,-5.90745l1.25025,0.28131c2.50051,0.56261 5.06353,-0.28131 7.09519,-2.40674c1.53156,-1.59407 2.12543,-3.09438 2.12543,-5.46986c0,-2.37548 -0.7189,-4.03207 -2.37548,-5.62614c-1.62533,-1.53156 -3.12564,-2.12543 -5.53237,-2.12543c-6.34504,0 -10.12706,6.97017 -6.62635,12.25249l0.75015,1.15649l-5.18855,5.00102l-5.18855,5.03227l-10.97098,0l-10.97098,0l-5.53237,-3.18815l-5.56363,-3.18815l0,-38.16401l0,-38.13275l-7.03268,-7.03268l-7.03268,-7.03268l0,-27.34931l0,-27.34931l-69.23282,-69.3891l-69.20157,-69.3891l0,-29.38097l-0.03126,-29.38097l-42.35236,-42.35236l-42.35236,-42.35236l-2.75056,-0.09377l-2.7193,-0.09377l43.22754,43.22754l-0.00001,-0.00002z" stroke="null"/>
   <path fill="#007fff" id="svg_9" d="m276.38831,-151.21063l40.85205,40.88331l0,32.50661l0,32.50661l66.73231,66.73231l66.73231,66.73231l0,26.88046l0,26.88046l11.72113,11.87741l11.68988,11.87741l0.03126,26.47413l0,26.44287l-1.37528,0.81267c-2.90684,1.68784 -4.40715,5.1573 -3.65699,8.43922c0.96895,4.28212 5.1573,7.03268 9.25188,6.12625c7.78283,-1.75036 8.68927,-12.34626 1.28151,-15.15933l-1.43779,-0.56261l0,-27.068l0,-27.068l-11.87741,-11.87741l-11.87741,-11.90867l0,-27.00549l0,-27.03675l-66.73231,-66.73231l-66.73231,-66.73231l0,-32.35033l0,-32.35033l-40.00813,-40.00813l-40.00813,-40.00813l-2.75056,-0.09377l-2.7193,-0.09377l40.88331,40.88331l-0.00002,0z" stroke="null"/>
   <path fill="#007fff" id="svg_10" d="m289.82854,-155.55526l36.47616,36.47616l0,36.41365l0,36.41365l65.79462,65.79462l65.79462,65.79462l0,27.03675l0,27.03675l5.40735,5.40735l5.37609,5.37609l11.8149,0l11.78365,0l0,15.69069l0,15.72195l4.87599,4.87599l4.87599,4.87599l-0.46885,0.90643c-0.81267,1.56282 -0.96895,3.62574 -0.40633,5.50112c2.03166,7.00142 11.8149,7.68906 14.90928,1.03146c0.78141,-1.68784 0.78141,-4.87599 0,-6.56383c-0.75015,-1.59407 -2.62553,-3.40694 -4.25086,-4.09458c-1.56282,-0.65638 -4.37589,-0.65638 -5.93871,0l-1.219,0.53136l-4.31338,-4.31338l-4.31338,-4.31338l0,-16.78466l0,-16.81592l-12.75259,0l-12.72134,0l-4.31338,-4.31338l-4.28212,-4.28212l0,-27.03675l0,-27.03675l-65.79462,-65.79462l-65.79462,-65.79462l0,-36.41365l0,-36.41365l-35.72601,-35.72601l-35.69476,-35.69476l-2.81307,0l-2.81307,0l36.50742,36.50742l0.00002,0.00001z" stroke="null"/>
   <path fill="#007fff" id="svg_11" d="m302.95621,-157.43064l34.60078,34.60078l0,38.13275l0,38.13275l67.20116,67.20116l67.20116,67.20116l0,19.97281l0,19.97281l-1.12523,1.09397c-1.62533,1.56282 -2.31297,3.25066 -2.31297,5.68866c0,4.59468 3.31317,7.93911 7.81409,7.90786c4.53217,0 7.81409,-3.31317 7.81409,-7.90786c0,-1.31277 -0.21879,-2.46925 -0.59387,-3.28192c-1.15649,-2.59428 -3.9383,-4.50091 -6.50132,-4.53217l-1.34402,0l0,-20.4104l0,-20.37914l-67.04488,-67.04488l-67.04488,-67.04488l0,-38.13275l0,-38.13275l-33.85063,-33.85063l-33.81937,-33.81937l-2.81307,0l-2.81307,0l34.63204,34.63204l-0.00001,0z" stroke="null"/>
   <path fill="#007fff" id="svg_12" d="m317.02157,-159.30602l32.7254,32.7254l0,41.25839l0,41.25839l63.60668,63.60668l63.60668,63.60668l0,16.72215l0,16.72215l9.84575,9.84575l9.84575,9.84575l0,15.84697l0,15.87823l2.12543,0l2.15669,0l0.34382,1.15649c0.78141,2.59428 3.71951,4.96976 6.53258,5.31358c6.31378,0.7189 10.84595,-5.81368 8.00163,-11.50234c-2.53176,-4.9385 -9.25188,-5.81368 -12.90887,-1.65659c-0.53136,0.62513 -1.15649,1.56282 -1.31277,2.06292c-0.15628,0.46885 -0.5001,0.87518 -0.75015,0.87518c-0.37508,0 -0.43759,-2.34423 -0.43759,-14.94054l0,-14.90928l-9.68947,-9.68947l-9.68947,-9.68947l0,-16.72215l0,-16.72215l-63.60668,-63.60668l-63.60668,-63.60668l0,-41.25839l0,-41.25839l-31.97525,-31.97525l-31.94399,-31.94399l-2.81307,0l-2.81307,0l32.75666,32.75666l-0.00001,0z" stroke="null"/>
   <path fill="#007fff" id="svg_13" d="m331.39949,-163.05678l28.97464,28.97464l0,42.66492l0,42.66492l64.07552,64.07552l64.07552,64.07552l0,15.31561l0,15.31561l9.37691,9.37691l9.37691,9.37691l0,9.37691l0,9.37691l7.65781,7.65781l7.65781,7.65781l0,25.16136l0,25.16136l4.87599,4.87599c4.68845,4.68845 4.87599,4.90725 4.46966,5.62614c-0.65638,1.219 -0.5001,4.59468 0.25005,6.06373c0.90643,1.7191 3.18815,3.78202 4.6572,4.18835c5.46986,1.53156 10.43962,-2.12543 10.43962,-7.62655c-0.03126,-3.09438 -1.59407,-5.59489 -4.50091,-7.09519c-1.81287,-0.93769 -4.84473,-0.93769 -6.72012,0.03126l-1.37528,0.7189l-4.00081,-4.00081l-4.03207,-4.03207l0,-25.16136l0,-25.16136l-7.65781,-7.65781l-7.65781,-7.65781l0,-9.37691l0,-9.37691l-9.37691,-9.37691l-9.37691,-9.37691l0,-15.31561l0,-15.31561l-64.07552,-64.07552l-64.07552,-64.07552l0,-42.8212l0,-42.8212l-28.22449,-28.22449l-28.19323,-28.19323l-2.81307,0l-2.81307,0l29.0059,29.0059l-0.00001,-0.00001z" stroke="null"/>
   <path fill="#007fff" id="svg_14" d="m346.55882,-165.40101l26.63041,26.63041l0,46.57197l0,46.57197l60.63732,60.63732l60.63732,60.63732l0,15.65943l0,15.62818l9.22062,9.22062l9.22062,9.18937l0,9.37691l0,9.37691l9.68947,9.22062c7.65781,7.28273 9.68947,9.34565 9.56444,9.84575c-0.09377,0.34382 -0.31256,1.28151 -0.5001,2.12543c-1.28151,5.31358 3.84453,10.47088 9.18937,9.28314c2.00041,-0.43759 2.9381,-0.96895 4.31338,-2.40674c1.5003,-1.56282 2.12543,-3.09438 2.12543,-5.31358c0,-3.34443 -2.31297,-6.6576 -5.28232,-7.53278c-1.68784,-0.53136 -4.18835,-0.46885 -5.6574,0.12503l-1.25025,0.5001l-9.22062,-8.81429l-9.22062,-8.81429l0,-9.25188l0,-9.28314l-9.22062,-9.22062l-9.22062,-9.22062l0,-15.62818l0,-15.62818l-60.48104,-60.48104l-60.48104,-60.48104l0,-46.72825l0,-46.72825l-25.88026,-25.88026l-25.849,-25.849l-2.81307,0l-2.81307,0l26.66167,26.66167l-0.00002,-0.00001z" stroke="null"/>
   <path fill="#007fff" id="svg_15" d="m356.71713,-167.74524l24.28619,24.28619l0,48.75991l0,48.75991l60.63732,60.63732l60.63732,60.63732l0,13.44023l0,13.44023l9.53319,9.53319l9.53319,9.56444l0,12.18998l0,12.15872l5.28232,3.06312l5.28232,3.03187l6.25127,0l6.25127,0l4.25086,4.4384l4.25086,4.40715l0,37.69516l0,37.69516l4.46966,4.46966l4.4384,4.4384l58.91823,0l58.91823,0l5.46986,-5.46986l5.50112,-5.50112l1.15649,0.5001c1.56282,0.65638 4.46966,0.59387 6.00122,-0.12503c1.59407,-0.75015 3.40694,-2.62553 4.09458,-4.25086c0.84392,-2.00041 0.68764,-4.75097 -0.37508,-6.72012c-1.5003,-2.75056 -3.90704,-4.18835 -7.03268,-4.15709c-3.34443,0 -6.03248,1.81287 -7.34524,4.9385c-0.56261,1.40654 -0.56261,4.56343 0.03126,6.00122l0.5001,1.15649l-4.9385,4.9385l-4.9385,4.9385l-57.04284,0l-57.04284,0l-3.53197,-3.53197l-3.50071,-3.50071l0,-37.66391l0,-37.66391l-5.53237,-5.53237l-5.56363,-5.56363l-6.43881,0l-6.43881,0l-3.71951,-2.15669l-3.71951,-2.15669l-0.09377,-11.84616l-0.06251,-11.8149l-9.37691,-9.37691l-9.37691,-9.37691l0,-13.59651l0,-13.59651l-60.79361,-60.79361l-60.79361,-60.79361l0,-48.60363l0,-48.60363l-23.53603,-23.53603l-23.50478,-23.50478l-2.65679,0l-2.65679,0l24.31744,24.31744l0.00001,0.00004z" stroke="null"/>
   <path fill="#007fff" id="svg_16" d="m373.59556,-171.496l20.53542,20.53542l0,53.60465l0,53.60465l57.51169,57.51169l57.51169,57.51169l0,14.84677l0,14.84677l10.00203,10.00203l10.00203,10.00203l0,4.50091c0,3.84453 -0.09377,4.59468 -0.56261,5.28232c-2.06292,2.96935 -1.56282,7.65781 1.06272,10.12706c2.03166,1.87538 5.18855,2.59428 8.06414,1.78161c1.46905,-0.40633 3.75076,-2.46925 4.6572,-4.18835c0.90643,-1.78161 0.90643,-4.81348 -0.06251,-6.81388c-1.40654,-2.9381 -4.96976,-4.90725 -8.03288,-4.4384l-1.37528,0.18754l0,-4.00081l0,-4.00081l-10.00203,-10.00203l-10.00203,-10.00203l0,-15.00305l0,-15.00305l-57.51169,-57.51169l-57.51169,-57.51169l0,-53.60465l0,-53.60465l-19.62899,-19.62899l-19.59773,-19.59773l-2.81307,0l-2.81307,0l20.56668,20.56668l-0.00002,-0.00001z" stroke="null"/>
   <path fill="#007fff" id="svg_17" d="m456.33113,-162.9005l0,29.13092l-10.62716,10.62716l-10.62716,10.62716l0,14.84677l0,14.87802l-1.12523,1.09397c-1.62533,1.53156 -2.31297,3.15689 -2.31297,5.59489c0,2.438 0.68764,4.12584 2.31297,5.68866l1.12523,1.09397l0,9.97078l0,9.97078l47.04081,47.04081l47.04081,47.04081l0,22.66086l0,22.66086l22.03573,22.03573l22.03573,22.03573l0,21.37935l0,21.37935l3.28192,5.68866l3.28192,5.68866l0,11.68988l0,11.68988l6.75137,6.75137l6.75137,6.75137l0.09377,1.62533c0.31256,4.15709 3.75076,7.34524 7.97037,7.31399c4.56343,-0.03126 7.81409,-3.31317 7.81409,-7.90786c0,-3.28192 -1.65659,-5.93871 -4.53217,-7.22022c-1.43779,-0.65638 -4.68845,-0.78141 -5.93871,-0.21879c-0.78141,0.34382 -1.0002,0.18754 -6.28253,-5.09479l-5.43861,-5.43861l0,-11.18977l0,-11.18977l-3.12564,-5.40735l-3.12564,-5.40735l0,-22.00447l0,-22.00447l-22.03573,-22.03573l-22.03573,-22.03573l0,-22.66086l0,-22.66086l-47.04081,-47.04081l-47.04081,-47.04081l0,-8.03288l0,-8.00163l1.5003,-1.06272c4.37589,-3.18815 4.40715,-9.81449 0.03126,-12.97139l-1.53156,-1.09397l0,-12.84636l0,-12.87762l10.62716,-10.62716l10.62716,-10.62716l0,-30.69374l0,-30.72499l-3.75076,0l-3.75076,0l0,29.16218l0.00001,-0.00003z" stroke="null"/>
   <path fill="#007fff" id="svg_18" d="m526.0328,-105.17002l0,86.89266l17.81612,17.72235l17.84738,17.72235l-0.06251,43.38382l-0.03126,43.35256l0.68764,1.12523c0.93769,1.5003 2.87558,3.12564 4.34463,3.53197c1.78161,0.56261 4.37589,0.43759 5.81368,-0.21879c1.59407,-0.75015 3.40694,-2.62553 4.09458,-4.25086c0.31256,-0.7189 0.53136,-2.03166 0.53136,-3.15689c-0.03126,-5.06353 -4.87599,-8.8768 -9.62696,-7.56404l-1.7191,0.46885l0,-38.94542l0,-38.94542l-17.81612,-17.81612l-17.81612,-17.81612l0,-86.17377l0,-86.20502l-2.03166,0l-2.03166,0l0,86.89266z" stroke="null"/>
   <path fill="#007fff" id="svg_19" d="m554.16352,-103.826l0,88.20543l11.09601,11.09601l11.09601,11.09601l0,39.41426l0,39.44552l3.12564,5.40735l3.12564,5.40735l0,38.13275l0,38.13275l7.84534,7.8766c6.59509,6.62635 7.75158,7.90786 7.22022,8.06414c-0.93769,0.31256 -2.78182,2.25046 -3.56322,3.71951c-1.03146,2.03166 -0.96895,4.87599 0.21879,7.06394c1.53156,2.78182 3.90704,4.18835 7.06394,4.18835c3.31317,0 6.03248,-1.81287 7.34524,-4.9385c0.62513,-1.5003 0.56261,-4.71971 -0.15628,-6.25127c-0.62513,-1.40654 -3.00061,-3.71951 -4.12584,-4.06333c-0.40633,-0.12503 -4.59468,-4.03207 -9.25188,-8.68927l-8.53298,-8.50173l0,-37.72642l0,-37.72642l-3.28192,-5.71991l-3.28192,-5.71991l0,-39.69557l0,-39.69557l-11.09601,-11.09601l-11.09601,-11.09601l0,-87.26774l0,-87.29899l-1.87538,0l-1.87538,0l0,88.23668l-0.00001,0z" stroke="null"/>
   <path fill="#007fff" id="svg_20" d="m567.91631,-107.60801l0,84.48592l10.12706,10.15831l10.12706,10.15831l0.18754,15.62818c0.37508,31.35012 0.5001,118.05525 0.18754,126.36944c-0.31256,8.0954 -0.31256,8.22042 0.34382,9.53319c0.81267,1.56282 5.25107,6.03248 8.03288,8.12665l1.96915,1.43779l-0.87518,0.46885c-2.438,1.25025 -3.90704,3.9383 -3.90704,6.97017c-0.03126,3.56322 2.59428,6.81388 6.09499,7.59529c4.90725,1.12523 9.65821,-2.62553 9.68947,-7.62655c0,-1.06272 -0.21879,-2.40674 -0.5001,-3.06312c-0.78141,-1.87538 -3.2194,-4.18835 -6.93891,-6.6576c-4.34463,-2.90684 -8.18916,-6.22001 -9.47067,-8.15791c-0.93769,-1.37528 -1.0002,-1.62533 -0.78141,-3.06312c0.28131,-1.81287 0.25005,-131.55799 0,-142.37269l-0.18754,-7.03268l-10.15831,-10.15831l-10.18957,-10.18957l0,-83.54823l0,-83.51698l-1.87538,0l-1.87538,0l0,84.45467l-0.00002,-0.00001z" stroke="null"/>
   <path fill="#007fff" id="svg_21" d="m579.79373,-110.38983l0,81.64159l11.25229,11.25229l11.25229,11.25229l0,50.47901l0,50.47901l-2.65679,2.65679l-2.65679,2.65679l0,22.97342l0,22.97342l8.12665,8.12665l8.12665,8.12665l0,26.5679l0,26.59916l5.56363,3.18815c3.03187,1.75036 5.71991,3.31317 5.93871,3.46946c0.34382,0.21879 0.34382,0.43759 -0.09377,1.31277c-0.7189,1.34402 -0.7189,4.40715 0,6.1575c0.65638,1.62533 3.2194,4.00081 4.78222,4.4384c3.06312,0.84392 6.47007,-0.09377 8.43922,-2.31297c1.56282,-1.78161 2.00041,-3.12564 1.87538,-5.68866c-0.12503,-2.90684 -1.25025,-4.84473 -3.62574,-6.28253c-2.12543,-1.25025 -4.03207,-1.5003 -6.43881,-0.87518l-1.87538,0.5001l-5.31358,-3.06312l-5.34484,-3.06312l-0.15628,-26.50539l-0.15628,-26.47413l-8.03288,-8.06414l-8.06414,-8.03288l0,-21.09804l0,-21.09804l2.65679,-2.65679l2.65679,-2.68805l0,-52.32313l0,-52.35439l-11.09601,-11.09601l-11.09601,-11.09601l0,-80.89144l0,-80.86019l-2.03166,0l-2.03166,0l0,81.67285l0,0.00001z" stroke="null"/>
   <path fill="#007fff" id="svg_22" d="m589.79576,-112.42149l0,79.60993l10.3146,10.3146l10.3146,10.3146l0,59.07451l0,59.07451l-3.4382,3.4382l-3.4382,3.4382l0,15.31561l0,15.31561l10.62716,10.62716l10.62716,10.62716l0,1.5003c0,1.90664 0.68764,3.50071 2.12543,5.03227c1.62533,1.68784 3.25066,2.37548 5.68866,2.37548c2.438,0 4.06333,-0.68764 5.68866,-2.37548c1.53156,-1.62533 2.12543,-3.12564 2.12543,-5.50112c-0.03126,-4.53217 -3.2194,-7.72032 -7.75158,-7.75158c-2.28171,0 -3.56322,0.46885 -5.18855,1.90664l-1.18774,1.03146l-9.50193,-9.53319l-9.50193,-9.53319l0,-13.59651l0,-13.56526l3.4382,-3.4382l3.4382,-3.4382l0,-60.94989l0,-60.94989l-10.15831,-10.15831l-10.15831,-10.15831l0,-78.82852l0,-78.85978l-2.03166,0l-2.03166,0l0,79.64119l-0.00003,0z" stroke="null"/>
   <path fill="#007fff" id="svg_23" d="m600.11036,-117.1412l0,74.95273l12.18998,12.18998l12.18998,12.22123l-0.06251,66.04467l-0.09377,66.07593l-5.31358,3.03187l-5.31358,3.00061l-0.09377,9.84575l-0.06251,9.84575l5.37609,5.37609l5.40735,5.37609l8.15791,0l8.12665,0l3.18815,3.25066l3.18815,3.2194l0,11.37731l0,11.37731l-4.96976,4.96976c-3.03187,3.03187 -5.03227,4.81348 -5.1573,4.59468c-0.37508,-0.59387 -2.46925,-1.53156 -4.00081,-1.75036c-3.09438,-0.46885 -6.6576,1.46905 -8.06414,4.40715c-0.87518,1.75036 -0.93769,4.71971 -0.18754,6.53258c0.68764,1.62533 2.50051,3.50071 4.09458,4.25086c1.43779,0.68764 4.03207,0.78141 5.90745,0.21879c1.75036,-0.53136 4.31338,-3.09438 4.84473,-4.90725c0.21879,-0.75015 0.34382,-2.25046 0.28131,-3.31317l-0.09377,-1.93789l5.53237,-5.75117l5.53237,-5.75117l0.03126,-12.97139l0,-12.97139l-4.46966,-4.46966l-4.4384,-4.4384l-8.12665,0l-8.12665,0l-4.15709,-4.15709l-4.12584,-4.12584l0,-7.75158l0,-7.72032l1.03146,-0.62513c0.53136,-0.37508 3.00061,-1.78161 5.46986,-3.18815l4.4384,-2.56302l0,-68.01382l0,-68.01382l-12.0337,-12.00244l-12.0337,-12.0337l0,-74.29635l0,-74.32761l-2.03166,0l-2.03166,0l0,74.92148l0,0.00004z" stroke="null"/>
   <path fill="#007fff" id="svg_24" d="m611.05008,-119.92302l0,72.10841l11.87741,11.87741l11.87741,11.87741l0,68.76398l0,68.76398l-2.9381,2.9381l-2.9381,2.90684l0.90643,3.34443c0.5001,1.81287 0.90643,3.46946 0.90643,3.65699c0,0.18754 -0.53136,0.5001 -1.18774,0.68764c-3.2194,0.96895 -5.46986,4.00081 -5.43861,7.3765c0,2.56302 0.75015,4.28212 2.62553,5.96996c1.7191,1.53156 3.03187,2.03166 5.40735,2.03166c2.90684,0 6.09499,-2.15669 7.22022,-4.87599c0.62513,-1.5003 0.53136,-4.71971 -0.15628,-6.25127c-0.62513,-1.37528 -2.56302,-3.4382 -3.50071,-3.71951c-0.34382,-0.12503 -0.7189,-0.7189 -0.93769,-1.5003c-0.18754,-0.7189 -0.59387,-2.2192 -0.90643,-3.34443l-0.56261,-2.06292l2.62553,-2.78182l2.62553,-2.78182l0,-70.51433l0,-70.48308l-11.87741,-11.87741l-11.87741,-11.87741l0,-71.17072l0,-71.20197l-1.87538,0l-1.87538,0l0,72.13966l0.00001,0.00001z" stroke="null"/>
   <path fill="#007fff" id="svg_25" d="m622.9275,-122.42353l0,69.6079l11.40857,11.40857l11.40857,11.40857l0,86.5801l0,86.5801l8.15791,8.15791c7.31399,7.31399 8.0954,8.22042 7.47027,8.40796c-1.06272,0.34382 -3.09438,2.31297 -3.84453,3.71951c-0.90643,1.78161 -0.90643,5.1573 0.03126,6.93891c3.2194,6.18876 11.90867,5.84494 14.59672,-0.59387c1.31277,-3.15689 0.06251,-7.31399 -2.81307,-9.22062c-0.87518,-0.56261 -5.68866,-5.12604 -10.68967,-10.15831l-9.15811,-9.12686l0,-86.5801l0,-86.5801l-11.40857,-11.40857l-11.40857,-11.40857l0,-68.67021l0,-68.70146l-1.87538,0l-1.87538,0l0,69.63915l-0.00002,-0.00001z" stroke="null"/>
   <path fill="#007fff" id="svg_26" d="m632.3044,-124.76775l0,67.26367l11.56485,11.56485l11.56485,11.56485l0,74.26509l0,74.26509l2.65679,4.62594l2.65679,4.62594l0,2.40674l0,2.40674l-1.219,0.84392c-4.03207,2.81307 -4.56343,8.3767 -1.15649,12.00244c1.62533,1.75036 3.15689,2.37548 5.6574,2.37548c2.62553,0 4.09458,-0.65638 6.00122,-2.7193c2.15669,-2.34423 2.59428,-5.68866 1.15649,-8.5955c-1.03146,-2.06292 -2.62553,-3.37569 -4.87599,-4.06333l-1.81287,-0.53136l0,-2.68805l0,-2.7193l-2.50051,-4.31338l-2.50051,-4.34463l0,-74.70268l0,-74.70268l-11.56485,-11.56485l-11.56485,-11.56485l0,-66.48226l0,-66.51352l-2.03166,0l-2.03166,0l0,67.29493l0,0.00001z" stroke="null"/>
   <path fill="#007fff" id="svg_27" d="m666.37383,-144.14669l0,47.88473l-9.65821,9.65821l-9.68947,9.68947l10.00203,10.0958l9.97078,10.12706l0,77.9846l0,77.95334l4.00081,6.81388l3.96956,6.78263l0.09377,33.06922l0.06251,33.10048l-4.71971,4.96976l-4.75097,4.96976l-1.75036,0c-6.90765,0.03126 -10.3146,8.31419 -5.53237,13.37772c1.62533,1.75036 3.15689,2.37548 5.6574,2.37548c3.2194,0.03126 5.81368,-1.5003 7.22022,-4.25086c0.68764,-1.34402 0.90643,-4.25086 0.43759,-5.71991l-0.37508,-1.15649l5.50112,-5.53237l5.50112,-5.50112l0,-35.85104l0,-35.81978l-3.90704,-6.78263l-3.90704,-6.75137l0,-78.54721l0,-78.51596l-8.43922,-8.40796c-4.62594,-4.62594 -8.43922,-8.56424 -8.43922,-8.75178c0,-0.15628 3.65699,-3.87579 8.12665,-8.22042l8.12665,-7.93911l0,-49.51006l0,-49.51006l-3.75076,0l-3.75076,0l0,47.91599z" stroke="null"/>
   <path fill="#007fff" id="svg_29" d="m766.70672,-185.03l0,7.03268l-12.12746,0l-12.09621,0l-18.6913,18.6913l-18.66004,18.66004l0,145.65461l0,145.65461l6.53258,6.53258l6.53258,6.50132l-0.15628,1.93789c-0.21879,2.59428 0.28131,4.18835 1.84412,5.96996c1.75036,1.96915 3.25066,2.65679 6.03248,2.65679c1.87538,0 2.438,-0.15628 3.84453,-0.93769c2.03166,-1.18774 3.34443,-2.96935 3.81328,-5.1573c0.43759,-2.03166 0.18754,-3.59448 -0.87518,-5.56363c-1.5003,-2.78182 -4.78222,-4.53217 -7.65781,-4.06333l-1.219,0.18754l-5.59489,-5.59489l-5.59489,-5.59489l0,-142.52897l0,-142.52897l16.50335,-16.50335l16.4721,-16.4721l14.31541,0l14.28415,0l0,-10.78344l0,-10.78344l-3.75076,0l-3.75076,0l0,7.03268z" stroke="null"/>
   <path fill="#007fff" id="svg_30" d="m777.95901,-109.45214l0,82.57928l-20.47291,20.47291l-20.47291,20.44165l0,83.32944l0,83.29818l-4.25086,4.25086l-4.21961,4.25086l-1.59407,-0.43759c-3.75076,-0.96895 -7.62655,1.06272 -9.18937,4.75097c-0.56261,1.37528 -0.56261,4.56343 0,5.90745c0.62513,1.53156 2.65679,3.62574 4.09458,4.28212c1.56282,0.7189 4.75097,0.78141 6.34504,0.12503c1.31277,-0.56261 3.34443,-2.40674 4.00081,-3.62574c0.81267,-1.59407 1.09397,-3.59448 0.7189,-5.31358l-0.34382,-1.62533l5.03227,-5.03227l5.03227,-5.03227l0,-83.45446l0,-83.45446l20.47291,-20.47291l20.47291,-20.47291l0,-83.67326l0,-83.70451l-2.81307,0l-2.81307,0l0,82.61054z" stroke="null"/>
   <path fill="#007fff" id="svg_31" d="m787.64848,-104.88871l0,87.17397l-21.4106,21.22306l-21.4106,21.25432l0,61.7313l0,61.70004l4.06333,7.03268l4.06333,7.00142l0,16.2533l0,16.2533l13.40898,13.40898l13.37772,13.37772l-0.90643,1.81287c-2.75056,5.31358 0.81267,11.53359 6.62635,11.56485c2.46925,0 3.78202,-0.46885 5.40735,-1.87538c1.93789,-1.7191 2.7193,-3.4382 2.7193,-5.96996c0,-2.34423 -0.68764,-4.00081 -2.2192,-5.53237c-1.31277,-1.31277 -2.31297,-1.84412 -4.40715,-2.28171c-1.65659,-0.34382 -1.75036,-0.43759 -15.00305,-13.65903l-13.37772,-13.34646l0,-15.7532l0,-15.7532l-4.06333,-7.06394l-4.06333,-7.06394l0,-59.69963l0,-59.69963l21.56688,-21.56688l21.56688,-21.56688l0,-88.04915l0,-88.0804l-2.96935,0l-2.96935,0l0,87.17397l-0.00001,-0.00002z" stroke="null"/>
   <path fill="#007fff" id="svg_32" d="m848.59837,-168.62042l0,23.44226l-25.00508,0l-25.00508,0l0,69.67041l0,69.67041l-20.94176,21.03553l-20.9105,21.06678l-0.03126,55.94887l0,55.91762l5.46986,5.50112l5.46986,5.50112l0,13.15892l0,13.15892l5.56363,3.18815c3.03187,1.78161 5.56363,3.25066 5.62614,3.28192c0.06251,0.06251 -0.12503,0.62513 -0.40633,1.28151c-0.7189,1.68784 -0.68764,4.68845 0.06251,6.40755c1.31277,2.96935 3.9383,4.62594 7.25147,4.6572c2.46925,0 4.18835,-0.75015 5.81368,-2.56302c1.53156,-1.68784 2.03166,-2.96935 2.03166,-5.31358c-0.03126,-4.4384 -3.12564,-7.65781 -7.62655,-7.8766c-1.84412,-0.12503 -2.31297,-0.31256 -7.34524,-3.18815l-5.34484,-3.09438l0,-12.65882l0,-12.62757l-5.46986,-5.50112l-5.46986,-5.50112l0,-53.76093l0,-53.72967l20.94176,-20.94176l20.94176,-20.94176l0,-68.04508l0,-68.07634l25.00508,0l25.00508,0l0,-26.25534l0,-26.25534l-2.81307,0l-2.81307,0l0,23.44226l0.00001,0.00003z" stroke="null"/>
   <path fill="#007fff" id="svg_33" d="m857.97527,-163.15055l0,28.91213l-24.53624,0l-24.53624,0l0,70.73313l0,70.70187l-21.25432,21.25432l-21.25432,21.25432l0,46.41568l0,46.41568l8.31419,8.31419l8.31419,8.31419l-0.87518,0.56261c-1.28151,0.84392 -2.34423,2.03166 -2.96935,3.4382c-0.78141,1.65659 -0.78141,4.87599 0,6.56383c2.68805,5.93871 11.34606,6.18876 14.22164,0.40633c1.06272,-2.09418 1.12523,-5.12604 0.18754,-6.97017c-0.34382,-0.68764 -0.62513,-1.43779 -0.62513,-1.68784c0,-0.28131 -4.62594,-5.12604 -10.3146,-10.8147l-10.3146,-10.3146l0,-44.38402l0,-44.38402l21.09804,-21.09804l21.09804,-21.06678l0,-69.01403l0,-69.01403l24.53624,0l24.53624,0l0,-31.7252l0,-31.7252l-2.81307,0l-2.81307,0l0,28.91213l0,0.00002z" stroke="null"/>
   <path fill="#007fff" id="svg_34" d="m866.41449,-157.99326l0,34.06942l-21.72317,0l-21.72317,0l0,71.04569l0,71.01443l-19.53522,19.53522l-19.53522,19.53522l0,35.06963l0,35.10088l-1.15649,0.46885c-3.03187,1.28151 -4.84473,3.9383 -4.87599,7.1577c-0.03126,4.6572 3.28192,8.00163 7.90786,8.00163c2.53176,0 4.12584,-0.68764 5.71991,-2.50051c1.59407,-1.75036 2.09418,-3.00061 2.09418,-5.37609c0,-2.438 -0.81267,-4.18835 -2.68805,-5.84494l-1.37528,-1.219l0,-34.16319l0,-34.19445l19.53522,-19.53522l19.53522,-19.53522l0,-69.45162l0,-69.48287l21.72317,0l21.72317,0l0,-36.8825l0,-36.8825l-2.81307,0l-2.81307,0l0,34.06942l0,0.00002z" stroke="null"/>
   <path fill="#007fff" id="svg_35" d="m878.2919,-153.77365l0,38.28903l-20.31663,0l-20.31663,0l0,73.5462l0,73.51494l-19.22266,19.22266l-19.22266,19.22266l0,56.41772l0,56.41772l5.6574,5.6574l5.62614,5.62614l-0.37508,1.5003c-1.31277,5.18855 3.09438,10.28334 8.47047,9.78324c4.28212,-0.37508 7.12645,-3.59448 7.18896,-8.06414c0,-3.31317 -2.53176,-6.62635 -5.71991,-7.50152c-1.25025,-0.34382 -3.71951,-0.25005 -5.06353,0.18754c-0.5001,0.15628 -1.56282,-0.75015 -5.37609,-4.62594l-4.78222,-4.78222l0,-54.07349l0,-54.04223l19.22266,-19.22266l19.22266,-19.22266l0,-71.95212l0,-71.98338l20.31663,0l20.31663,0l0,-41.1021l0,-41.1021l-2.81307,0l-2.81307,0l0,38.28903l0,-0.00002z" stroke="null"/>
   <path fill="#007fff" id="svg_36" d="m889.54419,-148.30379l0,43.75889l-19.12889,0.06251l-19.16014,0.09377l-0.09377,71.1082l-0.06251,71.1082l-18.75381,18.75381l-18.75381,18.75381l0.06251,27.03675l0.09377,27.03675l-1.18774,1.06272c-1.87538,1.68784 -2.53176,3.25066 -2.53176,5.81368c0,2.438 0.46885,3.68825 2.12543,5.40735c4.81348,5.1573 13.65903,1.75036 13.62777,-5.21981c-0.03126,-3.40694 -1.5003,-5.78243 -4.40715,-7.12645l-1.81287,-0.87518l0,-25.63021l-0.03126,-25.63021l18.59753,-18.59753l18.59753,-18.59753l0.06251,-69.3891l0.09377,-69.3891l19.16014,-0.09377l19.12889,-0.06251l0,-46.57197l0,-46.57197l-2.81307,0l-2.81307,0l0,43.75889l0,0.00001z" stroke="null"/>
   <path fill="#007fff" id="svg_37" d="m900.48392,-142.36508l0,49.6976l-18.66004,0.06251l-18.6913,0.09377l-0.09377,68.92026l-0.06251,68.92026l-16.2533,16.2533l-16.2533,16.2533l0,35.60099l0,35.63224l-5.21981,5.25107c-4.84473,4.84473 -5.31358,5.25107 -6.34504,5.25107c-3.62574,0 -7.00142,2.46925 -7.97037,5.78243c-0.93769,3.12564 -0.06251,5.93871 2.46925,8.18916c5.12604,4.53217 13.00264,0.87518 13.00264,-6.03248c0,-1.40654 -0.18754,-2.28171 -0.78141,-3.4382l-0.78141,-1.53156l5.62614,-5.62614l5.62614,-5.62614l0,-35.47596l0,-35.47596l16.2533,-16.2533l16.2533,-16.2533l0,-67.26367l0,-67.29493l18.75381,0l18.75381,0l0,-52.66695l0,-52.66695l-2.81307,0l-2.81307,0l0,49.6976l0.00001,-0.00002z" stroke="null"/>
   <path fill="#007fff" id="svg_38" d="m915.79953,-142.74016l0,49.29127l-6.81388,6.81388l-6.78263,6.78263l-11.65862,0l-11.62736,0l0,64.01301l0,63.98175l-9.68947,9.68947l-9.68947,9.68947l0,26.41162l0,26.41162l-4.03207,4.03207l-4.06333,4.06333l-2.28171,0.03126c-2.59428,0.03126 -4.15709,0.68764 -5.75117,2.40674c-1.62533,1.7191 -2.12543,2.96935 -2.12543,5.40735c0,2.438 0.5001,3.68825 2.12543,5.40735c3.75076,4.03207 10.37711,3.03187 12.8151,-1.87538c0.96895,-1.90664 1.06272,-4.09458 0.31256,-6.31378l-0.53136,-1.5003l4.75097,-4.75097l4.71971,-4.71971l0,-26.41162l0,-26.41162l9.53319,-9.53319l9.53319,-9.53319l0,-62.41894l0,-62.45019l10.0958,0l10.06455,0l8.3767,-8.3767l8.34545,-8.34545l0,-50.57278l0,-50.54152l-2.81307,0l-2.81307,0l0,49.32252l-0.00001,0z" stroke="null"/>
   <path fill="#007fff" id="svg_39" d="m924.86387,-139.14567l0,52.88575l-10.0958,10.0958l-10.06455,10.06455l-7.43901,0l-7.40776,0l0,60.26225l0,60.23099l-10.78344,10.78344l-10.78344,10.78344l0,29.38097l0,29.38097l-9.84575,9.84575l-9.84575,9.84575l0,2.65679l0,2.68805l-1.31277,0.34382c-3.06312,0.81267 -5.34484,3.96956 -5.31358,7.3765c0,2.59428 0.75015,4.31338 2.56302,5.93871c5.18855,4.6572 13.12767,1.09397 13.12767,-5.87619c0,-2.25046 -0.7189,-4.00081 -2.31297,-5.56363c-1.06272,-1.09397 -1.12523,-1.25025 -1.12523,-3.25066l0,-2.12543l9.84575,-9.84575l9.84575,-9.84575l0,-29.38097l0,-29.38097l10.78344,-10.78344l10.78344,-10.75219l0,-58.54315l0,-58.54315l5.84494,0l5.87619,0l11.62736,-11.62736l11.65862,-11.65862l0,-54.136l0,-54.16726l-2.81307,0l-2.81307,0l0,52.91701l0.00001,-0.00002z" stroke="null"/>
   <path fill="#007fff" id="svg_40" d="m937.02259,-136.20758l0,55.88636l-13.00264,13.28395c-8.00163,8.15791 -13.22144,13.25269 -13.50274,13.19018c-3.65699,-0.7189 -5.96996,-0.25005 -8.12665,1.68784c-1.84412,1.65659 -2.59428,3.37569 -2.59428,5.90745c-0.03126,3.03187 1.31277,5.34484 4.00081,6.90765c4.12584,2.40674 9.68947,0.31256 11.28354,-4.25086c0.5001,-1.5003 2.03166,-3.18815 15.94074,-17.4723l15.40938,-15.81571l0,-57.60546l0,-57.5742l-4.68845,0l-4.68845,0l-0.03126,55.8551z" stroke="null"/>
   <path fill="#007fff" id="svg_41" d="m958.30817,-132.8944l0,59.13702l-10.25208,10.25208l-10.22083,10.22083l-2.18794,0c-1.84412,0 -2.438,0.15628 -3.81328,0.93769c-3.06312,1.75036 -4.62594,5.21981 -3.87579,8.56424c0.93769,4.25086 5.12604,7.03268 9.22062,6.12625c2.00041,-0.43759 2.9381,-0.96895 4.31338,-2.40674c1.37528,-1.40654 2.12543,-3.06312 2.12543,-4.68845c0,-1.15649 0.43759,-1.62533 12.0337,-13.22144l12.0337,-12.0337l0,-61.0124l0,-61.04366l-4.68845,0l-4.68845,0l0,59.16828l-0.00001,0z" stroke="null"/>
   <path fill="#007fff" id="svg_42" d="m972.06096,-113.29667l0,78.76601l-36.10109,0l-36.10109,0l0,46.82202l0,46.79076l-10.15831,10.15831l-10.15831,10.15831l0,29.69354l0,29.69354l-7.81409,7.81409l-7.81409,7.78283l0,11.43983l0,11.40857l-21.22306,21.22306l-21.22306,21.22306l-1.0002,-0.37508c-4.15709,-1.43779 -9.22062,1.18774 -10.34585,5.37609c-1.5003,5.59489 3.68825,11.15852 9.22062,9.90826c2.12543,-0.46885 3.06312,-1.03146 4.50091,-2.65679c1.53156,-1.75036 2.09418,-3.59448 1.84412,-6.18876l-0.18754,-1.96915l22.03573,-22.03573l22.00447,-22.00447l0,-11.56485l0,-11.53359l7.97037,-8.00163l7.97037,-7.97037l0,-29.53725l0,-29.53725l10.00203,-10.00203l10.00203,-10.00203l0,-45.22794l0,-45.2592l36.10109,0l36.10109,0l0,-81.57908l0,-81.57908l-2.81307,0l-2.81307,0l0,78.76601l0,-0.00001z" stroke="null"/>
   <path fill="#007fff" id="svg_43" d="m983.62581,-111.4838l0,80.54762l-5.40735,5.40735l-5.37609,5.37609l-20.69171,0l-20.66045,0l-1.62533,-0.84392c-6.62635,-3.4382 -13.97159,3.87579 -10.5959,10.56465c0.78141,1.53156 2.34423,3.06312 3.87579,3.75076c1.43779,0.65638 4.06333,0.75015 5.84494,0.21879c1.5003,-0.43759 3.78202,-2.37548 4.31338,-3.68825l0.37508,-0.93769l21.6294,0l21.59814,0l7.90786,-7.90786l7.8766,-7.8766l0,-82.61054l0,-82.57928l-4.53217,0l-4.53217,0l0,80.57888l-0.00002,0z" stroke="null"/>
   <path fill="#007fff" id="svg_44" d="m997.69117,-105.38881l0,86.64261l-9.47067,9.47067l-9.43942,9.43942l-32.81917,0.06251l-32.81917,0.09377l-0.09377,31.41263l-0.06251,31.41263l-10.62716,10.62716l-10.62716,10.62716l0,31.7252l0,31.7252l5.96996,5.96996l5.96996,6.00122l-0.53136,1.62533c-2.06292,6.22001 3.71951,11.87741 10.18957,9.93952c3.84453,-1.12523 6.1575,-5.84494 4.90725,-10.00203c-0.40633,-1.40654 -2.40674,-3.81328 -3.68825,-4.46966c-1.46905,-0.75015 -3.65699,-1.12523 -4.96976,-0.81267l-1.219,0.25005l-5.50112,-5.50112l-5.50112,-5.50112l0,-29.38097l0,-29.38097l10.78344,-10.78344l10.78344,-10.75219l0,-29.63102l0,-29.63102l31.19384,0l31.16258,0l11.03349,-11.03349l11.00224,-11.00224l0,-87.92412l0,-87.89286l-2.81307,0l-2.81307,0l0,86.67387l0.00001,0.00001z" stroke="null"/>
   <path fill="#007fff" id="svg_45" d="m1005.81783,-80.9776l0,111.08508l-12.72134,12.5338l-12.75259,12.5338l-20.16035,0l-20.16035,0l-15.84697,15.84697l-15.87823,15.87823l0,18.94135l0,18.97261l-1.219,0.5001c-1.78161,0.68764 -3.46946,2.31297 -4.28212,4.09458c-2.438,5.18855 1.43779,11.09601 7.22022,11.09601c7.31399,0 10.75219,-9.06434 5.18855,-13.81531l-1.28151,-1.09397l0,-18.09743l0,-18.09743l14.31541,-14.31541l14.28415,-14.28415l20.16035,0l20.16035,0l14.31541,-14.31541l14.28415,-14.28415l0,-112.1478l0,-112.11654l-2.81307,0l-2.81307,0l0,111.08508l0.00001,-0.00001z" stroke="null"/>
   <path fill="#007fff" id="svg_46" d="m1017.07011,-77.10181l0,114.92961l-15.72195,15.72195l-15.69069,15.69069l-22.97342,0l-23.00468,0l-9.18937,9.22062l-9.22062,9.22062l-0.15628,14.56546l-0.15628,14.56546l6.97017,6.75137c5.09479,4.90725 6.90765,6.84514 6.75137,7.22022c-0.5001,1.28151 -0.5001,4.4384 0,5.81368c1.25025,3.25066 4.90725,5.46986 8.34545,5.06353c5.40735,-0.65638 8.68927,-6.62635 6.25127,-11.40857c-0.7189,-1.40654 -2.31297,-3.03187 -3.59448,-3.71951c-1.219,-0.65638 -4.12584,-0.87518 -5.6574,-0.43759l-1.25025,0.34382l-6.00122,-6.03248l-6.03248,-6.00122l0,-12.18998l0,-12.18998l7.59529,-7.59529l7.56404,-7.56404l22.97342,0l22.97342,0l17.59733,-17.56607l17.56607,-17.59733l0,-115.8673l0,-115.89856l-2.96935,0l-2.96935,0l0,114.96087l-0.00001,0.00002z" stroke="null"/>
   <path fill="#007fff" id="svg_47" d="m1030.82291,-72.56964l0,119.46178l-27.2868,27.2868l-27.25554,27.25554l-13.534,0l-13.50274,0l0,-0.87518c0,-1.34402 -1.34402,-3.87579 -2.65679,-5.03227c-1.65659,-1.46905 -3.12564,-2.00041 -5.31358,-2.00041c-3.18815,0 -5.87619,1.7191 -7.22022,4.62594c-2.40674,5.1573 1.43779,11.09601 7.18896,11.09601c1.87538,0 4.81348,-1.0002 5.31358,-1.84412c0.15628,-0.25005 4.90725,-0.34382 16.22205,-0.34382l16.00325,0l28.84961,-28.84961l28.81836,-28.81836l0,-120.74329l0,-120.71204l-2.81307,0l-2.81307,0l0,119.49304l0,-0.00001z" stroke="null"/>
   <path fill="#007fff" id="svg_48" d="m1040.51238,-67.09978l0,124.93165l-16.94094,16.90969c-16.28456,16.22205 -17.03471,16.90969 -18.53502,17.28476c-3.46946,0.81267 -5.81368,3.59448 -6.03248,7.06394c-0.15628,2.28171 0.25005,3.68825 1.5003,5.43861c2.06292,2.81307 6.09499,3.90704 9.31439,2.53176c1.78161,-0.78141 3.62574,-2.59428 4.37589,-4.34463c1.0002,-2.37548 0.40633,-6.31378 -1.28151,-8.0954l-0.65638,-0.7189l16.94094,-16.94094l16.94094,-16.94094l0,-126.05687l0,-126.02562l-2.81307,0l-2.81307,0l0,124.9629l0.00001,-0.00001z" stroke="null"/>
   <path fill="#007fff" id="svg_49" d="m1054.26517,-61.00479l0,131.02663l-29.47474,29.47474l-29.44348,29.44348l-7.68906,0l-7.72032,0l-1.03146,-0.96895c-1.53156,-1.43779 -2.7193,-1.93789 -5.03227,-2.09418c-1.84412,-0.12503 -2.34423,-0.03126 -3.81328,0.68764c-3.15689,1.53156 -4.75097,4.25086 -4.50091,7.65781c0.18754,2.37548 0.65638,3.46946 2.28171,5.09479c1.75036,1.7191 3.09438,2.28171 5.62614,2.25046c1.65659,0 2.50051,-0.15628 3.46946,-0.65638c1.7191,-0.90643 3.50071,-3.03187 4.00081,-4.78222l0.40633,-1.40654l8.18916,-0.15628l8.15791,-0.15628l31.10007,-31.10007l31.10007,-31.10007l0,-132.15186l0,-132.12061l-2.81307,0l-2.81307,0l0,131.05789z" stroke="null"/>
   <path fill="#007fff" id="svg_50" d="m1064.89233,-58.348l0,133.68342l-33.2255,33.2255l-33.19425,33.19425l-4.56343,0l-4.56343,0l-7.56404,7.62655c-6.75137,6.78263 -7.72032,7.62655 -8.75178,7.78283c-4.84473,0.62513 -7.97037,5.56363 -6.53258,10.28334c0.46885,1.56282 2.438,3.81328 4.12584,4.71971c1.68784,0.87518 5.12604,0.93769 6.81388,0.12503c4.56343,-2.25046 6.00122,-8.03288 3.00061,-12.09621l-0.68764,-0.96895l5.90745,-5.90745l5.93871,-5.93871l4.68845,0l4.68845,0l34.78832,-34.78832l34.75706,-34.75706l0,-134.96494l0,-134.93368l-2.81307,0l-2.81307,0l0,133.71468l0.00002,0.00001z" stroke="null"/>
   <path fill="#007fff" id="svg_51" d="m1075.83206,-55.22237l0,136.80906l-46.9783,46.9783l-46.94704,46.94704l-9.53319,-0.06251l-9.53319,-0.09377l-4.40715,-7.65781l-4.4384,-7.65781l-2.56302,-0.09377c-2.34423,-0.09377 -2.7193,-0.18754 -3.62574,-0.96895c-1.56282,-1.40654 -3.56322,-2.03166 -5.75117,-1.81287c-6.72012,0.59387 -9.5957,8.65801 -4.78222,13.44023c1.65659,1.68784 3.03187,2.25046 5.56363,2.2192c1.62533,0 2.50051,-0.15628 3.46946,-0.65638c1.78161,-0.93769 3.50071,-2.96935 3.9383,-4.62594c0.21879,-0.78141 0.46885,-1.40654 0.56261,-1.40654c0.12503,0 2.15669,3.37569 4.50091,7.50152l4.31338,7.50152l12.37752,0l12.40877,0l48.54112,-48.54112l48.50986,-48.50986l0,-138.09057l0,-138.05931l-2.81307,0l-2.81307,0l0,136.84032l0,0.00002z" stroke="null"/>
   <path fill="#007fff" id="svg_52" d="m1087.39691,-151.27314l0,40.78954l19.4102,0l19.4102,0l5.12604,2.87558l5.09479,2.90684l0.03126,72.67102l0,72.67102l-71.8271,71.8271l-71.79584,71.79584l-35.35094,0l-35.35094,0l-4.34463,4.40715c-2.37548,2.40674 -10.50213,10.43962 -18.00366,17.84738l-13.65903,13.44023l-1.75036,-0.84392c-1.5003,-0.75015 -2.00041,-0.84392 -4.03207,-0.7189c-1.96915,0.09377 -2.53176,0.25005 -3.68825,1.03146c-3.65699,2.59428 -4.71971,7.28273 -2.438,10.87721c4.09458,6.43881 13.78405,4.25086 14.59672,-3.31317l0.15628,-1.62533l17.56607,-17.59733l17.53481,-17.56607l35.31968,0l35.31968,0l73.70248,-73.70248l73.67122,-73.67122l0,-75.39032l0,-75.35907l-7.09519,-4.09458l-7.12645,-4.09458l-17.40979,0l-17.44104,0l0,-37.97647l0,-37.97647l-2.81307,0l-2.81307,0l0,40.78954z" stroke="null"/>
   <path fill="#007fff" id="svg_53" d="m1211.79719,-103.66971l0,88.36171l-105.58396,105.58396l-105.55271,105.55271l-20.62919,0l-20.62919,0l-6.25127,6.25127l-6.25127,6.25127l-9.68947,0l-9.68947,0l-5.28232,5.28232l-5.28232,5.31358l-0.87518,-0.46885c-4.75097,-2.438 -10.40837,0.18754 -11.56485,5.37609c-0.75015,3.34443 0.81267,6.81388 3.87579,8.56424c1.37528,0.78141 1.96915,0.93769 3.75076,0.93769c1.15649,0 2.56302,-0.18754 3.15689,-0.43759c2.78182,-1.15649 4.87599,-4.31338 4.87599,-7.3765l0,-1.7191l4.78222,-4.78222l4.75097,-4.75097l9.68947,0l9.68947,0l6.25127,-6.25127l6.25127,-6.25127l20.62919,0l20.62919,0l107.27181,-107.42809l107.27181,-107.45934l0,-89.48694l0.03126,-89.45568l-2.81307,0l-2.81307,0l0,88.39297l-0.00002,0.00001z" stroke="null"/>
   <path fill="#007fff" id="svg_54" d="m1226.80024,-71.66321l0,120.43073l-23.03593,23.03593l-23.06719,23.06719l-29.06841,0l-29.06841,0l-55.94887,55.94887l-55.94887,55.94887l-22.66086,0l-22.66086,0l-7.68906,7.68906l-7.65781,7.65781l-0.75015,-1.06272c-0.90643,-1.31277 -2.81307,-2.62553 -4.53217,-3.06312c-3.37569,-0.90643 -7.22022,0.90643 -9.00183,4.25086c-0.93769,1.75036 -0.93769,5.12604 0,6.90765c2.34423,4.4384 7.59529,5.81368 11.72113,3.03187c1.28151,-0.87518 2.62553,-2.7193 2.9381,-4.06333c0.12503,-0.59387 2.87558,-3.56322 8.53298,-9.25188l8.31419,-8.34545l22.69211,0l22.69211,0l55.69882,-55.79259l55.66756,-55.79259l29.0059,0l28.97464,0l24.31744,-24.28619l24.28619,-24.31744l0,-121.18088l0,-121.21214l-1.87538,0l-1.87538,0l0,120.39947l0.00001,0.00002z" stroke="null"/>
   <path fill="#007fff" id="svg_55" d="m1240.24048,-67.25606l0,124.77536l-90.58091,90.58091l-90.54965,90.54965l-64.38809,0l-64.38809,0l-6.06373,6.06373l-6.09499,6.09499l-0.93769,-0.81267c-1.46905,-1.219 -2.78182,-1.65659 -5.09479,-1.65659c-1.78161,0 -2.37548,0.15628 -3.78202,0.93769c-7.06394,4.06333 -4.25086,14.69049 3.90704,14.69049c1.09397,0 2.438,-0.18754 3.03187,-0.43759c2.78182,-1.15649 4.87599,-4.31338 4.87599,-7.3765l0,-1.7191l5.81368,-6.03248l5.81368,-6.00122l64.51311,0l64.51311,0l91.58111,-91.45609l91.58111,-91.48735l0,-125.74431l0,-125.77557l-1.87538,0l-1.87538,0l0,124.80662l0.00002,0.00003z" stroke="null"/>
   <path fill="#007fff" id="svg_56" d="m1252.11789,-65.84953l0,126.1819l-96.98846,96.98846l-96.95721,96.95721l-37.72642,0l-37.69516,0l-0.37508,-1.06272c-0.5001,-1.5003 -2.28171,-3.46946 -3.90704,-4.25086c-1.93789,-0.93769 -4.9385,-0.93769 -6.84514,0c-1.75036,0.81267 -3.81328,3.12564 -4.25086,4.6572c-0.53136,1.90664 -0.37508,4.12584 0.43759,5.84494c2.90684,6.25127 11.87741,5.96996 14.56546,-0.5001l0.37508,-0.93769l38.66411,0l38.63285,0l98.05118,-98.05118l98.08244,-98.08244l0,-126.96331l0,-126.99457l-2.03166,0l-2.03166,0l0,126.21316l-0.00002,0z" stroke="null"/>
   <path fill="#007fff" id="svg_57" d="m1265.24556,-62.88017l0,129.15125l-102.77089,102.77089l-102.73963,102.73963l-49.85388,0l-49.85388,0l-5.34484,-5.34484l-5.37609,-5.37609l0.75015,-1.59407c1.31277,-2.84433 0.87518,-5.81368 -1.219,-8.18916c-1.81287,-2.06292 -3.34443,-2.78182 -6.00122,-2.75056c-3.25066,0.03126 -5.6574,1.53156 -7.22022,4.50091c-0.81267,1.53156 -0.78141,5.03227 0.03126,6.68886c0.68764,1.46905 2.28171,3.09438 3.65699,3.81328c1.28151,0.65638 4.15709,0.90643 5.71991,0.46885l1.25025,-0.34382l5.93871,5.93871l5.93871,5.93871l51.72926,0l51.72926,0.03126l103.67732,-103.86486l103.67732,-103.86486l0.03126,-129.96392l0,-129.93266l-1.87538,0l-1.87538,0l0,129.18251l0.00001,-0.00002z" stroke="null"/>
   <path fill="#007fff" id="svg_58" d="m1377.76843,-88.82295l0,103.20848l-146.68607,146.68607l-146.65481,146.65481l-50.01016,0l-50.01016,0l-2.68805,2.68805l-2.7193,2.7193l-1.28151,-0.53136c-5.03227,-2.00041 -10.65842,1.93789 -10.65842,7.43901c0.03126,3.09438 1.59407,5.62614 4.50091,7.1577c1.68784,0.87518 5.1573,0.93769 6.75137,0.09377c1.53156,-0.78141 3.06312,-2.31297 3.84453,-3.78202c0.87518,-1.65659 0.93769,-5.12604 0.09377,-6.68886l-0.56261,-1.06272l1.96915,-1.96915l1.96915,-2.00041l50.10393,0l50.10393,0l147.99883,-147.87381l147.99883,-147.90507l0,-104.02114l0,-104.0524l-2.03166,0l-2.03166,0l0,103.23973l0.00001,0.00002z" stroke="null"/>
   <path fill="#007fff" id="svg_59" d="m1386.83277,-85.54103l0,106.4904l-146.21722,146.21722l-146.18597,146.18597l-46.10312,0l-46.10312,0l-9.68947,9.68947l-9.68947,9.68947l-6.56383,0l-6.56383,0l-7.97037,-7.97037l-7.97037,-7.97037l-1.59407,0c-1.56282,0 -1.59407,-0.03126 -2.15669,-1.25025c-0.68764,-1.5003 -2.56302,-3.28192 -4.18835,-4.00081c-1.43779,-0.59387 -4.56343,-0.62513 -6.00122,0c-3.78202,1.62533 -5.71991,5.68866 -4.56343,9.65821c1.0002,3.40694 3.96956,5.59489 7.53278,5.59489c3.28192,-0.03126 5.84494,-1.62533 7.22022,-4.53217c0.5001,-1.12523 1.0002,-1.7191 1.34402,-1.7191c0.28131,0 4.12584,3.59448 8.50173,7.97037l7.97037,7.97037l8.43922,0l8.40796,0l9.56444,-9.53319l9.53319,-9.53319l45.94684,0l45.94684,0l147.46748,-147.43622l147.43622,-147.46748l0,-107.27181l0,-107.30306l-1.87538,0l-1.87538,0l0,106.52165l-0.00002,0z" stroke="null"/>
   <path fill="#007fff" id="svg_60" d="m1394.02173,-84.29078l0,107.74065l-148.40517,148.40517l-148.37391,148.37391l-46.72825,0l-46.72825,0l-11.62736,11.62736c-10.28334,10.28334 -11.72113,11.59611 -12.18998,11.28354c-2.34423,-1.65659 -5.37609,-2.12543 -7.78283,-1.18774c-3.9383,1.5003 -5.96996,5.68866 -4.81348,9.90826c0.46885,1.65659 2.84433,4.15709 4.62594,4.84473c1.75036,0.65638 4.46966,0.68764 6.03248,0.03126c1.56282,-0.65638 3.31317,-2.31297 4.12584,-3.81328c0.56261,-1.03146 0.68764,-1.78161 0.65638,-3.84453l0,-2.56302l11.28354,-11.28354l11.28354,-11.25229l46.85327,0l46.88453,0l149.3116,-149.3116l149.34286,-149.34286l0,-108.67834l0,-108.7096l-1.87538,0l-1.87538,0l0,107.77191l0.00001,0.00001z" stroke="null"/>
   <path fill="#007fff" id="svg_61" d="m1403.7112,-82.44665l0,109.64729l-151.34326,151.34326l-151.37452,151.37452l-43.60261,0l-43.60261,0l-17.03471,17.03471l-17.03471,17.03471l-5.31358,0l-5.31358,0l-4.12584,-4.12584l-4.15709,-4.15709l0,-7.50152l0,-7.50152l-4.31338,-4.31338l-4.28212,-4.28212l-11.40857,0l-11.40857,0l-4.96976,-4.96976l-4.96976,-4.96976l0.37508,-1.0002c0.87518,-2.50051 0.21879,-5.59489 -1.59407,-7.65781c-1.62533,-1.84412 -3.40694,-2.65679 -5.81368,-2.65679c-3.25066,0 -5.59489,1.37528 -7.09519,4.12584c-2.2192,4.06333 -0.37508,9.28314 3.87579,11.12726c1.7191,0.7189 4.62594,0.62513 6.40755,-0.25005l1.5003,-0.7189l5.53237,5.53237l5.50112,5.50112l11.25229,0l11.25229,0l3.06312,3.06312l3.03187,3.03187l0,7.50152l0,7.50152l5.40735,5.40735l5.37609,5.37609l6.75137,0l6.72012,0l17.34728,-17.19099l17.31602,-17.15974l43.60261,-0.03126l43.60261,0l152.37472,-152.37472l152.37472,-152.37472l-0.09377,-110.49121l-0.06251,-110.49121l-1.87538,0l-1.87538,0l0,109.61603l-0.00002,0.00001z" stroke="null"/>
   <path fill="#007fff" id="svg_62" d="m1410.90017,-79.91489l0,112.11654l-152.78106,152.78106l-152.7498,152.7498l-45.00915,0l-45.00915,0l-16.2533,16.2533l-16.2533,16.2533l-8.5955,0l-8.56424,0l-11.12726,-11.09601l-11.09601,-11.09601l-27.69313,0l-27.69313,0l-0.18754,-0.87518c-0.09377,-0.46885 -0.65638,-1.56282 -1.219,-2.40674c-3.2194,-4.78222 -10.78344,-4.28212 -13.44023,0.90643c-0.90643,1.78161 -1.09397,4.53217 -0.40633,6.31378c2.438,6.3763 10.68967,7.1577 14.28415,1.34402l0.96895,-1.53156l26.91172,0l26.91172,0l11.09601,11.09601l11.09601,11.09601l10.3146,0l10.3146,0l16.09702,-16.2533l16.09702,-16.28456l45.00915,0.03126l45.00915,0l153.87503,-153.84377l153.84377,-153.87503l0,-112.89795l0,-112.92921l-1.87538,0l-1.87538,0l0,112.1478l-0.00001,0.00001z" stroke="null"/>
   <path fill="#007fff" id="svg_63" d="m1417.464,-79.28976l0,112.74167l-154.969,154.969l-154.93774,154.93774l-43.13377,0l-43.13377,0l-17.19099,17.19099l-17.19099,17.19099l-12.50254,0l-12.47128,0l-10.65842,-10.62716l-10.62716,-10.62716l-22.19201,0l-22.16075,0l-3.46946,3.4382l-3.50071,3.4382l-8.40796,0l-8.40796,0l-2.59428,-2.59428l-2.56302,-2.56302l0,-9.84575l0,-9.84575l5.75117,-5.75117l5.71991,-5.71991l1.28151,0.21879c1.84412,0.31256 4.46966,-0.53136 6.03248,-1.93789c4.25086,-3.84453 3.46946,-10.34585 -1.56282,-12.97139c-5.21981,-2.7193 -11.59611,1.12523 -11.59611,7.00142c0,1.37528 0.96895,4.09458 1.75036,5.00102c0.53136,0.56261 0.37508,0.78141 -5.28232,6.43881l-5.84494,5.84494l0,11.72113l0,11.72113l3.53197,3.53197l3.50071,3.50071l10.3146,0l10.3146,0l3.18815,-3.28192l3.15689,-3.28192l20.9105,0l20.87924,0l10.47088,10.47088l10.43962,10.47088l14.2529,0l14.22164,0l17.19099,-17.19099l17.19099,-17.19099l42.97749,-0.03126l42.97749,0l156.21926,-156.03172l156.188,-156.03172l0,-113.55433l0,-113.52308l-2.03166,0l-2.03166,0l0,112.77292l-0.00003,0.00002z" stroke="null"/>
   <path fill="#007fff" id="svg_64" d="m1423.40271,-44.43893l0,147.5925l-28.59956,28.59956l-28.59956,28.59956l0,9.12686c0,8.50173 -0.03126,9.15811 -0.53136,9.15811c-1.0002,0.03126 -3.34443,1.28151 -4.59468,2.438c-2.40674,2.31297 -3.34443,6.09499 -2.34423,9.43942c0.93769,3.12564 4.37589,5.84494 7.72032,6.1575c3.68825,0.34382 7.53278,-1.75036 9.18937,-5.03227c0.93769,-1.81287 1.09397,-4.96976 0.40633,-7.09519c-0.68764,-2.00041 -3.18815,-4.68845 -4.9385,-5.25107l-1.15649,-0.40633l0,-8.47047l0,-8.50173l28.75584,-28.75584l28.75584,-28.75584l0,-148.24889l0,-148.21763l-2.03166,0l-2.03166,0l0,147.62376l0,-0.00001z" stroke="null"/>
   <path fill="#007fff" id="svg_65" d="m1430.59167,-41.78214l0,150.24929l-23.75483,23.75483l-23.75483,23.75483l0,1.75036l0,1.75036l-1.68784,0.18754c-4.90725,0.5001 -8.31419,4.21961 -8.31419,9.12686c0,8.00163 9.62696,12.06495 15.40938,6.47007c2.06292,-1.96915 2.56302,-3.25066 2.56302,-6.47007c0,-3.31317 -0.53136,-4.59468 -2.78182,-6.6576c-1.34402,-1.25025 -1.43779,-1.40654 -1.43779,-2.96935l0,-1.62533l23.75483,-23.75483l23.75483,-23.75483l0,-151.0307l0,-151.06196l-1.87538,0l-1.87538,0l0,150.28055l0,-0.00002z" stroke="null"/>
   <path fill="#007fff" id="svg_66" d="m1438.71832,-39.43791l0,152.59352l-21.09804,21.09804l-21.09804,21.09804l0,11.56485l0,11.56485l-1.87538,0.03126c-4.75097,0.09377 -8.75178,4.21961 -8.75178,9.03309c0,2.53176 0.84392,4.50091 2.78182,6.43881c2.15669,2.15669 4.31338,2.96935 7.22022,2.68805c7.53278,-0.65638 10.93972,-10.34585 5.50112,-15.50315l-1.12523,-1.09397l0,-11.56485l0,-11.59611l21.09804,-21.09804l21.09804,-21.09804l0,-153.37493l0,-153.40618l-1.87538,0l-1.87538,0l0,152.62477l-0.00001,-0.00001z" stroke="null"/>
   <path fill="#007fff" id="svg_67" d="m1445.90728,-36.78112l0,155.25031l-16.72215,16.72215l-16.72215,16.72215l0,3.9383l0,3.9383l-1.219,0.37508c-1.68784,0.5001 -4.34463,2.96935 -5.21981,4.87599c-1.03146,2.18794 -1.03146,5.34484 0,7.50152c3.25066,6.8764 12.90887,7.03268 16.53461,0.31256c1.0002,-1.81287 0.96895,-6.31378 0,-8.15791c-0.90643,-1.7191 -3.59448,-4.09458 -5.12604,-4.53217l-1.219,-0.37508l0,-3.15689l0,-3.15689l16.87843,-16.87843l16.87843,-16.87843l0,-155.87544l0,-155.90669l-2.03166,0l-2.03166,0l0,155.28156l0,0.00001z" stroke="null"/>
   <path fill="#007fff" id="svg_68" d="m1454.03393,-27.87306l0,164.15837l-12.97139,12.97139l-12.97139,12.97139l0,8.03288l0,8.00163l-1.62533,0.21879c-5.18855,0.65638 -8.65801,4.75097 -8.31419,9.81449c0.18754,2.59428 1.0002,4.21961 3.09438,6.09499c2.87558,2.59428 6.90765,3.09438 10.28334,1.25025c5.40735,-2.9381 6.3763,-10.37711 1.90664,-14.65923l-1.28151,-1.219l0,-8.15791l0,-8.12665l12.8151,-12.8151l12.8151,-12.78385l0,-164.97103l0,-164.97103l-1.87538,0l-1.87538,0l0,164.18963l0.00001,-0.00001z" stroke="null"/>
   <path fill="#007fff" id="svg_70" d="m1507.4823,-66.9435l0,125.08793l14.06536,14.06536l14.06536,14.06536l0,203.94771l0,203.97896l7.03268,7.00142l7.03268,7.00142l0,16.44084l0,16.40959l-20.72296,20.72296l-20.69171,20.69171l-31.88148,0l-31.88148,0l-25.78649,25.78649l-25.78649,25.78649l-106.89673,0l-106.89673,0l-13.28395,-13.28395l-13.28395,-13.28395l-7.18896,0l-7.22022,0l-1.84412,-1.87538l-1.84412,-1.87538l-3.31317,0l-3.28192,0l-0.53136,-1.81287c-0.65638,-2.2192 -2.28171,-4.18835 -4.4384,-5.28232c-2.12543,-1.09397 -5.31358,-1.18774 -7.25147,-0.15628c-3.12564,1.62533 -4.81348,4.12584 -5.03227,7.53278c-0.21879,2.96935 0.65638,5.12604 2.84433,7.12645c2.37548,2.18794 5.28232,2.84433 8.40796,1.90664c1.56282,-0.46885 4.4384,-3.06312 4.96976,-4.50091l0.37508,-1.06272l2.68805,0l2.68805,0l2.00041,2.03166l2.00041,2.03166l7.3765,0l7.34524,0l13.12767,13.12767l13.09641,13.12767l108.58457,0l108.55332,0l25.849,-25.78649l25.849,-25.75523l31.7252,-0.03126l31.7252,0l21.97322,-21.97322l21.94196,-21.94196l0,-17.65984l0,-17.65984l-7.18896,-7.18896l-7.18896,-7.18896l0,-204.10399l0,-204.10399l-13.90908,-13.90908l-13.90908,-13.90908l0,-124.30652l0,-124.33778l-2.03166,0l-2.03166,0l0,125.11918l-0.00004,0.00001z" stroke="null"/>
   <path fill="#007fff" id="svg_71" d="m1515.92151,-68.50632l0,123.52511l13.12767,13.12767l13.12767,13.12767l0,204.51032l0,204.54158l7.65781,7.72032l7.65781,7.68906l0,18.75381l0,18.75381l-23.3485,23.3485l-23.37975,23.37975l-31.56892,0l-31.56892,0l-25.00508,25.00508l-25.00508,25.00508l-140.02846,0l-140.02846,0l-4.06333,-4.06333l-4.06333,-4.06333l-101.89571,0l-101.89571,0l-16.81592,16.81592l-16.78466,16.78466l0,9.40816l0,9.37691l-1.15649,0.40633c-1.68784,0.62513 -3.96956,2.90684 -4.78222,4.81348c-0.93769,2.12543 -0.96895,5.12604 -0.09377,7.09519c1.46905,3.31317 3.90704,5.03227 7.47027,5.25107c2.03166,0.12503 2.50051,0.03126 4.00081,-0.68764c3.25066,-1.59407 5.00102,-4.46966 5.00102,-8.18916c-0.03126,-3.65699 -2.06292,-6.81388 -5.21981,-8.12665l-1.46905,-0.59387l0,-8.5955l0,-8.5955l15.56566,-15.56566l15.53441,-15.53441l100.64546,0l100.64546,0l4.06333,4.06333l4.06333,4.06333l141.27872,0l141.27872,0l25.16136,-25.16136l25.16136,-25.16136l31.7252,0l31.7252,0l24.47372,-24.47372l24.44247,-24.44247l0,-20.31663l0,-20.31663l-7.81409,-7.81409l-7.81409,-7.81409l0,-204.57283l0.03126,-204.57283l-13.15892,-12.97139l-13.12767,-12.97139l0,-122.77496l0,-122.7437l-1.87538,0l-1.87538,0l0,123.55637l-0.00002,-0.00001z" stroke="null"/>
   <path fill="#007fff" id="svg_72" d="m1523.11048,-69.91285l0,122.11857l12.97139,12.97139l12.97139,12.97139l0,204.72911l0,204.72911l7.34524,7.34524l7.34524,7.34524l0,22.16075l0,22.19201l-25.53644,25.5677l-25.5677,25.5677l-31.88148,0l-31.88148,0l-31.5064,31.5064l-31.47515,31.47515l0,16.72215l0,16.72215l-2.438,2.438l-2.40674,2.40674l-9.0956,0l-9.06434,0l-1.93789,-2.31297l-1.93789,-2.31297l0,-16.03451l0,-16.06577l-3.68825,-3.18815l-3.65699,-3.2194l-128.93246,0l-128.93246,0l-19.37894,19.37894l-19.37894,19.37894l-8.75178,0l-8.75178,0l-12.34626,-12.34626l-12.315,-12.315l0.65638,-0.7189c3.68825,-4.03207 2.59428,-10.97098 -2.15669,-13.65903c-4.21961,-2.40674 -9.18937,-1.0002 -11.72113,3.31317c-1.25025,2.15669 -1.40654,5.6574 -0.34382,7.97037c1.59407,3.4382 4.03207,5.06353 7.72032,5.1573l2.34423,0.06251l13.12767,13.12767l13.15892,13.15892l10.62716,0l10.62716,0l19.22266,-19.22266l19.22266,-19.22266l127.52592,0l127.52592,0l2.438,2.09418l2.40674,2.09418l0,15.972l0,16.00325l0.93769,1.06272c0.53136,0.59387 1.90664,2.15669 3.06312,3.46946l2.09418,2.438l10.5959,0l10.5959,0l3.53197,-3.65699l3.56322,-3.68825l0,-16.59712l0,-16.59712l30.34992,-30.53746l30.34992,-30.5062l31.94399,0l31.91274,0l26.66167,-26.66167l26.63041,-26.63041l0,-23.91111l0,-23.91111l-7.34524,-7.34524l-7.34524,-7.34524l0,-204.72911l0,-204.72911l-12.8151,-12.8151l-12.8151,-12.8151l0,-121.33717l0,-121.36842l-2.03166,0l-2.03166,0l0,122.14983l-0.00002,-0.00003z" stroke="null"/>
   <path fill="#007fff" id="svg_73" d="m1531.54969,-72.1008l0,119.93063l12.97139,12.97139l12.97139,12.97139l0,204.26027l0,204.26027l7.50152,7.50152l7.50152,7.50152l0,25.47393l0,25.47393l-28.50579,28.50579l-28.53705,28.53705l-30.63123,0l-30.63123,0l-29.47474,29.47474l-29.44348,29.44348l0,16.72215l0,16.75341l-4.46966,4.4384l-4.50091,4.4384l-13.65903,0l-13.69028,0l-2.31297,-2.25046l-2.31297,-2.2192l0,-16.78466l0,-16.75341l-2.87558,-2.87558l-2.87558,-2.87558l-124.11898,0l-124.08772,0l-20.31663,20.31663l-20.31663,20.31663l-23.91111,0l-23.91111,0l-20.94176,-20.94176l-20.94176,-20.94176l-9.5957,0l-9.62696,0l-0.65638,-1.34402c-0.84392,-1.68784 -2.59428,-3.53197 -4.18835,-4.37589c-1.78161,-0.96895 -5.40735,-0.93769 -7.25147,0.03126c-3.15689,1.65659 -4.87599,4.46966 -4.90725,8.00163c0,1.84412 0.12503,2.56302 0.84392,4.03207c2.00041,4.03207 6.3763,5.84494 10.65842,4.40715c2.12543,-0.7189 4.37589,-3.06312 5.06353,-5.28232l0.56261,-1.7191l8.75178,0l8.78304,0l21.09804,21.09804l21.09804,21.09804l25.31765,0l25.31765,0l20.31663,-20.31663l20.31663,-20.31663l122.68119,0l122.71244,0l1.62533,1.65659l1.62533,1.65659l0,16.84717l0,16.87843l3.18815,3.18815l3.2194,3.2194l15.62818,0l15.62818,0l5.56363,-5.56363l5.53237,-5.53237l0,-16.78466l0,-16.75341l28.38077,-28.31826l28.34951,-28.31826l30.47494,0l30.47494,0l29.63102,-29.59977l29.59977,-29.63102l0,-27.19303l0,-27.19303l-7.50152,-7.50152l-7.50152,-7.50152l0,-204.26027l0,-204.26027l-12.97139,-12.97139l-12.97139,-12.97139l0,-119.0242l0,-118.99294l-1.87538,0l-1.87538,0l0,119.96189l-0.00002,0z" stroke="null"/>
   <path fill="#007fff" id="svg_74" d="m1538.11353,-74.60131l0,117.43012l23.44226,23.44226l23.44226,23.44226l-0.03126,38.13275c0,20.97301 -0.12503,37.78893 -0.25005,37.35134c-0.7189,-2.28171 -3.06312,-4.90725 -5.28232,-5.87619c-1.56282,-0.65638 -5.46986,-0.65638 -7.00142,0.03126c-1.78161,0.75015 -4.15709,3.15689 -4.9385,4.96976c-0.53136,1.25025 -0.65638,2.06292 -0.59387,3.84453l0.09377,2.28171l-1.31277,1.43779l-1.31277,1.43779l0,152.59352l0,152.62477l7.50152,7.50152l7.50152,7.50152l0,29.38097l0,29.38097l-30.25615,30.25615l-30.22489,30.22489l-31.25635,0l-31.28761,0l-27.09926,27.31805l-27.09926,27.31805l0,17.00346l0,16.9722l-6.00122,6.00122l-6.03248,6.03248l-21.56688,0l-21.56688,0l-21.56688,-21.56688l-21.56688,-21.56688l-90.5184,0l-90.48714,0l-11.09601,10.90847l-11.09601,10.87721l-1.06272,-0.90643c-1.78161,-1.53156 -3.34443,-2.12543 -5.75117,-2.12543c-2.75056,0 -4.34463,0.7189 -6.28253,2.87558c-4.75097,5.28232 -1.65659,13.87782 5.37609,14.81551c3.2194,0.40633 6.62635,-1.37528 8.43922,-4.46966c0.62513,-1.09397 0.84392,-1.93789 0.96895,-3.81328l0.12503,-2.37548l10.8147,-10.87721l10.84595,-10.84595l89.26814,0l89.2994,0l21.4106,21.56688l21.37935,21.56688l23.09844,0l23.09844,0l7.28273,-7.28273l7.25147,-7.25147l0,-17.19099l0,-17.19099l26.03654,-26.03654l26.00529,-26.00529l31.25635,0l31.25635,0l31.19384,-31.19384l31.16258,-31.16258l0,-31.25635l0,-31.25635l-7.50152,-7.50152l-7.50152,-7.50152l0,-150.78065c0,-137.30916 0.03126,-150.84316 0.5001,-151.34326c0.46885,-0.53136 0.56261,-0.5001 1.90664,0.53136c2.59428,2.00041 6.03248,2.438 9.00183,1.18774c2.18794,-0.90643 4.46966,-3.46946 5.18855,-5.75117c0.12503,-0.5001 0.25005,0.40633 0.25005,2.34423l0.03126,3.12564l-5.93871,5.93871l-5.93871,5.93871l0,144.24807l0,144.24807l6.72012,6.72012l6.72012,6.72012l0,32.97545l0,32.97545l-31.66269,31.66269l-31.63143,31.63143l-30.94379,0l-30.94379,0l-26.03654,26.03654l-26.00529,26.00529l0,17.81612l0,17.81612l-7.59529,7.59529l-7.56404,7.56404l-27.03675,0l-27.03675,0l-21.4106,-21.4106l-21.4106,-21.4106l-80.01626,0l-80.01626,0l-8.15791,8.15791l-8.15791,8.15791l-1.81287,-0.53136c-4.25086,-1.25025 -8.5955,0.87518 -10.37711,5.06353c-0.75015,1.75036 -0.65638,5.18855 0.15628,7.03268c0.90643,2.03166 3.12564,4.12584 5.09479,4.78222c7.22022,2.40674 13.72154,-5.09479 10.53339,-12.09621l-0.81267,-1.7191l7.40776,-7.40776l7.3765,-7.3765l78.76601,0l78.76601,0l21.25432,21.25432l21.25432,21.25432l28.75584,0l28.75584,0l8.68927,-8.68927l8.65801,-8.65801l0,-17.81612l0,-17.81612l24.75503,-24.75503l24.78629,-24.78629l30.78751,0l30.78751,0l32.91294,-32.88168l32.88168,-32.91294l0,-34.69455l0,-34.69455l-6.56383,-6.56383l-6.56383,-6.56383l0,-142.84154l0,-142.84154l5.93871,-5.93871l5.93871,-5.93871l0,-44.5403l0,-44.5403l-23.59855,-23.59855l-23.59855,-23.59855l0,-116.49243l0,-116.52369l-1.87538,0l-1.87538,0l0,117.46138l0.00003,-0.00002z" stroke="null"/>
   <path fill="#007fff" id="svg_75" d="m1545.61505,-78.19579l0,113.83564l24.06739,24.06739l24.06739,24.06739l0,46.57197l0,46.57197l-7.50152,7.50152l-7.50152,7.50152l0,139.40334l0,139.40334l7.18896,7.18896l7.18896,7.18896l0,36.72621l0,36.72621l-33.38178,33.38178l-33.35053,33.35053l-30.0061,0l-30.0061,0l-25.41141,25.41141l-25.38016,25.38016l0,16.56587l0,16.56587l-8.84555,8.84555l-8.81429,8.81429l-30.63123,0l-30.63123,0l-21.25432,-21.25432l-21.25432,-21.25432l-68.07634,0l-68.10759,0l-17.6911,17.53481c-14.78425,14.62797 -17.78486,17.4723 -18.34748,17.31602c-0.34382,-0.12503 -1.65659,-0.28131 -2.90684,-0.37508c-3.03187,-0.21879 -4.50091,0.37508 -6.56383,2.53176c-3.40694,3.59448 -3.34443,9.00183 0.12503,12.50254c1.7191,1.7191 3.46946,2.40674 5.93871,2.40674c3.56322,0 6.53258,-1.96915 8.00163,-5.28232c0.87518,-1.93789 0.68764,-5.59489 -0.31256,-7.53278l-0.7189,-1.37528l16.81592,-16.84717l16.81592,-16.81592l66.73231,0l66.73231,0l21.25432,21.25432l21.25432,21.25432l32.03776,0l32.06902,0l10.22083,-10.22083l10.22083,-10.25208l0,-16.56587l0,-16.56587l24.00488,-24.00488l23.97362,-23.97362l30.0061,0l30.0061,0l34.63204,-34.63204l34.60078,-34.60078l0,-38.32029l0,-38.28903l-7.03268,-7.00142l-7.03268,-7.00142l0,-138.02806l0,-137.9968l7.50152,-7.50152l7.50152,-7.50152l0,-47.9785l0,-47.9785l-24.06739,-24.06739l-24.06739,-24.06739l0,-113.21051l0,-113.24177l-2.03166,0l-2.03166,0l0,113.8669l-0.00001,-0.00001z" stroke="null"/>
   <path fill="#007fff" id="svg_90" d="m651.43329,-175.52807c-5.6574,1.93789 -7.22022,9.50193 -2.75056,13.40898c1.59407,1.40654 3.06312,1.93789 5.31358,1.93789c7.43901,0 10.78344,-9.06434 5.12604,-13.87782c-1.31277,-1.12523 -3.71951,-2.06292 -5.21981,-2.06292c-0.43759,0.03126 -1.56282,0.28131 -2.46925,0.59387z" stroke="null"/>
   <path fill="#007fff" id="svg_91" d="m437.57732,-173.84023c-1.78161,0.56261 -4.21961,3.2194 -4.81348,5.18855c-0.28131,0.93769 -0.5001,1.93789 -0.5001,2.18794c0,0.28131 -4.06333,4.59468 -9.06434,9.56444l-9.06434,9.06434l0,50.32273l0,50.32273l50.79157,50.79157l50.79157,50.79157l0,21.56688l0,21.56688l21.87945,21.87945l21.87945,21.87945l0,21.87945l0,21.87945l2.62553,2.62553l2.62553,2.62553l-1.03146,1.34402c-3.37569,4.4384 -1.03146,10.87721 4.50091,12.315c3.09438,0.81267 6.8764,-0.75015 8.5955,-3.56322c0.75015,-1.18774 0.96895,-1.96915 1.06272,-3.62574c0.18754,-3.37569 -0.40633,-4.34463 -6.03248,-10.00203l-4.84473,-4.84473l0,-21.87945l0,-21.87945l-22.03573,-22.03573l-22.03573,-22.03573l0,-21.56688l0,-21.56688l-50.63529,-50.63529l-50.63529,-50.63529l0,-47.35337l0,-47.35337l7.22022,-7.22022l7.22022,-7.22022l1.53156,0.56261c5.18855,1.96915 10.5959,-1.78161 10.5959,-7.34524c0,-4.53217 -3.4382,-8.03288 -7.81409,-7.97037c-0.93769,0.03126 -2.2192,0.18754 -2.81307,0.37508l0,0.00001z" stroke="null"/>
   <path fill="#007fff" id="svg_92" d="m541.00459,-172.40244c-2.50051,0.5001 -4.9385,2.62553 -5.87619,5.12604c-0.56261,1.5003 -0.40633,4.56343 0.31256,6.03248c0.7189,1.53156 2.68805,3.4382 4.21961,4.06333c1.5003,0.62513 4.68845,0.56261 6.22001,-0.15628c5.87619,-2.7193 6.22001,-11.12726 0.59387,-14.15913c-1.68784,-0.90643 -3.75076,-1.25025 -5.46986,-0.90643l0,-0.00001z" stroke="null"/>
   <path fill="#007fff" id="svg_93" d="m747.60909,-143.30277c-2.37548,0.37508 -5.03227,1.34402 -7.09519,2.56302c-2.53176,1.56282 -5.75117,5.09479 -7.03268,7.81409c-1.56282,3.25066 -1.90664,4.68845 -1.90664,8.22042c0,3.25066 0.46885,5.46986 1.75036,8.22042l0.65638,1.37528l-6.90765,6.90765l-6.93891,6.93891l0,115.11715l0,115.11715l-1.06272,1.40654c-4.00081,5.21981 -0.34382,12.62757 6.22001,12.62757c2.25046,0 3.75076,-0.53136 5.31358,-1.93789c1.81287,-1.59407 2.46925,-3.15689 2.50051,-5.90745c0,-2.12543 -0.09377,-2.53176 -1.0002,-4.00081l-1.03146,-1.62533l0,-113.05423l0,-113.05423l5.40735,-5.53237l5.37609,-5.56363l2.34423,0.81267c3.06312,1.09397 7.3765,1.34402 10.37711,0.62513c6.18876,-1.43779 11.25229,-6.03248 13.62777,-12.315c0.68764,-1.81287 0.81267,-2.59428 0.81267,-6.00122c0.03126,-3.46946 -0.06251,-4.15709 -0.78141,-6.1575c-2.15669,-5.87619 -7.18896,-10.62716 -12.84636,-12.09621c-2.31297,-0.59387 -5.71991,-0.81267 -7.78283,-0.5001l-0.00001,-0.00003z" stroke="null"/>
   <path fill="#007fff" id="svg_95" d="m1485.10275,-136.67642c-1.56282,0.5001 -3.9383,2.46925 -4.9385,4.09458c-0.78141,1.28151 -0.93769,1.90664 -1.06272,4.09458c-0.15628,3.00061 0.37508,4.59468 2.2192,6.6576c2.50051,2.75056 6.97017,3.71951 10.28334,2.2192c2.37548,-1.09397 3.50071,-2.18794 4.59468,-4.37589c3.03187,-6.06373 -1.37528,-13.12767 -8.0954,-13.0339c-1.12523,0.03126 -2.46925,0.18754 -3.00061,0.34382l0.00001,0.00001z" stroke="null"/>
   <path fill="#007fff" id="svg_97" d="m1291.2821,-128.14344c-7.28273,1.96915 -12.00244,8.0954 -12.0337,15.62818c0,6.22001 3.34443,11.62736 8.84555,14.34667c2.87558,1.40654 5.34484,1.87538 8.56424,1.62533l2.50051,-0.18754l13.22144,13.22144l13.19018,13.19018l0,47.50966l0,47.50966l-126.49446,126.49446l-126.52572,126.52572l-84.54843,0l-84.54843,0l-8.34545,-8.3767l-8.3767,-8.34545l0.78141,-1.53156c1.53156,-3.03187 0.87518,-6.62635 -1.59407,-9.00183c-1.62533,-1.56282 -3.28192,-2.18794 -5.6574,-2.18794c-3.18815,0.03126 -5.50112,1.56282 -7.1577,4.75097c-0.78141,1.53156 -0.7189,4.75097 0.12503,6.40755c0.84392,1.7191 3.15689,3.78202 4.6572,4.18835c0.96895,0.28131 3.06312,2.2192 11.8149,10.97098l10.62716,10.62716l87.51779,0l87.51779,0l128.86995,-128.86995l128.83869,-128.83869l0,-50.47901l0,-50.47901l-13.47149,-13.47149l-13.47149,-13.47149l1.53156,-2.00041c0.81267,-1.09397 1.90664,-2.90684 2.40674,-4.03207c0.81267,-1.75036 0.93769,-2.50051 1.06272,-5.46986c0.12503,-3.06312 0.06251,-3.68825 -0.62513,-5.6574c-1.43779,-4.12584 -4.00081,-7.1577 -7.68906,-9.12686c-3.50071,-1.87538 -7.90786,-2.438 -11.53359,-1.46905l-0.00004,0z" stroke="null"/>
   <path fill="#007fff" id="svg_98" d="m39.59017,-112.85908c-4.06333,1.12523 -6.6576,5.71991 -5.56363,9.78324c0.87518,3.2194 4.15709,5.75117 7.43901,5.75117c1.0002,0 2.2192,-0.15628 2.7193,-0.34382c0.90643,-0.34382 1.0002,-0.28131 6.18876,4.90725l5.25107,5.25107l0,6.25127l0,6.25127l9.93952,9.93952l9.90826,9.90826l8.68927,0l8.72052,0l10.65842,-10.47088l10.65842,-10.47088l16.2533,0l16.28456,0l93.86283,93.86283l93.83157,93.83157l0,35.00712l0,35.00712l5.03227,5.03227l5.03227,5.03227l-0.53136,1.03146c-0.7189,1.37528 -0.93769,4.18835 -0.46885,5.87619c0.40633,1.59407 2.40674,3.90704 4.06333,4.75097c2.81307,1.43779 6.43881,0.93769 8.78304,-1.15649c5.46986,-4.96976 2.15669,-13.84656 -5.18855,-13.84656l-1.87538,0l-4.62594,-4.62594l-4.59468,-4.59468l0,-35.00712l0,-35.00712l-95.42565,-95.42565l-95.39439,-95.39439l-18.75381,0l-18.75381,0l-10.47088,10.47088l-10.47088,10.47088l-6.40755,0l-6.40755,0l-8.3767,-8.3767l-8.34545,-8.3767l0,-6.25127l0,-6.22001l-6.06373,-6.06373c-5.56363,-5.56363 -6.06373,-6.12625 -5.78243,-6.81388c0.40633,-1.06272 0.34382,-3.37569 -0.09377,-4.84473c-0.46885,-1.62533 -2.7193,-4.12584 -4.25086,-4.71971c-1.81287,-0.7189 -3.81328,-0.87518 -5.46986,-0.40633l-0.00001,-0.00002z" stroke="null"/>
   <path fill="#007fff" id="svg_99" d="m94.13251,-90.63582l-7.53278,7.68906l-2.00041,-0.21879c-3.46946,-0.34382 -6.6576,1.31277 -8.22042,4.28212c-1.37528,2.68805 -0.7189,6.75137 1.43779,9.00183c1.59407,1.62533 2.84433,2.25046 4.96976,2.438c2.438,0.21879 4.21961,-0.34382 5.87619,-1.87538c2.53176,-2.34423 3.46946,-5.50112 2.46925,-8.34545l-0.5001,-1.40654l6.81388,-6.81388l6.78263,-6.78263l21.56688,0l21.56688,0l100.73923,100.73923l100.70797,100.70797l0,29.53725l0,29.53725l13.19018,13.19018l13.19018,13.19018l0.03126,2.12543c0.06251,3.62574 2.18794,6.43881 5.6574,7.47027c3.12564,0.90643 5.93871,0.03126 8.15791,-2.50051c3.4382,-3.90704 2.15669,-10.06455 -2.56302,-12.25249c-2.03166,-0.96895 -4.75097,-1.0002 -6.72012,-0.09377l-1.40654,0.65638l-11.93993,-12.12746l-11.97118,-12.09621l0,-29.56851l0,-29.56851l-102.30204,-102.30204l-102.27079,-102.27079l-24.09865,0l-24.1299,0l-7.50152,7.65781l0.00001,0z" stroke="null"/>
   <path fill="#007fff" id="svg_100" d="m1485.57159,-96.32447c-1.65659,0.46885 -2.90684,1.31277 -4.40715,2.96935c-1.62533,1.81287 -2.2192,3.62574 -2.06292,6.3763c0.15628,2.65679 0.75015,4.09458 2.50051,5.90745c1.84412,1.87538 3.65699,2.62553 6.50132,2.62553c2.9381,-0.03126 4.71971,-0.81267 6.68886,-3.00061c3.18815,-3.56322 3.18815,-8.56424 0,-12.12746c-0.75015,-0.84392 -2.00041,-1.81287 -2.78182,-2.18794c-1.78161,-0.84392 -4.56343,-1.09397 -6.43881,-0.56261l0.00001,-0.00001z" stroke="null"/>
   <path fill="#007fff" id="svg_102" d="m543.31756,-83.00927c-2.46925,0.62513 -4.78222,2.7193 -5.68866,5.12604c-0.46885,1.18774 -0.43759,3.75076 0.03126,5.34484c0.5001,1.7191 3.09438,4.31338 4.81348,4.81348c2.96935,0.87518 5.71991,0.28131 7.93911,-1.7191c1.84412,-1.65659 2.59428,-3.37569 2.59428,-5.93871c-0.03126,-3.15689 -1.84412,-6.00122 -4.62594,-7.1577c-1.31277,-0.53136 -3.81328,-0.78141 -5.06353,-0.46885z" stroke="null"/>
   <path fill="#007fff" id="svg_103" d="m1298.53357,-74.88261c-2.31297,0.56261 -4.53217,2.40674 -5.50112,4.56343c-0.37508,0.78141 -0.59387,2.00041 -0.59387,3.25066c-0.03126,8.12665 10.93972,10.93972 14.78425,3.81328c1.15649,-2.09418 1.34402,-3.87579 0.7189,-6.12625c-1.15649,-3.96956 -5.43861,-6.47007 -9.40816,-5.50112z" stroke="null"/>
   <path fill="#007fff" id="svg_104" d="m217.75139,-74.00744c-0.62513,0.5001 -1.68784,1.25025 -2.37548,1.7191c-2.78182,1.90664 -3.90704,6.03248 -2.53176,9.25188c0.65638,1.5003 3.06312,4.12584 3.78202,4.12584c0.15628,0 0.28131,2.06292 0.28131,4.62594l0,4.59468l70.32679,70.32679l70.32679,70.32679l0,33.60058l0,33.60058l5.68866,5.68866l5.68866,5.71991l3.53197,0l3.50071,0l1.53156,1.53156c1.53156,1.53156 3.75076,2.53176 5.53237,2.53176c2.59428,0 5.84494,-2.06292 7.09519,-4.46966c3.4382,-6.75137 -3.84453,-14.0341 -10.65842,-10.65842c-1.75036,0.87518 -3.59448,3.03187 -3.9383,4.56343c-0.18754,0.84392 -0.28131,0.87518 -2.34423,0.87518l-2.12543,0l-3.78202,-3.96956l-3.78202,-4.00081l0,-33.60058l0,-33.60058l-70.48308,-70.48308l-70.48308,-70.48308l0,-3.15689l0,-3.18815l1.0002,-0.40633c4.53217,-1.87538 6.03248,-7.8766 2.96935,-11.90867c-1.12523,-1.43779 -5.37609,-3.9383 -6.81388,-3.96956c-0.43759,-0.03126 -1.34402,0.34382 -1.93789,0.81267l0.00001,0.00002z" stroke="null"/>
   <path fill="#007fff" id="svg_105" d="m116.63708,-70.47547c-0.37508,0.15628 -0.84392,0.65638 -1.06272,1.09397c-0.18754,0.43759 -0.56261,0.78141 -0.84392,0.78141c-0.84392,0.03126 -3.25066,1.25025 -4.21961,2.12543c-2.03166,1.90664 -2.87558,5.34484 -2.00041,8.25168c0.46885,1.53156 2.438,3.84453 4.03207,4.6572c3.03187,1.53156 6.53258,0.93769 9.03309,-1.59407c3.09438,-3.06312 3.2194,-7.78283 0.31256,-10.87721l-0.65638,-0.68764l11.03349,0l11.03349,0l72.13966,72.13966l72.10841,72.10841l0,24.75503l0,24.75503l-0.84392,0.46885c-1.31277,0.65638 -2.78182,2.34423 -3.50071,3.9383c-2.28171,5.06353 1.62533,10.93972 7.28273,10.93972c8.84555,0 11.00224,-12.28375 2.68805,-15.22184l-1.56282,-0.56261l0,-25.16136l0,-25.16136l-73.51494,-73.51494l-73.5462,-73.5462l-13.59651,0.03126c-7.47027,0 -13.90908,0.12503 -14.31541,0.28131l0,-0.00003z" stroke="null"/>
   <path fill="#007fff" id="svg_106" d="m135.60969,-57.75413c-5.40735,2.78182 -5.71991,10.34585 -0.53136,13.7528c1.06272,0.7189 1.68784,0.90643 3.65699,0.96895c2.06292,0.09377 2.59428,0 3.9383,-0.68764l1.56282,-0.81267l64.79442,64.79442l64.76316,64.76316l0,33.16299l0,33.13173l5.03227,5.00102l5.03227,5.03227l-0.53136,1.03146c-1.87538,3.62574 -0.21879,8.47047 3.56322,10.37711c5.81368,2.9381 12.44003,-1.87538 11.47108,-8.31419c-0.28131,-1.81287 -1.81287,-4.09458 -3.56322,-5.34484c-1.18774,-0.81267 -1.65659,-0.93769 -3.90704,-1.03146l-2.56302,-0.12503l-4.4384,-4.40715l-4.46966,-4.4384l0,-33.13173l0,-33.13173l-66.10719,-66.10719l-66.10719,-66.10719l0,-1.56282c0,-2.9381 -2.09418,-6.03248 -4.90725,-7.18896c-1.84412,-0.78141 -4.71971,-0.62513 -6.68886,0.37508l0.00002,0.00001z" stroke="null"/>
   <path fill="#007fff" id="svg_107" d="m1485.19652,-63.53515c-3.96956,1.46905 -6.25127,4.62594 -6.25127,8.62675c0,3.59448 2.00041,6.78263 5.25107,8.31419c1.219,0.56261 2.09418,0.75015 3.9383,0.75015c3.71951,0 6.31378,-1.59407 8.15791,-5.09479c1.03146,-1.87538 1.03146,-6.06373 0,-7.93911c-0.90643,-1.7191 -2.53176,-3.34443 -4.21961,-4.21961c-1.65659,-0.84392 -5.18855,-1.06272 -6.8764,-0.43759l0,0.00001z" stroke="null"/>
   <path fill="#007fff" id="svg_109" d="m10.11543,-30.96744c-5.25107,2.28171 -6.40755,9.53319 -2.15669,13.28395c1.62533,1.43779 3.00061,1.93789 5.21981,1.93789c2.28171,0.03126 4.87599,-1.12523 6.06373,-2.7193l0.81267,-1.06272l38.35155,0l38.32029,0l77.20319,77.20319c42.47738,42.44613 77.35947,77.20319 77.57827,77.20319c0.18754,0 0.46885,0.46885 0.56261,1.0002c0.62513,2.78182 2.84433,5.21981 5.50112,6.00122c0.90643,0.28131 1.93789,0.5001 2.31297,0.5001c1.46905,0 4.00081,-1.03146 5.18855,-2.09418c1.59407,-1.43779 2.46925,-3.15689 2.68805,-5.21981c0.7189,-7.12645 -7.65781,-11.34606 -13.22144,-6.6576l-0.93769,0.81267l-77.20319,-77.20319l-77.17194,-77.17194l-39.13295,0l-39.1017,0l-0.37508,-1.06272c-1.03146,-3.18815 -3.9383,-5.18855 -7.47027,-5.18855c-1.15649,0.03126 -2.50051,0.21879 -3.03187,0.43759l0.00001,0.00001z" stroke="null"/>
   <path fill="#007fff" id="svg_111" d="m1485.44562,-25.15376c-3.03187,0.78141 -5.71991,3.15689 -6.6576,6.00122c-0.65638,2.03166 -0.46885,5.21981 0.43759,6.97017c1.65659,3.25066 4.53217,5.00102 8.18916,5.00102c5.00102,0 8.62675,-3.34443 9.00183,-8.31419c0.18754,-2.75056 -0.5001,-4.81348 -2.28171,-6.78263c-2.15669,-2.40674 -5.78243,-3.59448 -8.68927,-2.87558l0,-0.00001z" stroke="null"/>
   <path fill="#007fff" id="svg_116" d="m11.45945,11.13487c-2.59428,0.62513 -4.68845,2.50051 -5.68866,5.09479c-1.03146,2.68805 -0.18754,6.3763 1.93789,8.3767c2.75056,2.62553 7.3765,2.81307 10.47088,0.46885l1.09397,-0.84392l46.07186,0l46.07186,0l80.79767,80.79767l80.79767,80.79767l12.34626,0l12.34626,0l19.06638,19.06638l19.06638,19.06638l13.22144,0l13.25269,0l1.5003,1.34402c1.65659,1.5003 3.2194,2.09418 5.50112,2.09418c2.87558,0 6.06373,-2.15669 7.18896,-4.87599c0.62513,-1.5003 0.53136,-4.71971 -0.15628,-6.22001c-1.81287,-4.00081 -6.81388,-5.84494 -10.68967,-3.96956c-1.37528,0.65638 -1.68784,0.68764 -13.28395,0.68764l-11.84616,0l-19.06638,-19.06638l-19.06638,-19.06638l-12.37752,0l-12.34626,0l-80.98521,-80.79767l-80.98521,-80.79767l-48.35358,0l-48.32232,0l-1.0002,-0.75015c-1.78161,-1.37528 -4.40715,-1.93789 -6.56383,-1.40654l0.00002,-0.00001z" stroke="null"/>
   <path fill="#007fff" id="svg_117" d="m936.83505,16.07337c-2.7193,0.68764 -5.43861,3.40694 -5.90745,5.87619c-0.65638,3.56322 0.68764,6.97017 3.4382,8.65801c1.90664,1.18774 5.06353,1.5003 7.18896,0.68764c1.68784,-0.65638 3.53197,-2.37548 4.28212,-4.06333c0.7189,-1.59407 0.78141,-4.78222 0.12503,-6.3763c-0.62513,-1.43779 -2.438,-3.37569 -3.90704,-4.12584c-1.31277,-0.65638 -3.84453,-0.96895 -5.21981,-0.65638l-0.00001,0.00001z" stroke="null"/>
   <path fill="#007fff" id="svg_118" d="m976.84319,16.07337c-2.7193,0.68764 -5.43861,3.40694 -5.90745,5.87619c-0.65638,3.56322 0.68764,6.97017 3.4382,8.65801c1.90664,1.18774 5.06353,1.5003 7.18896,0.68764c5.1573,-1.96915 6.62635,-9.03309 2.68805,-12.94013c-1.90664,-1.90664 -5.00102,-2.87558 -7.40776,-2.28171z" stroke="null"/>
   <path fill="#007fff" id="svg_121" d="m935.86611,36.82759c-1.53156,0.46885 -3.96956,2.81307 -4.59468,4.34463c-0.65638,1.62533 -0.68764,4.75097 -0.06251,6.25127c0.62513,1.53156 2.28171,3.31317 3.75076,4.03207c5.28232,2.7193 11.47108,-1.15649 11.47108,-7.09519c0,-2.34423 -0.46885,-3.62574 -1.90664,-5.28232c-2.03166,-2.28171 -5.62614,-3.2194 -8.65801,-2.25046z" stroke="null"/>
   <path fill="#007fff" id="svg_129" d="m1153.91043,111.21772c-1.59407,0.46885 -3.4382,1.68784 -4.56343,3.09438l-0.7189,0.87518l-12.56505,0l-12.56505,0l-52.35439,52.35439l-52.35439,52.35439l-19.87904,0c-16.9722,0 -20.06658,-0.06251 -21.00427,-0.46885c-4.06333,-1.68784 -9.40816,0.96895 -10.56465,5.25107c-1.0002,3.75076 1.09397,8.00163 4.71971,9.53319c1.46905,0.59387 4.56343,0.59387 6.00122,-0.03126c0.65638,-0.28131 1.87538,-1.12523 2.68805,-1.90664l1.53156,-1.43779l20.59794,0l20.59794,0l52.35439,-52.35439l52.35439,-52.35439l10.5959,0l10.56465,0l1.53156,1.12523c2.78182,2.03166 5.78243,2.50051 8.84555,1.37528c6.1575,-2.31297 7.84534,-10.53339 3.12564,-15.06556c-2.31297,-2.18794 -5.96996,-3.15689 -8.93932,-2.34423l-0.00001,0z" stroke="null"/>
   <path fill="#007fff" id="svg_143" d="m568.01008,218.36449c-3.81328,0.7189 -6.31378,3.75076 -6.34504,7.72032c0,3.2194 1.37528,5.59489 4.12584,7.09519c3.9383,2.15669 9.03309,0.40633 10.90847,-3.75076c0.37508,-0.81267 0.59387,-1.96915 0.59387,-3.28192c0,-2.37548 -0.65638,-4.06333 -2.2192,-5.59489c-1.81287,-1.84412 -4.50091,-2.65679 -7.06394,-2.18794z" stroke="null"/>
   <path fill="#007fff" id="svg_144" d="m662.71683,218.33324c-4.09458,0.62513 -7.31399,5.28232 -6.40755,9.31439c0.87518,3.81328 3.9383,6.3763 7.68906,6.40755c2.31297,0 3.96956,-0.65638 5.62614,-2.2192c1.68784,-1.62533 2.37548,-3.25066 2.37548,-5.68866c0,-2.56302 -0.68764,-4.12584 -2.56302,-5.81368c-1.87538,-1.75036 -4.12584,-2.40674 -6.72012,-2.00041l0.00001,0.00001z" stroke="null"/>
   <path fill="#007fff" id="svg_150" d="m725.29205,248.33934c-1.87538,0.28131 -3.50071,1.18774 -4.71971,2.62553c-4.37589,5.12604 -0.75015,13.00264 6.00122,13.00264c1.12523,0 2.46925,-0.18754 3.06312,-0.43759c2.7193,-1.12523 4.87599,-4.31338 4.87599,-7.18896c0,-2.28171 -0.59387,-3.84453 -2.09418,-5.50112c-1.84412,-2.06292 -4.37589,-2.9381 -7.12645,-2.50051l0.00001,0.00001z" stroke="null"/>
   <path fill="#007fff" id="svg_151" d="m757.04851,248.37059c-3.81328,0.7189 -6.40755,3.84453 -6.40755,7.78283c0,3.15689 1.78161,5.93871 4.6572,7.22022c1.56282,0.7189 4.75097,0.78141 6.34504,0.12503c1.53156,-0.65638 3.4382,-2.50051 4.15709,-4.06333c0.78141,-1.65659 0.78141,-4.87599 0,-6.56383c-1.46905,-3.28192 -5.12604,-5.1573 -8.75178,-4.50091l0,-0.00001z" stroke="null"/>
   <path fill="#007fff" id="svg_152" d="m819.74875,248.37059c-5.6574,0.84392 -8.3767,7.8766 -4.81348,12.5338c2.7193,3.53197 8.12665,4.12584 11.50234,1.219c3.25066,-2.75056 3.71951,-7.78283 1.0002,-10.93972c-2.00041,-2.37548 -4.50091,-3.28192 -7.68906,-2.81307l0,-0.00001z" stroke="null"/>
   <path fill="#007fff" id="svg_153" d="m786.71079,248.80818c-3.2194,1.0002 -5.40735,4.03207 -5.37609,7.43901c0,2.28171 0.53136,3.71951 1.96915,5.37609c2.96935,3.37569 8.56424,3.50071 11.59611,0.28131c3.96956,-4.25086 2.12543,-11.47108 -3.31317,-13.09641c-1.87538,-0.56261 -3.03187,-0.56261 -4.87599,0l-0.00001,0z" stroke="null"/>
   <path fill="#007fff" id="svg_173" d="m848.91093,311.8835c-1.53156,0.5001 -4.15709,3.18815 -4.62594,4.78222c-0.53136,1.78161 -0.46885,4.28212 0.09377,5.68866c0.62513,1.46905 2.438,3.37569 4.06333,4.21961c1.78161,0.93769 4.81348,0.90643 6.81388,-0.06251c2.56302,-1.25025 4.59468,-4.40715 4.59468,-7.22022c0,-2.81307 -2.09418,-6.00122 -4.78222,-7.22022c-1.46905,-0.65638 -4.37589,-0.75015 -6.1575,-0.18754z" stroke="null"/>
   <path fill="#007fff" id="svg_181" d="m847.81696,342.07714c-1.56282,0.7189 -3.40694,2.62553 -4.06333,4.15709c-0.65638,1.62533 -0.59387,4.78222 0.12503,6.34504c0.31256,0.68764 1.12523,1.78161 1.78161,2.40674c4.50091,4.28212 12.00244,2.00041 13.25269,-4.03207c0.81267,-3.75076 -1.219,-7.50152 -4.84473,-9.03309c-1.53156,-0.62513 -4.71971,-0.56261 -6.25127,0.15628l0,0.00001z" stroke="null"/>
   <path fill="#007fff" id="svg_235" d="m1109.33887,518.67554c-3.46946,1.18774 -5.78243,4.53217 -5.78243,8.31419c0,3.50071 1.5003,6.18876 4.4384,7.90786c1.25025,0.7189 1.78161,0.84392 3.9383,0.84392c2.438,0 3.15689,-0.18754 5.06353,-1.43779c0.68764,-0.40633 0.90643,-0.21879 5.81368,4.6572l5.06353,5.06353l19.06638,0l19.06638,0l35.00712,35.00712l35.00712,35.00712l73.76499,0l73.76499,0l25.47393,-25.47393l25.47393,-25.47393l24.22367,0l24.19242,0l1.12523,-1.09397c1.09397,-1.06272 1.15649,-1.09397 2.68805,-0.81267c2.96935,0.56261 5.56363,-0.37508 7.75158,-2.78182c1.62533,-1.81287 2.15669,-3.2194 2.15669,-5.93871c0.03126,-2.87558 -0.87518,-4.87599 -3.03187,-6.78263c-1.65659,-1.43779 -3.15689,-1.96915 -5.68866,-1.96915c-6.1575,0.03126 -10.22083,6.59509 -7.65781,12.40877c0.40633,0.90643 0.90643,1.78161 1.15649,1.96915c0.21879,0.18754 0.31256,0.56261 0.21879,0.81267c-0.12503,0.37508 -3.68825,0.43759 -24.41121,0.43759l-24.28619,0l-25.47393,25.47393l-25.47393,25.47393l-72.20218,0l-72.20218,0l-35.1634,-35.1634l-35.1634,-35.1634l-19.06638,0l-19.06638,0l-4.59468,-4.59468c-4.31338,-4.31338 -4.56343,-4.62594 -4.25086,-5.37609c0.46885,-1.25025 0.46885,-4.09458 -0.03126,-5.81368c-0.68764,-2.25046 -3.34443,-4.9385 -5.62614,-5.59489c-2.18794,-0.62513 -3.2194,-0.62513 -5.28232,0.09377l0.00001,-0.00001z" stroke="null"/>
   <path fill="#007fff" id="svg_237" d="m1133.62506,519.17564c-1.93789,0.62513 -4.12584,2.62553 -5.1573,4.68845c-0.7189,1.5003 -0.81267,2.00041 -0.68764,4.12584c0.12503,2.84433 0.7189,4.25086 2.46925,6.00122c1.65659,1.65659 3.18815,2.31297 5.62614,2.46925c2.7193,0.15628 4.78222,-0.68764 6.68886,-2.81307c4.00081,-4.46966 2.7193,-11.25229 -2.68805,-14.0341c-1.62533,-0.81267 -4.4384,-1.03146 -6.25127,-0.43759l0.00001,0z" stroke="null"/>
   <path fill="#007fff" id="svg_238" d="m1513.73357,518.9881c-1.59407,0.5001 -2.7193,1.28151 -4.00081,2.65679c-2.25046,2.438 -2.87558,4.9385 -2.06292,8.22042l0.5001,2.06292l-2.84433,2.81307l-2.84433,2.81307l0,10.50213l0,10.50213l-4.46966,4.46966l-4.4384,4.4384l-28.91213,0l-28.91213,0l-24.8488,24.8488l-24.8488,24.8488l-91.11227,0l-91.11227,0l-33.4443,-33.4443l-33.4443,-33.4443l-7.09519,0l-7.12645,0l-0.62513,-1.25025c-1.56282,-3.06312 -4.21961,-4.68845 -7.65781,-4.68845c-3.46946,0 -6.03248,1.59407 -7.72032,4.78222c-1.03146,1.87538 -1.03146,6.06373 0,7.93911c0.90643,1.75036 2.65679,3.46946 4.25086,4.18835c1.43779,0.65638 4.90725,0.81267 6.34504,0.25005c2.438,-0.90643 4.75097,-3.4382 5.43861,-5.96996l0.31256,-1.18774l6.1575,0l6.1575,0l33.28802,33.28802l33.28802,33.28802l92.98765,0l92.98765,0l24.69252,-24.69252l24.69252,-24.69252l28.91213,0l28.91213,0l5.56363,-5.56363l5.53237,-5.53237l0,-10.5959l0,-10.56465l2.15669,-2.2192l2.15669,-2.2192l1.53156,0.75015c2.09418,1.06272 5.12604,1.219 7.03268,0.37508c3.4382,-1.5003 5.40735,-4.53217 5.37609,-8.34545c0,-3.56322 -1.75036,-6.40755 -4.84473,-7.97037c-1.37528,-0.7189 -4.6572,-1.06272 -5.90745,-0.65638l0.00001,0z" stroke="null"/>
   <path fill="#007fff" id="svg_239" d="m1537.2696,525.58319c-1.75036,0.37508 -2.84433,0.96895 -4.28212,2.40674c-1.81287,1.78161 -2.53176,3.56322 -2.53176,6.34504c0,1.84412 0.15628,2.65679 0.75015,3.87579l0.75015,1.5003l-17.4723,17.4723l-17.4723,17.4723l-27.72439,0l-27.72439,0l-25.41141,25.47393l-25.41141,25.50518l-95.01931,-0.03126l-95.01931,0l-30.47494,-30.47494l-30.47494,-30.47494l-26.88046,0l-26.88046,0l-26.09905,26.09905l-26.09905,26.09905l-67.98257,0l-67.98257,0l-4.06333,-4.06333l-4.03207,-4.06333l0.09377,-2.46925c0.06251,-1.96915 -0.06251,-2.75056 -0.59387,-4.03207c-1.31277,-3.06312 -4.78222,-5.37609 -7.97037,-5.37609c-1.68784,0 -4.03207,0.87518 -5.37609,2.03166c-4.00081,3.40694 -4.12584,10.15831 -0.28131,13.534c1.59407,1.40654 2.84433,1.96915 4.71971,2.15669c2.28171,0.25005 3.50071,-0.06251 5.6574,-1.34402l1.84412,-1.09397l4.34463,4.37589l4.31338,4.40715l69.29533,0l69.26408,0l26.25534,-26.25534l26.25534,-26.25534l25.16136,0l25.16136,0l30.47494,30.47494l30.47494,30.47494l96.73841,0l96.73841,0l25.31765,-25.31765l25.31765,-25.31765l27.81815,0l27.81815,0l18.25371,-18.25371l18.25371,-18.25371l1.03146,0.43759c1.75036,0.7189 4.75097,0.56261 6.62635,-0.37508c3.31317,-1.65659 4.9385,-4.68845 4.68845,-8.72052c-0.21879,-3.4382 -1.93789,-6.00122 -4.9385,-7.28273c-1.78161,-0.78141 -3.56322,-1.03146 -5.21981,-0.68764l-0.00001,0.00003z" stroke="null"/>
   <path fill="#007fff" id="svg_244" d="m1431.62313,537.14804c-4.81348,1.12523 -7.65781,6.3763 -6.22001,11.40857c0.43759,1.43779 0.90643,2.15669 2.31297,3.56322c2.00041,2.00041 3.34443,2.53176 6.18876,2.53176c2.25046,0 4.00081,-0.75015 5.6574,-2.40674c1.93789,-1.93789 2.438,-3.25066 2.438,-6.50132c0,-2.50051 -0.09377,-2.96935 -0.84392,-4.25086c-1.0002,-1.7191 -2.65679,-3.2194 -4.21961,-3.87579c-1.34402,-0.56261 -3.9383,-0.81267 -5.31358,-0.46885l-0.00001,0.00001z" stroke="null"/>
   <path fill="#007fff" id="svg_259" d="m1141.40789,584.47016c-6.25127,1.7191 -8.56424,9.53319 -4.25086,14.40918c3.62574,4.12584 9.87701,4.00081 13.12767,-0.31256c1.46905,-1.93789 1.93789,-3.65699 1.75036,-6.3763c-0.40633,-5.43861 -5.50112,-9.15811 -10.62716,-7.72032l-0.00001,0z" stroke="null"/>
   <path fill="#007fff" id="svg_267" d="m1139.59502,616.69546c-1.90664,0.59387 -3.71951,2.2192 -4.84473,4.25086c-0.78141,1.43779 -0.90643,2.03166 -0.93769,4.03207c0,1.93789 0.15628,2.65679 0.87518,4.12584c1.09397,2.25046 2.96935,3.87579 5.18855,4.53217c5.62614,1.62533 10.97098,-2.50051 10.97098,-8.50173c0,-3.50071 -1.78161,-6.47007 -4.84473,-8.03288c-1.59407,-0.81267 -4.56343,-1.0002 -6.40755,-0.40633l-0.00001,0z" stroke="null"/>
   <path fill="#007fff" id="svg_279" d="m921.76949,651.07745l-5.40735,5.46986l-1.75036,-0.5001c-2.25046,-0.65638 -4.6572,-0.43759 -6.47007,0.62513c-6.09499,3.59448 -6.03248,12.12746 0.09377,15.7532c1.28151,0.7189 1.81287,0.84392 3.96956,0.84392c1.93789,0 2.78182,-0.15628 3.75076,-0.68764c1.7191,-0.90643 3.68825,-3.09438 4.37589,-4.87599c0.7189,-1.90664 0.53136,-5.43861 -0.40633,-7.28273l-0.65638,-1.28151l4.75097,-4.71971l4.75097,-4.75097l41.25839,0l41.25839,0l3.65699,3.65699l3.68825,3.68825l0,6.09499l0,6.09499l6.03248,6.03248l6.00122,6.00122l14.69049,0l14.69049,0l14.84677,-14.84677l14.84677,-14.84677l137.05911,0l137.05911,0l4.12584,4.12584l4.15709,4.15709l0,8.31419l0,8.34545l-1.68784,0.81267c-7.31399,3.59448 -6.53258,14.22164 1.219,16.75341c1.65659,0.56261 4.78222,0.46885 6.25127,-0.12503c1.96915,-0.84392 3.78202,-2.56302 4.75097,-4.50091c1.219,-2.46925 1.219,-5.71991 0.03126,-8.03288c-1.09397,-2.12543 -2.59428,-3.46946 -4.81348,-4.37589l-1.84412,-0.75015l-0.09377,-9.15811l-0.06251,-9.15811l-5.09479,-5.09479l-5.06353,-5.06353l-138.87198,0l-138.87198,0l-14.753,14.69049l-14.753,14.65923l-13.28395,0.03126l-13.28395,0l-4.59468,-4.59468l-4.62594,-4.62594l0,-6.25127l0,-6.25127l-4.9385,-4.9385l-4.90725,-4.90725l-42.85246,0l-42.85246,0l-5.37609,5.46986l-0.00004,-0.00002z" stroke="null"/>
   <path fill="#007fff" id="svg_287" d="m1335.66612,676.23882c-4.31338,0.87518 -7.25147,4.46966 -7.28273,8.90806c0,3.59448 1.84412,6.62635 5.09479,8.34545c1.84412,1.0002 6.06373,1.03146 7.8766,0.03126c1.62533,-0.84392 3.50071,-2.75056 4.28212,-4.31338c0.90643,-1.75036 1.09397,-4.9385 0.43759,-6.97017c-1.37528,-4.15709 -6.09499,-6.84514 -10.40837,-6.00122z" stroke="null"/>
   <path fill="#007fff" id="svg_300" d="m1153.03525,720.15399l-20.47291,20.47291l-11.40857,0l-11.40857,0l-4.31338,-4.31338l-4.28212,-4.28212l0.65638,-1.7191c0.93769,-2.438 0.7189,-5.90745 -0.43759,-7.90786c-1.65659,-2.81307 -4.18835,-4.25086 -7.50152,-4.28212c-2.56302,0 -3.78202,0.46885 -5.6574,2.18794c-2.06292,1.90664 -2.81307,3.68825 -2.81307,6.56383c0,2.90684 0.78141,4.71971 2.9381,6.6576c1.81287,1.65659 3.46946,2.18794 6.28253,2.03166l2.15669,-0.09377l5.40735,5.40735l5.37609,5.37609l13.59651,0l13.59651,0l20.47291,-20.31663l20.47291,-20.28537l55.63631,-0.03126l55.63631,0l10.72093,10.72093l10.72093,10.72093l-0.5001,1.18774c-0.81267,1.93789 -0.65638,5.25107 0.31256,7.25147c1.96915,4.03207 6.50132,5.96996 10.93972,4.68845c2.34423,-0.7189 5.09479,-3.31317 5.87619,-5.62614c1.53156,-4.50091 -0.43759,-9.25188 -4.6572,-11.3148c-1.37528,-0.65638 -2.15669,-0.84392 -3.81328,-0.84392c-1.15649,0.03126 -2.50051,0.18754 -2.96935,0.37508c-0.87518,0.34382 -1.06272,0.18754 -12.59631,-11.12726c-6.43881,-6.31378 -11.68988,-11.59611 -11.68988,-11.72113c0,-0.12503 -26.0678,-0.25005 -57.91802,-0.25005l-57.88677,0l-20.47291,20.47291l0.00002,0.00002z" stroke="null"/>
  </g>
 </g>
</svg>