<svg width="600" height="800" xmlns="http://www.w3.org/2000/svg" style="vector-effect: non-scaling-stroke;" stroke="null" preserveAspectRatio="xMidYMid meet">

 <g stroke="null">
  <title stroke="null">background</title>
  <rect stroke="null" fill="none" id="canvas_background" height="802" width="602" y="-1" x="-1"/>
 </g>
 <g stroke="null">
  <title stroke="null">Layer 1</title>
  <g stroke="null" id="svg_198">
   <path stroke="null" fill="#007fff" id="svg_84" d="m268.28197,27.24787c-2.67787,1.3 -4.36393,4.9 -4.36393,9.2c0,5.9 8.03361,11.2 12.89344,8.6c2.08279,-1.1 2.87623,-0.5 10.31475,6.9l8.03361,8.1l14.87705,0l14.87705,0l8.62869,8.7l8.72787,8.8l0,151.9l0,151.9l-9.42213,9.6l-9.42213,9.7l0,74.6l0,74.7l-5.25656,-0.6c-4.66148,-0.5 -5.65328,-0.2 -8.23197,2c-2.38033,2.1 -2.87623,3.3 -2.87623,7.2c0,6.2 3.47131,9.5 9.91803,9.5c3.57049,0 4.66148,-0.5 6.94262,-3.2c2.28115,-2.7 2.57869,-3.7 1.88443,-7.2c-0.39672,-2.3 -0.79344,-38.1 -1.09098,-79.6l-0.29754,-75.5l9.91803,-10l9.91803,-10l0,-152.5l0,-152.5l-9.52131,-9.8l-9.42213,-9.7l-14.57951,0l-14.57951,0l-7.53771,-7.6l-7.63689,-7.6l1.4877,-3.6c1.68607,-4.2 1.09098,-7.5 -2.18197,-10.8c-2.57869,-2.6 -8.03361,-3.2 -12.00082,-1.2zm9.02541,0.4c1.98361,0.8 4.46311,5.6 4.46311,8.7c0,3.3 -4.5623,7.7 -8.03361,7.7c-1.4877,0 -3.96721,-1.1 -5.45492,-2.4c-7.14098,-6.1 0.19836,-17.4 9.02541,-14zm44.63115,524.90001c3.76885,3.7 3.66967,8.8 -0.09918,12.2c-3.27295,3 -7.73607,3 -10.81066,-0.2c-5.15738,-5.1 -1.58689,-14.5 5.45492,-14.5c1.88443,0 3.96721,0.9 5.45492,2.5z"/>
   <path stroke="null" fill="#007fff" id="svg_85" d="m307.4582,28.94787c-3.96721,4 -3.96721,8.9 0,13.3c2.38033,2.7 3.57049,3.3 7.0418,3.3c3.66967,0 4.66148,-0.6 7.43852,-3.8c2.47951,-2.9 3.86803,-3.7 6.5459,-3.7c2.97541,0 4.66148,1.2 13.58771,10.3l10.11639,10.2l0,165.5l0,165.5l-9.91803,10l-9.91803,10l0,61l0,61l7.83525,7.9c6.44672,6.5 7.73607,8.3 6.94262,9.7c-1.58689,3.2 -0.9918,7.6 1.58689,10.7c3.27295,3.9 7.33934,4.8 11.70328,2.7c10.41393,-5 4.95902,-20.3 -6.5459,-18.1c-3.07459,0.6 -3.76885,0.2 -11.40574,-7.8l-8.13279,-8.4l0,-57.8l0,-57.9l9.91803,-10l9.91803,-10l0,-168.5l0,-168.5l-9.71967,-9.8l-9.62049,-9.7l-5.15738,0c-4.85984,0 -5.15738,-0.1 -5.75246,-3c-1.58689,-7.1 -11.1082,-9.5 -16.46393,-4.1zm12.49672,0.6c5.15738,5.1 1.58689,14.5 -5.45492,14.5c-4.36393,0 -7.93443,-3.9 -7.93443,-8.5c0,-4.6 3.57049,-8.5 7.93443,-8.5c1.88443,0 3.96721,0.9 5.45492,2.5zm39.47377,516.70001c4.95902,2.6 6.14918,8.6 2.57869,13.2c-4.36393,5.6 -13.78607,2.1 -13.78607,-5.1c0,-7.3 5.45492,-11.2 11.20738,-8.1z"/>
   <path stroke="null" fill="#007fff" id="svg_86" d="m389.77787,28.94787c-2.97541,3.1 -3.76885,7.5 -1.98361,11c0.79344,1.4 -0.29754,3.1 -5.95082,8.7l-6.84344,6.8l0,179.1l0,179l-10.41393,10.5l-10.41393,10.5l0,11l0,10.9l6.05,6.2c5.5541,5.6 5.95082,6.4 4.85984,8.4c-2.47951,4.7 1.09098,11.7 6.74426,13.5c3.47131,1 8.92623,-1.3 10.6123,-4.5c3.66967,-7.2 -0.4959,-15 -8.13279,-15c-2.08279,0 -4.46311,0.5 -5.25656,1c-1.09098,0.7 -2.97541,-0.5 -7.63689,-5.3l-6.24836,-6.1l0,-8.6l0,-8.5l10.90984,-11.4l10.90984,-11.4l0,-178.1l0,-178.1l7.0418,-7.1c6.84344,-6.9 7.24016,-7.1 10.31475,-6.3c4.06639,1.2 7.43852,-0.1 10.31475,-3.7c4.95902,-6.4 0.39672,-15.4 -7.83525,-15.4c-3.27295,0 -4.76066,0.6 -7.0418,2.9zm12.49672,0.6c5.15738,5.1 1.58689,14.5 -5.45492,14.5c-4.36393,0 -7.93443,-3.9 -7.93443,-8.5c0,-4.6 3.57049,-8.5 7.93443,-8.5c1.88443,0 3.96721,0.9 5.45492,2.5zm-24.2,437.50001c0.9918,0.6 2.57869,2.4 3.37213,4c4.16557,8.2 -6.44672,16 -12.89344,9.5c-6.64508,-6.6 1.38852,-17.9 9.52131,-13.5z"/>
   <path stroke="null" fill="#007fff" id="svg_87" d="m227.71721,30.34787c-3.86803,3.9 -4.26475,6.3 -1.88443,11.2c1.88443,4 6.05,6 10.81066,5.1c3.27295,-0.6 3.76885,-0.3 9.81885,6.1l6.44672,6.8l0.09918,15l0,15l12.89344,13l12.89344,13l0,88.1l0,88.1l2.47951,2.3l2.47951,2.3l0,94.2l0,94.1l-71.6082,73c-39.37459,40.1 -87.77459,89.3 -107.61066,109.4l-36.00246,36.5l0,12.2l0,12.2l-2.87623,1.6c-5.5541,2.9 -7.43852,8.3 -4.95902,13.9c1.4877,3.3 7.0418,5.9 10.81066,5.1c3.57049,-0.8 7.93443,-5.8 7.93443,-9.1c0,-3.6 -2.38033,-7.8 -5.35574,-9.4c-2.57869,-1.3 -2.57869,-1.5 -2.57869,-12.9l0,-11.6l51.87131,-52.5c28.46475,-28.9 77.1623,-78.2 108.10656,-109.6l56.23525,-57.1l0,-96.5l0,-96.5l-2.47951,-2.3l-2.47951,-2.3l0,-87.6l0,-87.6l-13.38934,-13.5l-13.38934,-13.5l0,-15l0,-15.1l-6.34754,-6.3l-6.34754,-6.4l0.4959,-5.1c0.69426,-6.8 -2.08279,-10.4 -8.33115,-11.3c-3.86803,-0.5 -4.5623,-0.2 -7.73607,3zm10.31475,-0.8c3.07459,1.5 5.35574,6.5 4.36393,9.3c-2.18197,6.3 -9.32295,8.2 -13.68689,3.7c-3.47131,-3.4 -3.27295,-7.8 0.39672,-11.6c3.27295,-3.3 4.95902,-3.5 8.92623,-1.4zm-165.23443,701.70001c4.95902,2.6 6.14918,8.6 2.57869,13.2c-4.46311,5.7 -13.78607,2.1 -13.78607,-5.4c0,-6.7 5.75246,-10.8 11.20738,-7.8z"/>
   <path stroke="null" fill="#007fff" id="svg_95" d="m386.80246,70.94787c-3.07459,3.1 -3.86803,8.3 -1.88443,12.2c1.68607,3.1 6.74426,5.2 10.71148,4.4c3.27295,-0.6 3.86803,-0.3 9.71967,5.6l6.34754,6.3l0,190.2l0,190.1l-4.46311,4.4l-4.46311,4.4l0,32l0,32l-19.63771,19.8l-19.53853,19.7l-6.64508,0c-6.44672,0 -6.5459,-0.1 -8.62869,-3.5c-3.57049,-6.1 -10.41393,-7.3 -15.07541,-2.6c-2.28115,2.4 -2.87623,3.8 -2.87623,7.3c0.09918,6.4 3.57049,9.8 10.01721,9.8c2.38033,0 4.06639,-0.9 6.94262,-4l3.76885,-4l7.93443,0l7.83525,0l19.43934,-20.1l19.43934,-20.2l0,-31.6l0,-31.7l4.46311,-4.4l4.46311,-4.4l0,-192.5l0,-192.5l-6.44672,-6.6c-6.34754,-6.4 -6.44672,-6.7 -5.35574,-9.8c3.47131,-10.2 -8.52951,-17.9 -16.06721,-10.3zm12.79426,1.7c4.66148,5.2 1.19016,13.4 -5.65328,13.4c-9.32295,0 -11.30656,-12.5 -2.57869,-16c2.77705,-1.2 5.5541,-0.3 8.23197,2.6zm-54.35082,514.40001c4.36393,4.4 3.27295,11.1 -2.18197,13.4c-3.86803,1.7 -8.13279,0.4 -10.41393,-3c-1.98361,-3.1 -0.9918,-8.8 1.98361,-10.9c2.97541,-2.1 8.23197,-1.9 10.6123,0.5z"/>
   <path stroke="null" fill="#007fff" id="svg_96" d="m229.60164,71.14787c-2.47951,1.3 -5.35574,6 -5.35574,8.9c0,5.3 4.85984,10 10.21557,10c1.58689,0 6.5459,4.4 16.36475,14.3l14.08361,14.4l0,86.8l0,86.8l4.46311,4.8l4.46311,4.8l0,83.3l0,83.3l-20.13361,20.5c-168.70574,172 -198.45984,201.9 -200.24509,201.7c-0.9918,-0.2 -3.17377,-1.8 -4.76066,-3.5c-2.38033,-2.7 -3.57049,-3.2 -7.24016,-3.2c-5.15738,0 -8.23197,2.1 -9.52131,6.5c-1.38852,4.9 0.69426,9.7 5.15738,11.9c3.37213,1.6 4.16557,1.7 7.43852,0.4c2.57869,-0.9 4.16557,-2.5 5.45492,-5.1c1.58689,-3.1 2.38033,-3.7 5.0582,-3.7c2.47951,0 4.06639,-0.9 6.5459,-3.7c1.88443,-2.1 51.07787,-52.2 109.29672,-111.5l105.92459,-107.6l0,-86.4l0,-86.4l-4.46311,-4.4l-4.46311,-4.4l0,-86.6l0,-86.5l-13.78607,-13.9l-13.88525,-13.9l1.98361,-2.5c2.67787,-3.4 2.47951,-9.4 -0.39672,-12.7c-2.47951,-3 -8.72787,-4.2 -12.19918,-2.4zm10.21557,3.1c2.97541,3.4 3.37213,5.5 1.88443,9.2c-2.47951,6 -10.21557,6.8 -13.88525,1.4c-3.76885,-5.4 -0.19836,-12.8 6.24836,-12.8c2.57869,0 4.36393,0.7 5.75246,2.2zm-193.69919,613.00001c1.4877,1.3 2.87623,3.7 3.17377,5.5c0.4959,2.7 0.09918,3.7 -2.38033,6.3c-3.17377,3.2 -5.5541,3.7 -9.42213,1.9c-5.15738,-2.4 -5.95082,-8.7 -1.78525,-13c3.47131,-3.5 7.0418,-3.7 10.41393,-0.7z"/>
   <path stroke="null" fill="#007fff" id="svg_97" d="m267.78607,71.54787c-3.37213,1.9 -5.25656,6.5 -4.46311,11c0.9918,4.9 5.45492,7.8 11.1082,7.1c3.86803,-0.5 4.26475,-0.2 9.62049,5.2l5.65328,5.8l0,28c0,26.8 0.09918,28.2 1.98361,29.9c1.98361,1.8 1.98361,3.1 1.98361,167.4l0,165.5l-50.87951,51.6c-28.06803,28.3 -54.35082,55.1 -58.51639,59.5l-7.63689,8l0,9l0,9l-13.48852,13.6c-12.89344,13 -13.58771,13.6 -16.16639,12.6c-7.0418,-2.6 -14.48033,4.3 -12.5959,11.8c1.88443,7.7 11.30656,9.8 17.1582,3.9c2.08279,-2.1 2.38033,-3.2 2.08279,-7.3l-0.29754,-4.8l13.68689,-14.3l13.58771,-14.3l0,-8.2l0,-8.1l58.41721,-59.5l58.51639,-59.4l0,-168.1l0.09918,-168.1l-2.47951,-2.3l-2.47951,-2.3l0,-27.5l0,-27.5l-6.05,-6.3c-5.0582,-5.4 -5.85164,-6.6 -4.95902,-8.3c4.46311,-8.4 -5.35574,-17.3 -13.88525,-12.6zm10.90984,3.1c6.34754,8.1 -3.96721,18.4 -11.30656,11.4c-3.17377,-3 -3.37213,-8.4 -0.29754,-11.7c3.07459,-3.3 8.92623,-3.2 11.6041,0.3zm-132.1082,581.40001c2.77705,1 4.26475,3 5.5541,7.1c0.79344,2.7 -2.28115,7.7 -5.35574,8.8c-9.91803,3.5 -15.27377,-11.9 -5.45492,-15.9c1.09098,-0.5 2.08279,-0.9 2.18197,-0.9c0.09918,-0.1 1.4877,0.4 3.07459,0.9z"/>
   <path stroke="null" fill="#007fff" id="svg_98" d="m309.44181,71.54787c-5.95082,3.2 -6.24836,13 -0.59508,16.5c3.47131,2.1 7.24016,2.5 9.62049,1c1.09098,-0.7 2.87623,0.4 7.24016,4.8l5.65328,5.6l0,137.7l0,137.6l-9.42213,9.9l-9.32295,9.9l-0.09918,64.8l0,64.8l-8.43033,8.7l-8.43033,8.7l0,18l0,18.1l-7.43852,7.4l-7.43852,7.5l0,38.1c0,45 0.9918,41.4 -12.1,41.4c-11.00902,0 -11.70328,-0.7 -11.70328,-11.7c0,-11.7 0.89262,-11.3 -24.10082,-11.3l-20.53033,0l-0.59508,-2.4c-1.78525,-7.2 -12.19918,-9.8 -16.86066,-4.3c-2.57869,3 -3.17377,8.3 -1.38852,11.8c0.59508,1 2.47951,2.6 4.16557,3.5c4.36393,2.3 9.02541,1.1 12.39754,-3.1l2.77705,-3.5l18.84426,0c23.7041,0 23.30738,-0.2 23.30738,10.9c0,6.8 0.29754,8 2.28115,9.9c2.08279,1.9 3.47131,2.2 11.70328,2.2c9.02541,0 9.52131,-0.1 12.1,-2.8l2.67787,-2.8l0,-37l0,-37l7.43852,-7.4l7.43852,-7.4l0,-18.6l0,-18.5l7.93443,-8l7.93443,-8l0,-65l0.09918,-65l9.81885,-10.5l9.91803,-10.5l0,-139l0,-139.1l-5.45492,-5.4c-5.25656,-5.2 -5.5541,-5.7 -4.85984,-9.3c1.4877,-9.3 -6.64508,-15.5 -14.57951,-11.2zm10.90984,3.1c2.87623,3.7 2.67787,8.5 -0.39672,11.4c-5.15738,4.9 -13.38934,1.3 -13.38934,-5.9c0,-7.6 9.32295,-11.3 13.78607,-5.5zm-112.17295,569.00001c2.67787,3.1 2.77705,7.3 0.19836,10.7c-4.06639,5.2 -11.70328,3.8 -13.88525,-2.7c-2.87623,-8.9 7.43852,-15 13.68689,-8z"/>
   <path stroke="null" fill="#007fff" id="svg_99" d="m430.64017,71.44787c-9.71967,5.4 -3.86803,20.4 7.0418,18.2c2.87623,-0.6 3.76885,-0.1 9.42213,5.6l6.24836,6.2l0,35.7c0,42.2 -1.09098,38.9 12.5959,38.9c11.50492,0 12.19918,0.6 12.19918,11.6c0,4.9 -0.4959,8.5 -1.19016,9.2c-0.69426,0.7 -4.26475,1.2 -9.22377,1.2c-7.14098,0 -8.33115,0.3 -10.21557,2.3c-1.88443,2 -2.18197,3.5 -2.18197,11.2c0,8.3 0.19836,9.1 2.67787,11.7c2.38033,2.6 3.27295,2.8 9.71967,2.8c5.65328,0 7.43852,0.4 8.72787,1.8c1.58689,1.7 1.68607,11.1 1.68607,115.3l0,113.4l-18.15,18.3l-18.15,18.2l-3.17377,-1.1c-9.91803,-3.5 -17.55492,8.7 -10.21557,16.2c7.53771,7.5 19.53853,-0.1 16.06721,-10.2c-1.09098,-3.1 -0.9918,-3.2 16.76148,-21.8l17.85246,-18.6l0,-114.6l0,-114.6l-2.28115,-2.1c-1.88443,-1.8 -3.47131,-2.2 -8.23197,-2.2c-9.22377,0 -10.31475,-1.2 -10.31475,-11.9c0,-11.3 0.69426,-12.1 11.1082,-12.1c9.91803,0 10.71148,-0.9 10.71148,-12c0,-7.7 -0.19836,-8.6 -2.67787,-11.2c-2.47951,-2.6 -3.17377,-2.8 -11.20738,-2.8c-5.35574,0 -9.02541,-0.5 -9.71967,-1.2c-0.89262,-0.9 -1.19016,-10.5 -1.19016,-37l0,-35.7l-5.85164,-6.4l-5.85164,-6.3l1.09098,-4.1c2.38033,-9.2 -6.05,-16.4 -14.08361,-11.9zm10.81066,3.1c3.07459,3.3 2.87623,8 -0.39672,11.3c-7.14098,7.3 -17.75328,-3 -11.40574,-11.2c2.77705,-3.6 8.52951,-3.6 11.80246,-0.1zm-0.4959,421.00001c3.47131,3.4 3.27295,7.8 -0.39672,11.6c-4.26475,4.3 -9.62049,3.4 -12.49672,-2c-4.16557,-8.3 6.44672,-16.2 12.89344,-9.6z"/>
   <path stroke="null" fill="#007fff" id="svg_109" d="m227.91557,111.64787c-5.0582,2.8 -6.14918,9.5 -2.18197,14.2c2.97541,3.6 7.63689,4.7 11.40574,2.8c2.67787,-1.3 2.97541,-1.2 8.82705,4.8l6.05,6.2l0,14.6c0,11.7 -0.29754,14.8 -1.4877,15.8c-1.28934,1.1 -1.4877,9.1 -1.4877,61.4l0,60.1l7.93443,8l7.93443,8l0,74.5l0,74.5l-10.11639,10.2c-8.52951,8.6 -10.71148,10.3 -13.19098,10.3c-2.67787,0 -7.83525,4.8 -44.13525,41.7c-22.61312,23 -65.35984,66.4 -95.11394,96.6l-53.9541,54.7l-13.48852,0l-13.58771,0l-2.67787,-2.8c-2.57869,-2.7 -2.67787,-3.3 -2.67787,-12.7l0,-9.9l5.5541,-5.7c5.35574,-5.5 5.5541,-5.6 10.11639,-5.1c3.66967,0.3 5.25656,0 7.33934,-1.7c5.25656,-4.2 4.5623,-12.4 -1.38852,-16.1c-4.26475,-2.7 -8.33115,-2 -12.1,2.1c-2.47951,2.9 -2.77705,3.7 -2.28115,7.9c0.59508,4.7 0.4959,4.7 -5.35574,10.6l-5.85164,5.8l0,10.6l0,10.6l5.25656,5.2l5.25656,5.2l14.38115,0l14.48033,0l53.9541,-54.8c29.65492,-30.1 72.50082,-73.5 95.11394,-96.5c32.63033,-33 41.65574,-41.7 43.63935,-41.7c1.88443,0 5.25656,-2.7 13.19098,-10.8l10.6123,-10.7l0,-78l0,-78.1l-7.43852,-7.4l-7.43852,-7.4l0,-58.8c0,-38 0.39672,-58.9 0.9918,-59.3c0.59508,-0.4 0.9918,-7.1 0.9918,-16.8l-0.09918,-16.2l-6.14918,-6.7c-5.85164,-6.2 -6.14918,-6.9 -5.85164,-10.7c0.29754,-3.4 0,-4.5 -2.57869,-7.1c-3.47131,-3.4 -7.83525,-3.9 -12.39754,-1.4zm10.71148,1.9c3.57049,3.5 3.47131,9.6 -0.09918,12.4c-5.5541,4.4 -13.29016,0.8 -13.29016,-6.1c0.09918,-7.6 8.33115,-11.5 13.38934,-6.3zm-200.34427,505.00001c7.53771,7.5 -2.97541,19.4 -10.81066,12.2c-5.5541,-5 -2.08279,-14.7 5.35574,-14.7c1.88443,0 3.96721,0.9 5.45492,2.5z"/>
   <path stroke="null" fill="#007fff" id="svg_110" d="m307.4582,112.94787c-4.76066,4.8 -2.97541,13.7 3.07459,15.6c1.98361,0.6 1.98361,2.1 1.98361,126.4l0,125.7l-4.46311,4.4l-4.46311,4.4l0,62l0,62l-38.58115,39.1c-21.12541,21.4 -42.8459,43.6 -48.20164,49.2c-8.72787,9.2 -9.91803,10.1 -12.00082,9.3c-3.76885,-1.5 -9.52131,0.9 -11.20738,4.7c-4.06639,8.9 3.66967,17.5 12.49672,13.8c4.16557,-1.8 6.64508,-6.6 5.5541,-10.8c-0.39672,-1.8 -0.79344,-3.5 -0.79344,-3.8c0,-0.4 21.52213,-22.5 47.9041,-49.3l47.80492,-48.7l0,-61.8l0,-61.8l4.95902,-4.9l4.85984,-4.9l0.09918,-127.3c0,-108.8 0.19836,-127.2 1.38852,-127.2c0.79344,0 2.57869,-1.4 4.06639,-3.2c2.28115,-2.7 2.57869,-3.9 2.18197,-7.2c-1.19016,-8.4 -10.71148,-11.7 -16.6623,-5.7zm10.90984,-0.4c4.66148,2.4 5.5541,8.3 1.98361,12.9c-2.57869,3.3 -7.43852,3.5 -11.20738,0.5c-3.57049,-2.8 -3.66967,-8.9 -0.09918,-12.4c2.77705,-2.9 5.35574,-3.1 9.32295,-1zm-110.88361,502.40001c3.07459,3.1 3.57049,5.9 1.68607,9.4c-4.16557,8 -15.07541,5.1 -15.07541,-4c0,-2.6 0.69426,-4.2 2.77705,-5.9c3.66967,-3.2 7.0418,-3 10.6123,0.5z"/>
   <path stroke="null" fill="#007fff" id="svg_111" d="m428.4582,112.94787c-5.35574,5.4 -3.27295,13.7 4.16557,16.3l2.87623,1l0,171.2l0,171.1l-10.90984,11l-10.90984,11l0,32.5l0,32.5l-25.09262,25.3l-24.99344,25.2l-17.05902,0l-16.95984,0l-2.97541,-3c-6.05,-6.1 -15.57131,-2.9 -16.76148,5.6c-0.39672,3.6 -0.09918,4.6 2.38033,7.4c2.38033,2.7 3.66967,3.3 7.14098,3.4c3.57049,0.1 4.66148,-0.4 7.14098,-3.2c1.58689,-1.8 2.87623,-4.3 2.87623,-5.7l0,-2.5l18.24918,0l18.24918,0l25.39016,-26.3l25.39016,-26.2l0,-32l0,-32l10.41393,-10.5l10.41393,-10.5l0,-172.5l0.09918,-172.5l3.17377,-2c1.78525,-1.2 3.47131,-3.3 3.96721,-5.2c2.77705,-9.5 -9.22377,-16.4 -16.26557,-9.4zm12.1,1c3.66967,3.8 3.86803,8.2 0.39672,11.6c-6.44672,6.6 -17.1582,-1.2 -12.99262,-9.4c3.07459,-5.8 8.13279,-6.7 12.5959,-2.2zm-117.23115,492.60001c3.76885,1.9 5.25656,6.2 3.57049,10.2c-2.38033,5.7 -8.72787,7.1 -12.89344,2.8c-3.66967,-3.6 -3.37213,-8.6 0.59508,-11.9c3.47131,-3 4.85984,-3.2 8.72787,-1.1z"/>
   <path stroke="null" fill="#007fff" id="svg_112" d="m471.00656,112.64787c-1.4877,0.8 -3.17377,2.3 -3.76885,3.4c-1.28934,2.4 -1.28934,7.6 0,10.1c1.58689,2.9 6.74426,5.2 10.31475,4.5c2.77705,-0.6 3.57049,-0.1 8.72787,5.6l5.75246,6.3l-0.09918,168l0,168l-21.62131,22.3c-21.22459,21.8 -21.62131,22.3 -24.39836,21.2c-3.96721,-1.5 -7.93443,-0.4 -10.90984,3.2c-3.96721,4.7 -2.77705,11.6 2.57869,14.4c3.76885,1.9 6.74426,1.8 10.51312,-0.6c3.17377,-1.9 3.96721,-3.6 4.46311,-9.6c0.29754,-2.6 4.16557,-7.1 21.91885,-25.4l21.52213,-22.2l0,-171.1l0,-171.1l-6.05,-6.2c-5.35574,-5.4 -5.95082,-6.4 -4.95902,-8.2c4.5623,-8.5 -5.35574,-17.4 -13.98443,-12.6zm10.90984,3c5.5541,6.3 -0.69426,16.1 -8.62869,13.3c-4.06639,-1.4 -6.44672,-6.6 -4.95902,-10.8c2.18197,-6.2 9.12459,-7.5 13.58771,-2.5zm-33.82049,409.60001c2.97541,3.4 3.37213,5.5 1.78525,9.4c-1.28934,3.2 -4.5623,5.4 -8.03361,5.4c-0.89262,0 -2.87623,-1.3 -4.46311,-2.9c-3.47131,-3.5 -3.76885,-7.7 -0.79344,-11.5c2.67787,-3.5 8.52951,-3.7 11.50492,-0.4z"/>
   <path stroke="null" fill="#007fff" id="svg_122" d="m229.70082,151.94787c-3.86803,1.7 -5.95082,5.1 -5.95082,9.8c0,3.7 0.4959,4.9 2.77705,6.9c1.4877,1.3 3.66967,2.4 4.76066,2.4c1.88443,0 1.88443,1.2 1.88443,59.3l0,59.2l10.90984,11l10.90984,11l0,70.5l0,70.6l-6.74426,6.7c-6.44672,6.5 -6.84344,6.7 -11.70328,6.7l-4.95902,0l-22.31557,22.7c-156.70492,159.9 -160.07705,163.3 -163.35,163.3c-2.47951,0 -3.47131,-0.6 -4.36393,-2.6c-1.38852,-3.1 -5.5541,-5.4 -9.71967,-5.4c-4.66148,0 -8.92623,4.7 -8.92623,9.7c0,9.8 12.1,13.3 18.05082,5.2c1.58689,-2.1 2.97541,-2.9 5.35574,-2.9c2.87623,0 11.50492,-8.5 95.11394,-93.5l91.94017,-93.5l4.66148,0c4.46311,0 4.85984,-0.3 12.29836,-7.8l7.63689,-7.7l0,-71.5l0,-71.5l-11.40574,-11.5l-11.40574,-11.5l0,-58.2c0,-49.5 0.19836,-58.3 1.38852,-58.3c2.47951,0 6.5459,-5.9 6.5459,-9.6c0,-6.4 -7.73607,-11.9 -13.38934,-9.5zm8.92623,3.6c4.16557,4.1 3.27295,10.5 -1.68607,13.1c-3.47131,1.8 -6.34754,1.3 -9.52131,-1.6c-4.95902,-4.6 -1.09098,-14 5.75246,-14c1.88443,0 3.96721,0.9 5.45492,2.5zm-200.74099,492.40001c3.66967,3.8 3.86803,8.2 0.39672,11.6c-6.34754,6.5 -16.46393,-0.5 -12.99262,-9c2.57869,-6.1 7.93443,-7.2 12.5959,-2.6z"/>
  </g>
 </g>
</svg>