<svg width="750" height="1100" xmlns="http://www.w3.org/2000/svg" style="vector-effect: non-scaling-stroke;" stroke="null" preserveAspectRatio="xMidYMid meet">
 <g stroke="null">
  <title>background</title>
  <rect stroke="null" fill="none" id="canvas_background" height="1102" width="752" y="-1" x="-1"/>
 </g>

 <g stroke="null">
  <title>Layer 1</title>
  <path stroke="null" fill="#007fff" id="svg_188" d="m0,1130.89999c0,0.6 0.4,1.1 0.8,1.1c1.1,0 3.2,4.6 3.2,6.9c0,1 -1,3 -2.1,4.5c-1.2,1.5 -1.9,3 -1.5,3.3c1,1 3.5,-1.8 4.6,-5.3c1,-2.8 0.9,-4 -0.7,-7.1c-1.7,-3.6 -4.3,-5.6 -4.3,-3.4z"/>
  <path stroke="null" transform="rotate(180 563.8880615234374,963.09765625) " fill="#007fff" id="svg_194" d="m640.43794,939.76101c-2.8,2.8 -3,3.4 -2.5,8.3l0.5,5.3l-5.4,5.4c-5.4,5.3 -5.4,5.4 -5.4,11.4c0,6 -0.1,6.1 -5.3,11.3l-5.3,5.2l-59,0l-59,0l-5.9,-6c-5.5,-5.5 -5.8,-6.1 -4.7,-8.5c3.3,-7.2 -1.1,-14.5 -8.7,-14.5c-6.1,0 -9.6,3.5 -9.6,9.5c0,6.2 3.5,9.5 10,9.5c4,0 4.8,0.4 10.6,6.5l6.2,6.5l60.6,0l60.7,0l6.2,-6.3c5.8,-5.8 6.2,-6.6 6.2,-10.8c0,-4.2 0.4,-4.9 6.3,-10.7c5.5,-5.5 6.6,-6.2 9.2,-5.7c5.6,1.1 11.5,-4.5 11.5,-10.7c0,-1.1 -1.5,-3.5 -3.4,-5.4c-4.6,-4.6 -9.4,-4.7 -13.8,-0.3zm12.3,0.8c5.5,5.5 2.5,14.1 -5,14.1c-6.5,0 -10.5,-6.4 -7.6,-12c2.9,-5.5 8.2,-6.4 12.6,-2.1zm-167.7,20.3c3.8,3.5 3.9,8.6 0.1,12.3c-5.1,5.2 -13.5,1.5 -13.5,-6c0,-7.3 8,-11.1 13.4,-6.3z"/>
  <path stroke="null" transform="rotate(180 564.1247558593749,938.6309814453125) " fill="#007fff" id="svg_195" d="m640.91141,921.8278c-2.8,2.7 -3,3.4 -2.5,7.8l0.6,4.8l-8.2,8.1l-8.2,8.2l-64.7,0c-35.5,0 -65.3,-0.3 -66.2,-0.6c-0.9,-0.3 -1.6,-1.3 -1.6,-2.1c0,-5.3 -7,-10.3 -12.2,-8.8c-3.6,1.1 -6.7,4.5 -7.4,8c-0.7,3.7 1.6,8.9 4.5,10.5c3.2,1.6 8.6,1.2 11.4,-1c2.5,-2 4,-2 70.4,-2l67.8,0l8.9,-8.9c4.9,-5 9.3,-8.8 9.8,-8.5c0.4,0.3 2.6,0.6 4.9,0.6c7.4,0.1 11.9,-7.4 8.5,-14c-3.2,-6.2 -10.8,-7.2 -15.8,-2.1zm10.7,-1.5c2.1,0.8 4.5,5.6 4.5,8.9c0,3.5 -4.2,7.5 -7.7,7.5c-6.3,0 -10.3,-5.7 -7.9,-11.4c2,-4.9 6.3,-6.8 11.1,-5zm-166.7,22c5.1,3.5 4.6,11.1 -0.9,13.9c-3.9,2.1 -5.3,1.9 -8.8,-1.1c-8,-6.7 1.2,-18.8 9.7,-12.8z"/>
  <path stroke="null" transform="rotate(180 480.3984375,919.697265625) " fill="#007fff" id="svg_196" d="m473.55863,912.76016c-6.8,6.8 -0.8,18.4 8.5,16.7c5,-1 8.1,-4.9 8.1,-10.3c0,-3.7 -0.5,-4.9 -2.8,-6.9c-4.1,-3.5 -9.9,-3.3 -13.8,0.5zm12.9,1.7c6.4,7.2 -2.8,17.3 -10.6,11.8c-3.2,-2.2 -4.3,-5.7 -3.1,-9.4c2.2,-6.1 9.2,-7.3 13.7,-2.4z"/>
  <path stroke="null" transform="rotate(180 584.6370849609375,883.533447265625) " fill="#007fff" id="svg_197" d="m449.63698,862.03347c-5.8,5.8 -8.1,7.5 -10.3,7.5c-5.8,0 -10.7,4.6 -10.7,10.1c0,5.1 4.9,9.9 10.1,9.9c6.9,0 12,-8.1 8.8,-14.1c-0.9,-1.7 -0.1,-2.9 5.2,-8.4l6.2,-6.5l14.6,0l14.6,0l26,26l26,26l75.5,0l75.6,0l17.3,-17.5c15.2,-15.3 17.6,-17.3 19.3,-16.4c5,2.7 12.8,-3.2 12.8,-9.8c0,-8 -10.4,-12.3 -16.7,-6.9c-2.2,1.9 -2.8,3.2 -2.8,7c-0.1,4.5 -0.3,4.8 -16.4,21.6l-16.3,17l-72.7,0l-72.6,0l-26.5,-26.5l-26.5,-26.5l-16.5,0l-16.6,0l-7.4,7.5zm286.5,1c5.2,5.1 1.6,14.5 -5.5,14.5c-4.4,0 -8,-3.9 -8,-8.5c0,-4.6 3.6,-8.5 8,-8.5c1.9,0 4,0.9 5.5,2.5zm-291.7,10.8c5.2,4.7 1.4,13.7 -5.9,13.7c-9.5,0 -10.7,-14.3 -1.4,-16.2c2.7,-0.6 4.5,0.1 7.3,2.5z"/>
  <path transform="rotate(90 457.819580078125,178.3045043945313) " stroke="null" fill="#007fff" id="svg_3" d="m345.01958,-55.10842l-0.2,120.1l-2.6,3.1l-2.6,3.1l-23.7,0l-23.8,0l-4.1,4.2l-4.2,4.2l0,99.5l0.1,99.6l67.1,68c36.9,37.4 79.7,80.9 95.1,96.7l28,28.8l47.6,0l47.6,0l21.8,21.8l21.8,21.8l-0.7,4.1c-1.2,7.6 4.8,13.5 12,11.7c3.3,-0.8 7.6,-5.8 7.6,-8.9c0,-7.4 -7.9,-12.8 -13.9,-9.6c-1.4,0.8 -5.6,-2.9 -24.2,-21.5l-22.4,-22.4l-48,0l-48,0l-72.1,-72.8c-39.6,-40 -82.2,-83.1 -94.7,-95.8l-22.7,-23.1l0,-99l0,-98.9l3.3,-3.2l3.3,-3.2l24,0l24,0l2.7,-2.8l2.7,-2.8l-0.3,-121.5l-0.2,-121.4l-0.3,120.2zm281.7,570.90001c3.9,3.3 4.2,8 0.8,12c-4.9,5.6 -13.7,2 -13.7,-5.7c0,-2.9 0.7,-4.3 3.1,-6.3c1.7,-1.4 3.9,-2.6 4.9,-2.6c1,0 3.2,1.2 4.9,2.6z"/>
  <path transform="rotate(90 492.4324951171875,143.8045043945313) " stroke="null" fill="#007fff" id="svg_4" d="m426.9325,-45.4955l0,129.2l-2.7,2.8l-2.7,2.8l-25.6,0l-25.6,0l-2.7,2.8c-2.3,2.4 -2.7,3.7 -2.7,8.8c0,5 0.4,6.4 2.3,8.2c2.3,2.1 3,2.2 27.8,2.2l25.5,0l2.7,2.8c3.3,3.4 3.4,6.2 0.4,9c-2.3,2.1 -3,2.2 -27.8,2.2c-25.4,0 -25.6,0 -27.7,2.3c-3.2,3.4 -3.1,12.2 0.3,15.9l2.4,2.8l25.4,0l25.3,0l2.7,2.8c3.3,3.4 3.4,6.2 0.4,9c-2.3,2.1 -3,2.2 -27.8,2.2l-25.4,0l-2.8,2.5c-2.3,2.2 -2.7,3.4 -2.7,8.2c0,4.8 0.4,6.1 2.7,8.5l2.7,2.8l25.6,0c23.6,0 25.8,0.1 27.3,1.8c2.3,2.5 2.1,4.5 -0.6,7c-2.3,2.1 -3,2.2 -27.9,2.2c-30.4,0 -28.8,-0.7 -28.8,11.7c0,11.9 -1.7,11.3 30.8,11.3c26.9,0 27.1,0 28.6,2.2c2.2,3.2 2,6.1 -0.7,8.6c-2.3,2.1 -3,2.2 -28.3,2.2c-25.9,0 -26.1,0 -28.2,2.3c-3.2,3.4 -3.2,13.4 0.1,16.5c2.3,2.1 3,2.2 27.8,2.2c25.4,0 25.6,0 27.7,2.3c2.7,2.9 2.9,7.8 0.4,10c-1.6,1.5 -4.7,1.7 -21.9,1.7c-23.4,0 -23.3,0 -23.3,9.2c0,4.4 0.4,5.9 2.3,7.6c2.2,2.1 3.2,2.2 21.7,2.2l19.4,0l2.8,2.7l2.8,2.7l0,23l0,22.9l63.7,63.9l63.7,63.8l12.1,0l12,0l8,-8c8.6,-8.7 10.9,-9.6 15.5,-6c6.2,4.9 16,0.3 16,-7.5c0,-4.7 -1.4,-7.1 -5.2,-9.1c-5.5,-2.9 -12.4,0.2 -14.3,6.3c-0.4,1.7 -1.4,2.3 -3.3,2.3c-2.1,0 -4.7,2 -11.2,8.5l-8.5,8.5l-10.6,0l-10.7,0l-62.6,-63.3l-62.6,-63.2l0,-21l0,-21.1l-3.9,-3.8l-3.9,-3.8l-17.7,0.2c-17.1,0.1 -17.9,0 -20.1,-2.1c-2.6,-2.5 -3.2,-7.7 -1.2,-9.7c0.8,-0.8 6.8,-1.2 20.2,-1.2l19,0l2.8,-2.7c2.3,-2.2 2.8,-3.5 2.8,-7.3c0,-3.9 -0.5,-5.1 -3.3,-7.8l-3.3,-3.2l-25.3,0c-28.8,0 -28,0.2 -28.1,-8.1c0,-7.9 -0.2,-7.9 29,-7.9l25.4,0l2.8,-2.7c3.8,-3.6 4,-10.8 0.5,-14.1c-2.3,-2.1 -3,-2.2 -28.8,-2.2c-19.3,0 -26.8,-0.3 -27.7,-1.2c-0.7,-0.7 -1.2,-3.7 -1.2,-6.8c0,-9.2 -0.7,-9 29,-9l25.4,0l2.8,-2.7c3.8,-3.6 3.5,-6.2 -1,-10.6l-3.8,-3.7l-24.5,0c-27.6,0 -27.9,-0.1 -27.9,-7.2c0,-6.7 0.5,-6.8 29.1,-6.8l25.5,0l2.7,-2.8c2.2,-2.3 2.7,-3.7 2.7,-7.8c0,-4.4 -0.4,-5.4 -3.3,-8.2l-3.3,-3.2l-25.5,0c-23.5,0 -25.7,-0.1 -27.2,-1.8c-2.2,-2.5 -2.1,-7.5 0.1,-9.5c1.6,-1.5 5,-1.7 27,-1.7l25.2,0l3.5,-3.7c4.8,-5.1 4.7,-8.7 -0.3,-13.6l-3.8,-3.7l-25.1,0c-24.9,0 -25.2,0 -26.7,-2.2c-2,-2.9 -2,-6.7 0,-9.6c1.5,-2.2 1.8,-2.2 27.3,-2.2l25.7,0l3.7,-3.8l3.7,-3.8l0,-130.7c0,-115.5 -0.2,-130.7 -1.5,-130.7c-1.3,0 -1.5,15 -1.5,129.2zm188.4,479.70001c4.8,4.2 3.5,11.9 -2.3,13.9c-7.7,2.7 -14.2,-5.9 -9.5,-12.6c3,-4.3 7.8,-4.8 11.8,-1.3z"/>
  <path transform="rotate(90 498.40966796875,162.35217285156256) " stroke="null" fill="#007fff" id="svg_5" d="m430.362,100.02934l0,250.3l45.1,45.7l45.1,45.8l5.7,0l5.6,0l8.3,8.3c8.1,8.1 8.2,8.3 7.1,11.5c-3.5,10 8.7,17.7 16.2,10.3c3.1,-3.1 3.9,-8.3 1.9,-12.2c-1.6,-2.9 -6.8,-5.2 -10.4,-4.5c-2.9,0.6 -3.8,-0.1 -12.1,-8.4l-9,-9l-5.6,0l-5.7,0l-44.6,-45.3l-44.6,-45.2l0,-248.8c0,-220.4 -0.2,-248.7 -1.5,-248.7c-1.3,0 -1.5,28.5 -1.5,250.2zm131.4,358.70001c4.8,4.1 3.5,11.9 -2.3,13.9c-8.1,2.8 -14.4,-6.4 -9.1,-13.1c3,-3.8 7.5,-4.1 11.4,-0.8z"/>
  <path transform="rotate(90 519.4324951171876,169.36386108398443) " stroke="null" fill="#007fff" id="svg_6" d="m458.37317,124.66386l0,246.8l40.1,40.7l40.1,40.7l4.2,0c6.8,0 8.6,-2.7 8.6,-12.7c0,-9.9 1.1,-11.3 9.1,-11.3c3,0 6,0.5 6.7,1.2c0.7,0.7 1.2,3.5 1.2,6.3c0,4.5 -0.3,5.3 -2.6,6.5c-3.6,2 -5.7,6.5 -5,10.6c0.9,4.5 4.8,7.4 10.1,7.4c10.8,0 13.3,-13.5 3.4,-18.5c-2.7,-1.4 -2.9,-1.9 -2.9,-7.4c0,-8 -1.4,-9.1 -11.2,-9.1c-10.4,0 -11.6,1.4 -12,13.5l-0.3,9l-4,0.3l-4,0.4l-38.7,-39.4l-38.7,-39.3l-0.1,-246.3c0,-245.5 0,-246.2 -2,-246.2c-2,0 -2,0.7 -2,246.8zm116.1,319.2c2.7,1.5 5.1,6.7 4.3,9.3c-2,6.8 -9.4,8.9 -13.9,4.1c-6.4,-6.9 1.4,-17.7 9.6,-13.4z"/>
  <path transform="rotate(90 539.9450073242189,156.21231079101568) " stroke="null" fill="#007fff" id="svg_7" d="m508.03717,124.42482l0,239.3l23.2,23.2l23.1,23.1l-1.3,3.1c-0.7,1.8 -1,4.5 -0.6,6.5c1.9,10.1 17.3,10.1 19.2,0c1.4,-7.4 -4.2,-13.2 -11.5,-12c-3.6,0.6 -3.7,0.4 -26.3,-22.2l-22.8,-22.7l0,-238.7c0,-211.6 -0.2,-238.8 -1.5,-238.8c-1.3,0 -1.5,27.2 -1.5,239.2zm59.5,287.3c3.4,3.3 3.4,8.3 0,11.5c-5.3,5 -13.5,1.3 -13.5,-6.1c0,-7.1 8.5,-10.5 13.5,-5.4z"/>
  <path transform="rotate(90 539.9324951171876,204.88208007812506) " stroke="null" fill="#007fff" id="svg_8" d="m473.35492,162.88207l0,229.1l37.1,37.4l37.2,37.5l19.2,0l19.3,0l1.2,3c1.7,4.1 4.6,6 9.3,6c7.3,0 12.2,-8.5 8.7,-15.1c-1.3,-2.4 -6.1,-4.9 -9.4,-4.9c-2.8,0 -8.6,4.4 -8.6,6.6c0,1.2 -3.3,1.4 -18.8,1.4l-18.7,0l-36.3,-36.3l-36.2,-36.2l0,-228.8c0,-228 0,-228.7 -2,-228.7c-2,0 -2,0.7 -2,229zm127.8,296.6c5.4,3.7 4.6,11.5 -1.4,14c-3.9,1.6 -7.4,0.7 -9.8,-2.8c-5.2,-7.4 3.8,-16.4 11.2,-11.2z"/>
  <path transform="rotate(90 519.4381103515626,219.3045043945313) " stroke="null" fill="#007fff" id="svg_9" d="m454.43811,141.61011l0,213.9l2.3,2.1l2.3,2.2l52.1,0c49.1,0 52.1,0.1 53.6,1.8c2.1,2.3 2.2,8.1 0.1,11l-1.5,2.2l-45.8,0l-45.8,0l-2.1,2.3c-1.8,1.9 -2.2,3.5 -2.2,9.3c0,6.1 0.3,7.4 2.3,9.2c2.3,2.2 2.5,2.2 47.8,2.2c34.1,0 45.8,0.3 46.7,1.2c1.6,1.6 1.6,9 0,10.6c-0.9,0.9 -9.5,1.2 -32.3,1.2c-36,0 -34.5,-0.4 -34.5,9.1c0,4.9 0.4,5.9 3.3,8.7l3.3,3.2l30.6,0l30.6,0l8.1,8.7l8.1,8.7l0,13.6l0,13.5l-7.8,7.8c-6.9,6.9 -8.1,7.7 -11.5,7.7c-4.9,0 -7.3,1.3 -9.3,5.2c-2.1,4 -1.1,9.1 2.3,11.8c2.9,2.3 9.8,2.7 12.4,0.7c3.8,-2.9 4.9,-8.4 2.7,-13.2c-1.1,-2.5 -0.8,-3 6.5,-10.3l7.7,-7.7l0,-15l0,-15l-9.8,-9.8l-9.7,-9.7l-30,0l-29.9,0l-2.8,-2.7c-2.2,-2.1 -2.8,-3.6 -2.8,-7c0,-7.3 0.1,-7.3 34.8,-7.2c22.4,0.1 30.6,-0.2 31.7,-1.1c0.9,-0.8 1.5,-3 1.5,-5.9c0,-3.9 -0.5,-5.2 -2.8,-7.4l-2.8,-2.7l-45,0c-33.7,0 -45.3,-0.3 -46.2,-1.2c-0.7,-0.7 -1.2,-3.9 -1.2,-7.3c0,-5.1 0.4,-6.5 2.3,-8.3c2.3,-2.2 2.5,-2.2 47.8,-2.2c34.1,0 45.8,-0.3 46.7,-1.2c0.7,-0.7 1.2,-3.7 1.2,-6.8c0,-4.6 -0.4,-6.1 -2.3,-7.8l-2.3,-2.2l-51.6,0c-48.6,0 -51.6,-0.1 -53.1,-1.8c-1.6,-1.7 -1.7,-18.1 -1.7,-215c0,-141.5 -0.3,-213.2 -1,-213.2c-0.7,0 -1,71.9 -1,213.8zm111.2,352.30001c2.5,1.3 5,7.2 4.1,9.6c-2.2,6.4 -9.3,8.4 -13.8,3.8c-6.7,-6.6 1.4,-17.9 9.7,-13.4z"/>
  <path transform="rotate(90 519.4381103515626,239.8045043945313) " stroke="null" fill="#007fff" id="svg_10" d="m447.93811,139.61011l0,191.2l18.3,18.3l18.2,18.2l36,0l35.9,0l2.8,2.7l2.8,2.7l0,37.6l0,37.5l8.5,8.5l8.5,8.5l0,23.6l0,23.6l-2.6,1.3c-5.9,3.2 -6.8,11.9 -1.7,16c2.9,2.3 9.8,2.7 12.4,0.7c2.4,-1.8 3.9,-5.2 3.9,-8.7c0,-3.7 -4.7,-9 -7.9,-9c-2.1,0 -2.1,-0.4 -2.1,-24.3l0,-24.2l-8.5,-8.5l-8.5,-8.5l0,-38l0,-38.1l-2.8,-2.7l-2.8,-2.7l-36,0l-36,0l-18.2,-18.3l-18.2,-18.3l0,-190.2c0,-126.1 -0.3,-190.2 -1,-190.2c-0.7,0 -1,64.4 -1,191.3zm137.2,374.80001c2.5,1.3 5,7.2 4.1,9.6c-2.2,6.4 -9.3,8.4 -13.8,3.8c-6.7,-6.6 1.4,-17.9 9.7,-13.4z"/>
  <path transform="rotate(90 498.44665527343756,252.80450439453128) " stroke="null" fill="#007fff" id="svg_11" d="m429.94666,128.11866l0,187.7l13.8,13.8l13.7,13.7l38.8,0l38.9,0l2.9,2.9l2.9,2.9l0,40.3l0,40.3l12,12.1l12,12.2l0,40l0,39.9l-5.6,6c-5.5,5.8 -5.7,5.9 -10.9,5.9c-6.3,0 -10.1,2.8 -11.1,8.1c-1.8,9.4 9.9,15.3 16.8,8.3c2.8,-2.8 3,-3.4 2.5,-8.3l-0.5,-5.3l5.4,-5.4l5.4,-5.3l0,-42.6l0,-42.5l-12,-12.2l-12,-12.2l0,-40.3l0,-40.4l-3.8,-3.7l-3.8,-3.7l-38.4,0l-38.5,0l-13.2,-13.2l-13.3,-13.3l0,-186.7c0,-123.9 -0.3,-186.8 -1,-186.8c-0.7,0 -1,63.3 -1,187.8zm122.4,421.10001c4.8,4.2 3.5,11.9 -2.3,13.9c-7.7,2.7 -14.2,-5.9 -9.5,-12.6c3,-4.3 7.8,-4.8 11.8,-1.3z"/>
  <path transform="rotate(90 457.5111083984375,338.2337036132813) " stroke="null" fill="#007fff" id="svg_12" d="m362.58192,157.61231l0,172.7l7.8,7.8l7.7,7.7l23.6,0l23.5,0l3.2,3.3l3.2,3.3l0,58l0,57.9l13.5,13.5l13.5,13.5l0,37l0,37l11.5,11.5l11.5,11.5l0,14.5l0,14.5l26.6,26.6l26.6,26.6l-1.2,3.5c-3.7,10.2 7.9,18.1 15.8,10.8c7.6,-7.1 -0.2,-19.9 -9.9,-16.3c-2.6,1 -3.6,0.1 -29.8,-26.1l-27.1,-27.2l0,-14.5l0,-14.4l-11,-11l-11,-11l0,-38l0,-38l-13,-13l-13,-13l0,-57.6l0,-57.6l-4.5,-4.2l-4.5,-4.1l-23.8,0l-23.8,0l-6.7,-6.8l-6.7,-6.8l0,-172.2c0,-114.1 -0.3,-172.2 -1,-172.2c-0.7,0 -1,58.3 -1,172.8zm184.9,517.80001c6,5 2.7,14.7 -4.9,14.7c-7.6,0 -10.9,-9.7 -4.9,-14.7c1.7,-1.4 3.9,-2.6 4.9,-2.6c1,0 3.2,1.2 4.9,2.6z"/>
  <path transform="rotate(90 498.4324951171875,345.1477355957032) " stroke="null" fill="#007fff" id="svg_13" d="m450.58927,169.94773l0,137.2l14.5,14.5l14.5,14.5l0,86l0.1,86l13.4,13.7l13.5,13.7l0,37.8l0,37.8l13.2,13.2l13.1,13.2l-3.1,2.9c-2.6,2.5 -3.2,3.8 -3.2,7.2c0,5.3 4.2,10 9,10c12.5,0 14.8,-15.7 2.8,-19.6c-1.5,-0.5 -8.8,-7.3 -16.2,-15.1l-13.6,-14.1l0,-37.9l0,-37.8l-13,-13l-13,-13l0,-86.5l0,-86.5l-15,-15l-15,-15l0,-135.7c0,-89.9 -0.3,-135.8 -1,-135.8c-0.7,0 -1,46.4 -1,137.3zm92,472.50001c5.3,6.7 -1.1,15.8 -9.1,13c-3.8,-1.3 -6.4,-6.5 -5,-10c2.5,-6.6 10,-8.2 14.1,-3z"/>
  <path transform="rotate(90 519.4381103515626,352.15466308593756) " stroke="null" fill="#007fff" id="svg_14" d="m478.58796,194.46027l0,133.7l14,14l14,14l0,86.5l0,86.5l13.5,13.5l13.5,13.5l0,31.5l0,31.6l4.5,4.4c3.5,3.4 4.2,4.7 3.5,6.1c-2.1,3.8 -0.7,9.9 2.9,12.6c2.6,2 9.5,1.6 12.4,-0.7c3.3,-2.7 4.4,-7.8 2.4,-11.7c-2.1,-4 -5.7,-5.7 -10.7,-5c-3.8,0.5 -4.4,0.2 -8,-3.6l-3.9,-4.2l-0.1,-31.5l0,-31.5l-13.5,-13.5l-13.5,-13.5l0,-85.5l0,-85.5l-14.5,-14.5l-14.5,-14.5l0,-133.2c0,-88.2 -0.3,-133.3 -1,-133.3c-0.7,0 -1,45.3 -1,133.8zm75.3,432.40001c5.3,2.8 6.4,9.2 2.2,13.3c-6.4,6.5 -16.6,-0.5 -13.1,-9c2.2,-5.1 6.3,-6.8 10.9,-4.3z"/>
  <path transform="rotate(90 498.3880615234375,382.74780273437506) " stroke="null" fill="#007fff" id="svg_15" d="m447.94477,200.00336l0,129.7l13.5,13.5l13.5,13.5l0,85.5l0,85.5l21.5,21.5l21.5,21.5l0,47.5l0.1,47.5l6.3,6.9c5.7,6.1 6.3,7.1 5.4,9.2c-0.6,1.2 -0.8,3.8 -0.4,5.8c2,10.8 17.8,10 19.3,-1c0.5,-3.6 0.1,-4.6 -2.5,-7.5c-2.6,-2.9 -3.6,-3.3 -7.6,-3.4c-4.1,0 -5,-0.5 -10.1,-5.5l-5.5,-5.4l0,-47.2l0,-47.2l-22,-22.3l-21.9,-22.4l-0.1,-84.5l0,-84.6l-14,-14.4l-13.9,-14.5l-0.1,-128.8c0,-113.7 -0.2,-128.7 -1.5,-128.7c-1.3,0 -1.5,15.1 -1.5,129.8zm96.9,479.80001c2.9,3.7 2.7,8.5 -0.4,11.4c-7.5,7.1 -17.8,-3.2 -11.4,-11.4c1.6,-2 2.9,-2.6 5.9,-2.6c3,0 4.3,0.6 5.9,2.6z"/>
  <path transform="rotate(90 519.4324951171876,391.7458801269532) " stroke="null" fill="#007fff" id="svg_16" d="m477.99113,222.94588l0,122.8l15,15.9l15,15.9l0,22.8c0,20.2 0.2,23.1 1.7,24.9c1.6,1.9 2.9,2 21.3,2c19.2,0 19.7,0 21.8,2.3c2.8,3 2.9,8.2 0.3,9.7c-1.2,0.6 -9.9,1 -21.4,1c-18.9,0 -19.4,0 -21.5,2.3c-3.2,3.4 -3.2,13.4 0.1,16.5c2.2,2.1 3.2,2.2 22,2.2c19.1,0 19.6,0.1 21.1,2.2c2.3,3.3 2.1,10.5 -0.3,11.8c-1.2,0.6 -9.9,1 -21.3,1l-19.4,0l-2.2,3c-3.4,4.5 -3.1,11.8 0.6,15.3l2.8,2.7l19.5,0c13.8,0 19.8,0.3 20.7,1.2c1.6,1.6 1.5,10.3 0,11.6c-0.8,0.5 -10.1,1.2 -21.5,1.4c-24.1,0.5 -24.3,0.6 -24.3,9.8c0,4.9 0.4,6 2.8,8.3l2.8,2.7l18.5,0c13.1,0 18.9,0.4 19.7,1.2c1.7,1.7 1.5,9.3 -0.2,10.8c-1,0.8 -6.2,1.2 -15.5,1.2c-17.7,0.1 -18.1,0.3 -18.1,9.7c0,9.7 0.6,10.1 15.8,10.1l12.1,0l2,2.9c2.1,2.8 2.1,4 2.1,49l0,46l-2.9,1.6c-6.5,3.3 -8,10.1 -3.5,15.4c2.2,2.7 3.2,3.1 7.4,3.1c4.2,0 5.2,-0.4 7.4,-3.1c4.1,-4.9 3,-11.6 -2.4,-14.7l-3,-1.7l0,-47l0,-47.1l-3.8,-3.7l-3.8,-3.7l-11,0c-7.2,0 -11.4,-0.4 -12.2,-1.2c-0.7,-0.7 -1.2,-3 -1.2,-5.3c0,-2.3 0.5,-4.6 1.2,-5.3c0.8,-0.8 5.5,-1.2 14.4,-1.2c12.8,0 13.4,-0.1 16.3,-2.6c2.8,-2.3 3.1,-3.1 3.1,-8.3c0,-5 -0.4,-6.1 -2.8,-8.4l-2.8,-2.7l-18.3,0c-16.3,0 -18.5,-0.2 -19.7,-1.8c-1.9,-2.4 -1.7,-4.6 0.4,-6.5c1.6,-1.5 4.5,-1.7 20.3,-1.7l18.5,0l3.2,-3.3c2.8,-2.9 3.2,-4 3.2,-8.8c0,-4.7 -0.4,-5.9 -2.8,-8.2l-2.8,-2.7l-18.5,0c-18.1,0 -18.6,-0.1 -20.7,-2.3c-2.7,-2.8 -2.8,-6.8 -0.4,-9c1.6,-1.5 4.6,-1.7 21.4,-1.7c19,0 19.5,0 21.6,-2.3c1.8,-1.9 2.2,-3.5 2.2,-8.7c0,-5.6 -0.3,-6.8 -2.7,-9.2l-2.7,-2.8l-19.7,0c-19.3,0 -19.8,-0.1 -21.3,-2.2c-2.4,-3.4 -2,-7.8 1.1,-11l2.7,-2.8l19.1,0c17.3,0 19.4,-0.2 20.8,-1.8c2.7,-3 2.2,-9.1 -1,-12.4l-2.7,-2.8l-18.1,0c-24.4,0 -22.5,2.3 -22.5,-27l0,-22.4l-15.5,-15.7l-15.5,-15.7l0,-122.1c0,-80.7 -0.3,-122.1 -1,-122.1c-0.7,0 -1,41.6 -1,122.7zm78.4,444.80001c5.5,5.1 2,14.5 -5.4,14.5c-4.7,0 -8,-3.5 -8,-8.7c0,-4.1 4,-8.3 8,-8.3c1.5,0 3.9,1.1 5.4,2.5z"/>
  <path transform="rotate(90 477.74188232421875,405.3045043945313) " stroke="null" fill="#007fff" id="svg_17" d="m437.94189,192.31389l-0.2,120.7l39,39.3l38.9,39.3l0.1,157.5l0,157.6l-7.2,7.1c-5.6,5.6 -7.6,7 -8.8,6.3c-3.9,-2.5 -11,0.2 -13,4.9c-3.7,9.1 5.2,17.2 13.9,12.7c4.3,-2.3 6.4,-8.4 4.2,-12.5c-0.8,-1.4 0.4,-3.2 6,-9l6.9,-7.3l0,-159l0,-159l-39.2,-39.5l-39.3,-39.4l-0.5,-120.2l-0.5,-120.2l-0.3,120.7zm63.2,530.90001c5.6,4.4 1.9,14.2 -5.4,14.2c-4.3,0 -8,-3.7 -8,-8.2c0,-7.1 7.6,-10.6 13.4,-6z"/>
  <path transform="rotate(90 518.5669555664064,427.3045043945313) " stroke="null" fill="#007fff" id="svg_18" d="m471.56697,251.83896l0,116.9l41.5,41.9l41.4,41.8l0.1,123.7c0,121.9 0,123.7 -2,124.3c-1,0.3 -3.1,2 -4.6,3.7c-2.1,2.6 -2.5,3.9 -2,6.6c1.1,7.1 8.3,11 14.4,7.8c3.8,-2 5.2,-4.4 5.2,-8.8c0,-4.2 -2,-7.2 -6,-8.8l-3,-1.2l0,-124.2l0,-124.1l-41.5,-41.5l-41.5,-41.5l0,-116.7c0,-77.2 -0.3,-116.8 -1,-116.8c-0.7,0 -1,39.6 -1,116.9zm86.8,450.20001c1.9,0.6 3.6,2.3 4.6,4.3c4.2,8.9 -7.4,16.5 -13.4,8.8c-3.5,-4.4 -1.8,-11.1 3.4,-13.2c1.1,-0.5 2.1,-0.9 2.2,-0.9c0.1,-0.1 1.5,0.4 3.2,1z"/>
  <path transform="rotate(90 498.45379638671875,439.3045043945313) " stroke="null" fill="#007fff" id="svg_19" d="m452.45381,239.9258l0,113.1l45,45.6l45,45.7l0,132l0,132l-14,14.5c-8.6,9 -14.1,15.6 -14.5,17.3c-2.2,9.3 9.8,15.6 16.6,8.8c5.1,-5.2 3.6,-13.3 -3.1,-16.1c-1.6,-0.7 -3,-1.5 -3,-1.9c0,-0.3 4.5,-5.1 10,-10.6l10,-10l0,-134l0,-134l-45,-45l-45,-45l0,-112.7c0,-74.5 -0.3,-112.8 -1,-112.8c-0.7,0 -1,38.4 -1,113.1zm76.4,495.80001c4.8,4.2 3.5,11.9 -2.3,13.9c-7.7,2.7 -14.2,-5.9 -9.5,-12.6c3,-4.3 7.8,-4.8 11.8,-1.3z"/>
  <path transform="rotate(90 477.47491455078125,454.8045043945313) " stroke="null" fill="#007fff" id="svg_20" d="m430.97492,230.04692l0,108.8l45,45.5l44.9,45.5l0,138l0.1,138.1l-7.5,7.4l-7.5,7.4l0,17.6l0,17.6l-6.8,6.7c-6.2,6.2 -7,6.7 -10,6.1c-4.5,-0.9 -8.8,1.2 -10.6,5.1c-1.9,4 -2,5.6 -0.4,9c2.7,5.9 11.2,7.3 15.9,2.6c3,-3.1 3.9,-8.3 2,-12c-0.8,-1.4 0.2,-3 5.5,-8.2l6.4,-6.3l0,-18.1l0,-18l8,-8l8,-8l0,-138.9l0,-138.9l-45.5,-45.8l-45.5,-45.9l0,-108c0,-71.3 -0.3,-108 -1,-108c-0.7,0 -1,36.9 -1,108.7zm61.7,542.50001c2.9,3.2 3.4,5.3 2.1,8.8c-2.1,6.1 -9.8,7.4 -13.8,2.3c-4.3,-5.6 -0.9,-13.3 5.9,-13.3c2.6,0 4.4,0.7 5.8,2.2z"/>
  <path transform="rotate(90 457.64562988281256,468.80450439453125) " stroke="null" fill="#007fff" id="svg_21" d="m412.14564,221.21763l0,105.8l44.5,44.5l44.5,44.6l0,145l0,145l-4.5,4.4l-4.5,4.4l0,28.1l0,28l-16.7,16.7c-13.2,13.1 -17.1,16.5 -18.3,15.8c-2.3,-1.5 -5.9,-1.2 -9.1,0.7c-10.4,6.2 -1.9,21.7 9.4,17c4.6,-2 6.1,-4.8 5.4,-10.7l-0.6,-4.7l16,-15.9l15.9,-15.9l0,-28.5l0,-28.6l4.5,-4.4l4.5,-4.4l0,-147.1l-0.1,-147l-43.9,-44.3l-44,-44.4l0,-104.9c0,-92.6 -0.2,-104.9 -1.5,-104.9c-1.3,0 -1.5,12.4 -1.5,105.7zm44.9,583.80001c1.6,0.8 3.4,2.8 4,4.5c2.9,8.5 -7.8,15.3 -13.6,8.6c-3.9,-4.5 -2.3,-11.4 3.1,-13.6c2.9,-1.2 3.3,-1.2 6.5,0.5z"/>
  <path transform="rotate(90 477.41210937500006,497.3580017089844) " stroke="null" fill="#007fff" id="svg_22" d="m418.35862,266.03761l0,102.3l44,44l44,44.1l0,172.9l0,172.9l6,6.1c5.8,5.8 6,6.3 5,9c-1.5,4 -0.4,8 3.2,11c4.2,3.5 9.1,3.4 12.9,-0.4c8,-8 -1.4,-21.3 -11.4,-16c-1.9,1.1 -2.7,0.6 -7.9,-5l-5.8,-6.2l-0.1,-172.7l0,-172.7l-43.5,-44l-43.4,-43.9l0,-101.8c0,-89.8 -0.2,-101.8 -1.5,-101.8c-1.3,0 -1.5,12 -1.5,102.2zm114.4,549.90001c1.4,1.7 2.6,3.7 2.6,4.5c0,2.9 -2.9,7.1 -5.8,8.3c-8,3.3 -14.9,-7.3 -8.7,-13.4c3.6,-3.7 8.6,-3.4 11.9,0.6z"/>
  <path transform="rotate(90 498.43249511718756,510.80450439453125) " stroke="null" fill="#007fff" id="svg_23" d="m440.93251,277.6045l0,79.4l6.9,6.7l7,6.7l25.9,-0.2l26,-0.1l23.1,23.3l23,23.4l0.1,187.5l0,187.4l-6.7,6.8c-5.7,5.7 -6.9,6.5 -8.6,5.7c-2.7,-1.5 -8,-0.3 -10.5,2.4c-6,6.5 -1.8,16.7 6.9,16.7c7.4,0 12.5,-8.3 9,-14.9c-0.8,-1.4 0.3,-3.1 6,-8.7l6.9,-6.8l0,-188.6l0,-188.5l-23.8,-23.8l-23.7,-23.7l-26.5,0l-26.6,0l-6.2,-6.3l-6.2,-6.3l0,-78.7c0,-51.8 -0.3,-78.7 -1,-78.7c-0.7,0 -1,27.1 -1,79.3zm98.7,529.90001c3.1,3.4 3.6,6.3 1.8,9.8c-4,7.8 -15.5,4.7 -15.5,-4.2c0,-6.7 9.2,-10.4 13.7,-5.6z"/>
  <path transform="rotate(90 536.7658081054688,678.2954711914064) " stroke="null" fill="#007fff" id="svg_24" d="m527.44155,483.59542l0,82.8l7.4,7.3l7.4,7.3l-0.5,6.2c-0.5,6.1 -0.6,6.2 -8.4,14.1l-7.9,8l0,106.5l0,106.6l-6.5,6.4l-6.5,6.4l0,45.6l0,45.6l7.5,7.4c7.2,7.1 7.5,7.6 7.5,12.1c0,6.3 3.4,9.9 9.4,9.9c2.3,0 5.1,-0.7 6.3,-1.5c3.2,-2.2 4.6,-8 2.9,-11.9c-1.9,-4.5 -4.2,-6 -9.3,-6.1c-4,-0.1 -4.9,-0.6 -11.3,-7l-7,-6.9l0,-42.6l0,-42.6l6,-5.9l6,-5.9l0.1,-107.1l0.1,-107l7.4,-6.9c7.2,-6.8 7.5,-7 12.2,-6.7c4,0.1 5.3,-0.2 7.4,-2.4c1.4,-1.4 2.9,-3.6 3.2,-4.8c1.6,-6.5 -4.8,-13.4 -11.3,-12.2c-3.2,0.6 -3.8,0.2 -11.3,-7.2l-7.8,-7.8l0,-81.2c0,-71.6 -0.2,-81.3 -1.5,-81.3c-1.3,0 -1.5,9.9 -1.5,82.8zm29.5,98.7c6.2,6.1 -0.7,16.6 -8.9,13.5c-2.5,-0.9 -5.6,-5.6 -5.6,-8.4c0,-0.8 1.2,-2.8 2.6,-4.5c3.3,-4 8.3,-4.3 11.9,-0.6zm-14.4,358.40001c1.7,1.8 2.9,4 2.9,5.6c0,3.4 -5,8.5 -8.4,8.5c-3.4,0 -7.5,-3.8 -8.2,-7.7c-0.5,-2.7 -0.1,-3.7 2.4,-6.3c3.9,-3.9 7.4,-3.9 11.3,-0.1z"/>
  <path transform="rotate(90 522.7658081054688,702.9711914062501) " stroke="null" fill="#007fff" id="svg_25" d="m542.7658,569.77117l0,158.2l-13.5,13.5l-13.5,13.5l0,101l0,101.1l-3.5,3.4c-3.2,3.1 -3.5,3.9 -3.5,9.2c0,3.2 -0.4,5.8 -0.9,5.8c-0.5,0 -2.3,1.2 -4,2.6c-2.6,2.2 -3.1,3.3 -3.1,7c0,6.1 3.2,9.4 9,9.4c2.3,0 5,-0.5 6.2,-1.1c2.6,-1.4 4.8,-6.7 4.1,-10.2c-0.5,-2.6 -5.4,-7.7 -7.4,-7.7c-0.5,0 -0.9,-2.2 -0.9,-4.8c0,-4.1 0.5,-5.3 3,-7.7l3,-2.9l0,-101.6l0,-101.5l13.5,-13.5l13.5,-13.5l0,-159.2c0,-105.5 -0.3,-159.3 -1,-159.3c-0.7,0 -1,53.4 -1,158.3zm-26.9,409.60001c3.2,3.3 3.6,5.8 1.4,10c-2.7,5.3 -9,5.7 -13,0.9c-3.2,-3.8 -2.9,-8.1 1.1,-11.6c3.4,-3 7,-2.8 10.5,0.7z"/>
  <path transform="rotate(90 501.8117065429687,711.4711914062501) " stroke="null" fill="#007fff" id="svg_26" d="m529.3117,562.21707l0,163.3l-14.5,14.7l-14.5,14.7l0,114.3l0,114.3l-10.2,10.2c-5.7,5.5 -11.7,10.8 -13.5,11.7c-3.9,2 -5.3,4.3 -5.3,9.1c0,7.1 7.5,11.5 14.3,8.4c5.6,-2.5 6.8,-11.7 2.2,-15.7l-2.7,-2.3l9.1,-9.2l9.1,-9.3l0,-114.5l0,-114.4l14.5,-14.5l14.5,-14.5l0,-164.7c0,-145.8 -0.2,-164.8 -1.5,-164.8c-1.3,0 -1.5,18.8 -1.5,163.2zm-43.1,445.50001c1.2,1 2.4,3.4 2.7,5.4c1.7,10.3 -13.9,13.1 -16.1,2.9c-0.7,-3 1.5,-8.4 3.7,-9.3c2.8,-1.2 7.7,-0.6 9.7,1z"/>
  <path transform="rotate(90 522.7655639648438,739.5989990234376) " stroke="null" fill="#007fff" id="svg_27" d="m537.13775,616.29873l0,168.1l-14,14.2l-14,14.1l0,94.5l0,94.5l3,2.9c4,3.8 3.8,6 -0.5,8.1c-10.2,4.8 -7.2,18.5 3.9,18.4c4.4,-0.1 6.6,-1.3 8.4,-4.7c2.7,-4.9 0.1,-12.2 -4.8,-13.8c-1.5,-0.5 -2,-1.5 -2,-3.9c0,-2.2 -0.8,-4 -2.5,-5.6l-2.5,-2.3l0,-93.6l0,-93.6l14,-14l14,-14l0,-168.7c0,-149.4 -0.2,-168.8 -1.5,-168.8c-1.3,0 -1.5,19.4 -1.5,168.2zm-17.8,397.90001c2.5,1.3 5,7.2 4.1,9.6c-2.2,6.4 -9.3,8.4 -13.8,3.8c-6.7,-6.6 1.4,-17.9 9.7,-13.4z"/>
  <path transform="rotate(90 480.75134277343744,741.4711914062501) " stroke="null" fill="#007fff" id="svg_28" d="m507.25134,578.7567l0,170.7l-13.5,13.5l-13.5,13.5l0,91.5l0,91.6l4.5,4.4l4.5,4.4l0,11.1l0,11.1l-5.3,5.2l-5.3,5.2l-9.5,0l-9.5,0l-4.7,4.8l-4.7,4.8l0,17.4l0,17.4l6.5,6.6c6.4,6.4 6.5,6.7 5.4,9.8c-3.4,9.9 8.8,17.7 16.2,10.3c3.8,-3.9 4,-9.7 0.5,-13.8c-2.1,-2.4 -3.1,-2.8 -8,-2.8c-5.4,0 -5.7,-0.2 -11.1,-5.5l-5.5,-5.4l0,-16.6l0,-16.5l3.4,-3.3c3.3,-3.2 3.4,-3.2 13.2,-3.2l10,0l5.7,-5.8l5.7,-5.8l0,-13.5l0,-13.5l-4,-3.9l-4,-3.9l0,-90.6l0,-90.5l13.5,-13.5l13.5,-13.5l0,-171.2c0,-170.6 0,-171.3 -2,-171.3c-2,0 -2,0.7 -2,170.8zm-30.3,480.40001c2.9,3.2 3.4,5.3 2.1,8.8c-2.1,6.1 -9.8,7.4 -13.8,2.3c-4.3,-5.6 -0.9,-13.3 5.9,-13.3c2.6,0 4.4,0.7 5.8,2.2z"/>
  <path transform="rotate(90 501.7658081054687,754.1282958984376) " stroke="null" fill="#007fff" id="svg_29" d="m530.6087,617.22827l0,175.6l-13.5,13.6l-13.5,13.7l0,81.1l0,81l3,2.9l3,2.9l0,19.6l0,19.5l-9.7,9.7l-9.8,9.6l-7.2,0.4c-5.9,0.3 -7.7,0.8 -9.7,2.7c-6.7,6.3 -2.5,17 6.7,17.1c5.5,0 9.7,-4.3 9.7,-9.9c0,-2.2 -0.4,-4.3 -1,-4.6c-1.9,-1.2 -1,-2.5 1.7,-2.5c2.2,0 5,-2.3 13,-10.2l10.3,-10.3l0,-22l0,-22.1l-3,-2.9l-3,-2.9l0,-78.5l0.1,-78.6l12.9,-13.4l13,-13.4l0,-176.9c0,-156.5 -0.2,-176.8 -1.5,-176.8c-1.3,0 -1.5,20.2 -1.5,175.6zm-45.6,433.30001c4.8,4.2 3.5,11.9 -2.3,13.9c-7.7,2.7 -14.2,-5.9 -9.5,-12.6c3,-4.3 7.8,-4.8 11.8,-1.3z"/>
  <path transform="rotate(90 460.00939941406244,760.5837402343751) " stroke="null" fill="#007fff" id="svg_30" d="m495.39684,585.02731l0,178.6l-14,14.2l-14,14.1l0,73.9c0,71.9 0.1,74.1 2,76.5c1.8,2.3 2,4.2 2,27.4l0,24.9l-11.5,11.7l-11.5,11.6l0,33l0,33l-6,5.9c-5.3,5.2 -6.4,5.9 -9.4,5.7c-4.5,-0.4 -9,2 -10.6,5.7c-3.3,8 4.5,15.9 12.8,13c4.7,-1.6 6.6,-5.2 5.8,-11.3l-0.6,-5.2l6.5,-6.4l6.5,-6.4l0,-33.1l0,-33l10.5,-10.5l10.5,-10.5l0,-29.1c0,-24.7 -0.2,-29.3 -1.5,-30.4c-1.3,-1.1 -1.5,-10.4 -1.5,-72.8l0,-71.5l13.5,-13.8l13.5,-13.8l0,-180.1c0,-159.3 -0.2,-180 -1.5,-180c-1.3,0 -1.5,20.5 -1.5,178.7zm-60.5,512.30001c2.9,1.1 5.8,6.9 4.8,9.7c-2.2,6.4 -9.3,8.4 -13.8,3.8c-3.5,-3.4 -3.3,-7.8 0.4,-11.6c3.2,-3.1 4.5,-3.4 8.6,-1.9z"/>
  <path transform="rotate(90 500.2658081054687,788.9884033203126) " stroke="null" fill="#007fff" id="svg_31" d="m523.24859,657.78838l0,182.7l-13,13l-13,13l0,57.6c0,56.3 0,57.6 -2,59.4c-1.9,1.8 -2,3.1 -2,42.4l0,40.7l-5,4.9c-3.6,3.6 -5,5.7 -5,7.7c0,2 -0.8,3.1 -2.9,4.3c-5.7,2.9 -7.5,8.3 -4.9,14c1.3,2.9 5.5,5.5 8.8,5.5c9.6,0 13.5,-13.4 5.3,-18.5c-4.5,-2.8 -4.1,-5.2 1.7,-11l5,-4.9l0,-40.2c0,-38.8 0.1,-40.1 2,-41.9c2,-1.8 2,-3.1 2,-59.9l0,-58.1l13,-13l13,-13l0,-183.7c0,-162.7 -0.2,-183.8 -1.5,-183.8c-1.3,0 -1.5,21 -1.5,182.8zm-34.1,428.80001c5.9,5 2.6,14.4 -5,14.4c-8.6,0 -11.1,-11.6 -3.4,-15.8c3.1,-1.7 5.1,-1.4 8.4,1.4z"/>
  <path transform="rotate(90 480.7658081054687,796.0523681640626) " stroke="null" fill="#007fff" id="svg_32" d="m510.68462,650.05235l0,187.4l-13,13.3l-13,13.3l0,54.1l0,54l-3.5,3.4l-3.5,3.4l0,55.1l0,55l-10.2,10.1c-5.7,5.6 -11.8,10.7 -13.6,11.4c-7.1,2.8 -8.2,13.2 -1.9,17c1.8,1.1 4.2,2 5.5,2c5.4,0 10.2,-4.8 10.2,-10.3c0,-2.2 -2.4,-6.5 -4.4,-7.9c-0.7,-0.5 2.6,-4.5 8.2,-10l9.2,-9.3l0,-55.6l0,-55.5l3,-2.9l3,-2.9l0,-54.5l0,-54.6l13.5,-14l13.4,-14l0.1,-187.8c0,-166.2 -0.2,-187.7 -1.5,-187.7c-1.3,0 -1.5,21.5 -1.5,187.5zm-47.1,464.10001c2.9,3.7 2.7,8.5 -0.4,11.4c-7.5,7.1 -17.8,-3.2 -11.4,-11.4c1.6,-2 2.9,-2.6 5.9,-2.6c3,0 4.3,0.6 5.9,2.6z"/>
  <path stroke="null" fill="#007fff" id="svg_39" d="m48.95123,387.81007c-1.6,0.5 -3.3,1.5 -3.7,2.2c-0.5,0.7 -0.9,7.4 -0.9,14.9c0,11.5 0.3,13.9 1.7,15c2,1.7 26.9,2.6 32.3,1.2c3.8,-1 4.5,-2.4 5.5,-10.6l0.6,-4.7l11.8,0l11.7,0l25.7,25.9l25.7,25.8l0,238.3l0,238.3l-13.5,13.7l-13.5,13.6l0,14.9l0.1,15l12.4,13l12.4,13l0.1,14l0,14l10.8,10.8l10.7,10.7l15.7,0c14.8,0 15.8,-0.1 18.3,-2.3c1.7,-1.4 2.8,-3.6 3.2,-6.3c0.5,-3.6 0.1,-4.6 -2.4,-7.4c-3.3,-3.7 -1.9,-3.5 -20.2,-2.4l-10.4,0.6l-6.8,-6.8l-6.9,-6.8l0,-11.1l0,-11l-12.5,-12.5l-12.5,-12.5l0,-11.5l0,-11.5l14,-14l14,-14l0,-241.7l0,-241.8l-29.6,-30l-29.7,-30l-14.7,0c-14.8,0 -14.8,0 -15.4,-2.4c-0.4,-1.5 -1.7,-2.8 -3.7,-3.5c-3.7,-1.3 -26.1,-1.3 -30.3,-0.1zm162.9,663.50001c5.4,5.3 1.3,14.5 -6.5,14.5c-3.3,0 -7,-4.4 -7,-8.3c0,-7.9 8.2,-11.6 13.5,-6.2z" transform="rotate(180 122.29531860351562,740.8660278320312) "/>
  <path transform="rotate(90 426.32055664062506,511.36199951171875) " stroke="null" fill="#007fff" id="svg_47" d="m391.36307,314.85006c-2.8,1.4 -5.4,3.9 -7.3,6.8c-2.7,4.2 -2.9,5.3 -2.6,11.7c0.4,8.6 3,13.1 9.9,16.9c4.8,2.6 12.2,3.3 16.4,1.5c1.7,-0.7 5.5,2.7 25.3,22.3l23.2,23.2l0,147.7c0,102.7 -0.3,147.8 -1.1,147.8c-1.7,0 -4.1,7 -3.4,10.1c1.5,6.8 11.7,9.4 16.9,4.3c3,-3.1 3.5,-8.8 1.1,-12c-1.2,-1.6 -1.4,-21.6 -1.5,-151.9l0,-150l-24.5,-25c-19.5,-19.9 -24.4,-25.4 -23.9,-27c0.3,-1.1 0.8,-4.5 1.1,-7.5c0.5,-6.8 -2.2,-12.8 -8,-17.4c-3.2,-2.6 -4.8,-3.1 -10.5,-3.4c-5.4,-0.2 -7.6,0.1 -11.1,1.9zm75.5,379.30001c2.1,1.7 2.8,3.3 2.8,5.9c0,10.6 -14.4,11.9 -16.1,1.5c-0.5,-3.2 -0.1,-4.1 2.5,-6.8c3.7,-3.6 7.1,-3.9 10.8,-0.6z"/>
  <path transform="rotate(90 281.40710449218744,814.1904296875001) " stroke="null" fill="#007fff" id="svg_68" d="m275.88786,805.4317c-2.6,1.5 -4.9,7.4 -4.1,10.7c1.6,6.5 8.4,9.8 14.2,6.8c3.8,-2 5.2,-4.4 5.2,-9.1c0,-5.2 -4.4,-9.5 -9.7,-9.5c-2.1,0 -4.6,0.5 -5.6,1.1zm8.2,1c3.1,1.1 6.1,5.2 6.1,8.3c0,0.8 -1.2,2.8 -2.6,4.5c-6.7,8 -18.8,-1.2 -12.8,-9.7c0.9,-1.3 2.6,-2.7 3.8,-3.2c1.1,-0.5 2.1,-0.9 2.2,-0.9c0.1,-0.1 1.5,0.4 3.3,1z"/>
  <path transform="rotate(90 115.55255126953115,678.6712036132814) " stroke="null" fill="#007fff" id="svg_114" d="m108.95256,671.5579c-2.6,2.1 -3.1,3.3 -3.1,6.8c0,5.1 2,8.1 6.3,9.5c6.7,2.2 13.1,-2.4 13.1,-9.5c0,-2.8 -0.7,-4.3 -3.2,-6.5c-4.2,-3.8 -8.9,-3.9 -13.1,-0.3zm12,1.3c3.7,3.7 3.8,7.8 0.4,11.5c-3.9,4.3 -10.5,3.5 -13.1,-1.6c-2,-3.8 -1,-8.2 2.3,-10.8c3.6,-2.8 6.9,-2.5 10.4,0.9z"/>
  <path transform="rotate(90 115.5578613281249,802.2513427734376) " stroke="null" fill="#007fff" id="svg_115" d="m109.0777,795.44338c-7.9,7 -0.3,19.4 9.9,16c6.7,-2.2 8.5,-10.8 3.4,-16c-4,-3.9 -8.9,-4 -13.3,0zm11,-0.3c3.3,2.3 4.5,6 3.1,10.1c-1.9,5.8 -9,7.3 -13.4,2.8c-3.5,-3.4 -3.3,-7.8 0.4,-11.6c3.3,-3.2 6.5,-3.7 9.9,-1.3z"/>
  <path transform="rotate(90 454.48620605468744,1005.8043823242189) " stroke="null" fill="#007fff" id="svg_1" d="m569.12296,772.39142l0.20326,120.1l2.64234,3.1l2.64234,3.1l24.08592,0l24.18755,0l4.16676,4.2l4.26839,4.2l0,99.5l-0.10163,99.6l-68.19262,68c-37.50086,37.4 -80.99779,80.9 -96.64856,96.7l-28.45594,28.8l-48.37509,0l-48.37509,0l-22.15498,21.8l-22.15498,21.8l0.7114,4.1c1.21954,7.6 -4.87816,13.5 -12.1954,11.7c-3.35374,-0.8 -7.72375,-5.8 -7.72375,-8.9c0,-7.4 8.02864,-12.8 14.12634,-9.6c1.4228,0.8 5.69119,-2.9 24.59406,-21.5l22.76475,-22.4l48.78161,0l48.78161,0l73.27404,-72.8c40.24483,-40 83.5385,-83.1 96.24205,-95.8l23.06963,-23.1l0,-99l0,-98.9l-3.35374,-3.2l-3.35374,-3.2l-24.3908,0l-24.3908,0l-2.74397,-2.8l-2.74397,-2.8l0.30489,-121.5l0.20326,-121.4l0.30489,120.2l-0.00003,0zm-286.28706,570.90001c-3.96351,3.3 -4.26839,8 -0.81303,12c4.97979,5.6 13.92308,2 13.92308,-5.7c0,-2.9 -0.7114,-4.3 -3.15048,-6.3c-1.72768,-1.4 -3.96351,-2.6 -4.97979,-2.6c-1.01628,0 -3.25211,1.2 -4.97979,2.6l0.00001,0z"/>
  <path transform="rotate(90 489.0991821289061,1040.8662109375002) " stroke="null" fill="#007fff" id="svg_2" d="m555.66574,851.56616l0,129.2l2.74397,2.8l2.74397,2.8l26.01686,0l26.01686,0l2.74397,2.8c2.33745,2.4 2.74397,3.7 2.74397,8.8c0,5 -0.40651,6.4 -2.33745,8.2c-2.33745,2.1 -3.04885,2.2 -28.25268,2.2l-25.91523,0l-2.74397,2.8c-3.35374,3.4 -3.45536,6.2 -0.40651,9c2.33745,2.1 3.04885,2.2 28.25268,2.2c25.8136,0 26.01686,0 28.15105,2.3c3.25211,3.4 3.15048,12.2 -0.30489,15.9l-2.43908,2.8l-25.8136,0l-25.71197,0l-2.74397,2.8c-3.35374,3.4 -3.45536,6.2 -0.40651,9c2.33745,2.1 3.04885,2.2 28.25268,2.2l25.8136,0l2.84559,2.5c2.33745,2.2 2.74397,3.4 2.74397,8.2c0,4.8 -0.40651,6.1 -2.74397,8.5l-2.74397,2.8l-26.01686,0c-23.98429,0 -26.22011,0.1 -27.74454,1.8c-2.33745,2.5 -2.1342,4.5 0.60977,7c2.33745,2.1 3.04885,2.2 28.35431,2.2c30.89502,0 29.26896,-0.7 29.26896,11.7c0,11.9 1.72768,11.3 -31.30153,11.3c-27.33803,0 -27.54128,0 -29.06571,2.2c-2.23582,3.2 -2.03257,6.1 0.7114,8.6c2.33745,2.1 3.04885,2.2 28.76082,2.2c26.32174,0 26.525,0 28.65919,2.3c3.25211,3.4 3.25211,13.4 -0.10163,16.5c-2.33745,2.1 -3.04885,2.2 -28.25268,2.2c-25.8136,0 -26.01686,0 -28.15105,2.3c-2.74397,2.9 -2.94722,7.8 -0.40651,10c1.62605,1.5 4.77653,1.7 22.25661,1.7c23.78103,0 23.67941,0 23.67941,9.2c0,4.4 -0.40651,5.9 -2.33745,7.6c-2.23582,2.1 -3.25211,2.2 -22.05335,2.2l-19.7159,0l-2.84559,2.7l-2.84559,2.7l0,23l0,22.9l-64.73726,63.9l-64.73726,63.8l-12.29703,0l-12.1954,0l-8.13027,-8c-8.74004,-8.7 -11.07749,-9.6 -15.75239,-6c-6.30096,4.9 -16.26054,0.3 -16.26054,-7.5c0,-4.7 1.4228,-7.1 5.28467,-9.1c5.58956,-2.9 12.60192,0.2 14.53285,6.3c0.40651,1.7 1.4228,2.3 3.35374,2.3c2.1342,0 4.77653,2 11.38237,8.5l8.63841,8.5l10.7726,0l10.87423,0l63.61935,-63.3l63.61935,-63.2l0,-21l0,-21.1l3.96351,-3.8l3.96351,-3.8l17.98822,0.2c17.37845,0.1 18.19147,0 20.4273,-2.1c2.64234,-2.5 3.25211,-7.7 1.21954,-9.7c-0.81303,-0.8 -6.91073,-1.2 -20.52893,-1.2l-19.30939,0l-2.84559,-2.7c-2.33745,-2.2 -2.84559,-3.5 -2.84559,-7.3c0,-3.9 0.50814,-5.1 3.35374,-7.8l3.35374,-3.2l25.71197,0c29.26896,0 28.45594,0.2 28.55757,-8.1c0,-7.9 0.20326,-7.9 -29.47222,-7.9l-25.8136,0l-2.84559,-2.7c-3.86188,-3.6 -4.06513,-10.8 -0.50814,-14.1c2.33745,-2.1 3.04885,-2.2 29.26896,-2.2c19.61427,0 27.2364,-0.3 28.15105,-1.2c0.7114,-0.7 1.21954,-3.7 1.21954,-6.8c0,-9.2 0.7114,-9 -29.47222,-9l-25.8136,0l-2.84559,-2.7c-3.86188,-3.6 -3.55699,-6.2 1.01628,-10.6l3.86188,-3.7l24.89895,0c28.04942,0 28.35431,-0.1 28.35431,-7.2c0,-6.7 -0.50814,-6.8 -29.57385,-6.8l-25.91523,0l-2.74397,-2.8c-2.23582,-2.3 -2.74397,-3.7 -2.74397,-7.8c0,-4.4 0.40651,-5.4 3.35374,-8.2l3.35374,-3.2l25.91523,0c23.88266,0 26.11849,-0.1 27.64291,-1.8c2.23582,-2.5 2.1342,-7.5 -0.10163,-9.5c-1.62605,-1.5 -5.08142,-1.7 -27.43965,-1.7l-25.61034,0l-3.55699,-3.7c-4.87816,-5.1 -4.77653,-8.7 0.30489,-13.6l3.86188,-3.7l25.50872,0c25.30546,0 25.61034,0 27.13477,-2.2c2.03257,-2.9 2.03257,-6.7 0,-9.6c-1.52443,-2.2 -1.82931,-2.2 -27.74454,-2.2l-26.11849,0l-3.76025,-3.8l-3.76025,-3.8l0,-130.7c0,-115.5 0.20326,-130.7 1.52443,-130.7c1.32117,0 1.52443,15 1.52443,129.2l-0.00006,0zm-191.46781,479.70001c-4.87816,4.2 -3.55699,11.9 2.33745,13.9c7.82538,2.7 14.43123,-5.9 9.65469,-12.6c-3.04885,-4.3 -7.92701,-4.8 -11.99215,-1.3l0.00001,0z"/>
  <path transform="rotate(90 495.0763549804687,1022.0164794921876) " stroke="null" fill="#007fff" id="svg_33" d="m564.23205,959.69366l0,250.3l-45.83438,45.7l-45.83438,45.8l-5.79282,0l-5.69119,0l-8.43515,8.3c-8.2319,8.1 -8.33352,8.3 -7.21561,11.5c3.55699,10 -8.84167,17.7 -16.46379,10.3c-3.15048,-3.1 -3.96351,-8.3 -1.93094,-12.2c1.62605,-2.9 6.91073,-5.2 10.56935,-4.5c2.94722,0.6 3.86188,-0.1 12.29703,-8.4l9.14655,-9l5.69119,0l5.79282,0l45.32624,-45.3l45.32624,-45.2l0,-248.8c0,-220.4 0.20326,-248.7 1.52443,-248.7c1.32117,0 1.52443,28.5 1.52443,250.2l-0.00002,0zm-133.53965,358.70001c-4.87816,4.1 -3.55699,11.9 2.33745,13.9c8.2319,2.8 14.63448,-6.4 9.24818,-13.1c-3.04885,-3.8 -7.62213,-4.1 -11.58563,-0.8z"/>
  <path transform="rotate(90 516.0991821289064,1014.890625) " stroke="null" fill="#007fff" id="svg_34" d="m578.15276,970.19064l0,246.8l-40.75297,40.7l-40.75297,40.7l-4.26839,0c-6.91073,0 -8.74004,-2.7 -8.74004,-12.7c0,-9.9 -1.11791,-11.3 -9.24818,-11.3c-3.04885,0 -6.0977,0.5 -6.8091,1.2c-0.7114,0.7 -1.21954,3.5 -1.21954,6.3c0,4.5 0.30489,5.3 2.64234,6.5c3.65862,2 5.79282,6.5 5.08142,10.6c-0.91466,4.5 -4.87816,7.4 -10.26446,7.4c-10.97586,0 -13.51657,-13.5 -3.45536,-18.5c2.74397,-1.4 2.94722,-1.9 2.94722,-7.4c0,-8 1.4228,-9.1 11.38237,-9.1c10.56935,0 11.78889,1.4 12.1954,13.5l0.30489,9l4.06513,0.3l4.06513,0.4l39.33017,-39.4l39.33017,-39.3l0.10163,-246.3c0,-245.5 0,-246.2 2.03257,-246.2c2.03257,0 2.03257,0.7 2.03257,246.8zm-117.99051,319.2c-2.74397,1.5 -5.18305,6.7 -4.37002,9.3c2.03257,6.8 9.55306,8.9 14.12634,4.1c6.50421,-6.9 -1.4228,-17.7 -9.75632,-13.4z"/>
  <path transform="rotate(90 536.6116333007811,1028.2563476562502) " stroke="null" fill="#007fff" id="svg_35" d="m569.03901,996.46875l0,239.3l-23.57778,23.2l-23.47615,23.1l1.32117,3.1c0.7114,1.8 1.01628,4.5 0.60977,6.5c-1.93094,10.1 -17.5817,10.1 -19.51264,0c-1.4228,-7.4 4.26839,-13.2 11.68726,-12c3.65862,0.6 3.76025,0.4 26.72826,-22.2l23.17126,-22.7l0,-238.7c0,-211.6 0.20326,-238.8 1.52443,-238.8c1.32117,0 1.52443,27.2 1.52443,239.2l-0.00001,0zm-60.46887,287.3c-3.45536,3.3 -3.45536,8.3 0,11.5c5.3863,5 13.71983,1.3 13.71983,-6.1c0,-7.1 -8.63841,-10.5 -13.71983,-5.4z"/>
  <path transform="rotate(90 536.5991821289064,978.7940063476562) " stroke="null" fill="#007fff" id="svg_36" d="m604.26087,936.79402l0,229.1l-37.70412,37.4l-37.80575,37.5l-19.51264,0l-19.61427,0l-1.21954,3c-1.72768,4.1 -4.6749,6 -9.45144,6c-7.41887,0 -12.39866,-8.5 -8.84167,-15.1c1.32117,-2.4 6.19933,-4.9 9.55306,-4.9c2.84559,0 8.74004,4.4 8.74004,6.6c0,1.2 3.35374,1.4 19.10613,1.4l19.0045,0l36.89109,-36.3l36.78946,-36.2l0,-228.8c0,-228 0,-228.7 2.03257,-228.7c2.03257,0 2.03257,0.7 2.03257,229l0.00001,0zm-129.88103,296.6c-5.48793,3.7 -4.6749,11.5 1.4228,14c3.96351,1.6 7.5205,0.7 9.95958,-2.8c5.28467,-7.4 -3.86188,-16.4 -11.38237,-11.2l-0.00001,0z"/>
  <path transform="rotate(90 516.1047973632814,964.13671875) " stroke="null" fill="#007fff" id="svg_37" d="m582.16324,886.44235l0,213.9l-2.33745,2.1l-2.33745,2.2l-52.94837,0c-49.89952,0 -52.94837,0.1 -54.47279,1.8c-2.1342,2.3 -2.23582,8.1 -0.10163,11l1.52443,2.2l46.54578,0l46.54578,0l2.1342,2.3c1.82931,1.9 2.23582,3.5 2.23582,9.3c0,6.1 -0.30489,7.4 -2.33745,9.2c-2.33745,2.2 -2.54071,2.2 -48.57835,2.2c-34.65527,0 -46.54578,0.3 -47.46044,1.2c-1.62605,1.6 -1.62605,9 0,10.6c0.91466,0.9 9.65469,1.2 32.82596,1.2c36.58621,0 35.06178,-0.4 35.06178,9.1c0,4.9 -0.40651,5.9 -3.35374,8.7l-3.35374,3.2l-31.09827,0l-31.09827,0l-8.2319,8.7l-8.2319,8.7l0,13.6l0,13.5l7.92701,7.8c7.01236,6.9 8.2319,7.7 11.68726,7.7c4.97979,0 7.41887,1.3 9.45144,5.2c2.1342,4 1.11791,9.1 -2.33745,11.8c-2.94722,2.3 -9.95958,2.7 -12.60192,0.7c-3.86188,-2.9 -4.97979,-8.4 -2.74397,-13.2c1.11791,-2.5 0.81303,-3 -6.60584,-10.3l-7.82538,-7.7l0,-15l0,-15l9.95958,-9.8l9.85795,-9.7l30.4885,0l30.38688,0l2.84559,-2.7c2.23582,-2.1 2.84559,-3.6 2.84559,-7c0,-7.3 -0.10163,-7.3 -35.36667,-7.2c-22.76475,0.1 -31.09827,-0.2 -32.21619,-1.1c-0.91466,-0.8 -1.52443,-3 -1.52443,-5.9c0,-3.9 0.50814,-5.2 2.84559,-7.4l2.84559,-2.7l45.73276,0c34.24875,0 46.03764,-0.3 46.9523,-1.2c0.7114,-0.7 1.21954,-3.9 1.21954,-7.3c0,-5.1 -0.40651,-6.5 -2.33745,-8.3c-2.33745,-2.2 -2.54071,-2.2 -48.57835,-2.2c-34.65527,0 -46.54578,-0.3 -47.46044,-1.2c-0.7114,-0.7 -1.21954,-3.7 -1.21954,-6.8c0,-4.6 0.40651,-6.1 2.33745,-7.8l2.33745,-2.2l52.44023,0c49.39138,0 52.44023,-0.1 53.96465,-1.8c1.62605,-1.7 1.72768,-18.1 1.72768,-215c0,-141.5 0.30489,-213.2 1.01628,-213.2c0.7114,0 1.01628,71.9 1.01628,213.8l0.00003,0zm-113.01072,352.30001c-2.54071,1.3 -5.08142,7.2 -4.16676,9.6c2.23582,6.4 9.45144,8.4 14.02471,3.8c6.8091,-6.6 -1.4228,-17.9 -9.85795,-13.4z"/>
  <path transform="rotate(90 516.1047973632814,943.302978515625) " stroke="null" fill="#007fff" id="svg_38" d="m588.76901,843.10861l0,191.2l-18.59799,18.3l-18.49636,18.2l-36.58621,0l-36.48458,0l-2.84559,2.7l-2.84559,2.7l0,37.6l0,37.5l-8.63841,8.5l-8.63841,8.5l0,23.6l0,23.6l2.64234,1.3c5.99607,3.2 6.91073,11.9 1.72768,16c-2.94722,2.3 -9.95958,2.7 -12.60192,0.7c-2.43908,-1.8 -3.96351,-5.2 -3.96351,-8.7c0,-3.7 4.77653,-9 8.02864,-9c2.1342,0 2.1342,-0.4 2.1342,-24.3l0,-24.2l8.63841,-8.5l8.63841,-8.5l0,-38l0,-38.1l2.84559,-2.7l2.84559,-2.7l36.58621,0l36.58621,0l18.49636,-18.3l18.49636,-18.3l0,-190.2c0,-126.1 0.30489,-190.2 1.01628,-190.2c0.7114,0 1.01628,64.4 1.01628,191.3l0.00001,0zm-139.43409,374.80001c-2.54071,1.3 -5.08142,7.2 -4.16676,9.6c2.23582,6.4 9.45144,8.4 14.02471,3.8c6.8091,-6.6 -1.4228,-17.9 -9.85795,-13.4z"/>
  <path transform="rotate(90 495.1133422851562,930.0912475585939) " stroke="null" fill="#007fff" id="svg_40" d="m564.72875,805.40542l0,187.7l-14.02471,13.8l-13.92308,13.7l-39.4318,0l-39.53343,0l-2.94722,2.9l-2.94722,2.9l0,40.3l0,40.3l-12.1954,12.1l-12.1954,12.2l0,40l0,39.9l5.69119,6c5.58956,5.8 5.79282,5.9 11.07749,5.9c6.40259,0 10.26446,2.8 11.28075,8.1c1.82931,9.4 -10.06121,15.3 -17.07356,8.3c-2.84559,-2.8 -3.04885,-3.4 -2.54071,-8.3l0.50814,-5.3l-5.48793,-5.4l-5.48793,-5.3l0,-42.6l0,-42.5l12.1954,-12.2l12.1954,-12.2l0,-40.3l0,-40.4l3.86188,-3.7l3.86188,-3.7l39.02529,0l39.12691,0l13.41494,-13.2l13.51657,-13.3l0,-186.7c0,-123.9 0.30489,-186.8 1.01628,-186.8c0.7114,0 1.01628,63.3 1.01628,187.8l-0.00001,0zm-124.3931,421.10001c-4.87816,4.2 -3.55699,11.9 2.33745,13.9c7.82538,2.7 14.43123,-5.9 9.65469,-12.6c-3.04885,-4.3 -7.92701,-4.8 -11.99215,-1.3l0.00001,0z"/>
  <path transform="rotate(90 452.5525512695312,919.6711425781251) " stroke="null" fill="#007fff" id="svg_43" d="m445.95259,912.55787c-2.6,2.1 -3.1,3.3 -3.1,6.8c0,5.1 2,8.1 6.3,9.5c6.7,2.2 13.1,-2.4 13.1,-9.5c0,-2.8 -0.7,-4.3 -3.2,-6.5c-4.2,-3.8 -8.9,-3.9 -13.1,-0.3zm12,1.3c3.7,3.7 3.8,7.8 0.4,11.5c-3.9,4.3 -10.5,3.5 -13.1,-1.6c-2,-3.8 -1,-8.2 2.3,-10.8c3.6,-2.8 6.9,-2.5 10.4,0.9z"/>
  <path transform="rotate(90 228.55255126953116,813.2426147460939) " stroke="null" fill="#007fff" id="svg_45" d="m221.95254,806.12935c-2.6,2.1 -3.1,3.3 -3.1,6.8c0,5.1 2,8.1 6.3,9.5c6.7,2.2 13.1,-2.4 13.1,-9.5c0,-2.8 -0.7,-4.3 -3.2,-6.5c-4.2,-3.8 -8.9,-3.9 -13.1,-0.3zm12,1.3c3.7,3.7 3.8,7.8 0.4,11.5c-3.9,4.3 -10.5,3.5 -13.1,-1.6c-2,-3.8 -1,-8.2 2.3,-10.8c3.6,-2.8 6.9,-2.5 10.4,0.9z"/>
  <path transform="rotate(90 201.55255126953116,813.2426147460939) " stroke="null" fill="#007fff" id="svg_46" d="m194.95254,806.12935c-2.6,2.1 -3.1,3.3 -3.1,6.8c0,5.1 2,8.1 6.3,9.5c6.7,2.2 13.1,-2.4 13.1,-9.5c0,-2.8 -0.7,-4.3 -3.2,-6.5c-4.2,-3.8 -8.9,-3.9 -13.1,-0.3zm12,1.3c3.7,3.7 3.8,7.8 0.4,11.5c-3.9,4.3 -10.5,3.5 -13.1,-1.6c-2,-3.8 -1,-8.2 2.3,-10.8c3.6,-2.8 6.9,-2.5 10.4,0.9z"/>
  <path transform="rotate(90 255.55255126953116,813.2426147460939) " stroke="null" fill="#007fff" id="svg_48" d="m248.95254,806.12935c-2.6,2.1 -3.1,3.3 -3.1,6.8c0,5.1 2,8.1 6.3,9.5c6.7,2.2 13.1,-2.4 13.1,-9.5c0,-2.8 -0.7,-4.3 -3.2,-6.5c-4.2,-3.8 -8.9,-3.9 -13.1,-0.3zm12,1.3c3.7,3.7 3.8,7.8 0.4,11.5c-3.9,4.3 -10.5,3.5 -13.1,-1.6c-2,-3.8 -1,-8.2 2.3,-10.8c3.6,-2.8 6.9,-2.5 10.4,0.9z"/>
 </g>
</svg>
