<svg width="600" height="1100" xmlns="http://www.w3.org/2000/svg" preserveAspectRatio="xMidYMid meet">
 <g>
  <title>background</title>
  <rect x="-1" y="-1" width="602" height="1102" id="canvas_background" fill="none"/>
 </g>

 <g>
  <title>Layer 1</title>
  <g id="svg_4">
   <path d="m0,754.90411c0,0.6 0.4,1.1 0.8,1.1c1.1,0 3.2,4.6 3.2,6.9c0,1 -1,3 -2.1,4.5c-1.2,1.5 -1.9,3 -1.5,3.3c1,1 3.5,-1.8 4.6,-5.3c1,-2.8 0.9,-4 -0.7,-7.1c-1.7,-3.6 -4.3,-5.6 -4.3,-3.4z" id="svg_188" fill="#007fff"/>
   <path d="m0.09998,14.50619l0,9l20.1,20.5c11.1,11.3 57.6,58.2 103.2,104.2l83,83.8l128.8,0l128.8,0l21.1,-21.5l21.2,-21.5l5.1,0l5.2,0l18.2,18.3l18.2,18.3l0,73.6l0,73.6l-3.2,0.7c-6.9,1.5 -10.1,7.5 -7.4,13.8c1.7,4.2 4.1,5.7 9.2,5.7c3.2,0 4.4,-0.7 9,-5.8l5.4,-5.7l-0.1,-81l0,-81l-22.2,-22.8l-22.2,-22.8l-9.6,0.1l-9.5,0l-21.8,22l-21.8,22l-124.2,0l-124.3,0l-48.1,-48.8c-26.5,-26.8 -73.8,-74.6 -105.1,-106.2l-57,-57.5l0,9zm556.60001,362.70001c3.1,3.4 3.6,6.3 1.8,9.8c-1.5,2.9 -4.9,5 -8.1,5c-2.8,0 -7.4,-5.6 -7.4,-9c0,-6.9 9.2,-10.7 13.7,-5.8z" id="svg_78" fill="#007fff"/>
   <path d="m0.2,232.10411c0.3,3.4 7.8,11.2 98.7,102.8l98.3,99.1l68.7,0l68.8,0l2.2,2.4c1.8,1.9 2.1,3.1 1.6,5.9c-0.8,3.9 1.3,9 4.4,10.7c9.9,5.2 20.4,-7.7 12.4,-15.2c-3.5,-3.2 -6.4,-3.9 -10.8,-2.5c-3.2,0.9 -3.6,0.8 -5.6,-1.6l-2,-2.7l-68.3,0l-68.2,0l-22,-22.2c-12,-12.3 -57.1,-57.8 -100.2,-101.3c-73.7,-74.4 -78.3,-78.8 -78,-75.4zm353.50001,206.1c3.1,3.4 3.6,6.3 1.8,9.7c-2.9,5.8 -8.1,6.7 -12.6,2.2c-3.7,-3.8 -3.9,-8.2 -0.4,-11.6c3.2,-3.3 8.4,-3.4 11.2,-0.3z" id="svg_88" fill="#007fff"/>
   <path d="m0,249.30411c0,2.8 4.2,7.1 155.4,159.4l35,35.3l61.1,0l61,0l11,11l11,11l11.5,0l11.5,0l9.5,-9.5c8.5,-8.5 13,-11.5 13,-8.5c0,0.6 1.1,2.2 2.5,3.5c1.8,1.9 3.5,2.5 6.9,2.5c3.7,0 4.8,-0.5 7,-3.1c3.5,-4.2 3.5,-8.9 -0.2,-13c-4.9,-5.5 -13.7,-3.9 -16.3,2.8c-0.5,1.4 -1.7,2.3 -3.1,2.3c-1.4,0 -5.8,3.5 -12.9,10.5l-10.7,10.6l-7.3,-0.2l-7.4,-0.3l-12,-11.8l-12.1,-11.8l-61.1,0l-61,0l-52.4,-52.7c-146.1,-147.1 -139.9,-141 -139.9,-138zm394.70001,188.9c3,3.4 3.4,5.5 1.8,9.4c-3.5,8.3 -15.5,5.8 -15.5,-3.3c0,-7.2 9.1,-11.2 13.7,-6.1z" id="svg_91" fill="#007fff"/>
   <path d="m0.2,264.20411c0.3,3.3 7.4,10.7 92.2,96.2l91.8,92.6l62.2,0l62.1,0l15,15c12.2,12.2 14.9,15.5 14.7,17.4c-0.8,6 5.9,12.1 12.1,10.9c7,-1.4 10.2,-11.5 5.2,-16.6c-3.7,-3.6 -7,-4.2 -11.5,-1.9l-3.8,1.9l-15.4,-15.4l-15.3,-15.3l-61.5,0l-61.6,0l-23,-23.3c-167.5,-169.4 -163.6,-165.4 -163.2,-161.5zm353.40001,216.2c2.1,1.8 2.8,3.2 2.8,6.1c0,4.3 -3.9,8.5 -7.9,8.5c-3.8,0 -8.5,-4.6 -8.5,-8.3c0.1,-7.5 8,-11.1 13.6,-6.3z" id="svg_94" fill="#007fff"/>
   <path d="m0.2,281.10411l0.3,4.7l88.9,89.6l88.8,89.6l58.7,0l58.6,0l21.5,21.5l21.5,21.5l9,0l9.1,0l5.7,-5.8l5.7,-5.8l0,-9l0,-9l4.8,-4.7l4.8,-4.7l16,0l16.1,0l6.9,-7.5c6.7,-7.4 7,-7.5 11.7,-7.5c4,0 5.4,-0.5 7.8,-2.9c5.4,-5.4 3.4,-14 -3.8,-16c-7.8,-2.2 -14.9,4.9 -12.3,12.2c1,3 0.8,3.3 -5.7,9.9l-6.7,6.8l-16.6,0l-16.6,0l-5.2,5.3l-5.2,5.3l0,9l0,9l-5.8,5.7c-5.7,5.7 -5.8,5.7 -11.9,5.7l-6.1,0l-21.4,-22l-21.3,-22l-57.8,0l-57.9,0l-61.6,-62.2c-34,-34.3 -74.9,-75.6 -91,-91.8l-29.2,-29.5l0.2,4.6zm434.80001,157.4c3.4,3.7 3.3,9 -0.4,12.1c-3.7,3.2 -7.1,3 -10.7,-0.5c-3.7,-3.7 -3.8,-7.8 -0.4,-11.5c3.2,-3.5 8.3,-3.6 11.5,-0.1z" id="svg_106" fill="#007fff"/>
   <path d="m0.2,293.70411c0.2,1.3 33.7,35.9 88.6,91.2l88.4,89.1l56.7,0l56.6,0l21.5,21.5l21.5,21.5l12.5,0l12.4,0l15.6,-15.5l15.6,-15.5l32.7,0l32.7,0l1.3,3.2c2.7,6.2 7.7,8.6 13.3,6.3c6.6,-2.7 8.1,-11.6 2.9,-16.5c-4.8,-4.5 -14,-2.2 -16.1,4.2c-0.5,1.7 -2.4,1.8 -34.3,1.8l-33.9,0l-15,15.5l-15.1,15.5l-11.3,0l-11.4,0l-21.9,-22l-21.9,-22l-56.6,0l-56.6,0l-45.1,-45.8c-97.8,-99.3 -133.3,-134.7 -133.1,-132.5zm471.20001,186.8c3.8,3.5 3.6,8.5 -0.5,11.9c-3.8,3.2 -7,3.3 -10.5,0.2c-3.9,-3.3 -3.9,-8.9 0,-12.2c3.5,-3.1 7.6,-3.1 11,0.1z" id="svg_107" fill="#007fff"/>
   <path d="m0.2,309.20411c0.2,1.8 25,27.4 85.2,88.2l85,85.6l57.5,0l57.6,0l22.5,22.5l22.5,22.5l16.5,0l16.5,0l13.5,-13.5l13.5,-13.5l29,0l29.1,0l3.9,4l3.9,4l12.6,0l12.6,0l4.7,-4.8l4.7,-4.8l0,-15l0,-14.9l-8.9,-8.9l-8.9,-8.9l1.5,-3.3c4.7,-9.7 -7.9,-18.4 -15.8,-10.8c-4.1,3.9 -4.1,9.4 0,13.5c2.9,2.9 4.3,3.3 9,2.9c1.8,-0.1 4.5,1.9 10.7,8.1l8.4,8.4l0,14l0,14.1l-3.8,3.7l-3.8,3.7l-10,0l-10,0l-4.4,-4.5l-4.4,-4.5l-30.6,0l-30.5,0l-14,14l-14,14l-14.5,0l-14.5,0l-22.5,-22.5l-22.5,-22.5l-58,0l-58.1,0l-23,-23.3c-141.6,-143 -148.6,-149.9 -148.2,-147.5zm471.30001,129.3c3.5,3.4 3.3,7.8 -0.4,11.6c-4.7,4.6 -10.1,3.5 -12.7,-2.6c-3.5,-8.5 6.7,-15.5 13.1,-9z" id="svg_108" fill="#007fff"/>
   <path d="m0,384.30411c0,2.5 7.9,10.8 53.8,57.3l53.7,54.4l85,0l85,0l23,23l23,23l26.2,0l26.2,0l3.3,-2.9c3,-2.6 3.8,-2.8 8.5,-2.4c4.8,0.5 5.5,0.3 8.3,-2.5c2.2,-2.3 3,-4 3,-6.7c0,-8.2 -10.3,-12.6 -16.7,-7.1c-2.4,2.1 -2.8,3.2 -2.8,7.4c0,3.5 -0.6,5.6 -1.9,7.1c-1.8,2 -2.8,2.1 -27.5,2.1l-25.6,0l-22.5,-22.5l-22.5,-22.5l-85,0l-85,0.1l-54.7,-55.3c-48.1,-48.6 -54.7,-55 -54.8,-52.5zm394.50001,137c5.7,4.9 2,14.7 -5.6,14.7c-7.2,0 -10.6,-9.6 -5.3,-14.5c3.4,-3.1 7.5,-3.2 10.9,-0.2z" id="svg_131" fill="#007fff"/>
   <path d="m0,406.50411c0,2.6 6.3,9.3 49.8,52.8l49.7,49.7l85.1,0l85.1,0l23.2,23.5l23.1,23.5l29.8,0l29.8,0l2.8,2.9c2.6,2.7 2.7,3.2 1.6,6.5c-2.5,7.6 1.7,13.6 9.5,13.6c3.6,0 4.8,-0.5 6.9,-3.1c4.4,-5.2 3,-12.5 -3.1,-15.4c-2,-1 -4.5,-1.4 -6.1,-1c-2.3,0.5 -3.4,-0.1 -6.7,-3.5l-3.9,-4l-29.1,0l-29,0l-23.5,-23.5l-23.5,-23.5l-85.7,0l-85.6,0l-50.1,-50.7c-45,-45.6 -50.1,-50.5 -50.1,-47.8zm394.70001,156.7c2.9,3.2 3.4,5.3 2.1,8.8c-1,3 -5.1,6 -8.2,6c-0.8,0 -2.8,-1.2 -4.5,-2.6c-2.4,-2 -3.1,-3.4 -3.1,-6c0,-7.3 9,-11.3 13.7,-6.2z" id="svg_134" fill="#007fff"/>
   <path d="m0.2,432.10411c0.2,2 11.8,14.3 44.7,47.8l44.4,45.1l86.6,0l86.6,0l23.5,23.5l23.5,23.5l24.2,0l24.1,0l9.4,10l9.3,10l11.5,0l11.6,0l5.7,-5.8l5.7,-5.8l0,-19.5l0,-19.5l4.4,-4.3l4.4,-4.4l2.8,2.2c4.3,3.4 11.8,2.5 15.1,-1.8c0.7,-0.9 1.3,-3.5 1.3,-5.8c0,-5.4 -4.2,-9.3 -9.9,-9.3c-4.1,0 -9.1,3.6 -9.1,6.5c0,1 -2.9,4.7 -6.5,8.4l-6.5,6.8l0,18.4l0,18.5l-5.3,5.2l-5.3,5.2l-8.5,0l-8.4,0l-10,-10l-10,-10l-24,0l-24,0l-22.5,-22.5l-22.6,-22.6l-87.2,0l-87.2,0.1l-46,-46.3c-36,-36.1 -46,-45.6 -45.8,-43.6zm434.40001,89.3c2.1,1.7 2.8,3.3 2.8,5.9c0,8.8 -11,12.2 -14.9,4.6c-2.2,-4.2 -1.8,-6.7 1.4,-10c3.6,-3.5 7,-3.7 10.7,-0.5z" id="svg_140" fill="#007fff"/>
   <path d="m0,452.90411l0,4.3l41.7,41.9l41.7,41.9l88.4,0l88.5,0l22.9,23.5l23,23.5l22.7,0l22.6,0l10.5,10.5l10.5,10.5l15,0l15,-0.1l18.3,-17.9c17.2,-17 18.2,-18.2 18.2,-21.8c0,-4.8 -2.1,-7.7 -6.4,-9.2c-3.8,-1.2 -8.9,0.3 -11.5,3.4c-2.2,2.6 -1.9,9.1 0.6,12.4l2.1,2.9l-12.1,12.1l-12.2,12.2l-11.7,0l-11.7,0l-10.2,-10.5l-10.2,-10.5l-22.7,0l-22.6,0l-23.4,-23.5l-23.4,-23.5l-88.6,0l-88.5,0l-43.2,-43.2l-43.3,-43.3l0,4.4zm434.60001,110.5c5.4,4.6 3,12.7 -4.3,14.2c-2.7,0.5 -3.7,0.1 -6.4,-2.5c-2.7,-2.8 -3.1,-3.7 -2.6,-6.9c1.2,-6.9 8,-9.4 13.3,-4.8z" id="svg_143" fill="#007fff"/>
   <path d="m0.2,471.50411c0.3,3.1 4.5,7.7 38.2,41.5l38,38l87.5,0l87.6,0l23.7,23.7l23.6,23.6l16.5,0l16.6,0l3.3,3.4c2.9,3 3.3,4 3.3,8.9c0,4.9 0.4,5.9 2.8,8c2,1.7 4,2.4 7.2,2.4c3.6,0 4.7,-0.5 6.9,-3.1c3.4,-4 3.4,-8.8 0.1,-12.7c-2.9,-3.4 -6.3,-4.6 -9.8,-3.3c-2.1,0.8 -3,0.4 -6.8,-3.5l-4.3,-4.4l-16.6,0l-16.5,0l-23,-23l-23,-23l-88.1,0l-88.1,0l-39.7,-40c-36.9,-37.1 -39.7,-39.7 -39.4,-36.5zm351.90001,132.5c1,0.6 2.6,2.4 3.4,4c4.3,8.3 -6.7,16.2 -13,9.4c-6.4,-6.9 1.4,-17.7 9.6,-13.4z" id="svg_146" fill="#007fff"/>
   <path d="m0.2,485.70411c0.2,1.3 14.3,16.5 36.1,38.7l35.9,36.6l87.6,0l87.7,0l23.5,23.5l23.5,23.5l9.5,0l9.5,0l12.5,12.5l12.5,12.5l13.1,0l13.1,0l4.7,-5l4.7,-5l22.8,0c18.4,0 23.1,-0.3 24,-1.4c0.9,-1 2.7,-1.3 6.9,-0.9c5.2,0.5 5.9,0.3 8.5,-2.2c3.8,-3.9 3.8,-10.1 0,-13.7c-3.8,-3.5 -6.5,-4.1 -10.8,-2.4c-4.1,1.8 -6.9,7 -5.9,11.1c0.4,1.8 0.1,3.2 -1.1,4.5c-1.7,1.9 -3.2,2 -24.4,2l-22.7,0l-4.4,4.5l-4.4,4.5l-11.1,0l-11,0l-12,-12l-12,-12l-9.7,0l-9.7,0l-23.2,-23.5l-23.2,-23.5l-88.5,0l-88.5,0l-36.9,-37.3c-24.3,-24.5 -36.7,-36.5 -36.6,-35zm434.40001,119.7c5.6,4.8 2,14.6 -5.4,14.6c-3.6,0 -8.2,-4.6 -8.2,-8.3c0,-3.6 4.9,-8.7 8.4,-8.7c1.4,0 3.7,1.1 5.2,2.4z" id="svg_148" fill="#007fff"/>
   <path d="m0,508.90411l0,6.3l29.7,29.9l29.7,29.9l89.5,0l89.6,0l24.3,25l24.4,25l11.1,0l11.2,0l10.5,10.5l10.5,10.5l22.6,0c20.6,0 22.7,0.2 24.2,1.8c1,1 1.7,3.1 1.7,4.6c0,9.5 12.2,14.2 18,6.9c5.4,-6.9 -0.8,-17.5 -9.4,-15.9c-2.7,0.5 -3.7,0.1 -6.1,-2.4l-2.9,-3l-23.6,0l-23.5,0l-10.5,-10.5l-10.5,-10.5l-9.6,0l-9.7,0l-24,-24.5l-23.9,-24.5l-88.9,0l-88.9,0l-32.7,-32.7l-32.8,-32.8l0,6.4zm394.40001,138c4.6,4 3.4,11.7 -2.3,14.1c-7.6,3.1 -14.3,-6.6 -9.1,-13.3c3,-3.8 7.5,-4.1 11.4,-0.8z" id="svg_150" fill="#007fff"/>
   <path d="m458.90001,520.90411c-4.2,4.2 -4.1,9.9 0.3,13.6l3.1,2.6l-7.1,7.2l-7.2,7.2l0,77.1l0,77l-3.3,3.2l-3.3,3.2l-52,0l-52.1,0l-2.3,2.5c-2.6,2.8 -6.1,3.2 -8,1c-1,-1.3 -5.2,-1.5 -25.9,-1.5l-24.7,0l-34.8,-35.5l-34.8,-35.5l-103.4,0l-103.4,0l0,3l0,3l100.8,0l100.7,0l35.3,36l35.4,36l30.2,0l30.3,0l2.3,-2.5l2.3,-2.5l53.1,0l53,0l4.3,-4.2l4.3,-4.2l0,-77.1l0,-77l8.3,-8.1c4.5,-4.4 9.4,-8.8 10.8,-9.7c1.4,-0.8 3.2,-2.9 3.9,-4.6c4,-9.8 -8.5,-17.7 -16.1,-10.2zm12.6,0.7c7.4,8 -2.9,19.1 -11.1,12c-2.2,-1.8 -2.8,-3.2 -2.7,-6.2c0.2,-7.6 8.8,-11.2 13.8,-5.8z" id="svg_156" fill="#007fff"/>
   <path d="m0,585.00411l0,3l116.7,0l116.8,0l31.2,31.2c22.2,22.2 31.3,31.9 31.3,33.5c0,5.4 4.8,10.3 10,10.3c3.3,0 7.5,-2.6 8.8,-5.5c3.7,-8 -3.1,-16.3 -11.2,-13.8l-3.4,1l-31.3,-31.3l-31.4,-31.4l-118.7,0l-118.8,0l0,3zm311.8,62.3c3.5,3.2 3,8.8 -1,12.2c-3.6,3 -6.8,2.8 -10.5,-0.7c-4.6,-4.3 -2,-12.7 4.2,-14c2.7,-0.6 4.5,0.1 7.3,2.5z" id="svg_165" fill="#007fff"/>
   <path d="m0,599.50411l0,2.5l111.4,0l111.4,0l36,36.5l35.9,36.5l11.8,0l11.8,0l7.2,-6.9l7.2,-7l16,0l15.9,0l7.4,7.4l7.4,7.5l14.1,0l14.1,0l5.9,6c5.3,5.3 6,6.6 6.1,10c0.1,7.5 5.7,11.8 12.9,9.9c4.4,-1.2 6.5,-4.3 6.5,-9.4c0,-3.2 -0.6,-4.7 -2.9,-6.9c-2.4,-2.3 -3.6,-2.7 -7.5,-2.5c-4.5,0.3 -4.8,0.1 -11.4,-6.4l-6.8,-6.7l-14.5,0l-14.5,0l-6.9,-7l-6.9,-7l-19.6,0l-19.6,0l-6.9,7l-6.9,7l-8.1,0l-8,0l-36.5,-36.5l-36.5,-36.5l-112.7,0l-112.8,0l0,2.5zm435.20001,87.3c1,0.9 2,3.1 2.4,4.9c0.5,2.7 0.1,3.7 -2.4,6.3c-4.4,4.3 -10.7,3.6 -13.1,-1.7c-1.8,-3.9 -1.3,-6.3 1.9,-9.5c2.6,-2.5 3.6,-2.9 6.3,-2.4c1.8,0.4 4,1.4 4.9,2.4z" id="svg_168" fill="#007fff"/>
   <path d="m0,614.00411l0,3l108,0l108,0l35.7,36l35.6,36l18.1,0l18.2,0l7.8,-8l7.9,-8l9.7,0l9.6,0l10.7,10.9c5.9,5.9 10.7,11.5 10.7,12.3c0,2.6 4.6,6 8.4,6.1c9.3,0.3 14,-9.2 8,-16.2c-2.1,-2.6 -3.3,-3.1 -6.8,-3.1c-2.3,0 -5.2,0.7 -6.5,1.6c-2.3,1.6 -2.5,1.5 -12.5,-8.5l-10.1,-10.1l-13,0l-13,0l-8,8l-8,8l-14,0l-14,0l-35.5,-35.5l-35.5,-35.5l-109.7,0l-109.8,0l0,3zm392.50001,71c1.5,0.6 3.2,2.4 4.1,4.5c1.3,3.1 1.3,3.9 -0.1,6.5c-2.8,5.5 -8.9,6.7 -13,2.5c-4.1,-4 -3.1,-10.4 2,-13.3c2.5,-1.4 3.7,-1.5 7,-0.2z" id="svg_171" fill="#007fff"/>
   <path d="m0,630.00411l0,3l104.3,0l104.2,0l35.9,36.5l35.8,36.5l25.7,0l25.7,0l2.9,-3c3.2,-3.4 4.8,-3.6 9.7,-1.5c4.3,1.8 10,0.5 12.3,-2.8c2.4,-3.5 2,-10.3 -1,-13.2c-3.4,-3.5 -10.6,-3.5 -14,0c-1.4,1.3 -2.5,3.3 -2.5,4.5c0,1.6 -0.6,2 -3.3,2c-2.5,0 -4.2,0.9 -6.7,3.5l-3.4,3.5l-19.8,0l-19.8,0l-35.7,-36l-35.6,-36l-107.3,0l-107.4,0l0,3zm354.10001,56.9c1.7,1.8 2.9,4 2.9,5.6c0,3.5 -5,8.5 -8.5,8.5c-1.6,0 -3.8,-1.2 -5.6,-2.9c-1.7,-1.8 -2.9,-4 -2.9,-5.6c0,-3.5 5,-8.5 8.5,-8.5c1.6,0 3.8,1.2 5.6,2.9z" id="svg_172" fill="#007fff"/>
   <path d="m0,658.00411c0,2 0.7,2 98.1,2l98,0l37.1,37.5l37,37.5l33.4,0c32.3,0 33.4,0.1 33.4,1.9c0,1.1 1.2,3.3 2.6,5c2.1,2.6 3.3,3.1 6.9,3.1c5.2,0 9.1,-2.8 10,-7.1c2,-9.1 -9,-15.5 -16.3,-9.4l-2.9,2.5l-32,0l-32.1,0.1l-37.2,-37.6l-37.3,-37.5l-99.4,0c-98.6,0 -99.3,0 -99.3,2zm350.30001,70.2c5.3,2.8 6.4,9.2 2.2,13.3c-6.4,6.5 -16.6,-0.5 -13.1,-9c2.2,-5.1 6.3,-6.8 10.9,-4.3z" id="svg_175" fill="#007fff"/>
   <path d="m0.7,670.70411c-1.4,1.3 -0.6,3.3 1.2,3.3c1.1,0 3.2,1.1 4.7,2.4c2.1,1.8 2.8,3.2 2.8,6c0,4.1 -1.9,6.5 -6.7,8.3l-3.2,1.1l3.1,0.1c4.6,0.1 8.4,-4.3 8.4,-9.7l0,-4.2l89.8,0l89.7,0l40.5,40.5l40.5,40.5l45.5,0l45.5,0l8.9,-8.9l8.9,-9l2.5,2c2.8,2.2 9.8,2.5 12.3,0.6c7,-5.4 3.5,-17.7 -5.1,-17.7c-4.7,0 -6,1 -18.7,14.1l-11.6,11.9l-42.7,0l-42.8,0l-40.2,-41l-40.3,-41l-96.2,0c-52.9,0 -96.5,0.3 -96.8,0.7zm393.80001,58.8c5.4,5.4 2.1,14.5 -5.2,14.5c-4.5,0 -8.3,-3.7 -8.3,-8.2c0.1,-7.6 8.4,-11.5 13.5,-6.3z" id="svg_178" fill="#007fff"/>
   <path d="m15.1,694.40411c-8.4,8.5 -9.7,9.4 -12.3,8.9c-1.7,-0.3 -2.8,-0.1 -2.8,0.6c0,0.6 1.1,1.1 2.4,1.1c2.7,0 7.6,5.1 7.6,7.8c0,3.3 -3.9,8.1 -7.2,9.1c-3.3,0.9 -3.3,0.9 -0.5,1c1.9,0.1 3.9,-0.9 5.9,-2.9c2.5,-2.6 2.9,-3.6 2.7,-7.5c-0.3,-4.5 -0.2,-4.7 8.1,-13l8.5,-8.5l76.5,0l76.5,0l42,42l42,42l50.9,0l50.8,0l8.2,-8l8.2,-8l12.5,0l12.5,0l7.3,-7.4l7.3,-7.4l5.7,0.5c5,0.5 5.9,0.2 8.3,-2c2.2,-2 2.8,-3.5 2.8,-6.7c0,-11.6 -16,-13.9 -19.1,-2.7c-0.9,3 -3.2,6.3 -8.3,11.4l-7,7.3l-11.8,0l-11.7,0l-8.3,8.5l-8.4,8.5l-48.6,0l-48.6,0l-41.4,-42l-41.5,-42l-79.9,0l-79.9,0l-9.4,9.4zm419.50001,35c2.1,1.7 2.8,3.3 2.8,5.9c0,8.8 -11,12.2 -14.9,4.6c-2.2,-4.2 -1.8,-6.7 1.4,-10c3.6,-3.5 7,-3.7 10.7,-0.5z" id="svg_181" fill="#007fff"/>
   <path transform="rotate(180 158.5246124267578,1008.800537109375) " stroke="null" d="m61.02461,979.26928l-12.5,12.5l-14,0l-14,0l-10.8,10.8l-10.7,10.7l0,16.1c0,16.1 0,16.1 2.6,18.8c3.6,3.5 9.1,3.6 13.3,0l3,-2.5l-0.6,-14.2l-0.5,-14.2l6.2,-6.8l6.3,-6.7l11.1,0l11.1,0l13,-13l13,-13l10.5,0l10.5,0l14.6,14.6l14.7,14.7l95.1,0.5l95.1,0.5l0,-7.2l0,-7.1l-93.8,0l-93.7,0l-13.5,-13.5l-13.5,-13.5l-15,0l-15,0l-12.5,12.5zm-46.6,56.6c1.4,1.7 2.6,3.7 2.6,4.4c0,3.3 -2.2,6.6 -5.3,8.1c-3,1.4 -3.8,1.5 -6.3,0.3c-3.7,-1.8 -5.9,-5.8 -5,-9.2c1.7,-7.1 9.4,-9.1 14,-3.6z" id="svg_170" fill="#007fff"/>
   <path transform="rotate(180 124.07461547851562,883.917236328125) " stroke="null" d="m15.82462,741.10268c-2.9,1.7 -4.9,6.8 -4.2,10.7c0.6,3.3 0.3,3.9 -5.7,9.9l-6.3,6.4l-0.3,77.1l-0.3,77.2l6.6,6.6l6.7,6.7l48.6,0.7l48.7,0.7l5.3,5.2l5.2,5.1l0,8.1l0,8.1l6.8,6.7l6.8,6.7l10.4,0l10.5,0l13,13l13,13l21,0l21,0l13.2,13.2c12.1,12.1 13.3,13 13.3,10.5c0,-2.3 -2.5,-5.5 -11.7,-15.3l-11.8,-12.4l-21,0l-21,0l-13,-13l-13,-13l-11.8,0l-11.8,0l-5,-5.3l-5,-5.2l0.7,-7.4l0.6,-7.4l-7.3,-7.3l-7.3,-7.4l-47.7,0l-47.6,0l-6.7,-6.9l-6.6,-6.9l0.6,-74.4l0.6,-74.3l6,-6.1c5.9,-6.1 6,-6.1 10.8,-5.6c4.4,0.4 5.2,0.2 8,-2.6c4.1,-4.2 4.2,-9.2 0.1,-13.3c-2.3,-2.2 -3.9,-2.9 -6.8,-2.9c-2.1,0 -4.6,0.5 -5.6,1.1zm10.9,2.3c2.2,1.8 2.8,3.2 2.7,6.2c-0.2,7.6 -8.8,11.2 -13.8,5.8c-7.4,-8 2.9,-19.1 11.1,-12z" id="svg_173" fill="#007fff"/>
   <path transform="rotate(180 97.02459716796875,986.331787109375) " stroke="null" d="m20.72459,976.53178c-7.3,7.4 -7.9,7.8 -12.1,7.8c-6.4,0 -9.6,3.2 -9.6,9.6c0,4 0.4,5.1 3.1,7.3c1.9,1.7 4.3,2.6 6.4,2.6c2.1,0 4.5,-0.9 6.4,-2.6c2.6,-2.2 3.1,-3.3 3.1,-7.1c0,-4.4 0.4,-5 7.4,-11.9l7.3,-7.4l41.4,0l41.5,0l6.4,6.5l6.4,6.5l33.3,0l33.3,0l0,-2.5l0,-2.5l-31.8,0l-31.8,0l-6.9,-7l-6.9,-7l-44.6,0l-44.5,0l-7.8,7.7zm-6.9,11.3c4.5,4.2 3.6,10.7 -1.9,13.6c-3,1.5 -3.5,1.5 -6.6,0c-5.8,-2.7 -6.8,-9.1 -2.3,-13.6c2.6,-2.6 8,-2.6 10.8,0z" id="svg_176" fill="#007fff"/>
   <path transform="rotate(180 76.49974060058594,971.969482421875) " stroke="null" d="m4.07488,956.40717c-8.8,5.1 -5.4,18.7 4.8,18.7c2.8,0 4.8,-0.7 6.8,-2.4l2.8,-2.5l9,8.9l9,8.9l58.8,0.3c55.3,0.3 58.7,0.2 58.7,-1.5c0,-1.6 -3.4,-1.7 -57.4,-1.7l-57.4,0l-9.2,-9.8c-5.1,-5.3 -10.2,-11.3 -11.5,-13.2c-1.2,-1.9 -2.9,-4.1 -3.8,-4.8c-2.3,-2 -7.9,-2.4 -10.6,-0.9zm10.4,3.2c4.6,4.5 2.4,12.5 -3.9,14.1c-2.8,0.7 -8.1,-1.8 -9,-4.1c-2.2,-6 1.6,-12.5 7.4,-12.5c1.9,0 4,0.9 5.5,2.5z" id="svg_179" fill="#007fff"/>
   <path transform="rotate(180 55.936614990234375,978.81640625) " stroke="null" d="m5.24863,969.80102c-1.2,0.4 -3.1,2.1 -4.4,3.7c-2.9,3.7 -2.3,9.8 1.5,13c4.9,4.2 14.2,2.1 16,-3.7c0.5,-1.6 1.5,-2 5.3,-2c3.7,0 5.2,0.6 7.7,2.9l3,2.8l39.3,0.7c34.4,0.5 39.2,0.4 39.2,-0.9c0,-1.3 -4.9,-1.5 -37.8,-1.5l-37.8,0l-3.4,-3.5c-3.1,-3.2 -3.9,-3.5 -9.1,-3.5c-5.3,0 -5.7,-0.2 -6.9,-2.9c-0.7,-1.7 -2.6,-3.6 -4.5,-4.5c-3.7,-1.8 -5,-1.9 -8.1,-0.6zm9,3.1c1.9,1.5 2.6,3 2.6,5.5c0,4.7 -1.3,6.9 -5,8.4c-3.5,1.5 -8.4,0 -10,-3.1c-4.5,-8.2 5.1,-16.6 12.4,-10.8z" id="svg_180" fill="#007fff"/>
   <path transform="rotate(180 97.27459716796875,936.831787109375) " stroke="null" d="m21.92459,922.53178c-6,6.7 -6,6.7 -9.1,5.4c-6.8,-2.8 -13.8,1.8 -13.8,9.1c0,3.3 0.6,4.5 3.3,6.9c4.5,4 9.3,4 13.4,-0.1c2.8,-2.8 3,-3.6 2.6,-8c-0.5,-4.8 -0.4,-4.9 5.1,-10.4l5.7,-5.6l16,0l16,0l3.7,3.8l3.7,3.8l0,10l0,10l5.3,5.2l5.3,5.2l14,0l14,0l3.9,-4l3.9,-4l40.3,0c35.2,0 40.3,-0.2 40.3,-1.5c0,-1.3 -5.3,-1.5 -41.3,-1.5l-41.4,0l-4.2,4.5l-4.2,4.4l-11.2,-0.5l-11.2,-0.6l-4.7,-4.6l-4.8,-4.6l0,-10.1l0,-10.1l-4.8,-4.7l-4.8,-4.7l-17.5,0l-17.5,0l-6,6.7zm-8.1,7.7c0.9,0.7 2.2,2.7 2.8,4.4c1.8,5.3 -2.8,11.2 -8.7,11.2c-2.8,0 -7.4,-5.6 -7.4,-9c0,-6.3 8.3,-10.4 13.3,-6.6z" id="svg_182" fill="#007fff"/>
   <path transform="rotate(180 117.945556640625,920.236083984375) " stroke="null" d="m3.9665,895.04037c-4.7,2.6 -6.3,8.4 -3.7,13.5c2.3,4.3 8.9,6.5 12.6,4.1c1.1,-0.7 3,0.6 8,5.5l6.5,6.5l33.8,0.7l33.7,0.6l9.9,10.3l9.9,10.3l29.2,0.1c26,0.1 29.4,0 31,-1.5c1.7,-1.6 4.5,-1.6 31.9,-1l30.1,0.8l0,-2.2l0,-2.1l-32.9,0c-28,0 -33,0.2 -34.1,1.5c-1,1.3 -5.3,1.5 -26.4,1.5l-25.1,0l-11,-11l-11,-11l-32.5,0l-32.4,0l-6.8,-6.7c-5.8,-5.8 -6.6,-7 -6.1,-9.5c1.6,-8.1 -7.3,-14.4 -14.6,-10.4zm10.6,2.8c1.6,1.5 2.3,3.3 2.3,5.7c-0.1,4 -1.4,6.2 -4.7,7.9c-3.2,1.8 -4.8,1.5 -8.2,-1.4c-2.4,-2 -3.1,-3.4 -3.1,-6.2c0,-7.3 8.4,-11 13.7,-6z" id="svg_183" fill="#007fff"/>
   <path transform="rotate(180 76.50303649902344,924.781005859375) " stroke="null" d="m4.38147,904.33022c-9.2,4.5 -5.8,18.4 4.5,18.4c2.2,0 4.3,-0.5 4.6,-1c1.2,-1.9 2.5,-1 2.5,1.7c0,2.1 2.3,5.3 9.6,13l9.6,10.3l22.7,0l22.7,0l3,-3.1l2.9,-3.1l33.8,0.5c32,0.5 33.7,0.4 33.7,-1.3c0,-1.7 -2.1,-1.8 -35.2,-2.2l-35.3,-0.4l-3,2.8l-3.1,2.8l-19.5,0l-19.4,0l-9.8,-9.8l-9.7,-9.7l0,-6.9c0,-6.4 -0.2,-7 -3.4,-10.2c-3.8,-3.8 -6.4,-4.2 -11.2,-1.8zm10.1,2.9c4.6,4.5 2.4,12.5 -4,14.1c-5.2,1.3 -9.9,-2.9 -9.7,-8.8c0.2,-7.1 8.7,-10.4 13.7,-5.3z" id="svg_184" fill="#007fff"/>
   <path transform="rotate(180 55.955230712890625,936.770751953125) " stroke="null" d="m5.28586,927.70971c-6.5,2.6 -8.4,11.2 -3.5,16.1c5,4.9 13.8,3.4 16.1,-2.7c0.8,-1.9 1.7,-2.4 4.3,-2.4c2.3,0 4.1,-0.8 5.7,-2.5l2.3,-2.5l41.4,0c26.9,0 41.3,-0.3 41.3,-1c0,-0.7 -14.8,-1 -42.3,-1l-42.4,0l-2.3,2.5c-3.2,3.4 -6.3,3.3 -7.7,-0.5c-1.1,-2.9 -6.6,-7 -9.3,-6.9c-0.8,0 -2.5,0.4 -3.6,0.9zm9.1,3.5c5.2,5.1 1.6,14.5 -5.5,14.5c-4.4,0 -8,-3.9 -8,-8.5c0,-4.6 3.6,-8.5 8,-8.5c1.9,0 4,0.9 5.5,2.5z" id="svg_185" fill="#007fff"/>
   <path transform="rotate(180 117.99700927734375,853.75732421875) " stroke="null" d="m4.46941,803.08286c-6,2.6 -7.3,10.9 -2.6,15.7c2.4,2.4 3.8,2.9 7.6,2.9c4.3,0 4.9,0.3 10.6,6.5l6.1,6.5l16.2,0l16.2,0l5.9,6l5.9,6l28.6,0l28.5,0l29,28.9l29,28.9l25.8,0.6l25.7,0.6l0,-2.5l0,-2.5l-22.7,0l-22.8,0.1l-29.5,-30.1l-29.5,-30l-28.5,0l-28.6,0l-5.9,-6l-5.9,-6l-16.1,0l-16.1,0l-6.4,-6.5c-5.2,-5.2 -6.4,-7.1 -6.2,-9.1c0.6,-4 -1.7,-8.1 -5.3,-9.8c-3.9,-1.9 -5.1,-1.9 -9,-0.2zm10.4,3.2c3.1,4 2.8,8.7 -1,11.8c-3.5,3 -4.9,3.2 -8.8,1.1c-3.2,-1.6 -4.1,-3.3 -4.1,-7.8c0,-7.2 9.5,-10.7 13.9,-5.1z" id="svg_189" fill="#007fff"/>
   <path transform="rotate(180 97.38790893554688,885.717041015625) " stroke="null" d="m5.75122,866.30229c-3,1.1 -6,4.7 -6.6,7.8c-0.7,3.7 1.6,8.9 4.5,10.5c3.5,1.8 8.7,1.2 11.8,-1.4l3,-2.5l9.4,9.5l9.4,9.4l54.5,0l54.6,0l2.9,3l2.9,3l21.8,0c13.9,0 21.8,-0.4 21.8,-1c0,-0.6 -7.4,-1 -20.3,-1l-20.3,0l-3.4,-3.5l-3.4,-3.5l-54.6,0l-54.5,0l-10.3,-10.3c-5.6,-5.6 -10.2,-11 -10.2,-12c0,-5.3 -7.6,-10 -13,-8zm8.7,3.5c3,3.4 3.4,5.5 1.8,9.4c-1.3,3.2 -4.6,5.4 -8.1,5.4c-2.8,0 -7.4,-5.6 -7.4,-9c0,-6.9 9.2,-10.7 13.7,-5.8z" id="svg_190" fill="#007fff"/>
   <path transform="rotate(180 77.90829467773438,892.003662109375) " stroke="null" d="m4.79199,879.97553c-4.3,2.1 -6.4,6.2 -5.6,10.6c1.7,8.9 13.8,10.6 18.4,2.6c0.9,-1.6 2.4,-3 3.2,-3c0.9,0 4,2.5 7,5.5l5.5,5.5l39.9,0c38.9,-0.1 39.9,0 41.8,2c1.8,1.9 3,2 21.8,2c19.3,0 20,-0.1 20,-2c0,-1.9 -0.7,-2 -19.4,-2c-16,0 -19.6,-0.3 -20.6,-1.5c-1.1,-1.3 -6.9,-1.5 -41.4,-1.5l-40.2,0l-5.4,-5.5c-3.9,-3.9 -6.2,-5.5 -8.1,-5.5c-2,0 -3,-0.7 -3.8,-2.9c-2.1,-4.9 -8.1,-6.9 -13.1,-4.3zm9.9,2.6c5.7,6.1 -0.1,16.6 -7.9,14.1c-3.4,-1.1 -6,-4.6 -6,-8.2c0,-7.3 9,-11.1 13.9,-5.9z" id="svg_191" fill="#007fff"/>
   <path transform="rotate(180 97.27459716796875,826.2830810546875) " stroke="null" d="m5.02459,787.63437c-3.9,1.6 -6,5.1 -6,9.8c0,3.7 0.5,4.9 2.8,6.9c3.3,2.8 9.1,3.2 12.3,0.9c1.9,-1.3 2.3,-1.2 4.4,1l2.3,2.5l30.6,0l30.6,0l28.5,28.5l28.5,28.5l28.2,0l28.3,0l0,-3l0,-3l-26.3,0l-26.3,0l-28.9,-29l-28.9,-29l-29.7,0l-29.6,0l-4.7,-5c-2.5,-2.7 -4.6,-5.4 -4.6,-6c0,-1.2 -6,-4 -8.2,-3.9c-0.7,0 -2.2,0.4 -3.3,0.8zm8.9,3.3c4.3,3.9 3.6,10.7 -1.4,13.3c-4,2.1 -5.4,1.9 -8.9,-1.1c-2.4,-2 -3.1,-3.4 -3.1,-6c0,-7.2 8.1,-10.9 13.4,-6.2z" id="svg_192" fill="#007fff"/>
   <path d="m-19.99978,-246.09612c0,1.6 1.9,4.4 5.5,8.2l5.5,5.8l0,171.3l0.1,171.3l30.7,31.3l30.7,31.3l38.2,-0.1l38.1,0l73.8,74.5l73.8,74.5l29.6,0l29.5,0l14.5,14.5c9,9.1 15.4,14.6 17.1,15c3.4,0.8 9.4,-1.7 10.8,-4.3c1.4,-2.6 1.4,-7.7 0.1,-10.3c-1.3,-2.4 -6.1,-4.9 -9.6,-4.9c-1.7,0 -3.9,1.3 -6.2,3.6l-3.5,3.5l-10.6,-10.5l-10.6,-10.6l-30.1,0l-30.2,0l-73.2,-74l-73.3,-74l-38.1,0l-38.1,0.1l-30.2,-30.8l-30.2,-30.8l-0.1,-171.4l0,-171.3l-7,-7.2c-6.1,-6.2 -7,-6.8 -7,-4.7zm392.90001,580.60001c6.1,3.1 5.9,12 -0.4,14.9c-3.9,1.9 -7.4,1 -9.9,-2.6c-3.1,-4.3 -1.2,-10.8 3.8,-12.8c2.9,-1.2 3.3,-1.2 6.5,0.5z" id="svg_37" fill="#007fff"/>
   <path d="m-19.99978,122.40388c0,1.2 11.4,13.5 30.3,32.5c16.6,16.8 70.5,71.2 119.6,120.8l89.4,90.3l85.1,0l85.2,0l5.3,5.4c4.9,5 5.2,5.5 4.6,9c-2,10.2 9.4,16.8 16.6,9.7c5.6,-5.7 2.9,-15.3 -4.7,-16.7c-2,-0.4 -4.6,-0.2 -5.8,0.4c-2.1,0.9 -3,0.4 -8.2,-4.9l-5.8,-5.9l-85.7,0l-85.6,0l-92.4,-93.3c-152.1,-153.5 -147.9,-149.4 -147.9,-147.3zm434.50001,254.3c4.4,4.4 3.5,11.5 -1.7,13.7c-3.9,1.7 -7.4,0.9 -9.8,-2.2c-4.4,-5.5 -0.9,-13.2 6,-13.2c2.3,0 4.5,0.7 5.5,1.7z" id="svg_60" fill="#007fff"/>
   <path d="m-19.79978,144.60388c0.3,4.1 2.5,6.4 101.3,106c55.6,56.1 108.2,109.2 116.9,118.1l15.9,16.3l51.8,0l51.8,0l1.7,2.9c5.2,8.8 18.4,5.4 18.4,-4.7c0,-5.1 -3,-8.9 -7.6,-9.8c-4.6,-0.8 -9,1.1 -10.6,4.7l-1.3,2.9l-50.1,0l-50.1,0l-91.4,-92.3c-50.2,-50.7 -103.8,-104.8 -119.1,-120.2l-27.9,-28l0.3,4.1zm353.50001,232.6c3.1,3.5 3.5,5.7 1.7,9.4c-2.6,5.4 -9.1,6.3 -13.1,1.8c-4.8,-5.3 -1.3,-13.4 5.6,-13.4c2.6,0 4.4,0.7 5.8,2.2z" id="svg_64" fill="#007fff"/>
   <path d="m-19.99978,169.30388c0,2.5 8.2,11.1 56.3,59.5c31,31.2 57.8,58.3 59.6,60.2c1.8,1.9 28.3,28.7 58.9,59.5l55.7,55.9l69.5,0.1l69.5,0l7,-6.7c5.3,-5.1 7.4,-6.5 8.5,-5.8c5.6,3.6 14,-1.7 14,-8.8c0,-7.6 -7,-12.1 -14.1,-9.1c-3.8,1.5 -6.4,6.9 -5.5,11.2c0.5,2.6 -0.1,3.7 -5.6,9.3l-6.2,6.4l-67.7,0l-67.6,0l-100.9,-101.8c-55.5,-55.9 -107.8,-108.7 -116.1,-117.2c-13.9,-14.1 -15.3,-15.2 -15.3,-12.7zm394.50001,207.4c4.4,4.4 3.5,11.5 -1.7,13.7c-3.9,1.7 -7.4,0.9 -9.8,-2.2c-4.4,-5.5 -0.9,-13.2 6,-13.2c2.3,0 4.5,0.7 5.5,1.7z" id="svg_67" fill="#007fff"/>
   <path d="m-19.79978,197.20388c0.3,5.3 -13.7,-9.4 134.2,140l79,79.8l114.1,0l114.2,0l11.9,-12.2c11.6,-11.9 12,-12.3 16.3,-12.3c3.6,0 4.8,-0.6 7.3,-3.4c2.6,-2.9 3,-3.9 2.5,-7.5c-1.2,-8.5 -10.8,-11.7 -16.9,-5.6c-2.4,2.5 -2.9,3.7 -2.7,7c0.3,3.9 0,4.3 -11.6,16l-12,12l-109.5,0l-109.6,0l-53.9,-54.2c-29.7,-29.9 -78.7,-79 -108.8,-109.3l-54.8,-55l0.3,4.7zm474.70001,179.4c4,3.3 4.3,8.3 0.6,11.9c-5,5.1 -13.5,1.5 -13.5,-5.8c0,-3.6 1.3,-5.8 4.5,-7.5c3.1,-1.7 5.1,-1.4 8.4,1.4z" id="svg_75" fill="#007fff"/>
   <path d="m85.10022,195.60388c-5.9,4.9 -3.3,15 4.3,17c1.7,0.4 4.1,-0.1 6.9,-1.5c3.7,-1.8 6.2,-2.1 17.8,-2.1l13.6,0l68.7,69.5l68.8,69.5l27.8,0c23.2,0 28,0.2 29,1.5c3.1,3.8 12.5,2.3 15,-2.4c1.8,-3.4 1.2,-8.8 -1.4,-11.8c-2,-2.3 -3,-2.7 -6.7,-2.5c-2.4,0.2 -16.6,0.5 -31.4,0.8l-27.1,0.5l-68.3,-69.1l-68.3,-69l-17.6,0c-14,-0.1 -18.1,-0.4 -19.6,-1.5c-3.1,-2.3 -8,-1.8 -11.5,1.1zm12.1,1.1c2.5,2.3 3.2,6.7 1.4,10.1c-2.6,5.1 -9.2,5.9 -13.1,1.6c-7.3,-7.8 3.8,-18.8 11.7,-11.7zm234.7,137.8c6.3,3.2 5.7,13 -0.8,15.3c-10.2,3.6 -15.7,-11.8 -5.7,-15.8c2.9,-1.2 3.3,-1.2 6.5,0.5z" id="svg_76" fill="#007fff"/>
  </g>
 </g>
</svg>