<svg width="1250" height="1100" xmlns="http://www.w3.org/2000/svg" preserveAspectRatio="xMidYMid meet">
 <g>
  <title>background</title>
  <rect x="-1" y="-1" width="1252" height="1102" id="canvas_background" fill="none"/>
 </g>

 <g>
  <title>Layer 1</title>
  <g stroke="null" id="svg_1">
   <path stroke="null" d="m487.50183,13.32972l-8.75715,6.66305l-144.58819,0l-144.58819,0l-11.13681,7.13898l-11.13681,7.13898l-32.2682,0l-32.2682,0l2.28447,3.42671c6.47268,9.51864 -0.95186,23.03512 -12.08868,22.08325l-3.61708,-0.38075l0,7.7101l0,7.61491l4.09302,-0.28556c7.51973,-0.47593 13.99241,5.90156 13.99241,13.89722c0,2.28447 -0.47593,4.94969 -0.95186,5.99675c-0.95186,1.71336 -0.66631,1.80854 7.0438,1.80854l8.09085,0l-1.4278,-2.66522c-4.1882,-8.09085 3.14115,-19.22766 12.75498,-19.22766c9.23308,0 16.08651,9.61383 13.13573,18.27579l-1.33261,3.61708l7.61491,0c7.32936,0 7.51973,0 6.37749,-1.99892c-0.57112,-1.23742 -0.85668,-4.28339 -0.66631,-7.23417c1.14224,-13.99241 18.9421,-17.41912 25.70034,-5.04488c1.80854,3.33153 1.90373,8.66197 0.28556,12.56461c-0.66631,1.61817 0.38075,1.71336 13.04054,1.71336l13.70685,0l4.47376,-4.56895l4.47376,-4.56895l0,-13.99241l0,-13.99241l43.30983,0l43.30983,0l0,9.1379l0,9.1379l2.85559,-2.47485c6.85342,-5.71119 16.46725,-3.5219 20.84583,4.85451c1.52298,2.95078 1.33261,9.42346 -0.38075,12.6598l-1.52298,2.85559l17.32393,0l17.32393,0l15.61057,-16.18169l15.70576,-16.18169l82.52663,0l82.43145,0l10.28013,10.28013l10.18495,10.18495l0,16.46725l0,16.56244l36.36122,36.55159l36.26603,36.55159l13.51647,0l13.42129,0l5.42563,5.52081l5.42563,5.52081l0.09519,12.75498l0,12.85017l53.20921,53.78033l53.3044,53.78033l0,42.16759l0,42.16759l53.78033,54.06589l53.78033,54.06589l0,123.83755l0,123.83755l14.7539,15.13464l14.7539,15.13464l0,58.15891l0,58.06372l33.31525,33.60081l33.22006,33.696l0.09519,33.79118l0,33.79118l7.90047,7.90047l7.80529,7.80529l93.2827,0l93.2827,0l12.6598,-12.56461l12.56461,-12.46942l0,-29.98373l0,-29.98373l-3.99783,-4.37858c-2.0941,-2.37966 -7.80529,-8.47159 -12.56461,-13.42129c-4.85451,-4.94969 -14.84908,-15.61057 -22.36881,-23.60623l-13.70685,-14.46834l-41.50128,0l-41.50128,0l-20.08434,-20.75064c-11.04163,-11.32719 -25.50996,-26.27145 -32.07783,-33.22006l-12.08868,-12.56461l0,-15.03946l0,-15.03946l-19.79878,-19.79878l-19.70359,-19.70359l-4.47376,0l-4.37858,0l-16.27688,-17.41912l-16.27688,-17.32393l0,-125.64609l-0.09519,-125.64609l-53.20921,-53.68515l-53.3044,-53.68515l0,-41.02535l0,-41.02535l-54.25627,-54.25627l-54.25627,-54.25627l0,-13.3261l0,-13.3261l-17.70468,-17.89505l-17.70468,-17.79986l-14.46834,0l-14.37315,0l-23.60623,-23.60623l-23.51105,-23.51105l0,-15.61057l0,-15.51539l-3.33153,-4.56895c-3.23634,-4.37858 -3.33153,-4.75932 -3.33153,-13.3261l0,-8.85234l-5.33044,-5.99675l-5.33044,-6.09193l-8.28122,0l-8.28122,0l-5.90156,-5.99675l-5.90156,-5.99675l0,-5.90156l0,-5.90156l-39.21681,0l-39.312,0l-8.75715,6.66305zm27.31851,1.71336c9.42346,4.66414 10.28013,18.75173 1.52298,24.46291c-6.75824,4.47376 -15.99132,1.71336 -19.6084,-5.71119c-2.47485,-5.04488 -2.37966,-7.80529 0.28556,-12.85017c3.61708,-6.94861 10.94644,-9.42346 17.79986,-5.90156zm462.60606,875.61998c9.51864,6.47268 12.46942,18.84691 7.0438,28.93667c-9.1379,16.65763 -31.41152,15.61057 -39.312,-1.99892c-3.5219,-7.7101 -2.18929,-16.27688 3.61708,-22.93993c4.85451,-5.71119 9.51864,-7.61491 17.70468,-7.32936c5.616,0.28556 7.32936,0.76149 10.94644,3.33153zm121.17233,47.87877c3.14115,2.47485 3.90264,5.99675 2.0941,9.61383c-2.76041,5.14007 -9.51864,5.80637 -12.56461,1.14224c-2.28447,-3.42671 -1.80854,-7.99566 1.14224,-10.56569c3.04597,-2.57003 6.09193,-2.66522 9.32827,-0.19037zm0.38075,20.17952c2.76041,3.04597 3.23634,5.04488 2.0941,8.37641c-1.23742,3.33153 -3.42671,4.75932 -7.23417,4.75932c-3.33153,-0.09519 -5.616,-1.80854 -6.85342,-5.04488c-1.80854,-4.66414 2.0941,-10.18495 7.0438,-10.18495c1.90373,0 3.71227,0.76149 4.94969,2.0941zm-55.77925,17.79986c2.95078,3.04597 3.23634,4.28339 1.80854,8.18603c-1.04705,2.66522 -6.09193,5.33044 -8.47159,4.47376c-3.14115,-1.04705 -5.80637,-4.37858 -5.80637,-7.0438c0,-7.7101 7.13898,-10.85125 12.46942,-5.616zm0.85668,24.65329c2.66522,3.33153 2.37966,6.56786 -0.95186,9.89939c-2.47485,2.37966 -3.42671,2.76041 -5.99675,2.28447c-7.61491,-1.4278 -8.85234,-11.99349 -1.61817,-14.65871c3.23634,-1.23742 6.47268,-0.28556 8.56678,2.47485zm128.31131,9.32827c6.85342,4.75932 2.28447,15.51539 -5.80637,13.99241c-5.80637,-1.14224 -7.7101,-9.32827 -3.14115,-13.3261c3.04597,-2.57003 5.90156,-2.76041 8.94752,-0.66631zm-129.0728,13.70685c2.37966,2.47485 2.76041,3.42671 2.28447,5.90156c-1.4278,7.42454 -9.23308,9.51864 -13.61166,3.71227c-1.99892,-2.57003 -1.4278,-7.51973 1.14224,-10.08976c3.14115,-3.23634 6.66305,-3.04597 10.18495,0.47593zm70.91389,8.75715c4.66414,4.37858 1.52298,13.13573 -4.66414,13.13573c-3.90264,0 -5.99675,-1.33261 -7.42454,-4.75932c-1.33261,-3.23634 0,-7.90047 2.76041,-9.51864c2.66522,-1.52298 7.0438,-1.04705 9.32827,1.14224zm29.50779,0c4.47376,4.1882 1.33261,13.13573 -4.56895,13.13573c-3.99783,0 -6.09193,-1.33261 -7.51973,-4.75932c-1.33261,-3.23634 0,-7.90047 2.76041,-9.51864c2.66522,-1.52298 7.0438,-1.04705 9.32827,1.14224zm29.03186,-0.76149c2.18929,1.61817 3.71227,5.80637 2.95078,7.90047c-0.28556,0.95186 -1.4278,2.66522 -2.47485,3.80746c-5.04488,5.71119 -14.7539,-0.76149 -11.99349,-7.99566c1.23742,-3.33153 3.5219,-4.94969 7.0438,-4.94969c1.61817,0 3.61708,0.47593 4.47376,1.23742z" id="svg_56" fill="#007fff"/>
   <path stroke="null" d="m504.44502,19.32646c-8.18603,4.75932 -4.75932,17.79986 4.66414,17.79986c5.04488,0 9.51864,-4.66414 9.51864,-9.89939c0,-5.90156 -8.94752,-10.85125 -14.18278,-7.90047zm10.18495,3.14115c3.14115,3.5219 2.85559,8.18603 -0.85668,11.232c-1.61817,1.33261 -3.71227,2.47485 -4.66414,2.47485c-0.95186,0 -3.04597,-1.14224 -4.66414,-2.47485c-4.94969,-4.1882 -3.5219,-11.70793 2.76041,-13.99241c2.28447,-0.76149 5.04488,0.28556 7.42454,2.76041z" id="svg_57" fill="#007fff"/>
   <path stroke="null" d="m33.08181,16.56605c-9.51864,5.42563 -2.37966,20.27471 8.09085,16.75281c9.42346,-3.04597 7.99566,-16.56244 -1.80854,-17.70468c-2.37966,-0.28556 -4.75932,0.09519 -6.2823,0.95186zm8.56678,1.04705c7.32936,3.71227 4.28339,15.22983 -3.90264,14.94427c-6.94861,-0.19037 -9.70902,-8.47159 -4.66414,-13.61166c3.14115,-3.14115 4.75932,-3.33153 8.56678,-1.33261z" id="svg_58" fill="#007fff"/>
   <path stroke="null" d="m69.72858,16.18531c-4.47376,1.80854 -6.56786,8.75715 -4.09302,13.51647c1.33261,2.57003 7.0438,4.85451 10.37532,4.09302c3.61708,-0.76149 6.66305,-4.28339 7.32936,-8.37641c0.47593,-3.04597 0.09519,-3.90264 -2.85559,-6.85342c-3.42671,-3.42671 -6.47268,-4.09302 -10.75607,-2.37966zm9.23308,2.76041c5.04488,5.14007 2.28447,13.42129 -4.66414,13.61166c-8.18603,0.28556 -11.32719,-11.04163 -4.09302,-14.94427c3.71227,-1.99892 5.616,-1.71336 8.75715,1.33261z" id="svg_59" fill="#007fff"/>
   <path stroke="null" d="m11.18893,38.93487c-3.80746,3.80746 -3.80746,8.47159 0,12.6598c2.28447,2.57003 3.42671,3.14115 6.75824,3.14115c9.42346,0 13.04054,-12.85017 4.85451,-17.13356c-4.47376,-2.28447 -8.37641,-1.80854 -11.61274,1.33261zm9.89939,-0.66631c4.75932,2.47485 5.90156,8.18603 2.47485,12.56461c-4.1882,5.33044 -13.23091,1.99892 -13.23091,-4.85451c0,-6.94861 5.23525,-10.66088 10.75607,-7.7101z" id="svg_61" fill="#007fff"/>
   <path stroke="null" d="m49.2635,38.93487c-7.42454,7.42454 0.38075,18.9421 10.08976,14.94427c6.85342,-2.85559 7.7101,-13.04054 1.4278,-16.27688c-4.37858,-2.28447 -8.37641,-1.80854 -11.51756,1.33261zm11.61274,0.95186c3.5219,3.5219 3.61708,7.42454 0.38075,10.94644c-4.85451,5.33044 -13.23091,1.71336 -13.23091,-5.80637c0,-2.47485 0.66631,-3.99783 2.66522,-5.616c3.5219,-3.04597 6.75824,-2.85559 10.18495,0.47593z" id="svg_62" fill="#007fff"/>
   <path stroke="null" d="m88.09956,37.22151c-2.0941,1.23742 -4.47376,5.80637 -4.47376,8.85234c0,3.14115 4.09302,7.80529 7.51973,8.47159c9.23308,1.90373 15.32502,-9.04271 8.75715,-15.61057c-2.18929,-2.0941 -3.71227,-2.76041 -6.47268,-2.76041c-1.99892,0 -4.37858,0.47593 -5.33044,1.04705zm8.28122,0.85668c7.51973,2.85559 5.14007,15.22983 -2.95078,15.22983c-8.28122,0 -10.85125,-10.85125 -3.61708,-15.03946c2.37966,-1.33261 3.5219,-1.4278 6.56786,-0.19037z" id="svg_63" fill="#007fff"/>
   <path stroke="null" d="m311.02618,78.91317c-2.18929,2.18929 -2.76041,3.61708 -2.76041,6.75824c0,10.85125 15.13464,13.23091 18.18061,2.85559c2.85559,-9.51864 -8.37641,-16.65763 -15.4202,-9.61383zm11.99349,1.52298c4.85451,4.75932 1.61817,12.85017 -5.04488,12.85017c-4.09302,-0.09519 -6.37749,-1.52298 -7.7101,-5.04488c-2.85559,-7.51973 7.0438,-13.61166 12.75498,-7.80529z" id="svg_69" fill="#007fff"/>
   <path stroke="null" d="m88.48031,80.34096c-8.37641,4.66414 -4.75932,17.70468 4.94969,17.70468c3.5219,0 7.99566,-3.42671 8.75715,-6.56786c1.99892,-9.04271 -5.90156,-15.4202 -13.70685,-11.13681zm10.08976,2.66522c4.85451,4.56895 1.4278,13.13573 -5.33044,13.13573c-6.75824,0 -10.08976,-7.23417 -5.71119,-12.75498c2.57003,-3.23634 7.80529,-3.42671 11.04163,-0.38075z" id="svg_71" fill="#007fff"/>
   <path stroke="null" d="m126.36451,81.76876c-2.95078,2.95078 -3.71227,7.90047 -1.80854,11.61274c1.23742,2.0941 5.80637,4.66414 8.56678,4.66414c4.85451,0 9.51864,-4.66414 9.51864,-9.51864c0,-8.28122 -10.37532,-12.56461 -16.27688,-6.75824zm12.37424,1.61817c4.28339,5.42563 1.14224,12.75498 -5.52081,12.75498c-6.85342,0 -10.37532,-7.99566 -5.616,-13.04054c2.95078,-3.14115 8.56678,-3.04597 11.13681,0.28556z" id="svg_72" fill="#007fff"/>
   <path stroke="null" d="m166.53318,80.24578c-9.42346,5.42563 -3.80746,19.41803 6.94861,17.41912c6.75824,-1.23742 9.61383,-9.99458 5.04488,-15.32502c-2.57003,-3.04597 -8.56678,-3.99783 -11.99349,-2.0941zm10.37532,3.04597c4.75932,5.04488 1.23742,12.85017 -5.80637,12.85017c-6.75824,0 -9.99458,-8.09085 -5.14007,-12.85017c3.14115,-3.23634 7.90047,-3.23634 10.94644,0z" id="svg_73" fill="#007fff"/>
   <path stroke="null" d="m576.50114,143.35439c-6.56786,3.5219 -6.09193,12.94535 0.95186,16.46725c2.0941,1.14224 2.0941,1.23742 2.0941,22.74956l0,21.60732l25.89071,26.17627c14.27796,14.37315 50.06806,50.44881 79.48067,80.05179l53.58996,53.97071l0,41.78684l0,41.69166l18.56135,18.56135l18.56135,18.56135l0.09519,120.41083l0,120.41083l34.74305,35.12379c33.696,34.17193 34.64786,35.21898 34.64786,38.83606c0,10.18495 14.65871,13.04054 17.99024,3.5219c1.33261,-3.80746 0.38075,-7.90047 -2.47485,-10.56569c-1.80854,-1.71336 -3.42671,-2.18929 -6.94861,-2.0941l-4.66414,0l-33.41044,-33.41044l-33.31525,-33.41044l0,-121.83863l0,-121.74344l-17.13356,-17.13356l-17.13356,-17.13356l0,-41.88203l0,-41.88203l-28.7463,-29.03186c-15.89613,-15.99132 -52.25735,-52.6381 -80.90847,-81.47958l-52.16216,-52.35254l0,-19.51322c0,-19.32285 0,-19.51322 2.37966,-22.74956c3.33153,-4.56895 3.14115,-7.99566 -0.85668,-11.99349c-3.61708,-3.61708 -6.94861,-4.09302 -11.232,-1.71336zm10.47051,2.85559c4.47376,5.04488 1.14224,12.75498 -5.42563,12.75498c-5.99675,0 -9.61383,-5.42563 -7.23417,-11.04163c2.28447,-5.52081 8.37641,-6.37749 12.6598,-1.71336zm270.99577,646.31587c1.80854,0.76149 4.28339,5.23525 4.28339,7.90047c0,1.04705 -1.04705,3.04597 -2.28447,4.47376c-4.37858,5.14007 -12.08868,2.85559 -13.51647,-3.99783c-0.38075,-2.28447 0,-3.5219 1.99892,-5.90156c2.57003,-3.04597 5.80637,-3.90264 9.51864,-2.47485z" id="svg_83" fill="#007fff"/>
   <path stroke="null" d="m606.2945,170.76808c-2.66522,1.52298 -4.75932,4.94969 -4.85451,7.99566c0,2.95078 2.47485,7.51973 4.75932,8.75715c1.71336,0.95186 1.90373,1.99892 1.90373,12.18386l0,11.13681l72.81762,73.29355l72.72243,73.29355l0,41.88203l0.09519,41.88203l18.56135,18.56135l18.56135,18.56135l0,72.34169l0,72.34169l44.26169,44.73762l44.1665,44.73762l0,101.37355l0.09519,101.37355l19.51322,19.51322l19.51322,19.51322l0,34.26711l0,34.26711l-9.04271,9.70902l-9.1379,9.70902l-3.23634,-1.4278c-7.90047,-3.33153 -18.08542,-0.47593 -23.70142,6.56786c-2.76041,3.42671 -2.95078,4.1882 -2.95078,11.61274c0,7.42454 0.19037,8.18603 2.95078,11.61274c4.47376,5.52081 9.32827,7.90047 16.18169,7.90047c5.04488,0 6.47268,-0.38075 10.47051,-3.14115c8.37641,-5.71119 11.232,-16.08651 6.66305,-24.93884l-2.47485,-4.75932l9.51864,-9.51864l9.51864,-9.51864l0,-38.5505l0,-38.45532l-19.03729,-19.13247l-19.03729,-19.13247l0,-101.84948l-0.09519,-101.75429l-43.69057,-44.26169l-43.78576,-44.26169l0,-72.81762l-0.09519,-72.81762l-17.99024,-18.56135l-18.08542,-18.56135l0,-40.45423l0,-40.45423l-73.19836,-73.76948l-73.29355,-73.76948l0,-9.89939c-0.09519,-9.32827 0,-9.89939 2.28447,-11.61274c1.23742,-1.04705 2.57003,-3.33153 2.95078,-5.23525c1.52298,-8.28122 -6.56786,-14.46834 -13.80203,-10.47051zm9.89939,2.95078c3.23634,3.14115 3.23634,7.90047 0,10.94644c-7.13898,6.75824 -16.94318,-3.04597 -10.85125,-10.85125c2.66522,-3.33153 7.61491,-3.42671 10.85125,-0.09519z" id="svg_92" fill="#007fff"/>
   <path stroke="null" d="m629.90073,195.04062c-3.71227,3.80746 -3.80746,8.47159 -0.09519,12.56461c2.0941,2.28447 3.42671,2.95078 6.37749,2.95078c3.33153,0.09519 4.56895,0.76149 10.28013,6.37749l6.37749,6.18712l0,5.80637l0.09519,5.71119l57.4926,58.06372l57.4926,58.06372l0.09519,41.88203l0,41.78684l18.56135,18.65654l18.56135,18.65654l0,72.34169l0,72.2465l18.84691,18.84691l18.75173,18.75173l12.37424,0l12.37424,0l8.09085,-8.09085c5.52081,-5.52081 8.75715,-8.09085 10.28013,-8.09085c4.09302,0 7.7101,-2.66522 8.85234,-6.56786c1.4278,-4.85451 -0.28556,-8.56678 -5.04488,-10.85125c-3.04597,-1.52298 -4.09302,-1.61817 -6.94861,-0.66631c-4.85451,1.61817 -6.56786,4.66414 -5.90156,10.47051l0.57112,4.66414l-6.94861,6.2823l-6.94861,6.18712l-9.42346,0l-9.42346,0l-17.41912,-17.41912l-17.32393,-17.32393l0,-71.86575l0,-71.86575l-18.08542,-18.08542l-18.08542,-18.08542l0,-42.45315l0,-42.45315l-57.58779,-58.15891l-57.58779,-58.06372l0,-5.99675l0,-5.99675l-6.2823,-6.37749c-5.90156,-5.99675 -6.18712,-6.47268 -6.47268,-11.32719c-0.19037,-4.09302 -0.66631,-5.42563 -2.85559,-7.23417c-3.80746,-3.33153 -9.42346,-3.14115 -13.04054,0.47593zm10.47051,-0.38075c6.94861,3.5219 4.09302,14.7539 -3.71227,14.7539c-7.80529,0 -10.66088,-12.37424 -3.5219,-15.22983c3.04597,-1.23742 4.1882,-1.14224 7.23417,0.47593zm250.91143,428.43413c3.23634,3.5219 3.14115,7.42454 -0.38075,10.94644c-3.42671,3.33153 -6.66305,3.5219 -10.18495,0.47593c-1.99892,-1.61817 -2.66522,-3.14115 -2.66522,-5.616c0,-7.51973 8.37641,-11.13681 13.23091,-5.80637z" id="svg_103" fill="#007fff"/>
   <path stroke="null" d="m666.07158,197.89621c-2.18929,2.18929 -2.76041,3.61708 -2.76041,6.85342c0,3.33153 0.57112,4.47376 3.33153,7.0438c3.14115,3.04597 3.23634,3.33153 3.5219,11.232l0.28556,8.09085l55.96962,56.25518l55.87443,56.35037l0,42.54833l0,42.54833l34.74305,34.74305l34.74305,34.74305l0,59.87226l0,59.96745l-3.33153,3.04597c-2.76041,2.57003 -3.33153,3.61708 -3.33153,7.0438c0,7.23417 6.85342,11.51756 13.61166,8.47159c2.18929,-1.04705 3.61708,-2.95078 4.85451,-6.85342c0.76149,-2.28447 -1.71336,-7.90047 -4.09302,-9.42346c-1.99892,-1.23742 -1.99892,-1.52298 -1.99892,-62.91823l0,-61.77599l-35.21898,-35.7901l-35.21898,-35.88528l0,-42.0724l0,-42.0724l-55.3985,-55.87443l-55.49369,-55.87443l-0.28556,-7.0438c-0.28556,-6.75824 -0.19037,-7.0438 2.66522,-9.42346c2.47485,-2.0941 2.85559,-3.14115 2.85559,-7.0438c0,-3.99783 -0.38075,-4.94969 -2.95078,-7.0438c-4.09302,-3.42671 -8.66197,-3.33153 -12.37424,0.28556zm10.28013,0c5.23525,3.23634 5.04488,11.04163 -0.38075,13.70685c-3.99783,1.90373 -7.90047,0.76149 -10.08976,-2.95078c-2.57003,-4.37858 -1.33261,-8.66197 3.14115,-10.85125c4.09302,-2.0941 3.61708,-2.0941 7.32936,0.09519zm181.61571,423.29406c1.80854,0.76149 4.28339,5.23525 4.28339,7.99566c0,2.76041 -5.04488,7.61491 -7.90047,7.61491c-2.95078,0 -6.94861,-3.14115 -7.7101,-6.09193c-0.66631,-2.76041 0.76149,-7.0438 3.04597,-8.75715c1.71336,-1.33261 5.71119,-1.71336 8.28122,-0.76149z" id="svg_105" fill="#007fff"/>
   <path stroke="null" d="m665.11971,334.96467c-4.85451,4.94969 -3.14115,12.18386 3.5219,14.94427c5.99675,2.47485 12.75498,-2.28447 12.75498,-8.94752c0,-4.75932 -4.37858,-8.75715 -9.51864,-8.75715c-3.14115,0 -4.56895,0.57112 -6.75824,2.76041zm12.75498,1.14224c4.09302,5.14007 0.28556,13.23091 -6.37749,13.23091c-6.66305,0 -9.8042,-8.94752 -4.75932,-13.99241c1.99892,-1.99892 3.04597,-2.28447 5.90156,-1.80854c1.90373,0.28556 4.28339,1.4278 5.23525,2.57003z" id="svg_137" fill="#007fff"/>
   <path stroke="null" d="m979.80605,430.34148c-1.61817,0.38075 -4.1882,2.0941 -5.71119,3.71227c-2.18929,2.28447 -2.85559,3.90264 -3.14115,8.37641c-0.38075,5.23525 -0.19037,5.80637 2.66522,9.04271c5.71119,6.56786 14.46834,6.85342 20.46508,0.66631c2.0941,-2.18929 2.76041,-3.90264 3.04597,-7.80529c0.47593,-6.37749 -1.90373,-10.56569 -7.61491,-13.13573c-4.37858,-1.99892 -5.42563,-2.0941 -9.70902,-0.85668z" id="svg_157" fill="#007fff"/>
   <path stroke="null" d="m1017.88062,436.24303c-1.71336,1.4278 -2.66522,3.42671 -3.04597,6.09193c-0.47593,3.5219 -0.19037,4.28339 2.37966,6.94861c5.99675,5.99675 16.37207,2.0941 16.37207,-6.18712c0,-7.7101 -9.8042,-11.99349 -15.70576,-6.85342zm11.42237,1.14224c4.94969,4.85451 1.52298,13.80203 -5.23525,13.80203c-4.1882,0 -7.61491,-3.71227 -7.61491,-8.09085c0,-4.37858 3.42671,-8.09085 7.61491,-8.09085c1.80854,0 3.80746,0.85668 5.23525,2.37966z" id="svg_158" fill="#007fff"/>
   <path stroke="null" d="m1020.54584,477.36357c-9.42346,4.09302 -6.85342,17.70468 3.5219,17.99024c3.33153,0.09519 4.37858,-0.38075 6.75824,-3.04597c4.75932,-5.33044 3.14115,-12.27905 -3.5219,-15.03946c-3.71227,-1.52298 -2.95078,-1.61817 -6.75824,0.09519zm7.23417,1.90373c6.94861,3.5219 4.09302,14.7539 -3.71227,14.7539c-8.09085,0 -10.47051,-11.13681 -3.33153,-15.03946c2.57003,-1.4278 3.90264,-1.4278 7.0438,0.28556z" id="svg_161" fill="#007fff"/>
   <path stroke="null" d="m1059.57228,477.36357c-10.66088,4.47376 -5.90156,20.17952 5.42563,17.99024c4.37858,-0.95186 7.13898,-4.56895 7.13898,-9.51864c0,-6.75824 -6.37749,-11.04163 -12.56461,-8.47159zm6.66305,1.61817c3.14115,1.61817 4.37858,3.71227 4.47376,7.23417c0,6.18712 -7.0438,9.89939 -12.08868,6.37749c-7.80529,-5.42563 -0.76149,-18.08542 7.61491,-13.61166z" id="svg_162" fill="#007fff"/>
   <path stroke="null" d="m1042.91465,623.094c-3.33153,1.80854 -4.56895,4.09302 -4.56895,8.75715c0,3.14115 0.57112,4.28339 2.95078,6.2823c1.80854,1.61817 4.09302,2.47485 6.09193,2.47485c1.99892,0 4.28339,-0.85668 6.09193,-2.47485c2.37966,-1.99892 2.95078,-3.14115 2.95078,-6.2823c0,-4.75932 -1.23742,-7.0438 -4.75932,-8.85234c-3.42671,-1.80854 -5.42563,-1.71336 -8.75715,0.09519zm8.28122,0.95186c2.37966,0.95186 4.47376,5.90156 3.80746,9.04271c-0.85668,3.90264 -4.94969,6.85342 -8.47159,6.18712c-3.71227,-0.76149 -5.99675,-2.95078 -6.75824,-6.2823c-0.66631,-2.85559 1.4278,-7.99566 3.5219,-8.85234c1.80854,-0.76149 6.09193,-0.76149 7.90047,-0.09519z" id="svg_186" fill="#007fff"/>
   <path stroke="null" d="m803.71115,648.88952c-3.04597,0.76149 -6.09193,4.1882 -6.75824,7.51973c-1.61817,8.85234 9.42346,14.56352 15.89613,8.09085c4.94969,-5.04488 3.14115,-12.85017 -3.61708,-15.4202c-2.47485,-0.85668 -2.47485,-0.95186 -5.52081,-0.19037zm7.80529,3.33153c3.71227,3.99783 2.95078,10.28013 -1.61817,12.6598c-3.90264,1.99892 -5.52081,1.80854 -8.66197,-1.33261c-3.5219,-3.61708 -3.71227,-7.80529 -0.38075,-11.04163c3.04597,-3.14115 7.99566,-3.23634 10.66088,-0.28556z" id="svg_187" fill="#007fff"/>
  </g>
 </g>
</svg>