<svg width="1100" height="800" xmlns="http://www.w3.org/2000/svg" preserveAspectRatio="xMidYMid meet">
 <g>
  <title>background</title>
  <rect x="-1" y="-1" width="1102" height="802" id="canvas_background" fill="none"/>
 </g>

 <g>
  <title>Layer 1</title>
  <path transform="rotate(90 1068.1921386718752,298.85260009765636) " d="m1061.30301,291.80016c-2.3,2.3 -2.9,3.8 -2.9,7.1c0,11.4 15.9,13.9 19.1,3c3,-10 -8.8,-17.5 -16.2,-10.1zm12.6,1.6c5.1,5 1.7,13.5 -5.3,13.5c-4.3,-0.1 -6.7,-1.6 -8.1,-5.3c-3,-7.9 7.4,-14.3 13.4,-8.2z" id="svg_69" fill="#007fff"/>
  <path transform="rotate(90 539.8447265625001,374.4133605957032) " d="m183.79477,-161.48649c-3.9,1.8 -5.3,4.3 -5.3,9.4c0,5 3.8,9.2 8.4,9.2c2.7,0 5.1,2 17.1,14l14,14l108.1,0c106.8,0 108.1,0 109.9,-2c1.7,-1.9 3.1,-2 33.2,-2l31.3,0l9.5,9.7l9.5,9.8l0,154.6l0,154.6l2.5,2.3l2.5,2.3l0,90.1l-0.1,90.1l-64.9,65.2l-64.8,65.3l-29.9,0l-29.8,0l-18.8,18.8l-18.7,18.7l0,33l0,32.9l18.3,18.6c10.1,10.2 49.2,49.7 86.9,87.7l68.5,69.3l155.1,0l155.1,0l42.2,43.7c23.3,24.1 46.6,48.2 51.9,53.6l9.5,9.8l8.1,-0.3l8.1,-0.3l-57.6,-58.3l-57.6,-58.3l-152,0.1l-152,0.1l-85.7,-86.3l-85.7,-86.3l-0.1,-28.1l0,-28.1l13.6,-14.2l13.6,-14.1l30.3,0l30.4,0l57.4,-57.8c31.5,-31.7 62.4,-62.9 68.5,-69.2l11.2,-11.5l0,-94.6c0,-93.3 0,-94.6 -2,-96.4c-2,-1.8 -2,-3.1 -2,-156.4l0,-154.6l-13.7,-13.7l-13.8,-13.7l-34.5,-0.1l-34.5,-0.1l-3,3.1l-2.9,3l-102.1,0l-102,0l-13.3,-13.3c-9.9,-9.9 -13.5,-14.2 -14.3,-17c-1.6,-5.9 -7.8,-8.8 -13.6,-6.3zm8,1.7c5.3,2.4 6,8.7 1.7,13.1c-2.6,2.5 -3.6,2.9 -6.3,2.4c-3.8,-0.7 -7.7,-4.8 -7.7,-8.1c0,-3.3 4.6,-8.5 7.5,-8.5c1.3,0 3.5,0.5 4.8,1.1z" id="svg_70" fill="#007fff"/>
  <path transform="rotate(90 1065.1612548828127,63.070785522461) " d="m1060.2538,54.4874c-8.8,4.9 -5,18.6 5.2,18.6c3.7,0 8.4,-3.6 9.2,-6.9c2.1,-9.5 -6.2,-16.2 -14.4,-11.7zm10.6,2.8c5.1,4.8 1.5,13.8 -5.6,13.8c-7.1,0 -10.6,-7.6 -6,-13.4c2.7,-3.4 8.2,-3.6 11.6,-0.4z" id="svg_71" fill="#007fff"/>
  <path transform="rotate(90 1065.0993652343752,105.01571655273445) " d="m1058.04696,97.87044c-3.1,3.1 -3.9,8.3 -1.9,12.2c1.3,2.2 6.1,4.9 9,4.9c5.1,0 10,-4.9 10,-10c0,-8.7 -10.9,-13.2 -17.1,-7.1zm13,1.7c4.5,5.7 1.2,13.4 -5.8,13.4c-7.2,0 -10.9,-8.4 -5.9,-13.7c3.1,-3.3 9,-3.2 11.7,0.3z" id="svg_72" fill="#007fff"/>
  <path transform="rotate(90 1065.1086425781252,145.1142883300782) " d="m1060.15773,136.37835c-9.9,5.7 -4,20.4 7.3,18.3c7.1,-1.3 10.1,-10.5 5.3,-16.1c-2.7,-3.2 -9,-4.2 -12.6,-2.2zm10.9,3.2c5,5.3 1.3,13.5 -6.1,13.5c-7.1,0 -10.5,-8.5 -5.4,-13.5c3.3,-3.4 8.3,-3.4 11.5,0z" id="svg_73" fill="#007fff"/>
  <path transform="rotate(90 594.1446533203126,235.56338500976568) " d="m627.84461,-187.1366c-8.9,9 -9.2,9.4 -9.2,13.8c0,4.2 -0.3,4.8 -3,5.9c-6.7,2.8 -8.2,10.9 -3.1,16.1c4,4 8.9,4 13.3,0c2.7,-2.4 3.3,-3.6 3.3,-6.9c0,-4.2 -3.4,-9.2 -6.2,-9.2c-0.9,0 -1.3,-1.5 -1.3,-4.8c0,-4.6 0.2,-5 8.3,-13l8.2,-8.2l23.5,0l23.5,0l9.3,9.3l9.2,9.2l0,154.6c0,136.3 0.2,154.8 1.5,155.9c1.3,1.1 1.5,11.7 1.5,84.9l0,83.6l-13.2,13.5c-7.2,7.4 -35.7,36.1 -63.2,63.7l-50.1,50.3l-32.6,0l-32.6,0l-18.7,19l-18.6,19l0,61.1l0,61.1l29.6,29.8c26.5,26.7 29.5,30 28.5,31.8c-3.3,6.1 1.8,14.2 8.9,14.2c5.3,0 10,-4.9 10,-10.4c0,-1.4 -1.3,-4 -2.9,-5.8c-2.4,-2.7 -3.6,-3.3 -7.5,-3.3l-4.7,-0.1l-29,-29l-28.9,-28.9l0,-59.5l0,-59.5l18.3,-18.3l18.2,-18.2l32.7,0l32.6,0l63.6,-64.1l63.6,-64.1l0,-85.8c0,-75 -0.2,-85.9 -1.5,-87c-1.3,-1.1 -1.5,-19.6 -1.5,-155.3l0,-154l-10.2,-10.3l-10.2,-10.4l-25.1,0l-25,0l-9.3,9.3zm-2.7,23.2c6.2,6.1 -0.7,16.6 -8.9,13.5c-2.5,-0.9 -5.6,-5.6 -5.6,-8.4c0,-0.8 1.2,-2.8 2.6,-4.5c3.3,-4 8.3,-4.3 11.9,-0.6zm-74.6,816.10001c3.1,4 2.8,8.7 -1,11.8c-3.4,2.9 -5,3.2 -8.2,1.4c-3.3,-1.7 -4.6,-3.9 -4.7,-7.7c0,-7.5 9.4,-11.2 13.9,-5.5z" id="svg_79" fill="#007fff"/>
  <path transform="rotate(90 507.14459228515625,395.8133850097657) " d="m391.29458,-105.28662c-4,4.1 -4.1,9.9 -0.2,13.6c1.5,1.4 3.5,2.6 4.3,2.6c6,0.6 10.6,-1.6 11.6,-5.6c0.6,-2.5 0.7,-2.5 12.2,-2.5c11.2,0 11.7,0.1 14.4,2.7l2.8,2.7l0,159.1l0,159.2l2.5,2.3l2.5,2.3l0,67.7l0,67.6l-58.1,58.7l-58.1,58.7l-32.7,0l-32.8,0l-24.1,24.9l-24.2,24.9l0,83.9l0.1,83.8l91.2,91.8l91.2,91.8l189.1,-0.1l189.1,0l7.2,7.5l7.3,7.5l8.1,0l8.2,0l-14,-14l-14,-14l-189.5,0l-189.5,0l-30.5,-30.7c-16.8,-17 -55.6,-56.1 -86.3,-86.9l-55.7,-56.1l0,-79.9l0,-79.9l20.3,-20.3l20.2,-20.2l33,0l33,0.1l61.7,-62.3l61.7,-62.3l0.1,-73.4l0,-73.3l-3,-3.5l-3,-3.4l0,-158.2l0,-158.1l-5.7,-5.8l-5.7,-5.8l-20.9,0l-20.9,0l-2.9,2.9zm12.2,1c3.1,3.1 3.6,5.9 1.7,9.4c-4.2,8 -15.2,5.1 -15.2,-4c0,-2.6 0.7,-4.2 2.8,-5.9c3.7,-3.2 7.1,-3 10.7,0.5z" id="svg_82" fill="#007fff"/>
  <path transform="rotate(90 684.8110351562501,458.67831420898443) " d="m647.8961,189.34475c-5.6,4.4 -4.2,13 2.6,16.3c3.1,1.6 4.3,1.7 6.9,0.8c3.2,-1.1 3.4,-1 11.3,6.9l8,8l14.5,0l14.5,0l8.7,8.7l8.8,8.8l0,152l0,152l-9.5,9.5l-9.5,9.5l0,75.4c0,58.7 -0.3,75.2 -1.2,74.3c-0.7,-0.7 -3.1,-1.2 -5.5,-1.2c-5.6,0 -9.3,3.7 -9.3,9.3c0,4.9 1.3,7.3 5.2,9.3c3.7,1.9 8.8,1.2 11.3,-1.6c1.6,-1.8 1.7,-7.1 1.6,-83.2l-0.2,-81.3l9.6,-9.5l9.5,-9.5l0,-153l0,-153l-9.3,-9.3l-9.2,-9.2l-15,0l-15.1,0l-7.4,-7.5c-7,-7 -7.3,-7.6 -6.2,-10c1.9,-4.1 1.4,-8.1 -1.4,-11.4c-2.1,-2.6 -3.3,-3.1 -6.9,-3.1c-2.7,0 -5.1,0.7 -6.8,2zm9.8,0c3,1.1 5.4,6 4.7,9.6c-0.6,3.2 -4.8,6.4 -8.4,6.4c-4.1,0 -7.8,-4 -7.8,-8.4c0,-2.6 0.7,-4 3.1,-6c3.4,-2.9 4.5,-3.1 8.4,-1.6zm45.6,524.90001c3.6,3.6 3.7,7 0.3,11c-3.6,4.3 -8.2,4.3 -11.9,-0.1c-2.8,-3.3 -2.9,-7.4 -0.3,-10.6c3.3,-3.9 8.2,-4 11.9,-0.3z" id="svg_100" fill="#007fff"/>
  <path transform="rotate(90 687.2500610351564,490.4378967285157) " d="m660.17556,223.04336c-3.4,2.4 -4.7,7.6 -2.9,12c3.1,7.2 13.6,8.1 17.5,1.4c1.3,-2.4 2.2,-2.9 5.7,-2.9c3.8,0 4.6,0.6 14.2,10.4l10.2,10.3l0,165.3l0,165.3l-10.5,10.7l-10.5,10.6l0,60.4l0,60.5l8,8c7.6,7.6 8,8.2 7.1,11.1c-1.3,4.6 -0.3,8.1 3.2,11c2.6,2.2 3.8,2.5 7.1,2.1c8.5,-1.2 11.7,-10.8 5.6,-16.9c-2.7,-2.7 -3.6,-3 -7.5,-2.6c-4.3,0.5 -4.4,0.5 -12.4,-7.6l-8.1,-8.1l0,-58l0,-58l10,-10l10,-10l0,-168l0,-168l-10.2,-10.2c-10,-9.9 -10.4,-10.2 -15.3,-10.5c-4.3,-0.3 -5,-0.6 -5.3,-2.5c-0.2,-1.2 -1.5,-3.3 -2.9,-4.7c-3,-3 -9.5,-3.6 -13,-1.1zm11.1,1.7c1.5,1.3 2.9,3.7 3.2,5.5c0.5,2.7 0.1,3.7 -2.4,6.3c-3.9,3.9 -7.4,3.9 -11.3,0.1c-1.7,-1.8 -2.9,-4 -2.9,-5.6c0,-3.4 5,-8.5 8.4,-8.5c1.4,0 3.6,1 5,2.2zm42.3,518.40001c4.3,2.7 3.4,12 -1.2,13.8c-4.9,1.9 -9.6,0.1 -11.5,-4.3c-1.7,-4.2 -0.5,-7.8 3.3,-10.1c3.3,-2 5.4,-1.9 9.4,0.6z" id="svg_101" fill="#007fff"/>
  <path transform="rotate(90 594.2421875000001,327.31774902343756) " d="m648.88778,-30.68469c-4.2,4.2 -4.1,10.1 0.2,14.3c2.7,2.8 3.4,3 7.8,2.5l4.8,-0.6l6.1,6.2l6.2,6.3l0,15.2l0,15.3l13,13.3l13,13.3l0,88l0,87.9l3,2.9l3,2.9l0,93.5l0,93.5l-53.7,54c-29.6,29.7 -54.2,54.6 -54.8,55.2c-0.5,0.6 -25.4,25.7 -55.2,55.7l-54.3,54.6l0,12.3l-0.1,12.3l-3.2,2c-4.5,2.9 -6.1,6.6 -4.7,11c2.2,6.6 8,9.1 14,6c3.7,-1.9 5,-4.3 5,-9.1c0,-2.9 -0.7,-4.3 -3.5,-7l-3.5,-3.3l0,-11.3l0,-11.3l108.5,-109.5l108.4,-109.5l0.1,-96.6l0,-96.6l-2.5,-2.3l-2.5,-2.3l0,-87.6l0,-87.6l-13,-13l-13,-13l0,-15l0,-15l-7,-7c-6.9,-7 -7,-7.1 -6,-10.6c2.8,-10 -8.9,-17.2 -16.1,-10zm13.6,2.4c2.3,3.2 1.8,7.4 -1,10.3c-2,2 -3.3,2.5 -6.8,2.2c-3.7,-0.3 -4.4,-0.7 -6.1,-3.9c-1.7,-3.2 -1.8,-4 -0.6,-6.9c2.5,-6.1 10.8,-7 14.5,-1.7zm-168.1,699.90001c4,3.5 4.3,7.8 1.1,11.6c-3.4,4.1 -8.4,4.4 -12,0.7c-3.5,-3.4 -3.3,-7.8 0.4,-11.6c3.5,-3.5 7.1,-3.7 10.5,-0.7z" id="svg_104" fill="#007fff"/>
  <path transform="rotate(90 595.4697265625001,308.05380249023443) " d="m671.27933,-7.12104c-3.5,2 -4.8,4.4 -4.8,9c0,4.9 4.4,9.5 9.2,9.5c3.1,0 4.7,1.4 17.1,14.4l13.7,14.4l0,86.9l0,86.9l4.5,4.4l4.5,4.4l0,84l0,84.1l-39.8,40c-21.9,22 -71.3,71.8 -109.9,110.7c-42,42.5 -70.7,70.8 -71.8,70.8c-1,0 -3.3,-1.6 -5.1,-3.5c-2.7,-2.9 -3.8,-3.5 -7.4,-3.5c-7.6,0 -12.4,7.7 -8.8,14.3c1.8,3.4 4,4.6 8.4,4.7c4.8,0 8.8,-2.7 9.8,-6.5c0.5,-2 1.2,-2.5 3.9,-2.5c3.1,0 8.1,-4.8 63.8,-61.1c33.2,-33.5 83,-83.8 110.6,-111.7l50.2,-50.7l0,-85.5l0.1,-85.6l-4.5,-4.4l-4.5,-4.4l0,-86.5l0,-86.6l-14.2,-14.2c-12.6,-12.6 -14.1,-14.5 -13,-16.1c2.3,-3.3 3.3,-6.6 2.7,-9.2c-1.3,-6.1 -9.3,-9.6 -14.7,-6.5zm11,3.1c2.7,3.1 2.8,7.3 0.2,10.7c-4,5 -10.8,4.2 -13.7,-1.7c-1.4,-3 -1.4,-3.9 -0.3,-6.6c1.5,-3.6 6.3,-6.2 9.5,-5.4c1.1,0.3 3,1.7 4.3,3zm-197.5,611.60001c7.9,4.1 5.2,15.8 -3.6,15.8c-7.3,0 -10.6,-9.1 -5.2,-14.5c2.6,-2.7 5.4,-3.1 8.8,-1.3z" id="svg_116" fill="#007fff"/>
  <path transform="rotate(90 610.1154174804689,370.0633850097657) " d="m663.61541,68.9342c-3.6,1.5 -5.7,4.9 -5.9,9.2c-0.1,3.5 0.4,4.6 3.3,7.1c3,2.7 3.9,3 7.6,2.5c4.2,-0.6 4.4,-0.5 10.4,5.7l6.1,6.4l0,28c0,23.6 0.2,28.1 1.5,29.2c1.3,1.1 1.5,20.9 1.5,167.1l0,165.9l-58.7,59.1l-58.8,59.1l-0.3,9.7l-0.3,9.6l-13.1,13.2c-10.8,10.9 -13.5,13 -14.9,12.2c-6.2,-3.3 -13.9,1.7 -13.9,9.1c0,8.8 9.2,13 16,7.4c2.9,-2.5 3.1,-3.1 2.9,-8.1l-0.3,-5.4l14.2,-14.2l14.2,-14.2l0.1,-8.5l0,-8.5l58.4,-59l58.5,-59l0,-168.1c0,-166.8 0,-168.1 -2,-169.9c-1.9,-1.7 -2,-3.1 -2,-29.9l0,-28.2l-6,-5.9c-5.6,-5.6 -5.9,-6.1 -5.4,-9.7c0.9,-5.4 -0.2,-8.6 -3.9,-10.8c-3.4,-2.1 -5.9,-2.4 -9.2,-1.1zm11.3,5.7c1.4,3.1 1.4,3.7 -0.1,6.9c-2.9,6 -9.7,6.9 -13.7,1.8c-2.6,-3.3 -2.5,-7.3 0,-10.6c3.8,-4.8 11.1,-3.8 13.8,1.9zm-133.3,580.00001c1.9,0.8 4.5,5.5 4.5,8.4c0,1.1 -1.1,3.2 -2.5,4.5c-4.5,4.6 -12.7,2.6 -14,-3.4c-0.7,-3.1 1.5,-8.5 3.7,-9.4c1.9,-0.8 6.4,-0.8 8.3,-0.1z" id="svg_117" fill="#007fff"/>
  <path transform="rotate(90 609.9793090820314,418.1639709472657) " d="m657.37871,116.89868c-3.6,1.6 -5.8,4.9 -5.9,9.2c-0.1,3.5 0.4,4.6 3.3,7.1c3.1,2.7 3.8,3 8.1,2.4l4.8,-0.6l5.6,5.7l5.6,5.8l0,136.9l0,136.9l-10,10.2l-10,10.1l0,65l0,64.9l-8.5,8.5l-8.5,8.5l0,18.5l0,18.6l-7.5,7.4l-7.5,7.4l0,37.7c0,44.3 1,40.9 -11.7,40.9c-10.5,0 -11.3,-0.8 -11.3,-11.7c0,-11.7 0.9,-11.3 -24.8,-11.3c-20,0 -21.2,-0.1 -21.2,-1.9c0,-5.5 -8.1,-9.6 -14.1,-7.1c-7.2,3 -7.7,14 -0.8,17.6c4.9,2.5 8.8,1.8 12.5,-2.1l3.3,-3.5l20.8,0.2l20.8,0.3l0.3,8.5c0.4,12.2 1.4,13 14.7,13c15.7,0 14.5,3.4 14.5,-41.6l0,-37l7.5,-7.4l7.5,-7.4l0,-18.6l0,-18.5l8,-8l8,-8l0,-65.5l0,-65.5l10.5,-10.5l10.5,-10.5l0,-139l0,-139.1l-5.8,-5.7c-5.8,-5.7 -5.9,-5.9 -5.4,-10.6c0.3,-3.9 0,-5.2 -1.9,-7.5c-2.6,-2.9 -8,-4.2 -11.4,-2.7zm6.9,1.5c4.7,2 6.5,6.6 4.3,11.2c-2.9,5.9 -9.7,6.7 -13.7,1.7c-4.1,-5.3 -1.1,-12.7 5.8,-14.2c0.1,-0.1 1.7,0.5 3.6,1.3zm-110.5,571.00001c5,5.3 1.4,13.6 -6,13.6c-2.9,0 -4.2,-0.6 -5.8,-2.6c-4.4,-5.6 -1.1,-13.4 5.8,-13.4c2.7,0 4.4,0.7 6,2.4z" id="svg_118" fill="#007fff"/>
  <path transform="rotate(90 589.6093139648439,293.5633850097657) " d="m678.60931,12.2281c-3.3,1.9 -4.4,4.1 -4.5,8.4c0,7.5 6.4,12.1 13.4,9.4c2.8,-1 3.2,-0.8 9.3,5.2l6.3,6.2l0,13.7c0,12.1 -0.2,13.9 -2,16.2c-1.9,2.5 -2,4 -2,61.9l0,59.3l8,8l8,8l0,74.5l0,74.5l-10.2,10.2c-7.8,7.9 -10.7,10.3 -12.8,10.3c-2.7,0 -0.4,-2.3 -152,150.3l-42.5,42.7l-13.4,0c-12.8,0 -13.6,-0.1 -16.8,-2.6l-3.3,-2.5l0,-9.9l0,-9.9l5.8,-6.1c5.3,-5.6 5.9,-6 8.7,-5.2c4.3,1.1 7,0.5 9.9,-2.5c5.8,-5.8 1.5,-16.3 -6.6,-16.3c-2.1,0 -4.8,0.5 -5.9,1c-3.1,1.7 -5.1,6.7 -4.4,10.8c0.5,3.5 0.2,4 -5.5,9.7l-6,5.9l0,10.5l0,10.5l5.7,5.8l5.7,5.8l14.1,0l14,0l74.6,-75.3c41,-41.3 84.1,-85 95.8,-97c17.5,-17.7 21.9,-21.7 24.1,-21.7c2.1,0 5.1,-2.4 13.9,-11.3l11.1,-11.2l0,-77.5l0,-77.5l-8,-8l-8,-8l0,-57.6c0,-50 0.2,-57.8 1.5,-58.9c1.2,-1 1.5,-4.3 1.5,-17.4l0,-16.2l-6.5,-6.4c-5.9,-5.9 -6.5,-6.8 -6.5,-10.6c0,-5.6 -0.7,-7.2 -4.1,-8.9c-3.3,-1.8 -7.6,-1.9 -10.4,-0.3zm11.3,3.4c4.7,5.3 0.9,13.3 -6.4,13.4c-5.8,0 -9.8,-6.3 -7.2,-11.6c2.7,-5.8 9.3,-6.6 13.6,-1.8zm-203.2,503.80001c5.7,4.8 2,14.6 -5.5,14.6c-3.5,0 -8.1,-4.4 -8.1,-7.7c0,-2.9 2.5,-7.9 4.2,-8.6c3,-1.2 6.9,-0.5 9.4,1.7z" id="svg_123" fill="#007fff"/>
  <path transform="rotate(90 612.0179443359376,412.66622924804693) " d="m662.71506,154.33954c-2.9,2.2 -4.5,6.6 -3.7,10c0.8,3.2 4.2,7.2 6.1,7.2c1.1,0 1.3,22 1.3,125.8l0,125.8l-4.5,4.4l-4.5,4.4l0,62.1l0,62l-48.4,49l-48.3,49l-4.4,-0.3c-5.6,-0.5 -9.5,2.3 -10.5,7.4c-1.9,10.1 10.6,15.9 17.2,8.1c2.3,-2.7 2.6,-3.8 2.1,-7.9l-0.6,-4.7l48.4,-48.8l48.4,-48.8l0.1,-62l0,-62.1l4.5,-4.4l4.5,-4.4l0,-126.8l0,-126.7l3,-1.6c3.7,-1.9 5,-4.3 5,-9c0,-7.6 -9.8,-12.4 -15.7,-7.7zm11.9,2c3.2,3.1 3.3,7.5 0.3,11c-3.5,4.2 -8.5,4.4 -12,0.6c-7.3,-7.9 4.1,-19 11.7,-11.6zm-113.7,500.70001c3.8,3.7 3.7,8.8 -0.1,12.2c-7.9,7.1 -18.2,-4.2 -10.9,-12.1c3.2,-3.4 7.7,-3.5 11,-0.1z" id="svg_124" fill="#007fff"/>
  <path transform="rotate(90 574.6000976562501,293.75082397460943) " d="m665.21262,38.30629c-4.2,1.2 -6.3,4.4 -6.3,9.5c0,4.6 3.4,9 7.3,9.6l2.2,0.3l0.3,59.5l0.2,59.5l11,11l11,11l0,69.5l0,69.5l-7.2,7.2c-6.9,7 -7.4,7.3 -11.9,7.3l-4.7,0l-92.3,93c-84.9,85.7 -92.5,93 -95.5,93c-2.4,0 -3.4,-0.5 -3.9,-2c-1.7,-5.2 -10,-7.7 -15,-4.4c-2.9,1.9 -4.8,7.2 -3.9,10.8c0.8,3.5 5.9,7.6 9.2,7.6c3.5,0 8.8,-3.3 9.7,-5.9c0.5,-1.6 1.5,-2.1 4.4,-2.1c3.6,0 5.1,-1.4 36.7,-33.3c18.1,-18.2 59.8,-60.3 92.6,-93.5l59.7,-60.2l4.8,0c4.7,0 5.1,-0.3 12.1,-7.3l7.2,-7.2l0,-72l0,-72l-11,-11l-11,-11l0,-58.7c0,-32.4 0.4,-58.8 0.9,-58.8c0.4,0 2,-1.1 3.5,-2.5c2,-1.8 2.6,-3.4 2.6,-6.5c0,-5.4 -1.4,-7.9 -5.5,-9.6c-1.9,-0.8 -3.6,-1.4 -3.7,-1.3c-0.2,0 -1.7,0.5 -3.5,1zm8.8,3.8c3.6,3.6 3.7,7 0.3,11c-3.4,4.1 -7.5,4.2 -11.5,0.2c-1.7,-1.8 -2.9,-4 -2.9,-5.6c0,-1.6 1.2,-3.8 2.9,-5.6c1.8,-1.7 4,-2.9 5.6,-2.9c1.6,0 3.8,1.2 5.6,2.9zm-204.2,490.60001c5.7,2.9 6.1,10.3 0.9,13.9c-7.4,5.2 -16.4,-3.8 -11.2,-11.2c1.4,-2.1 4.5,-4 6.7,-4.1c0.4,-0.1 2.1,0.6 3.6,1.4z" id="svg_133" fill="#007fff"/>
  <path transform="rotate(90 1068.1921386718752,263.13833618164074) " d="m1061.30301,256.0859c-2.3,2.3 -2.9,3.8 -2.9,7.1c0,11.4 15.9,13.9 19.1,3c3,-10 -8.8,-17.5 -16.2,-10.1zm12.6,1.6c5.1,5 1.7,13.5 -5.3,13.5c-4.3,-0.1 -6.7,-1.6 -8.1,-5.3c-3,-7.9 7.4,-14.3 13.4,-8.2z" id="svg_2" fill="#007fff"/>
  <path transform="rotate(90 1068.1921386718752,227.42407226562509) " d="m1061.30301,220.37164c-2.3,2.3 -2.9,3.8 -2.9,7.1c0,11.4 15.9,13.9 19.1,3c3,-10 -8.8,-17.5 -16.2,-10.1zm12.6,1.6c5.1,5 1.7,13.5 -5.3,13.5c-4.3,-0.1 -6.7,-1.6 -8.1,-5.3c-3,-7.9 7.4,-14.3 13.4,-8.2z" id="svg_3" fill="#007fff"/>
  <path transform="rotate(90 1068.1921386718752,298.85260009765636) " d="m1061.30301,291.80016c-2.3,2.3 -2.9,3.8 -2.9,7.1c0,11.4 15.9,13.9 19.1,3c3,-10 -8.8,-17.5 -16.2,-10.1zm12.6,1.6c5.1,5 1.7,13.5 -5.3,13.5c-4.3,-0.1 -6.7,-1.6 -8.1,-5.3c-3,-7.9 7.4,-14.3 13.4,-8.2z" id="svg_4" fill="#007fff"/>
 </g>
</svg>