<svg width="1300" height="1100" xmlns="http://www.w3.org/2000/svg" preserveAspectRatio="xMidYMid meet">
 <g>
  <title>background</title>
  <rect fill="none" id="canvas_background" height="1102" width="1302" y="-1" x="-1"/>
 </g>

 <g>
  <title>Layer 1</title>
  <g transform="rotate(45 759.6610717773439,466.4737548828125) " id="svg_1">
   <path fill="#007fff" id="svg_147" d="m930.10588,260.60798l-2.5,2.5l-23,0l-23,0l-55.4,55.7l-55.4,55.8l-0.1,24.2l0,24.2l-76.7,77.5l-76.8,77.6l-49,0l-49.1,0l-21.4,21.7c-11.8,12 -46.6,47.1 -77.4,78.1l-55.9,56.3l-11.1,-0.2c-12,-0.3 -14.5,0.4 -16.5,4.8c-2.4,5.3 -0.9,10.3 3.9,12.8c4.1,2.1 7.2,1.9 11.4,-1c3.2,-2.1 4.8,-2.5 11.5,-2.5l7.8,0l60.8,-61.8c33.5,-33.9 68.5,-69.5 78,-79l17.1,-17.2l46.2,0l46.3,0l64.2,-64.8c35.3,-35.6 71.5,-72.1 80.4,-81.2l16.3,-16.6l0,-24.1l0,-24l52.6,-53.2l52.6,-53.1l21.2,0c19.7,0 21.4,0.1 23,1.9c2.4,2.6 6.2,3.4 10.1,2.1c10.5,-3.5 7.6,-19 -3.5,-19c-3,0 -4.7,0.6 -6.6,2.5zm10.5,0c1.6,0.8 3.4,2.8 4,4.5c2.8,8.2 -7.3,14.7 -13.4,8.5c-3.5,-3.4 -3.3,-7.8 0.4,-11.6c3.3,-3.3 5,-3.5 9,-1.4zm-589.00001,477.10001c3.1,4 2.8,8.7 -1,11.8c-3.5,3 -4.9,3.2 -8.8,1.1c-3.2,-1.6 -4.1,-3.3 -4.1,-7.8c0,-7.2 9.5,-10.7 13.9,-5.1z"/>
   <path fill="#007fff" id="svg_155" d="m929.30588,287.60798c-2.8,1.9 -5,2.5 -9.1,2.5l-5.3,0l-45.6,46.2l-45.6,46.3l0,31.5l0,31.6l4,3.9l4,3.9l0,11.1l0,11l-24.6,25.2l-24.6,25.3l-25.2,0l-25.3,0l-44.6,44.7l-44.7,44.8l0,46l0,45.9l-17.3,17.6c-101.5,103 -138.6,139.8 -139.7,138.5c-1.8,-2.1 -6.8,-2.8 -10.2,-1.4l-3.1,1.2l-17.6,-18.1l-17.6,-18.2l-86,0l-86,0l-25,25l-25,25l-28.8,0l-28.9,0l-1.9,-2.5c-4,-5 -13.5,-4.1 -16.4,1.6c-1.9,3.5 -1.9,6.3 0,9.8c3.2,6.3 13.1,6.5 17,0.4l2,-3.2l29.8,-0.1l29.8,0l25.6,-26l25.5,-26l82.8,0l82.8,0l17.6,18.1c16.8,17.3 17.6,18.3 17.6,22.1c0,5.5 4.3,9.8 9.7,9.8c5.2,0 8,-2.2 9.4,-7.3c1.3,-4.6 3.8,-7.2 105.2,-109.3l52.7,-53.2l0,-45.3l0,-45.3l41.4,-41.6c22.7,-22.8 42.4,-42.7 43.6,-44.3l2.4,-2.7l25.5,0l25.6,0l26.3,-26.3l26.2,-26.2l0,-15.5l0,-15.6l-4.5,-4.4l-4.5,-4.4l0,-26.9l0,-26.9l44.1,-44.9l44.2,-44.9l4.2,0c3.8,0 4.4,0.3 5.5,3c2.8,6.6 11.6,7.6 16.4,1.9c4.1,-4.8 2.9,-11.7 -2.5,-14.5c-4,-2 -7.1,-1.7 -11.3,1.1zm11.5,1.4c5.3,5.4 2.4,14.1 -4.9,14.3c-8.5,0.3 -11.8,-11.6 -4.3,-15.7c3.9,-2.1 5.9,-1.8 9.2,1.4zm-455.60001,576.60001c6.2,6.1 -0.7,16.7 -8.7,13.4c-3.5,-1.4 -6.2,-6.1 -5.2,-9.2c2,-6.7 9.3,-8.9 13.9,-4.2zm-331.5,10c7.2,7.7 -4.1,18.5 -11.5,11c-3.1,-3 -3.2,-7.3 -0.4,-10.9c2.8,-3.6 8.6,-3.6 11.9,-0.1z"/>
   <path fill="#007fff" id="svg_174" d="m846.50588,408.60798c-3.4,1.9 -4.8,4.4 -4.8,8.8c0,4.1 3,8.2 6.5,9.1l2.5,0.6l0,28.2l0,28.2l-30.2,30.3l-30.3,30.3l-25.5,0l-25.5,0l-41.2,41.9l-41.3,41.9l0,47l0,47l-63.7,64.4c-35,35.3 -72.2,73 -82.7,83.6l-19,19.2l-19.1,0l-19,0l-24.5,-24.5l-24.5,-24.5l-48.5,0l-48.5,0l-13.5,13.5l-13.5,13.5l-4.6,-0.6c-4.2,-0.6 -5,-0.3 -8,2.4c-2.8,2.5 -3.4,3.7 -3.4,7.2c0,3.5 0.6,4.7 3.3,7.1c4.5,4 9.3,4 13.3,-0.1c2.6,-2.6 3,-3.6 2.8,-8l-0.3,-5.1l13.5,-13.5l13.4,-13.4l46.2,0l46.2,0l24.2,24.5l24.3,24.5l20.7,0l20.7,0l84.1,-84.7l84.1,-84.8l0,-47.2l0,-47.2l40.1,-40.5l40.1,-40.6l25.2,0l25.2,0l31.2,-31.4l31.2,-31.4l0,-28.2l0,-28.3l3.6,-3.1c3.2,-2.7 3.7,-3.8 3.7,-7.5c0,-3.2 -0.6,-4.9 -2.5,-6.7c-3,-3.1 -8.4,-3.9 -12,-1.9zm11.2,3.3c2.5,3.2 2.5,7.2 0,10.5c-4,5 -10.8,4.2 -13.7,-1.7c-1.4,-3 -1.4,-3.9 -0.3,-6.6c2.5,-5.9 10.2,-7.1 14,-2.2zm-581.10001,456.30001c3.7,1.3 6.5,6 5.7,9.5c-1.6,6.3 -9.6,8.5 -14.1,3.9c-4.8,-4.7 -2.4,-11.5 5.1,-14.5c0.1,0 1.5,0.5 3.3,1.1z"/>
   <path fill="#007fff" id="svg_177" d="m876.10588,441.50798c-2.2,2.2 -3.4,4.4 -3.4,6c0,3.3 2.4,8.2 4.5,8.9c1.3,0.5 1.5,3.1 1.5,16.4l0,15.7l-36.7,36.8l-36.8,36.8l-29,0l-29.1,0l-34.8,35.6l-34.9,35.6l0.7,56.6l0.6,56.6l-41.1,41.2c-27.6,27.6 -42,41.4 -43.8,41.7c-7.6,1.6 -10.6,11.2 -5.1,16.7c3.8,3.8 9.5,3.8 14.1,0.1c2,-1.6 2.4,-2.9 2.4,-7.4l0,-5.4l40.7,-40.9l40.8,-40.9l0,-56.5l0,-56.5l32.6,-33.3l32.6,-33.2l28.5,0l28.6,0l39.8,-40.3l39.8,-40.2l0,-17.3c0.1,-15.8 0.3,-17.6 2.1,-19.9c2.2,-2.8 2.6,-8.2 1,-11.4c-1.3,-2.4 -6.1,-4.9 -9.6,-4.9c-1.6,0 -3.8,1.2 -6,3.4zm11.8,0c4.3,3.2 4.2,9.1 -0.1,13c-7.4,6.7 -17.7,-4.9 -10.6,-11.9c2.7,-2.8 7.9,-3.3 10.7,-1.1zm-286.4,391.90001c3.1,2.9 3,8.6 -0.3,11.7c-7.2,6.7 -17.6,-2.7 -11.9,-10.8c3.1,-4.5 7.8,-4.9 12.2,-0.9z"/>
   <path fill="#007fff" id="svg_194" d="m455.50587,726.20799c-2.8,2.8 -3,3.4 -2.5,8.3l0.5,5.3l-5.4,5.4c-5.4,5.3 -5.4,5.4 -5.4,11.4c0,6 -0.1,6.1 -5.3,11.3l-5.3,5.2l-59,0l-59,0l-5.9,-6c-5.5,-5.5 -5.8,-6.1 -4.7,-8.5c3.3,-7.2 -1.1,-14.5 -8.7,-14.5c-6.1,0 -9.6,3.5 -9.6,9.5c0,6.2 3.5,9.5 10,9.5c4,0 4.8,0.4 10.6,6.5l6.2,6.5l60.6,0l60.7,0l6.2,-6.3c5.8,-5.8 6.2,-6.6 6.2,-10.8c0,-4.2 0.4,-4.9 6.3,-10.7c5.5,-5.5 6.6,-6.2 9.2,-5.7c5.6,1.1 11.5,-4.5 11.5,-10.7c0,-1.1 -1.5,-3.5 -3.4,-5.4c-4.6,-4.6 -9.4,-4.7 -13.8,-0.3zm12.3,0.8c5.5,5.5 2.5,14.1 -5,14.1c-6.5,0 -10.5,-6.4 -7.6,-12c2.9,-5.5 8.2,-6.4 12.6,-2.1zm-167.7,20.3c3.8,3.5 3.9,8.6 0.1,12.3c-5.1,5.2 -13.5,1.5 -13.5,-6c0,-7.3 8,-11.1 13.4,-6.3z"/>
   <path fill="#007fff" id="svg_195" d="m455.50587,757.20799c-2.8,2.7 -3,3.4 -2.5,7.8l0.6,4.8l-8.2,8.1l-8.2,8.2l-64.7,0c-35.5,0 -65.3,-0.3 -66.2,-0.6c-0.9,-0.3 -1.6,-1.3 -1.6,-2.1c0,-5.3 -7,-10.3 -12.2,-8.8c-3.6,1.1 -6.7,4.5 -7.4,8c-0.7,3.7 1.6,8.9 4.5,10.5c3.2,1.6 8.6,1.2 11.4,-1c2.5,-2 4,-2 70.4,-2l67.8,0l8.9,-8.9c4.9,-5 9.3,-8.8 9.8,-8.5c0.4,0.3 2.6,0.6 4.9,0.6c7.4,0.1 11.9,-7.4 8.5,-14c-3.2,-6.2 -10.8,-7.2 -15.8,-2.1zm10.7,-1.5c2.1,0.8 4.5,5.6 4.5,8.9c0,3.5 -4.2,7.5 -7.7,7.5c-6.3,0 -10.3,-5.7 -7.9,-11.4c2,-4.9 6.3,-6.8 11.1,-5zm-166.7,22c5.1,3.5 4.6,11.1 -0.9,13.9c-3.9,2.1 -5.3,1.9 -8.8,-1.1c-8,-6.7 1.2,-18.8 9.7,-12.8z"/>
   <path fill="#007fff" id="svg_196" d="m405.60587,737.00799c-6.8,6.8 -0.8,18.4 8.5,16.7c5,-1 8.1,-4.9 8.1,-10.3c0,-3.7 -0.5,-4.9 -2.8,-6.9c-4.1,-3.5 -9.9,-3.3 -13.8,0.5zm12.9,1.7c6.4,7.2 -2.8,17.3 -10.6,11.8c-3.2,-2.2 -4.3,-5.7 -3.1,-9.4c2.2,-6.1 9.2,-7.3 13.7,-2.4z"/>
   <path fill="#007fff" id="svg_197" d="m314.70587,858.60799c-5.8,5.8 -8.1,7.5 -10.3,7.5c-5.8,0 -10.7,4.6 -10.7,10.1c0,5.1 4.9,9.9 10.1,9.9c6.9,0 12,-8.1 8.8,-14.1c-0.9,-1.7 -0.1,-2.9 5.2,-8.4l6.2,-6.5l14.6,0l14.6,0l26,26l26,26l75.5,0l75.6,0l17.3,-17.5c15.2,-15.3 17.6,-17.3 19.3,-16.4c5,2.7 12.8,-3.2 12.8,-9.8c0,-8 -10.4,-12.3 -16.7,-6.9c-2.2,1.9 -2.8,3.2 -2.8,7c-0.1,4.5 -0.3,4.8 -16.4,21.6l-16.3,17l-72.7,0l-72.6,0l-26.5,-26.5l-26.5,-26.5l-16.5,0l-16.6,0l-7.4,7.5zm286.5,1c5.2,5.1 1.6,14.5 -5.5,14.5c-4.4,0 -8,-3.9 -8,-8.5c0,-4.6 3.6,-8.5 8,-8.5c1.9,0 4,0.9 5.5,2.5zm-291.7,10.8c5.2,4.7 1.4,13.7 -5.9,13.7c-9.5,0 -10.7,-14.3 -1.4,-16.2c2.7,-0.6 4.5,0.1 7.3,2.5z"/>
   <path fill="#007fff" id="svg_69" d="m937.74132,-68.13436c-2.3,2.3 -2.9,3.8 -2.9,7.1c0,11.4 15.9,13.9 19.1,3c3,-10 -8.8,-17.5 -16.2,-10.1zm12.6,1.6c5.1,5 1.7,13.5 -5.3,13.5c-4.3,-0.1 -6.7,-1.6 -8.1,-5.3c-3,-7.9 7.4,-14.3 13.4,-8.2z"/>
   <path fill="#007fff" id="svg_70" d="m664.14132,-68.63436c-3.9,1.8 -5.3,4.3 -5.3,9.4c0,5 3.8,9.2 8.4,9.2c2.7,0 5.1,2 17.1,14l14,14l108.1,0c106.8,0 108.1,0 109.9,-2c1.7,-1.9 3.1,-2 33.2,-2l31.3,0l9.5,9.7l9.5,9.8l0,154.6l0,154.6l2.5,2.3l2.5,2.3l0,90.1l-0.1,90.1l-64.9,65.2l-64.8,65.3l-29.9,0l-29.8,0l-18.8,18.8l-18.7,18.7l0,33l0,32.9l18.3,18.6c10.1,10.2 49.2,49.7 86.9,87.7l68.5,69.3l155.1,0l155.1,0l42.2,43.7c23.3,24.1 46.6,48.2 51.9,53.6l9.5,9.8l8.1,-0.3l8.1,-0.3l-57.6,-58.3l-57.6,-58.3l-152,0.1l-152,0.1l-85.7,-86.3l-85.7,-86.3l-0.1,-28.1l0,-28.1l13.6,-14.2l13.6,-14.1l30.3,0l30.4,0l57.4,-57.8c31.5,-31.7 62.4,-62.9 68.5,-69.2l11.2,-11.5l0,-94.6c0,-93.3 0,-94.6 -2,-96.4c-2,-1.8 -2,-3.1 -2,-156.4l0,-154.6l-13.7,-13.7l-13.8,-13.7l-34.5,-0.1l-34.5,-0.1l-3,3.1l-2.9,3l-102.1,0l-102,0l-13.3,-13.3c-9.9,-9.9 -13.5,-14.2 -14.3,-17c-1.6,-5.9 -7.8,-8.8 -13.6,-6.3zm8,1.7c5.3,2.4 6,8.7 1.7,13.1c-2.6,2.5 -3.6,2.9 -6.3,2.4c-3.8,-0.7 -7.7,-4.8 -7.7,-8.1c0,-3.3 4.6,-8.5 7.5,-8.5c1.3,0 3.5,0.5 4.8,1.1z"/>
   <path fill="#007fff" id="svg_71" d="m703.94132,-66.63436c-8.8,4.9 -5,18.6 5.2,18.6c3.7,0 8.4,-3.6 9.2,-6.9c2.1,-9.5 -6.2,-16.2 -14.4,-11.7zm10.6,2.8c5.1,4.8 1.5,13.8 -5.6,13.8c-7.1,0 -10.6,-7.6 -6,-13.4c2.7,-3.4 8.2,-3.6 11.6,-0.4z"/>
   <path fill="#007fff" id="svg_72" d="m743.74132,-65.13436c-3.1,3.1 -3.9,8.3 -1.9,12.2c1.3,2.2 6.1,4.9 9,4.9c5.1,0 10,-4.9 10,-10c0,-8.7 -10.9,-13.2 -17.1,-7.1zm13,1.7c4.5,5.7 1.2,13.4 -5.8,13.4c-7.2,0 -10.9,-8.4 -5.9,-13.7c3.1,-3.3 9,-3.2 11.7,0.3z"/>
   <path fill="#007fff" id="svg_73" d="m785.94132,-66.73436c-9.9,5.7 -4,20.4 7.3,18.3c7.1,-1.3 10.1,-10.5 5.3,-16.1c-2.7,-3.2 -9,-4.2 -12.6,-2.2zm10.9,3.2c5,5.3 1.3,13.5 -6.1,13.5c-7.1,0 -10.5,-8.5 -5.4,-13.5c3.3,-3.4 8.3,-3.4 11.5,0z"/>
   <path fill="#007fff" id="svg_79" d="m915.04132,-9.73436c-8.9,9 -9.2,9.4 -9.2,13.8c0,4.2 -0.3,4.8 -3,5.9c-6.7,2.8 -8.2,10.9 -3.1,16.1c4,4 8.9,4 13.3,0c2.7,-2.4 3.3,-3.6 3.3,-6.9c0,-4.2 -3.4,-9.2 -6.2,-9.2c-0.9,0 -1.3,-1.5 -1.3,-4.8c0,-4.6 0.2,-5 8.3,-13l8.2,-8.2l23.5,0l23.5,0l9.3,9.3l9.2,9.2l0,154.6c0,136.3 0.2,154.8 1.5,155.9c1.3,1.1 1.5,11.7 1.5,84.9l0,83.6l-13.2,13.5c-7.2,7.4 -35.7,36.1 -63.2,63.7l-50.1,50.3l-32.6,0l-32.6,0l-18.7,19l-18.6,19l0,61.1l0,61.1l29.6,29.8c26.5,26.7 29.5,30 28.5,31.8c-3.3,6.1 1.8,14.2 8.9,14.2c5.3,0 10,-4.9 10,-10.4c0,-1.4 -1.3,-4 -2.9,-5.8c-2.4,-2.7 -3.6,-3.3 -7.5,-3.3l-4.7,-0.1l-29,-29l-28.9,-28.9l0,-59.5l0,-59.5l18.3,-18.3l18.2,-18.2l32.7,0l32.6,0l63.6,-64.1l63.6,-64.1l0,-85.8c0,-75 -0.2,-85.9 -1.5,-87c-1.3,-1.1 -1.5,-19.6 -1.5,-155.3l0,-154l-10.2,-10.3l-10.2,-10.4l-25.1,0l-25,0l-9.3,9.3zm-2.7,23.2c6.2,6.1 -0.7,16.6 -8.9,13.5c-2.5,-0.9 -5.6,-5.6 -5.6,-8.4c0,-0.8 1.2,-2.8 2.6,-4.5c3.3,-4 8.3,-4.3 11.9,-0.6zm-74.6,816.10001c3.1,4 2.8,8.7 -1,11.8c-3.4,2.9 -5,3.2 -8.2,1.4c-3.3,-1.7 -4.6,-3.9 -4.7,-7.7c0,-7.5 9.4,-11.2 13.9,-5.5z"/>
   <path fill="#007fff" id="svg_82" d="m925.74132,-1.13435c-4,4.1 -4.1,9.9 -0.2,13.6c1.5,1.4 3.5,2.6 4.3,2.6c6,0.6 10.6,-1.6 11.6,-5.6c0.6,-2.5 0.7,-2.5 12.2,-2.5c11.2,0 11.7,0.1 14.4,2.7l2.8,2.7l0,159.1l0,159.2l2.5,2.3l2.5,2.3l0,67.7l0,67.6l-58.1,58.7l-58.1,58.7l-32.7,0l-32.8,0l-24.1,24.9l-24.2,24.9l0,83.9l0.1,83.8l91.2,91.8l91.2,91.8l189.1,-0.1l189.1,0l7.2,7.5l7.3,7.5l8.1,0l8.2,0l-14,-14l-14,-14l-189.5,0l-189.5,0l-30.5,-30.7c-16.8,-17 -55.6,-56.1 -86.3,-86.9l-55.7,-56.1l0,-79.9l0,-79.9l20.3,-20.3l20.2,-20.2l33,0l33,0.1l61.7,-62.3l61.7,-62.3l0.1,-73.4l0,-73.3l-3,-3.5l-3,-3.4l0,-158.2l0,-158.1l-5.7,-5.8l-5.7,-5.8l-20.9,0l-20.9,0l-2.9,2.9zm12.2,1c3.1,3.1 3.6,5.9 1.7,9.4c-4.2,8 -15.2,5.1 -15.2,-4c0,-2.6 0.7,-4.2 2.8,-5.9c3.7,-3.2 7.1,-3 10.7,0.5z"/>
  </g>
 </g>
</svg>