<svg width="1000" height="1329" xmlns="http://www.w3.org/2000/svg" preserveAspectRatio="xMidYMid meet">

 <g>
  <title>background</title>
  <rect fill="none" id="canvas_background" height="1331" width="1002" y="-1" x="-1"/>
 </g>
 <g>
  <title>Layer 1</title>
  <g stroke="null" id="svg_198">
   <path stroke="null" fill="#007fff" id="svg_84" d="m514.4,562.19999c-2.7,1.3 -4.4,4.9 -4.4,9.2c0,5.9 8.1,11.2 13,8.6c2.1,-1.1 2.9,-0.5 10.4,6.9l8.1,8.1l15,0l15,0l8.7,8.7l8.8,8.8l0,151.9l0,151.9l-9.5,9.6l-9.5,9.7l0,74.6l0,74.7l-5.3,-0.6c-4.7,-0.5 -5.7,-0.2 -8.3,2c-2.4,2.1 -2.9,3.3 -2.9,7.2c0,6.2 3.5,9.5 10,9.5c3.6,0 4.7,-0.5 7,-3.2c2.3,-2.7 2.6,-3.7 1.9,-7.2c-0.4,-2.3 -0.8,-38.1 -1.1,-79.6l-0.3,-75.5l10,-10l10,-10l0,-152.5l0,-152.5l-9.6,-9.8l-9.5,-9.7l-14.7,0l-14.7,0l-7.6,-7.6l-7.7,-7.6l1.5,-3.6c1.7,-4.2 1.1,-7.5 -2.2,-10.8c-2.6,-2.6 -8.1,-3.2 -12.1,-1.2zm9.1,0.4c2,0.8 4.5,5.6 4.5,8.7c0,3.3 -4.6,7.7 -8.1,7.7c-1.5,0 -4,-1.1 -5.5,-2.4c-7.2,-6.1 0.2,-17.4 9.1,-14zm45,524.90001c3.8,3.7 3.7,8.8 -0.1,12.2c-3.3,3 -7.8,3 -10.9,-0.2c-5.2,-5.1 -1.6,-14.5 5.5,-14.5c1.9,0 4,0.9 5.5,2.5z"/>
   <path stroke="null" fill="#007fff" id="svg_85" d="m553.9,563.89999c-4,4 -4,8.9 0,13.3c2.4,2.7 3.6,3.3 7.1,3.3c3.7,0 4.7,-0.6 7.5,-3.8c2.5,-2.9 3.9,-3.7 6.6,-3.7c3,0 4.7,1.2 13.7,10.3l10.2,10.2l0,165.5l0,165.5l-10,10l-10,10l0,61l0,61l7.9,7.9c6.5,6.5 7.8,8.3 7,9.7c-1.6,3.2 -1,7.6 1.6,10.7c3.3,3.9 7.4,4.8 11.8,2.7c10.5,-5 5,-20.3 -6.6,-18.1c-3.1,0.6 -3.8,0.2 -11.5,-7.8l-8.2,-8.4l0,-57.8l0,-57.9l10,-10l10,-10l0,-168.5l0,-168.5l-9.8,-9.8l-9.7,-9.7l-5.2,0c-4.9,0 -5.2,-0.1 -5.8,-3c-1.6,-7.1 -11.2,-9.5 -16.6,-4.1zm12.6,0.6c5.2,5.1 1.6,14.5 -5.5,14.5c-4.4,0 -8,-3.9 -8,-8.5c0,-4.6 3.6,-8.5 8,-8.5c1.9,0 4,0.9 5.5,2.5zm39.8,516.70001c5,2.6 6.2,8.6 2.6,13.2c-4.4,5.6 -13.9,2.1 -13.9,-5.1c0,-7.3 5.5,-11.2 11.3,-8.1z"/>
   <path stroke="null" fill="#007fff" id="svg_86" d="m636.9,563.89999c-3,3.1 -3.8,7.5 -2,11c0.8,1.4 -0.3,3.1 -6,8.7l-6.9,6.8l0,179.1l0,179l-10.5,10.5l-10.5,10.5l0,11l0,10.9l6.1,6.2c5.6,5.6 6,6.4 4.9,8.4c-2.5,4.7 1.1,11.7 6.8,13.5c3.5,1 9,-1.3 10.7,-4.5c3.7,-7.2 -0.5,-15 -8.2,-15c-2.1,0 -4.5,0.5 -5.3,1c-1.1,0.7 -3,-0.5 -7.7,-5.3l-6.3,-6.1l0,-8.6l0,-8.5l11,-11.4l11,-11.4l0,-178.1l0,-178.1l7.1,-7.1c6.9,-6.9 7.3,-7.1 10.4,-6.3c4.1,1.2 7.5,-0.1 10.4,-3.7c5,-6.4 0.4,-15.4 -7.9,-15.4c-3.3,0 -4.8,0.6 -7.1,2.9zm12.6,0.6c5.2,5.1 1.6,14.5 -5.5,14.5c-4.4,0 -8,-3.9 -8,-8.5c0,-4.6 3.6,-8.5 8,-8.5c1.9,0 4,0.9 5.5,2.5zm-24.4,437.50001c1,0.6 2.6,2.4 3.4,4c4.2,8.2 -6.5,16 -13,9.5c-6.7,-6.6 1.4,-17.9 9.6,-13.5z"/>
   <path stroke="null" fill="#007fff" id="svg_87" d="m473.5,565.29999c-3.9,3.9 -4.3,6.3 -1.9,11.2c1.9,4 6.1,6 10.9,5.1c3.3,-0.6 3.8,-0.3 9.9,6.1l6.5,6.8l0.1,15l0,15l13,13l13,13l0,88.1l0,88.1l2.5,2.3l2.5,2.3l0,94.2l0,94.1l-72.2,73c-39.7,40.1 -88.5,89.3 -108.5,109.4l-36.3,36.5l0,12.2l0,12.2l-2.9,1.6c-5.6,2.9 -7.5,8.3 -5,13.9c1.5,3.3 7.1,5.9 10.9,5.1c3.6,-0.8 8,-5.8 8,-9.1c0,-3.6 -2.4,-7.8 -5.4,-9.4c-2.6,-1.3 -2.6,-1.5 -2.6,-12.9l0,-11.6l52.3,-52.5c28.7,-28.9 77.8,-78.2 109,-109.6l56.7,-57.1l0,-96.5l0,-96.5l-2.5,-2.3l-2.5,-2.3l0,-87.6l0,-87.6l-13.5,-13.5l-13.5,-13.5l0,-15l0,-15.1l-6.4,-6.3l-6.4,-6.4l0.5,-5.1c0.7,-6.8 -2.1,-10.4 -8.4,-11.3c-3.9,-0.5 -4.6,-0.2 -7.8,3zm10.4,-0.8c3.1,1.5 5.4,6.5 4.4,9.3c-2.2,6.3 -9.4,8.2 -13.8,3.7c-3.5,-3.4 -3.3,-7.8 0.4,-11.6c3.3,-3.3 5,-3.5 9,-1.4zm-166.6,701.70001c5,2.6 6.2,8.6 2.6,13.2c-4.5,5.7 -13.9,2.1 -13.9,-5.4c0,-6.7 5.8,-10.8 11.3,-7.8z"/>
   <path stroke="null" fill="#007fff" id="svg_95" d="m633.9,605.89999c-3.1,3.1 -3.9,8.3 -1.9,12.2c1.7,3.1 6.8,5.2 10.8,4.4c3.3,-0.6 3.9,-0.3 9.8,5.6l6.4,6.3l0,190.2l0,190.1l-4.5,4.4l-4.5,4.4l0,32l0,32l-19.8,19.8l-19.7,19.7l-6.7,0c-6.5,0 -6.6,-0.1 -8.7,-3.5c-3.6,-6.1 -10.5,-7.3 -15.2,-2.6c-2.3,2.4 -2.9,3.8 -2.9,7.3c0.1,6.4 3.6,9.8 10.1,9.8c2.4,0 4.1,-0.9 7,-4l3.8,-4l8,0l7.9,0l19.6,-20.1l19.6,-20.2l0,-31.6l0,-31.7l4.5,-4.4l4.5,-4.4l0,-192.5l0,-192.5l-6.5,-6.6c-6.4,-6.4 -6.5,-6.7 -5.4,-9.8c3.5,-10.2 -8.6,-17.9 -16.2,-10.3zm12.9,1.7c4.7,5.2 1.2,13.4 -5.7,13.4c-9.4,0 -11.4,-12.5 -2.6,-16c2.8,-1.2 5.6,-0.3 8.3,2.6zm-54.8,514.40001c4.4,4.4 3.3,11.1 -2.2,13.4c-3.9,1.7 -8.2,0.4 -10.5,-3c-2,-3.1 -1,-8.8 2,-10.9c3,-2.1 8.3,-1.9 10.7,0.5z"/>
   <path stroke="null" fill="#007fff" id="svg_96" d="m475.4,606.09999c-2.5,1.3 -5.4,6 -5.4,8.9c0,5.3 4.9,10 10.3,10c1.6,0 6.6,4.4 16.5,14.3l14.2,14.4l0,86.8l0,86.8l4.5,4.8l4.5,4.8l0,83.3l0,83.3l-20.3,20.5c-170.1,172 -200.1,201.9 -201.9,201.7c-1,-0.2 -3.2,-1.8 -4.8,-3.5c-2.4,-2.7 -3.6,-3.2 -7.3,-3.2c-5.2,0 -8.3,2.1 -9.6,6.5c-1.4,4.9 0.7,9.7 5.2,11.9c3.4,1.6 4.2,1.7 7.5,0.4c2.6,-0.9 4.2,-2.5 5.5,-5.1c1.6,-3.1 2.4,-3.7 5.1,-3.7c2.5,0 4.1,-0.9 6.6,-3.7c1.9,-2.1 51.5,-52.2 110.2,-111.5l106.8,-107.6l0,-86.4l0,-86.4l-4.5,-4.4l-4.5,-4.4l0,-86.6l0,-86.5l-13.9,-13.9l-14,-13.9l2,-2.5c2.7,-3.4 2.5,-9.4 -0.4,-12.7c-2.5,-3 -8.8,-4.2 -12.3,-2.4zm10.3,3.1c3,3.4 3.4,5.5 1.9,9.2c-2.5,6 -10.3,6.8 -14,1.4c-3.8,-5.4 -0.2,-12.8 6.3,-12.8c2.6,0 4.4,0.7 5.8,2.2zm-195.3,613.00001c1.5,1.3 2.9,3.7 3.2,5.5c0.5,2.7 0.1,3.7 -2.4,6.3c-3.2,3.2 -5.6,3.7 -9.5,1.9c-5.2,-2.4 -6,-8.7 -1.8,-13c3.5,-3.5 7.1,-3.7 10.5,-0.7z"/>
   <path stroke="null" fill="#007fff" id="svg_97" d="m513.9,606.49999c-3.4,1.9 -5.3,6.5 -4.5,11c1,4.9 5.5,7.8 11.2,7.1c3.9,-0.5 4.3,-0.2 9.7,5.2l5.7,5.8l0,28c0,26.8 0.1,28.2 2,29.9c2,1.8 2,3.1 2,167.4l0,165.5l-51.3,51.6c-28.3,28.3 -54.8,55.1 -59,59.5l-7.7,8l0,9l0,9l-13.6,13.6c-13,13 -13.7,13.6 -16.3,12.6c-7.1,-2.6 -14.6,4.3 -12.7,11.8c1.9,7.7 11.4,9.8 17.3,3.9c2.1,-2.1 2.4,-3.2 2.1,-7.3l-0.3,-4.8l13.8,-14.3l13.7,-14.3l0,-8.2l0,-8.1l58.9,-59.5l59,-59.4l0,-168.1l0.1,-168.1l-2.5,-2.3l-2.5,-2.3l0,-27.5l0,-27.5l-6.1,-6.3c-5.1,-5.4 -5.9,-6.6 -5,-8.3c4.5,-8.4 -5.4,-17.3 -14,-12.6zm11,3.1c6.4,8.1 -4,18.4 -11.4,11.4c-3.2,-3 -3.4,-8.4 -0.3,-11.7c3.1,-3.3 9,-3.2 11.7,0.3zm-133.2,581.40001c2.8,1 4.3,3 5.6,7.1c0.8,2.7 -2.3,7.7 -5.4,8.8c-10,3.5 -15.4,-11.9 -5.5,-15.9c1.1,-0.5 2.1,-0.9 2.2,-0.9c0.1,-0.1 1.5,0.4 3.1,0.9z"/>
   <path stroke="null" fill="#007fff" id="svg_98" d="m555.9,606.49999c-6,3.2 -6.3,13 -0.6,16.5c3.5,2.1 7.3,2.5 9.7,1c1.1,-0.7 2.9,0.4 7.3,4.8l5.7,5.6l0,137.7l0,137.6l-9.5,9.9l-9.4,9.9l-0.1,64.8l0,64.8l-8.5,8.7l-8.5,8.7l0,18l0,18.1l-7.5,7.4l-7.5,7.5l0,38.1c0,45 1,41.4 -12.2,41.4c-11.1,0 -11.8,-0.7 -11.8,-11.7c0,-11.7 0.9,-11.3 -24.3,-11.3l-20.7,0l-0.6,-2.4c-1.8,-7.2 -12.3,-9.8 -17,-4.3c-2.6,3 -3.2,8.3 -1.4,11.8c0.6,1 2.5,2.6 4.2,3.5c4.4,2.3 9.1,1.1 12.5,-3.1l2.8,-3.5l19,0c23.9,0 23.5,-0.2 23.5,10.9c0,6.8 0.3,8 2.3,9.9c2.1,1.9 3.5,2.2 11.8,2.2c9.1,0 9.6,-0.1 12.2,-2.8l2.7,-2.8l0,-37l0,-37l7.5,-7.4l7.5,-7.4l0,-18.6l0,-18.5l8,-8l8,-8l0,-65l0.1,-65l9.9,-10.5l10,-10.5l0,-139l0,-139.1l-5.5,-5.4c-5.3,-5.2 -5.6,-5.7 -4.9,-9.3c1.5,-9.3 -6.7,-15.5 -14.7,-11.2zm11,3.1c2.9,3.7 2.7,8.5 -0.4,11.4c-5.2,4.9 -13.5,1.3 -13.5,-5.9c0,-7.6 9.4,-11.3 13.9,-5.5zm-113.1,569.00001c2.7,3.1 2.8,7.3 0.2,10.7c-4.1,5.2 -11.8,3.8 -14,-2.7c-2.9,-8.9 7.5,-15 13.8,-8z"/>
   <path stroke="null" fill="#007fff" id="svg_99" d="m678.10001,606.39999c-9.8,5.4 -3.9,20.4 7.1,18.2c2.9,-0.6 3.8,-0.1 9.5,5.6l6.3,6.2l0,35.7c0,42.2 -1.1,38.9 12.7,38.9c11.6,0 12.3,0.6 12.3,11.6c0,4.9 -0.5,8.5 -1.2,9.2c-0.7,0.7 -4.3,1.2 -9.3,1.2c-7.2,0 -8.4,0.3 -10.3,2.3c-1.9,2 -2.2,3.5 -2.2,11.2c0,8.3 0.2,9.1 2.7,11.7c2.4,2.6 3.3,2.8 9.8,2.8c5.7,0 7.5,0.4 8.8,1.8c1.6,1.7 1.7,11.1 1.7,115.3l0,113.4l-18.3,18.3l-18.3,18.2l-3.2,-1.1c-10,-3.5 -17.7,8.7 -10.3,16.2c7.6,7.5 19.7,-0.1 16.2,-10.2c-1.1,-3.1 -1,-3.2 16.9,-21.8l18,-18.6l0,-114.6l0,-114.6l-2.3,-2.1c-1.9,-1.8 -3.5,-2.2 -8.3,-2.2c-9.3,0 -10.4,-1.2 -10.4,-11.9c0,-11.3 0.7,-12.1 11.2,-12.1c10,0 10.8,-0.9 10.8,-12c0,-7.7 -0.2,-8.6 -2.7,-11.2c-2.5,-2.6 -3.2,-2.8 -11.3,-2.8c-5.4,0 -9.1,-0.5 -9.8,-1.2c-0.9,-0.9 -1.2,-10.5 -1.2,-37l0,-35.7l-5.9,-6.4l-5.9,-6.3l1.1,-4.1c2.4,-9.2 -6.1,-16.4 -14.2,-11.9zm10.9,3.1c3.1,3.3 2.9,8 -0.4,11.3c-7.2,7.3 -17.9,-3 -11.5,-11.2c2.8,-3.6 8.6,-3.6 11.9,-0.1zm-0.5,421.00001c3.5,3.4 3.3,7.8 -0.4,11.6c-4.3,4.3 -9.7,3.4 -12.6,-2c-4.2,-8.3 6.5,-16.2 13,-9.6z"/>
   <path stroke="null" fill="#007fff" id="svg_109" d="m473.7,646.59999c-5.1,2.8 -6.2,9.5 -2.2,14.2c3,3.6 7.7,4.7 11.5,2.8c2.7,-1.3 3,-1.2 8.9,4.8l6.1,6.2l0,14.6c0,11.7 -0.3,14.8 -1.5,15.8c-1.3,1.1 -1.5,9.1 -1.5,61.4l0,60.1l8,8l8,8l0,74.5l0,74.5l-10.2,10.2c-8.6,8.6 -10.8,10.3 -13.3,10.3c-2.7,0 -7.9,4.8 -44.5,41.7c-22.8,23 -65.9,66.4 -95.9,96.6l-54.4,54.7l-13.6,0l-13.7,0l-2.7,-2.8c-2.6,-2.7 -2.7,-3.3 -2.7,-12.7l0,-9.9l5.6,-5.7c5.4,-5.5 5.6,-5.6 10.2,-5.1c3.7,0.3 5.3,0 7.4,-1.7c5.3,-4.2 4.6,-12.4 -1.4,-16.1c-4.3,-2.7 -8.4,-2 -12.2,2.1c-2.5,2.9 -2.8,3.7 -2.3,7.9c0.6,4.7 0.5,4.7 -5.4,10.6l-5.9,5.8l0,10.6l0,10.6l5.3,5.2l5.3,5.2l14.5,0l14.6,0l54.4,-54.8c29.9,-30.1 73.1,-73.5 95.9,-96.5c32.9,-33 42,-41.7 44,-41.7c1.9,0 5.3,-2.7 13.3,-10.8l10.7,-10.7l0,-78l0,-78.1l-7.5,-7.4l-7.5,-7.4l0,-58.8c0,-38 0.4,-58.9 1,-59.3c0.6,-0.4 1,-7.1 1,-16.8l-0.1,-16.2l-6.2,-6.7c-5.9,-6.2 -6.2,-6.9 -5.9,-10.7c0.3,-3.4 0,-4.5 -2.6,-7.1c-3.5,-3.4 -7.9,-3.9 -12.5,-1.4zm10.8,1.9c3.6,3.5 3.5,9.6 -0.1,12.4c-5.6,4.4 -13.4,0.8 -13.4,-6.1c0.1,-7.6 8.4,-11.5 13.5,-6.3zm-202,505.00001c7.6,7.5 -3,19.4 -10.9,12.2c-5.6,-5 -2.1,-14.7 5.4,-14.7c1.9,0 4,0.9 5.5,2.5z"/>
   <path stroke="null" fill="#007fff" id="svg_110" d="m553.9,647.89999c-4.8,4.8 -3,13.7 3.1,15.6c2,0.6 2,2.1 2,126.4l0,125.7l-4.5,4.4l-4.5,4.4l0,62l0,62l-38.9,39.1c-21.3,21.4 -43.2,43.6 -48.6,49.2c-8.8,9.2 -10,10.1 -12.1,9.3c-3.8,-1.5 -9.6,0.9 -11.3,4.7c-4.1,8.9 3.7,17.5 12.6,13.8c4.2,-1.8 6.7,-6.6 5.6,-10.8c-0.4,-1.8 -0.8,-3.5 -0.8,-3.8c0,-0.4 21.7,-22.5 48.3,-49.3l48.2,-48.7l0,-61.8l0,-61.8l5,-4.9l4.9,-4.9l0.1,-127.3c0,-108.8 0.2,-127.2 1.4,-127.2c0.8,0 2.6,-1.4 4.1,-3.2c2.3,-2.7 2.6,-3.9 2.2,-7.2c-1.2,-8.4 -10.8,-11.7 -16.8,-5.7zm11,-0.4c4.7,2.4 5.6,8.3 2,12.9c-2.6,3.3 -7.5,3.5 -11.3,0.5c-3.6,-2.8 -3.7,-8.9 -0.1,-12.4c2.8,-2.9 5.4,-3.1 9.4,-1zm-111.8,502.40001c3.1,3.1 3.6,5.9 1.7,9.4c-4.2,8 -15.2,5.1 -15.2,-4c0,-2.6 0.7,-4.2 2.8,-5.9c3.7,-3.2 7.1,-3 10.7,0.5z"/>
   <path stroke="null" fill="#007fff" id="svg_111" d="m675.90001,647.89999c-5.4,5.4 -3.3,13.7 4.2,16.3l2.9,1l0,171.2l0,171.1l-11,11l-11,11l0,32.5l0,32.5l-25.3,25.3l-25.2,25.2l-17.2,0l-17.1,0l-3,-3c-6.1,-6.1 -15.7,-2.9 -16.9,5.6c-0.4,3.6 -0.1,4.6 2.4,7.4c2.4,2.7 3.7,3.3 7.2,3.4c3.6,0.1 4.7,-0.4 7.2,-3.2c1.6,-1.8 2.9,-4.3 2.9,-5.7l0,-2.5l18.4,0l18.4,0l25.6,-26.3l25.6,-26.2l0,-32l0,-32l10.5,-10.5l10.5,-10.5l0,-172.5l0.1,-172.5l3.2,-2c1.8,-1.2 3.5,-3.3 4,-5.2c2.8,-9.5 -9.3,-16.4 -16.4,-9.4zm12.2,1c3.7,3.8 3.9,8.2 0.4,11.6c-6.5,6.6 -17.3,-1.2 -13.1,-9.4c3.1,-5.8 8.2,-6.7 12.7,-2.2zm-118.2,492.60001c3.8,1.9 5.3,6.2 3.6,10.2c-2.4,5.7 -8.8,7.1 -13,2.8c-3.7,-3.6 -3.4,-8.6 0.6,-11.9c3.5,-3 4.9,-3.2 8.8,-1.1z"/>
   <path stroke="null" fill="#007fff" id="svg_112" d="m718.80001,647.59999c-1.5,0.8 -3.2,2.3 -3.8,3.4c-1.3,2.4 -1.3,7.6 0,10.1c1.6,2.9 6.8,5.2 10.4,4.5c2.8,-0.6 3.6,-0.1 8.8,5.6l5.8,6.3l-0.1,168l0,168l-21.8,22.3c-21.4,21.8 -21.8,22.3 -24.6,21.2c-4,-1.5 -8,-0.4 -11,3.2c-4,4.7 -2.8,11.6 2.6,14.4c3.8,1.9 6.8,1.8 10.6,-0.6c3.2,-1.9 4,-3.6 4.5,-9.6c0.3,-2.6 4.2,-7.1 22.1,-25.4l21.7,-22.2l0,-171.1l0,-171.1l-6.1,-6.2c-5.4,-5.4 -6,-6.4 -5,-8.2c4.6,-8.5 -5.4,-17.4 -14.1,-12.6zm11,3c5.6,6.3 -0.7,16.1 -8.7,13.3c-4.1,-1.4 -6.5,-6.6 -5,-10.8c2.2,-6.2 9.2,-7.5 13.7,-2.5zm-34.1,409.60001c3,3.4 3.4,5.5 1.8,9.4c-1.3,3.2 -4.6,5.4 -8.1,5.4c-0.9,0 -2.9,-1.3 -4.5,-2.9c-3.5,-3.5 -3.8,-7.7 -0.8,-11.5c2.7,-3.5 8.6,-3.7 11.6,-0.4z"/>
   <path stroke="null" fill="#007fff" id="svg_122" d="m475.5,686.89999c-3.9,1.7 -6,5.1 -6,9.8c0,3.7 0.5,4.9 2.8,6.9c1.5,1.3 3.7,2.4 4.8,2.4c1.9,0 1.9,1.2 1.9,59.3l0,59.2l11,11l11,11l0,70.5l0,70.6l-6.8,6.7c-6.5,6.5 -6.9,6.7 -11.8,6.7l-5,0l-22.5,22.7c-158,159.9 -161.4,163.3 -164.7,163.3c-2.5,0 -3.5,-0.6 -4.4,-2.6c-1.4,-3.1 -5.6,-5.4 -9.8,-5.4c-4.7,0 -9,4.7 -9,9.7c0,9.8 12.2,13.3 18.2,5.2c1.6,-2.1 3,-2.9 5.4,-2.9c2.9,0 11.6,-8.5 95.9,-93.5l92.7,-93.5l4.7,0c4.5,0 4.9,-0.3 12.4,-7.8l7.7,-7.7l0,-71.5l0,-71.5l-11.5,-11.5l-11.5,-11.5l0,-58.2c0,-49.5 0.2,-58.3 1.4,-58.3c2.5,0 6.6,-5.9 6.6,-9.6c0,-6.4 -7.8,-11.9 -13.5,-9.5zm9,3.6c4.2,4.1 3.3,10.5 -1.7,13.1c-3.5,1.8 -6.4,1.3 -9.6,-1.6c-5,-4.6 -1.1,-14 5.8,-14c1.9,0 4,0.9 5.5,2.5zm-202.4,492.40001c3.7,3.8 3.9,8.2 0.4,11.6c-6.4,6.5 -16.6,-0.5 -13.1,-9c2.6,-6.1 8,-7.2 12.7,-2.6z"/>
  </g>
 </g>
</svg>