<svg width="2300" height="800" xmlns="http://www.w3.org/2000/svg" preserveAspectRatio="xMidYMid meet">
 <g>
  <title>background</title>
  <rect x="-1" y="-1" width="2302" height="802" id="canvas_background" fill="none"/>
 </g>

 <g>
  <title>Layer 1</title>
  <g stroke="null" id="svg_503" transform="rotate(-90 1152.0366210937502,305.63748168945307) ">
   <path stroke="null" d="m979.0491,-803.40542l43.53956,43.53956l0,308.87417l0,308.87417l-14.76832,14.76832l-14.7233,14.7233l-14.31807,0l-14.27304,0l0,26.79011l0,26.79011l17.46985,0l17.42483,0l10.94116,10.94116l10.89615,10.89615l0,217.2475l0,217.2475l-6.43864,6.43864l-6.39361,6.39361l-30.84239,0l-30.84239,0l-29.04138,29.04138l-29.04138,29.04138l-18.23529,0l-18.23529,0l-22.82787,22.82787l-22.87289,22.87289l0,58.98326l0,58.98326l35.02974,35.02974l34.98473,34.98473l26.79011,0l26.79011,0l14.183,14.183l14.183,14.183l42.09873,0l42.09873,0l18.59549,18.59549l18.55046,18.55046l0,33.54391l0,33.54391l47.41173,47.41173l47.36671,47.36671l162.9919,0l162.9919,0l70.01448,70.01448l69.96945,69.96945l1.26072,-1.17066l1.26072,-1.21569l0,-15.98401l0,-16.02904l-65.87214,-65.87214l-65.82711,-65.82711l-162.9919,0l-162.9919,0l-39.71239,-39.71239l-39.75742,-39.75742l0,-33.54391l0,-33.54391l-26.2498,-26.2498l-26.20477,-26.20477l-42.09873,0l-42.09873,0l-14.183,-14.183l-14.183,-14.183l-26.79011,0l-26.79011,0l-27.37543,-27.37543l-27.33041,-27.33041l0,-48.17717l0,-48.13214l15.17355,-15.21858l15.21858,-15.21858l18.23529,0l18.23529,0l29.04138,-29.04138l29.04138,-29.04138l30.84239,0l30.84239,0l14.09295,-14.04792l14.04792,-14.04792l0,-228.09862l0,-228.0536l-20.48656,-20.48656l-20.48656,-20.48656l21.16193,-21.16193l21.16193,-21.16193l0,-319.59021l0,-319.63524l-37.91138,-38.22656l-37.86635,-38.22656l-18.73055,0l-18.73055,0l43.58457,43.58457l-0.00005,0.00002z" id="svg_76" fill="#007fff"/>
   <path stroke="null" d="m1042.26475,-819.8847l27.15031,27.15031l0,629.2298l0,629.2298l-14.76832,14.76832l-14.7233,14.7233l-52.67971,0l-52.67971,0l-27.91575,27.51052c-15.57878,15.35366 -28.68118,27.87072 -29.6267,28.36599c-6.34858,3.28685 -8.91503,11.61656 -5.44807,17.96514c2.43136,4.45751 6.43864,6.75381 11.84168,6.75381c7.15904,0 12.60711,-5.58315 12.65214,-12.87726c0,-4.09731 -1.80101,-8.01451 -4.72766,-10.26578l-1.98112,-1.48584l24.26869,-23.90847l24.22366,-23.9535l52.8598,0l52.81477,0l17.0196,-17.0196l16.97457,-16.97457l0,-632.83182l0,-632.78681l-25.30427,-25.3493l-25.3493,-25.3493l-5.8533,0l-5.8533,0l27.10529,27.10529l0,-0.00002z" id="svg_77" fill="#007fff"/>
   <path stroke="null" d="m1034.43033,-844.64866c1.44081,1.30573 13.73274,12.92228 27.33041,25.79954l24.71893,23.4132l0.04503,635.53335l0,635.53335l-16.1191,16.1191l-16.07407,16.07407l-55.1561,0l-55.1561,0l-14.04792,14.04792l-14.09295,14.09295l0,6.16847l0,6.16847l-1.71096,0.45026c-2.34133,0.63035 -5.58315,2.79157 -6.97893,4.63761c-3.96223,5.17792 -3.557,12.47203 0.94553,17.1997c4.99783,5.22295 13.55263,5.22295 18.77558,0.04503c2.56645,-2.61147 3.60203,-5.22295 3.60203,-9.2302c-0.04503,-4.00726 -1.30573,-6.93391 -4.23239,-9.59041l-1.84604,-1.66595l0,-5.53812l0,-5.49309l11.39142,-11.39142l11.34639,-11.34639l55.1561,0l55.1561,0l18.59549,-18.59549l18.55046,-18.55046l0,-639.13538l-0.04503,-639.13538l-25.25925,-23.86346l-25.30427,-23.86346l-6.07843,-0.13508l-6.07843,-0.13508l2.56645,2.38635l0.00007,0z" id="svg_78" fill="#007fff"/>
   <path stroke="null" d="m1096.34024,-832.44678l14.49818,14.49818l0,657.14554l0,657.14554l-15.66884,15.66884l-15.62381,15.62381l-59.65864,0l-59.65864,0l-10.67101,10.67101l-10.71604,10.71604l0,26.65503l0,26.70006l-4.90777,0l-4.9528,0l-2.38635,-2.38635c-4.99783,-4.99783 -12.427,-5.313 -17.64995,-0.72041c-7.11401,6.25853 -5.49309,17.78503 3.10676,21.83731c2.52142,1.21569 7.06899,1.48584 9.72549,0.54031c3.96223,-1.35076 7.29411,-4.86274 8.28468,-8.82497l0.54031,-2.11619l8.19462,-0.13508l8.1496,-0.09005l0,-28.95133l0,-28.9063l8.41974,-8.46477l8.37472,-8.41974l59.79372,0l59.74869,0l17.83006,-18.14523l17.83006,-18.1002l0,-660.52245l0,-660.52245l-12.74219,-12.74219l-12.69716,-12.69716l-5.8533,0l-5.8533,0l14.5432,14.5432l-0.00002,0z" id="svg_79" fill="#007fff"/>
   <path stroke="null" d="m1120.83406,-834.96822l12.0668,12.0668l0,662.59361l0,662.59361l-19.00072,19.22584l-19.04575,19.22584l-65.51194,-0.04503l-65.51194,0l-5.53812,5.53812l-5.49309,5.49309l0,28.18589l0,28.18589l-9.95061,10.17575l-9.95061,10.22076l-12.69716,0l-12.65214,0l-6.25853,-6.25853l-6.2135,-6.25853l0.54031,-1.66595c0.90051,-2.74656 0.3602,-7.83442 -1.03558,-10.26578c-3.60203,-6.12344 -11.03122,-8.37472 -17.33477,-5.22295c-2.74656,1.35076 -4.5926,3.1968 -6.2135,6.25853c-1.30573,2.38635 -1.21569,8.55483 0.18011,11.12127c3.10676,5.89832 9.77052,8.68991 15.89396,6.70878l2.34133,-0.76543l7.29411,7.24908l7.24908,7.24908l15.98401,-0.04503l15.93899,0l12.51705,-12.51705l12.47203,-12.47203l0,-28.14087l0,-28.18589l3.28685,-3.24182l3.24182,-3.24182l65.28682,0l65.28682,0l21.52214,-21.52214l21.47711,-21.47711l0,-666.15063l0,-666.15063l-10.22076,-10.22076l-10.26578,-10.26578l-5.8533,0l-5.89832,0l12.0668,12.02179l-0.00002,0.00002z" id="svg_80" fill="#007fff"/>
   <path stroke="null" d="m1145.95822,-754.64291l0,92.34707l58.98326,58.80315l59.02829,58.84818l-0.04503,463.53637l0,463.53637l-4.05228,4.05228l-4.05228,4.05228l0,157.1386l0,157.1386l25.12416,25.12416l25.07914,25.07914l74.74214,0l74.74214,0l8.23965,8.23965l8.19462,8.19462l0,20.93681l0,20.93681l53.71529,53.71529l53.67026,53.67026l31.87798,0l31.83295,0l0,-2.70153l0,-2.70153l-30.52722,0l-30.48219,0l-52.13939,-52.13939l-52.09437,-52.09437l0,-20.71168l0,-20.71168l-9.99564,-9.99564l-9.99564,-10.04066l-74.56205,0l-74.51702,0l-23.77341,-23.77341l-23.72838,-23.72838l0,-154.39205l0,-154.43708l4.05228,-4.14234l4.05228,-4.09731l0,-465.96775l0,-465.96775l-58.75812,-58.75812l-58.75812,-58.75812l0,-91.26647l0,-91.31149l-2.92665,0l-2.92665,0l0,92.34707z" id="svg_81" fill="#007fff"/>
   <path stroke="null" d="m1230.5159,-795.97623l50.96873,50.96873l0,665.02499l0,665.02499l26.02468,26.02468l25.97965,25.97965l53.35508,0l53.35508,0l14.04792,14.04792l14.09295,14.09295l0,19.36092l0,19.36092l-1.35076,0.90051c-0.76543,0.49528 -2.07116,1.89107 -2.92665,3.15177c-4.50254,6.5737 -2.25127,15.21858 4.9528,19.04575c1.89107,0.99055 2.83659,1.21569 5.8533,1.21569c3.0167,0 3.96223,-0.22512 5.89832,-1.21569c4.54757,-2.38635 7.11401,-6.66376 7.11401,-11.84168c0,-3.69208 -1.12564,-6.39361 -3.64705,-9.00508c-1.53087,-1.57589 -5.49309,-3.82716 -6.75381,-3.82716c-0.45026,0 -0.58532,-4.2774 -0.58532,-19.94624l0,-19.94624l-16.74945,-16.74945l-16.79447,-16.74945l-53.12996,0l-53.12996,0l-23.77341,-23.77341l-23.72838,-23.72838l0,-665.02499l0,-665.02499l-49.21275,-49.21275l-49.16772,-49.16772l-5.8533,0l-5.8533,0l51.01376,51.01376z" id="svg_82" fill="#007fff"/>
   <path stroke="null" d="m1251.4527,-797.5521l49.39286,49.39286l0,660.97269l0,660.97269l21.47711,21.47711l21.52214,21.52214l52.67971,0l52.67971,0l21.74726,21.74726l21.70223,21.70223l0,74.56205l0,74.51702l11.1663,11.12127l11.12127,11.12127l64.07113,0l64.0261,0l0,-4.05228l0,-4.05228l-62.45021,0l-62.49523,0l-8.64488,-8.64488l-8.68991,-8.68991l0,-74.51702l0,-74.51702l-24.22366,-24.22366l-24.17864,-24.17864l-52.67971,0l-52.67971,0l-19.04575,-19.04575l-19.00072,-19.04575l0,-661.1528l0,-661.19783l-47.63685,-47.63685l-47.59184,-47.59184l-5.8533,0l-5.8533,0l49.43788,49.43788l0.00002,0.00005z" id="svg_83" fill="#007fff"/>
   <path stroke="null" d="m1275.54128,-801.82952l45.11543,45.11543l0,589.83258l0,589.83258l22.64777,22.64777l22.60274,22.60274l19.81118,0l19.81118,0l53.67026,53.67026l53.71529,53.71529l0,101.53225l0,101.53225l13.86783,13.86783l13.8228,13.8228l51.2389,0l51.19387,0l0,-4.05228l0,-4.05228l-49.43788,0l-49.39286,0l-11.61656,-11.61656l-11.57153,-11.57153l0,-101.30713l0,-101.30713l-56.14665,-56.19168l-56.19168,-56.14665l-19.58604,0l-19.58604,0l-20.17138,-20.17138l-20.12635,-20.12635l0,-589.83258l0,-589.83258l-43.58457,-43.58457l-43.53956,-43.53956l-5.8533,0l-5.8533,0l45.16046,45.16046l-0.00002,0.00002z" id="svg_84" fill="#007fff"/>
   <path stroke="null" d="m1297.60373,-806.82733l40.16265,40.20768l0,263.03831l0,262.99329l1.39578,1.30573c0.72041,0.67538 7.02396,7.06899 13.95786,14.183l12.60711,12.92228l-2.07116,2.92665c-2.70153,3.82716 -4.9528,8.77995 -6.16847,13.64269c-1.35076,5.44807 -1.35076,14.09295 0.04503,19.27087c1.03558,3.96223 3.73711,9.90558 5.8533,13.01234c5.04284,7.29411 12.83223,13.01234 21.65722,15.80391c5.04284,1.62092 14.13797,2.07116 19.49599,0.94553c15.84893,-3.24182 28.32098,-15.62381 31.65285,-31.33766c0.94553,-4.45751 0.81046,-12.96731 -0.27015,-17.51488c-4.09731,-17.06462 -18.82061,-29.49162 -36.56061,-30.88742c-8.5098,-0.67538 -19.18081,2.34133 -25.97965,7.33914l-1.48584,1.12564l-13.01234,-13.01234l-13.01234,-13.01234l0,-262.94826l0,-262.94826l-38.4967,-38.4967l-38.4967,-38.4967l-5.76324,-0.13508l-5.71823,-0.09005l40.20768,40.16265l-0.00003,0.00002z" id="svg_85" fill="#007fff"/>
   <path stroke="null" d="m1352.17449,-732.04017l0,114.90479l70.46473,70.46473l70.46473,70.46473l0,359.16752l0,359.21255l24.3137,24.40376l24.26869,24.44879l0.04503,91.94184l0,91.94184l-2.34133,2.25127c-9.32026,8.77995 -9.50035,23.053 -0.40523,32.01306c4.72766,4.68263 9.63543,6.75381 16.02904,6.75381c10.22076,0 19.63107,-7.60928 21.83731,-17.60492c0.72041,-3.1968 0.3602,-9.36529 -0.67538,-12.33696c-1.08061,-3.06173 -4.36746,-7.96949 -6.52867,-9.68046l-1.80101,-1.44081l0,-97.29986l-0.04503,-97.34488l-24.26869,-24.44879l-24.3137,-24.44879l0,-359.16752l0,-359.16752l-70.46473,-70.46473l-70.46473,-70.46473l0,-109.50175l0,-109.54676l-13.05737,0l-13.05737,0l0,114.94982l0,-0.00003z" id="svg_86" fill="#007fff"/>
   <path stroke="null" d="m1402.15268,-743.34155l0,103.69347l81.04569,81.04569l81.04569,81.04569l0,219.27363l0,219.27363l-11.25635,11.25635l-11.25635,11.25635l0,119.99266l0,119.99266l42.77413,42.77413l42.77413,42.77413l0,82.53153l0,82.57656l-1.62092,1.84604c-9.59041,11.21133 -6.12344,28.81624 7.06899,35.88523c2.6565,1.39578 6.97893,2.70153 9.05011,2.70153l1.26072,0l0,-113.3289l0,-113.37393l-37.59621,-37.59621l-37.59621,-37.59621l0,-109.14155l0,-109.09652l11.25635,-11.12127l11.25635,-11.07624l0,-230.30487l0,-230.30487l-81.04569,-81.04569l-81.04569,-81.04569l0,-98.2454l0,-98.29043l-13.05737,0l-13.05737,0l0,103.64844l0,0.00005z" id="svg_87" fill="#007fff"/>
   <path stroke="null" d="m1444.02629,-748.06921l0,98.9658l78.79442,78.79442l78.79442,78.79442l0,174.02312l0,174.02312l20.71168,20.71168l20.71168,20.71168l0,-18.46041l0,-18.46041l-7.65431,-7.65431l-7.65431,-7.65431l0,-174.02312l0,-174.02312l-78.79442,-78.79442l-78.79442,-78.79442l0,-93.51774l0,-93.56276l-13.05737,0l-13.05737,0l0,98.92078z" id="svg_88" fill="#007fff"/>
   <path stroke="null" d="m1484.99939,-759.73079l0,87.25921l79.01956,78.70438l79.01956,78.70438l0,-165.96358l0,-165.96358l-79.01956,0l-79.01956,0l0,87.25921l0,-0.00003z" id="svg_89" fill="#007fff"/>
   <path stroke="null" d="m1208.31839,-768.37566c-19.13578,3.42193 -35.57006,17.42483 -42.23381,35.97529c-2.20624,6.2135 -2.79157,10.17575 -2.74656,18.68554c0.04503,6.93391 0.18011,8.37472 1.17066,12.20188c4.5926,17.10965 14.7233,29.49162 30.25705,36.92081c20.48656,9.77052 45.43061,5.49309 61.68479,-10.58096c8.05954,-7.96949 13.64269,-18.55046 15.62381,-29.53665c0.90051,-4.90777 0.76543,-15.53376 -0.22512,-20.17138c-4.81772,-22.60274 -22.24254,-39.62234 -44.57514,-43.53956c-4.90777,-0.85549 -14.04792,-0.81046 -18.95569,0.04503z" id="svg_94" fill="#007fff"/>
   <path stroke="null" d="m1157.16954,-608.13031c-2.6565,0.85549 -5.98838,3.82716 -7.38416,6.52867c-2.92665,5.80827 -1.26072,12.7872 3.9172,16.52431c5.22295,3.69208 12.38199,3.24182 16.8395,-1.03558c2.92665,-2.88162 4.00726,-5.44807 3.96223,-9.63543c0,-3.87219 -1.26072,-6.84387 -3.87219,-9.27523c-3.46696,-3.28685 -8.96006,-4.54757 -13.4626,-3.10676l0.00002,0.00002z" id="svg_110" fill="#007fff"/>
   <path stroke="null" d="m963.15514,-505.24729l0,24.3137l24.08858,0l24.08858,0l0,-24.3137l0,-24.3137l-24.08858,0l-24.08858,0l0,24.3137z" id="svg_120" fill="#007fff"/>
   <path stroke="null" d="m1194.13538,-517.53922c-10.71604,1.80101 -20.7567,8.28468 -26.9702,17.3798c-7.56427,11.07624 -8.91503,26.38488 -3.42193,38.76685c4.90777,11.07624 14.99346,19.63107 27.01523,22.82787c5.13289,1.39578 14.67827,1.39578 19.81118,0c11.57153,-3.10676 20.84676,-10.76107 26.15974,-21.47711c8.01451,-16.20914 4.63761,-34.53448 -8.73492,-47.05153c-5.49309,-5.13289 -12.15685,-8.64488 -19.09076,-10.04066c-3.1968,-0.67538 -11.84168,-0.90051 -14.76832,-0.40523l-0.00002,0.00002z" id="svg_122" fill="#007fff"/>
   <path stroke="null" d="m1388.41994,-517.13399c-15.48873,3.46696 -27.91575,15.80391 -31.02249,30.88742c-1.03558,4.99783 -0.94553,13.14742 0.18011,17.87508c5.89832,24.53884 33.22873,37.86635 56.01159,27.33041l3.33188,-1.53087l14.90341,14.94843l14.90341,14.90341l0,337.24016l0,337.24016l21.38705,21.38705l21.38705,21.38705l0,106.25991l0.04503,106.25991l28.27595,28.45604l28.27595,28.50107l48.49234,0l48.44731,0l0,-15.75888l0,-15.75888l-42.00869,0l-41.96367,0l-19.04575,-19.04575l-19.00072,-19.00072l0,-106.25991l0,-106.25991l-21.61219,-21.61219l-21.61219,-21.61219l0,-337.24016l0,-337.24016l-20.93681,-20.93681l-20.98182,-20.98182l0.54031,-2.25127c0.81046,-3.33188 0.67538,-12.87726 -0.22512,-16.56934c-1.89107,-7.92447 -5.22295,-13.77777 -11.07624,-19.63107c-4.99783,-4.99783 -9.54538,-7.78939 -16.20914,-9.99564c-3.82716,-1.26072 -4.9528,-1.39578 -10.8061,-1.53087c-4.72766,-0.13508 -7.38416,0.04503 -9.68046,0.54031z" id="svg_123" fill="#007fff"/>
   <path stroke="null" d="m1540.15549,-449.46084c-3.73711,0.99055 -6.93391,3.60203 -8.82497,7.24908c-1.48584,2.79157 -1.48584,8.3297 -0.04503,11.12127c2.56645,4.9528 6.75381,7.56427 12.02179,7.56427c3.87219,-0.04503 6.52867,-1.12564 9.2302,-3.82716c4.90777,-4.90777 5.13289,-12.83223 0.49528,-18.14523c-2.79157,-3.15177 -8.87,-5.04284 -12.87726,-3.96223l-0.00002,0z" id="svg_126" fill="#007fff"/>
   <path stroke="null" d="m981.88571,-435.86316c-5.80827,1.35076 -12.427,6.5737 -15.30864,12.0668c-5.08786,9.72549 -3.69208,20.57659 3.78214,28.5461c4.50254,4.81772 10.71604,7.51924 17.33477,7.51924c6.88888,0 12.56208,-2.2963 17.3798,-7.15904c7.65431,-7.65431 9.36529,-18.68554 4.41249,-28.5461c-2.83659,-5.53812 -9.2302,-10.62599 -15.48873,-12.29193c-2.52142,-0.67538 -9.45532,-0.76543 -12.11182,-0.13508l0,0.00002z" id="svg_128" fill="#007fff"/>
   <path stroke="null" d="m1154.9633,-407.13697c-3.78214,1.21569 -6.79884,3.73711 -8.59985,7.24908c-1.57589,3.10676 -1.48584,7.92447 0.18011,11.34639c1.39578,2.79157 3.96223,5.26797 6.88888,6.48366c2.2963,0.99055 7.47422,0.99055 9.72549,0.04503c3.96223,-1.66595 7.29411,-5.62818 7.92447,-9.36529l0.3602,-1.98112l20.21639,-0.13508l20.26142,-0.09005l18.55046,18.55046l18.59549,18.59549l0,354.57493l0,354.57493l-11.8867,11.8867l-11.8867,11.8867l-1.9361,-1.35076c-16.29919,-11.1663 -38.85691,-8.73492 -52.09437,5.62818c-12.65214,13.73274 -14.49818,34.08422 -4.45751,49.52792c4.14234,6.34858 9.2302,10.85112 16.29919,14.31807c6.2135,3.06173 10.04066,3.9172 17.55991,3.9172c7.51924,0 11.34639,-0.85549 17.55991,-3.9172c13.55263,-6.66376 21.79228,-19.04575 22.60274,-33.90413c0.54031,-9.81554 -2.02615,-18.41538 -7.65431,-26.06971l-2.02615,-2.74656l13.01234,-13.01234l13.01234,-13.01234l0,-357.95183l0,-357.95183l-20.80173,-20.80173l-20.84676,-20.84676l-23.09803,0l-23.09803,0l-1.35076,-1.57589c-2.70153,-3.06173 -9.27523,-5.04284 -13.01234,-3.87219l0,0.00007z" id="svg_131" fill="#007fff"/>
   <path stroke="null" d="m1190.6234,-372.19726c-11.39142,2.97168 -20.7567,10.53595 -26.06971,21.16193c-11.48147,22.96295 1.62092,50.87869 26.74508,57.04717c5.49309,1.35076 13.23746,1.30573 18.82061,-0.04503c15.21858,-3.69208 27.06026,-16.07407 30.21203,-31.51777c0.99055,-5.08786 0.67538,-13.68772 -0.72041,-18.50543c-4.14234,-14.36309 -16.1191,-25.52939 -30.61726,-28.59112c-5.04284,-1.08061 -13.28249,-0.85549 -18.37035,0.45026z" id="svg_133" fill="#007fff"/>
   <path stroke="null" d="m1388.41994,-372.64752c-15.4437,3.33188 -27.82569,15.84893 -31.11254,31.29265c-0.81046,3.78214 -0.81046,12.427 0,16.20914c4.32243,20.35147 23.54827,34.39939 43.80971,32.01306c5.313,-0.63035 11.34639,-2.56645 15.89396,-5.13289c4.68263,-2.61147 12.11182,-10.08569 14.81335,-14.85838c7.11401,-12.60711 7.11401,-27.64558 0,-40.25269c-2.38635,-4.18737 -9.63543,-11.70659 -13.55263,-14.00289c-4.00726,-2.34133 -9.27523,-4.45751 -13.05737,-5.22295c-4.18737,-0.85549 -12.96731,-0.90051 -16.79447,-0.04503l0,-0.00002z" id="svg_134" fill="#007fff"/>
   <path stroke="null" d="m1536.64351,-319.11233c-2.52142,0.90051 -5.35803,3.46696 -6.84387,6.16847c-1.21569,2.16122 -1.35076,2.83659 -1.35076,6.25853c0,3.37691 0.13508,4.09731 1.35076,6.2135c1.44081,2.6565 2.97168,4.09731 5.80827,5.62818c1.48584,0.76543 2.61147,0.99055 5.6732,0.99055c4.54757,0 6.39361,-0.72041 9.50035,-3.82716c4.63761,-4.63761 4.81772,-12.65214 0.3602,-17.74c-2.61147,-2.97168 -5.6732,-4.32243 -9.59041,-4.32243c-1.75599,0.04503 -3.96223,0.31518 -4.90777,0.63035l0.00002,0.00002z" id="svg_139" fill="#007fff"/>
   <path stroke="null" d="m960.45361,-293.17771l0,24.3137l24.9891,0l24.9891,0l0,-24.3137l0,-24.3137l-24.9891,0l-24.9891,0l0,24.3137z" id="svg_140" fill="#007fff"/>
   <path stroke="null" d="m1195.08091,-226.04487c-8.64488,1.12564 -18.23529,6.12344 -24.13361,12.65214c-18.1002,19.94624 -12.24691,51.37396 11.79665,63.39575c10.08569,5.04284 23.00797,5.49309 33.13869,1.12564c5.22295,-2.20624 8.1496,-4.14234 12.11182,-7.83442c8.19462,-7.65431 12.29193,-16.52431 12.83223,-27.51052c1.21569,-25.21422 -20.53158,-45.11543 -45.7458,-41.82858l0.00002,0z" id="svg_147" fill="#007fff"/>
   <path stroke="null" d="m982.11083,-224.69409c-1.12564,0.22512 -3.51199,1.08061 -5.35803,1.98112c-10.13072,4.81772 -15.17355,17.10965 -11.30138,27.55554c2.43136,6.48366 6.97893,11.07624 13.68772,13.64269c3.60203,1.39578 10.49092,1.53087 14.183,0.27015c9.41031,-3.1968 15.75888,-11.84168 15.75888,-21.56716c0,-8.10457 -5.26797,-16.38924 -12.65214,-19.90122c-4.9528,-2.34133 -9.41031,-2.97168 -14.31807,-1.98112l0.00002,0z" id="svg_149" fill="#007fff"/>
   <path stroke="null" d="m945.09996,-188.53871c-8.73492,3.10676 -11.5265,14.13797 -5.35803,21.11691c2.38635,2.74656 4.99783,4.00726 8.73492,4.2774c2.47639,0.13508 3.73711,0 5.49309,-0.72041l2.34133,-0.85549l7.02396,7.02396l7.02396,7.02396l0,7.65431l0,7.65431l-11.25635,11.25635l-11.25635,11.25635l0,106.93529l0,106.98032l10.13072,10.08569l10.13072,10.08569l0,75.23742l0,75.1924l-15.53376,15.53376l-15.53376,15.53376l0,50.87869l0,50.87869l-25.79954,25.79954l-25.75453,25.75453l-20.0363,0l-20.0363,0l-28.9063,28.9063l-28.95133,28.95133l0,61.90991l0,61.90991l37.73127,37.73127l37.68624,37.68624l27.19534,0l27.19534,0l19.31589,19.22584l19.27087,19.22584l0,17.60492l0,17.55991l7.11401,7.11401l7.06899,7.06899l26.33985,0l26.33985,0l69.3391,69.3391l69.3391,69.3391l167.26932,0l167.26932,0l73.48144,73.48144l73.52647,73.52647l0,-3.82716l0,-3.82716l-72.40083,-72.40083l-72.3558,-72.3558l-167.26932,0l-167.26932,0l-69.3391,-69.3391l-69.3391,-69.3391l-26.11473,0l-26.11473,0l-5.53812,-5.53812l-5.49309,-5.49309l0,-17.33477l0,-17.33477l-21.07188,-21.07188l-21.02685,-21.02685l-27.01523,0l-27.01523,0l-36.33549,-36.33549l-36.38052,-36.38052l0,-59.20838l0,-59.20838l27.37543,-27.37543l27.33041,-27.33041l20.0363,0l20.0363,0l27.37543,-27.37543l27.33041,-27.33041l0,-50.96873l0,-50.96873l15.75888,-15.93899l15.75888,-15.93899l0,-76.94838l0,-76.90335l-10.35584,-10.40087l-10.35584,-10.40087l0,-104.4589l0,-104.41387l11.48147,-11.48147l11.48147,-11.48147l0,-9.90558l0,-9.90558l-7.87945,-7.87945l-7.87945,-7.87945l1.03558,-2.02615c1.35076,-2.74656 1.39578,-7.87945 0.04503,-10.85112c-2.11619,-4.5926 -6.84387,-7.60928 -11.8867,-7.56427c-1.62092,0 -3.64705,0.27015 -4.54757,0.58532l0.00005,-0.00002z" id="svg_157" fill="#007fff"/>
   <path stroke="null" d="m946.946,-157.69632c-3.37691,1.08061 -6.34858,3.73711 -8.1496,7.24908c-1.9361,3.78214 -1.08061,10.53595 1.71096,13.59766c0.72041,0.81046 0.58532,0.99055 -1.80101,3.42193l-2.56645,2.61147l0,117.92149l0,117.96652l10.13072,10.13072l10.13072,10.13072l0,71.14011l0,71.14011l-15.53376,15.53376l-15.53376,15.48873l0,51.37396l0,51.32893l-22.82787,22.82787l-22.87289,22.87289l-20.71168,0l-20.71168,0l-30.75234,30.75234l-30.70731,30.70731l0,67.08783l0,67.08783l41.55844,41.55844l41.51341,41.51341l26.79011,0l26.79011,0l14.7233,14.7233l14.76832,14.76832l0,19.36092l0,19.36092l9.81554,9.81554l9.77052,9.77052l27.91575,0l27.91575,0l67.53809,67.53809l67.53809,67.53809l168.62008,0l168.62008,0l76.18295,76.18295l76.22798,76.22798l0,-3.82716l0,-3.82716l-75.32748,-75.32748l-75.28245,-75.28245l-168.62008,0l-168.62008,0l-67.53809,-67.53809l-67.53809,-67.53809l-27.69061,0l-27.69061,0l-8.23965,-8.23965l-8.19462,-8.19462l0,-19.36092l0,-19.36092l-16.1191,-16.1191l-16.07407,-16.07407l-27.01523,0l-27.01523,0l-39.71239,-39.71239l-39.75742,-39.75742l0,-65.06168l0,-65.06168l28.9063,-28.9063l28.95133,-28.95133l20.71168,0l20.71168,0l24.44879,-24.44879l24.40376,-24.40376l0,-51.55407l0,-51.50904l15.75888,-15.80391l15.75888,-15.75888l0,-73.16626l0,-73.16626l-10.13072,-9.90558l-10.17575,-9.90558l0.04503,-115.94037l0,-115.89534l1.84604,-1.89107l1.84604,-1.84604l3.9172,0.22512c4.86274,0.27015 7.56427,-0.72041 10.58096,-3.96223c2.70153,-2.88162 3.51199,-4.90777 3.557,-8.77995c0.04503,-5.13289 -2.25127,-9.09512 -6.84387,-11.84168c-1.57589,-0.90051 -2.6565,-1.17066 -5.40304,-1.26072c-1.89107,-0.09005 -3.9172,0 -4.54757,0.22512l0.00003,0.00005z" id="svg_166" fill="#007fff"/>
   <path stroke="null" d="m1195.9364,-78.36158c-13.19243,1.48584 -25.39431,10.13072 -31.29265,22.24254c-3.1968,6.48366 -3.96223,10.04066 -3.96223,18.01015c0,5.98838 0.13508,7.20407 1.21569,10.71604c4.32243,14.27304 14.81335,24.49381 29.13142,28.27595c5.22295,1.39578 14.27304,1.39578 19.54101,0c7.11401,-1.84604 15.12853,-6.61873 19.81118,-11.79665c14.49818,-16.07407 14.13797,-40.4328 -0.90051,-55.60636c-8.87,-8.96006 -21.07188,-13.28249 -33.54391,-11.84168z" id="svg_179" fill="#007fff"/>
   <path stroke="null" d="m1392.47222,-78.40661c-17.28974,1.89107 -31.5628,14.90341 -35.07477,32.05807c-0.90051,4.45751 -0.90051,11.57153 0,16.02904c3.10676,15.17355 14.58823,27.19534 29.67173,31.2026c5.22295,1.39578 13.8228,1.39578 19.36092,0.04503c30.61726,-7.56427 41.15321,-45.92589 18.64052,-67.94332c-4.9528,-4.86274 -9.14015,-7.42919 -15.53376,-9.54538c-3.37691,-1.12564 -11.30138,-2.43136 -13.32751,-2.25127c-0.31518,0.04503 -1.98112,0.22512 -3.73711,0.40523l-0.00002,0z" id="svg_180" fill="#007fff"/>
   <path stroke="null" d="m982.20088,-18.34274c-10.67101,2.61147 -18.59549,12.65214 -18.59549,23.63833c0,11.34639 8.1496,21.65722 18.91066,23.9535c3.87219,0.81046 10.94116,0.31518 14.27304,-1.08061c6.43864,-2.6565 11.30138,-7.51924 14.00289,-13.95786c1.53087,-3.78214 1.9361,-11.03122 0.76543,-14.94843c-1.26072,-4.45751 -3.28685,-7.87945 -6.48366,-11.07624c-5.98838,-5.98838 -14.76832,-8.46477 -22.87289,-6.52867l0.00002,0z" id="svg_198" fill="#007fff"/>
   <path stroke="null" d="m1581.80398,33.03122l0,24.08858l23.4132,0l23.4132,0l0,-24.08858l0,-24.08858l-23.4132,0l-23.4132,0l0,24.08858z" id="svg_202" fill="#007fff"/>
   <path stroke="null" d="m1195.17096,68.82641c-15.75888,2.25127 -29.2665,14.27304 -33.4989,29.94188c-1.30573,4.86274 -1.44081,14.7233 -0.22512,19.31589c3.28685,12.38199 11.21133,22.01742 22.46766,27.28538c6.16847,2.88162 10.58096,3.73711 18.32534,3.51199c6.03341,-0.18011 6.88888,-0.31518 11.1663,-1.80101c13.8228,-4.77269 23.9535,-16.07407 26.92518,-30.07696c0.81046,-3.96223 0.81046,-12.29193 -0.09005,-16.56934c-1.35076,-6.75381 -4.81772,-13.41757 -9.81554,-18.82061c-7.29411,-7.92447 -17.1997,-12.56208 -27.96077,-13.01234c-2.47639,-0.09005 -5.76324,0 -7.29411,0.22512l0.00002,0z" id="svg_218" fill="#007fff"/>
   <path stroke="null" d="m1391.12145,68.82641c-8.87,1.39578 -18.1002,6.30355 -23.86346,12.69716c-4.32243,4.77269 -7.74437,11.03122 -9.50035,17.46985c-1.17066,4.18737 -1.17066,15.21858 0,19.58604c2.16122,8.19462 7.29411,16.25416 13.55263,21.34203c7.60928,6.16847 15.75888,9.05011 25.66448,9.05011c8.5098,0 15.12853,-1.9361 22.01742,-6.48366c8.23965,-5.40304 13.8228,-13.01234 16.79447,-22.64777c1.03558,-3.51199 1.17066,-4.72766 1.21569,-10.71604c0.04503,-8.19462 -0.58532,-10.98619 -4.00726,-18.01015c-4.09731,-8.41974 -10.04066,-14.31807 -18.46041,-18.46041c-2.20624,-1.12564 -5.6732,-2.43136 -7.65431,-2.92665c-4.14234,-1.08061 -11.79665,-1.48584 -15.75888,-0.90051l-0.00003,0z" id="svg_219" fill="#007fff"/>
   <path stroke="null" d="m1602.51565,97.64266c-9.27523,1.9361 -16.79447,8.91503 -19.13578,17.78503c-0.3602,1.48584 -0.67538,4.32243 -0.67538,6.30355c0,6.88888 2.2963,12.427 7.20407,17.33477c5.8533,5.8533 14.00289,8.28468 22.10746,6.5737c8.1496,-1.75599 15.35366,-8.10457 18.05518,-15.93899c1.48584,-4.32243 1.44081,-12.15685 -0.09005,-16.07407c-3.73711,-9.63543 -11.84168,-15.62381 -21.74726,-16.20914c-2.02615,-0.09005 -4.5926,0 -5.71823,0.22512l0,0.00002z" id="svg_222" fill="#007fff"/>
   <path stroke="null" d="m1625.38855,162.34413l-17.46985,17.46985l0,31.96803l0,31.96803l17.55991,17.55991l17.55991,17.55991l0,-18.46041l0,-18.46041l-4.50254,-4.50254l-4.50254,-4.50254l0,-21.16193l0,-21.16193l4.50254,-4.50254l4.50254,-4.54757l-0.09005,-18.32534l-0.13508,-18.32534l-17.42483,17.42483z" id="svg_229" fill="#007fff"/>
   <path stroke="null" d="m1194.04533,220.11172c-15.84893,2.70153 -28.50107,14.58823 -32.59838,30.61726c-1.21569,4.81772 -1.12564,14.13797 0.18011,19.13578c3.73711,13.91284 14.22803,24.62889 28.32098,28.86127c3.51199,1.08061 4.72766,1.21569 10.71604,1.21569c5.53812,0 7.38416,-0.18011 10.31081,-0.94553c14.63326,-4.00726 26.33985,-16.34422 29.2665,-30.79737c0.90051,-4.41249 0.90051,-12.38199 0.04503,-16.56934c-3.37691,-16.07407 -16.43427,-28.59112 -32.8235,-31.47275c-3.06173,-0.54031 -10.26578,-0.58532 -13.41757,-0.04503l-0.00002,0z" id="svg_247" fill="#007fff"/>
   <path stroke="null" d="m1389.09532,220.33684c-14.22803,2.92665 -25.7095,13.05737 -30.43716,26.88015c-3.10676,9.18518 -2.52142,20.35147 1.57589,29.40158c6.07843,13.41757 19.45098,22.55772 34.30934,23.50326c19.27087,1.21569 36.65066,-11.57153 41.64849,-30.70731c1.17066,-4.63761 1.30573,-12.38199 0.27015,-17.42483c-1.71096,-8.3297 -5.04284,-14.40812 -11.30138,-20.66665c-5.76324,-5.71823 -12.427,-9.32026 -20.3965,-10.94116c-4.14234,-0.85549 -11.57153,-0.85549 -15.66884,-0.04503l0.00002,-0.00002z" id="svg_248" fill="#007fff"/>
   <path stroke="null" d="m886.83711,312.05355c-2.20624,0.81046 -4.90777,2.88162 -6.25853,4.77269c-3.60203,5.22295 -3.24182,11.66158 0.90051,16.29919c2.79157,3.06173 4.99783,4.14234 9.00508,4.41249c2.79157,0.18011 3.557,0.04503 5.8533,-0.99055l2.61147,-1.21569l6.43864,6.43864l6.43864,6.43864l0,24.76396l0,24.76396l-19.04575,19.04575l-19.04575,19.00072l-19.76615,0l-19.81118,0l-33.67899,33.67899l-33.63396,33.63396l0,72.04063l0,72.04063l45.25052,45.25052l45.25052,45.25052l0,13.95786l0,13.95786l48.40229,48.40229l48.40229,48.40229l0,52.4996l0,52.4996l5.313,5.22295l5.26797,5.26797l74.2919,0l74.2919,0l8.3297,8.3297l8.3297,8.3297l170.19597,0l170.19597,0l63.17063,63.1256l63.1256,63.08057l0,140.2991l0,140.2991l18.23529,18.23529l18.23529,18.28031l0,10.22076l0,10.22076l2.70153,0l2.70153,0l0,-11.34639l0,-11.39142l-18.23529,-18.23529l-18.23529,-18.28031l0,-140.43418l0,-140.47921l-64.47636,-64.47636l-64.52138,-64.52138l-170.19597,0l-170.19597,0l-8.3297,-8.3297l-8.3297,-8.3297l-74.51702,0l-74.51702,0l-3.51199,-3.51199l-3.46696,-3.46696l0,-52.45457l0,-52.45457l-48.40229,-48.40229l-48.40229,-48.40229l0,-13.95786l0,-13.95786l-45.25052,-45.25052l-45.25052,-45.25052l0,-70.01448l0,-70.01448l32.1031,-32.1031l32.05807,-32.05807l19.58604,0l19.58604,0l20.62162,-20.57659l20.57659,-20.62162l0,-27.24035l0,-27.24035l-7.24908,-7.24908l-7.24908,-7.24908l0.76543,-1.75599c1.03558,-2.2963 1.03558,-7.47422 0.04503,-9.77052c-1.12564,-2.52142 -4.23239,-5.71823 -6.79884,-6.88888c-2.47639,-1.17066 -7.38416,-1.44081 -9.90558,-0.54031l-0.00002,-0.00007z" id="svg_266" fill="#007fff"/>
   <path stroke="null" d="m887.96274,344.33675c-7.24908,2.38635 -11.39142,9.63543 -9.32026,16.29919l0.63035,2.11619l-6.88888,6.88888l-6.93391,6.93391l0,9.00508l0,9.00508l-9.32026,9.32026l-9.36529,9.36529l-12.15685,0l-12.15685,0l-39.08204,39.08204l-39.03702,39.03702l0,82.84671l0,82.84671l-10.8061,10.8061l-10.8061,10.8061l0,21.61219l0,21.61219l11.61656,11.61656l11.57153,11.57153l29.04138,0l29.04138,0l64.97164,64.97164l64.92661,64.92661l0,54.70584l0,54.70584l8.19462,8.19462l8.19462,8.23965l78.38919,0l78.34418,0l8.3297,8.3297l8.3297,8.3297l20.48656,0l20.48656,0l30.61726,30.61726l30.61726,30.61726l147.188,0l147.188,0l26.92518,26.88015l26.9702,26.88015l0,141.24464l0,141.24464l-11.93173,11.66158l-11.93173,11.70659l0,9.95061l0,9.99564l2.70153,0l2.70153,0l0,-8.64488l0,-8.64488l12.15685,-12.20188l12.15685,-12.15685l0,-142.9556l0,-142.9556l-28.68118,-28.72619l-28.72619,-28.68118l-147.00789,0l-147.00789,0l-30.61726,-30.61726l-30.61726,-30.61726l-20.48656,0l-20.48656,0l-8.3297,-8.3297l-8.3297,-8.3297l-78.5693,0l-78.5693,0l-6.43864,-6.43864l-6.39361,-6.39361l0,-54.93098l0,-54.93098l-66.54752,-66.54752l-66.50251,-66.50251l-29.04138,0l-29.04138,0l-9.99564,-9.99564l-10.04066,-10.04066l0,-19.58604l0,-19.58604l10.58096,-10.58096l10.58096,-10.58096l0,-82.62159l0,-82.62159l37.73127,-37.73127l37.68624,-37.68624l12.15685,0l12.15685,0l10.94116,-10.94116l10.89615,-10.89615l0,-9.2302l0,-9.2302l5.53812,-5.53812l5.53812,-5.53812l2.83659,1.48584c2.43136,1.26072 3.28685,1.44081 6.07843,1.44081c3.9172,0 6.5737,-1.08061 9.27523,-3.78214c2.70153,-2.70153 3.78214,-5.35803 3.78214,-9.2302c-0.04503,-3.87219 -1.12564,-6.5737 -3.78214,-9.2302c-1.03558,-1.03558 -2.83659,-2.2963 -3.96223,-2.79157c-2.25127,-0.99055 -6.84387,-1.44081 -8.64488,-0.85549l0.00003,-0.00003z" id="svg_275" fill="#007fff"/>
   <path stroke="null" d="m817.40795,345.41736c-2.70153,1.03558 -5.49309,3.37691 -6.93391,5.94335l-1.39578,2.47639l-25.7095,0l-25.75453,0l-27.15031,27.15031l-27.10529,27.10529l0,27.91575l0,27.91575l-21.16193,21.16193l-21.16193,21.16193l0,109.86195l0,109.86195l32.73346,32.73346l32.73346,32.77849l26.15974,0l26.11473,0l54.39066,54.39066l54.34564,54.34564l0,26.56497l0,26.56497l-9.90558,9.90558l-9.90558,9.90558l0,28.95133l0,28.95133l8.64488,8.77995l8.59985,8.73492l22.55772,0l22.55772,0l20.93681,20.93681l20.93681,20.93681l107.38555,0l107.38555,0l13.05737,13.05737l13.01234,13.05737l63.75595,0l63.71092,0l38.85691,38.85691l38.81188,38.81188l0,97.25485l0,97.25485l21.83731,21.83731l21.83731,21.83731l0,12.92228l0,12.96731l2.70153,0l2.6565,0l0.13508,-14.183l0.13508,-14.183l-21.92737,-21.97239l-21.97239,-21.92737l0,-97.02971l0,-97.02971l-40.4328,-40.4328l-40.38777,-40.38777l-63.71092,0l-63.6659,0l-13.10239,-13.05737l-13.05737,-13.05737l-107.38555,0l-107.38555,0l-20.93681,-20.93681l-20.93681,-20.93681l-22.28757,0l-22.28757,0l-7.29411,-7.29411l-7.33914,-7.33914l0,-26.33985l0,-26.33985l9.90558,-9.90558l9.90558,-9.90558l0,-29.04138l0,-29.04138l-56.19168,-56.19168l-56.14665,-56.14665l-26.11473,0l-26.11473,0l-30.75234,-30.75234l-30.70731,-30.70731l0,-107.8358l0,-107.8358l20.93681,-20.93681l20.93681,-20.93681l0,-27.91575l0,-27.91575l25.79954,-25.79954l25.75453,-25.75453l24.17864,0l24.13361,0l0.31518,1.44081c0.49528,2.25127 1.84604,4.68263 3.69208,6.48366c6.30355,6.30355 17.0196,4.50254 21.02685,-3.51199c1.62092,-3.24182 1.66595,-8.10457 0.09005,-11.39142c-1.30573,-2.74656 -3.87219,-5.26797 -6.5737,-6.48366c-2.2963,-1.03558 -7.38416,-1.21569 -9.77052,-0.3602l-0.00002,0.00002z" id="svg_276" fill="#007fff"/>
   <path stroke="null" d="m950.09777,375.67443l0,24.53884l24.76396,0l24.76396,0l0,-24.53884l0,-24.53884l-24.76396,0l-24.76396,0l0,24.53884z" id="svg_278" fill="#007fff"/>
   <path stroke="null" d="m841.04629,367.93007c-2.2963,0.67538 -2.83659,0.99055 -5.44807,3.42193c-2.92665,2.74656 -3.69208,4.63761 -3.69208,9.27523c0,3.10676 0.18011,4.41249 0.85549,5.58315l0.81046,1.53087l-50.02321,50.02321l-50.02321,50.02321l0,82.39647l0,82.39647l-9.68046,9.68046l-9.68046,9.68046l0,27.91575l0,27.91575l13.86783,13.86783l13.8228,13.8228l27.69061,0l27.69061,0l62.22508,62.27011l62.27011,62.22508l0,46.33112l0,46.2861l-3.15177,3.24182l-3.15177,3.28685l0,3.69208c0,3.10676 -0.13508,3.69208 -0.76543,3.9172c-6.5737,2.07116 -10.35584,7.29411 -9.90558,13.68772c0.72041,10.76107 13.55263,16.07407 21.65722,8.96006c5.53812,-4.90777 5.89832,-13.55263 0.76543,-18.77558c-1.12564,-1.21569 -3.0167,-2.56645 -4.18737,-3.06173l-2.16122,-0.85549l0,-2.6565l0,-2.61147l3.15177,-3.24182l3.15177,-3.28685l0,-48.5824l0,-48.5824l-63.80098,-63.80098l-63.846,-63.846l-27.46549,0l-27.46549,0l-12.51705,-12.51705l-12.47203,-12.47203l0,-25.21422l0,-25.21422l9.90558,-9.90558l9.90558,-9.90558l0,-82.39647l0,-82.39647l49.12269,-49.12269l49.12269,-49.12269l1.89107,0.90051c2.34133,1.17066 7.78939,1.30573 10.26578,0.18011c2.56645,-1.08061 5.98838,-4.54757 7.11401,-7.15904c1.26072,-2.97168 1.12564,-8.1496 -0.3602,-10.94116c-1.12564,-2.2963 -4.41249,-5.35803 -6.66376,-6.30355c-2.38635,-0.99055 -6.30355,-1.21569 -8.82497,-0.54031l0,-0.00005z" id="svg_281" fill="#007fff"/>
   <path stroke="null" d="m1393.59786,368.11016c-16.52431,1.35076 -30.93245,13.28249 -35.61508,29.49162c-1.35076,4.72766 -1.66595,13.37254 -0.63035,18.41538c2.56645,12.74219 10.35584,22.82787 22.06243,28.59112c6.07843,2.97168 10.04066,3.87219 17.33477,3.9172c4.9528,0.04503 6.79884,-0.13508 9.86055,-0.99055c17.46985,-4.63761 29.58168,-19.31589 30.52722,-36.96584c0.94553,-17.74 -9.77052,-34.03919 -26.38488,-40.0726c-5.13289,-1.89107 -12.02179,-2.83659 -17.15468,-2.38635l0.00002,0.00002z" id="svg_282" fill="#007fff"/>
   <path stroke="null" d="m885.80153,377.52047c-2.92665,1.44081 -5.6732,4.54757 -6.66376,7.47422c-1.03558,3.1968 -0.67538,7.69934 0.85549,10.49092l1.17066,2.07116l-13.59766,13.73274l-13.59766,13.73274l-12.7872,-0.04503l-12.83223,-0.04503l-35.48,35.48l-35.48,35.48l0,83.29696l0,83.29696l-11.03122,11.03122l-11.03122,11.03122l0,17.10965l0,17.10965l7.33914,7.33914l7.29411,7.29411l29.2665,0l29.2665,0l67.89829,67.89829l67.85326,67.85326l0,55.65138l0,55.65138l5.313,5.22295l5.26797,5.26797l79.01956,0l79.01956,0l7.42919,7.42919l7.42919,7.42919l170.19597,0l170.19597,0l58.62306,58.62306l58.66809,58.66809l0,153.62662l0,153.62662l-1.89107,0.49528c-8.5098,2.16122 -14.99346,7.83442 -17.92011,15.62381c-1.17066,3.10676 -1.98112,8.3297 -1.57589,10.31081l0.27015,1.53087l24.71893,0l24.76396,0l0.27015,-1.17066c0.40523,-1.66595 -0.49528,-7.65431 -1.62092,-10.62599c-3.0167,-8.05954 -10.22076,-14.183 -18.55046,-15.75888l-3.06173,-0.58532l0,-154.66221l0,-154.66221l-60.4691,-60.4691l-60.42407,-60.42407l-169.97083,0l-169.97083,0l-7.42919,-7.20407l-7.42919,-7.15904l-78.97453,-0.04503l-78.9295,0l-3.78214,-3.69208l-3.78214,-3.69208l0,-55.83148l0,-55.8765l-69.42915,-69.42915l-69.47418,-69.47418l-29.2665,0l-29.2665,0l-5.53812,-5.53812l-5.49309,-5.49309l0,-14.85838l0,-14.85838l10.8061,-10.8061l10.8061,-10.8061l0,-83.29696l0,-83.29696l34.12925,-34.12925l34.08422,-34.08422l12.60711,0l12.60711,0l14.67827,-14.67827l14.67827,-14.67827l2.34133,0.81046c4.99783,1.62092 10.76107,-0.22512 14.04792,-4.50254c2.02615,-2.6565 2.6565,-4.68263 2.6565,-8.41974c-0.04503,-4.86274 -2.97168,-9.41031 -7.42919,-11.48147c-3.28685,-1.57589 -8.19462,-1.53087 -11.39142,0.09005l-0.00003,0z" id="svg_284" fill="#007fff"/>
   <path stroke="null" d="m752.07613,383.779c-3.78214,1.17066 -6.93391,4.05228 -8.5098,7.78939c-1.12564,2.61147 -0.94553,7.56427 0.31518,10.22076c1.21569,2.56645 3.78214,5.22295 5.76324,6.12344l1.44081,0.63035l0,13.95786l0,13.95786l-19.36092,19.36092l-19.36092,19.36092l0,82.62159l0,82.62159l-11.48147,11.48147l-11.48147,11.48147l0,37.37107l0,37.37107l19.04575,19.04575l19.00072,19.00072l30.39214,0l30.39214,0l57.09219,57.09219l57.04717,57.04717l0,33.09367l0,33.09367l-10.35584,10.35584l-10.35584,10.35584l0,18.68554l0,18.68554l9.99564,9.99564l10.04066,10.04066l15.53376,0l15.53376,0l21.61219,21.61219l21.61219,21.61219l110.08707,0l110.08707,0l9.90558,9.90558l9.90558,9.90558l95.2287,0l95.2287,0l39.08204,39.08204l39.03702,39.03702l0,110.98759l0,110.98759l21.83731,21.83731l21.83731,21.83731l0,8.46477l0,8.41974l2.70153,0l2.70153,0l0,-9.59041l0,-9.54538l-21.83731,-21.83731l-21.83731,-21.83731l0,-111.21271l0,-111.21271l-40.65792,-40.65792l-40.61289,-40.61289l-95.2287,0l-95.2287,0l-9.90558,-9.90558l-9.90558,-9.90558l-110.3122,0l-110.3122,0l-21.38705,-21.38705l-21.38705,-21.38705l-15.53376,0l-15.53376,0l-8.23965,-8.23965l-8.19462,-8.19462l0,-16.65939l0,-16.65939l10.13072,-10.13072l10.13072,-10.13072l0,-35.79518l0,-35.79518l-58.66809,-58.66809l-58.62306,-58.62306l-30.39214,0l-30.39214,0l-17.24472,-17.24472l-17.1997,-17.1997l0,-35.1198l0,-35.1198l11.48147,-11.48147l11.48147,-11.48147l0,-82.62159l0,-82.62159l19.18081,-19.18081l19.13578,-19.13578l-0.04503,-14.67827l-0.04503,-14.63326l2.11619,-0.54031c6.34858,-1.62092 10.53595,-6.70878 10.53595,-12.87726c0,-3.64705 -1.21569,-6.48366 -4.00726,-9.27523c-3.73711,-3.73711 -8.1496,-4.86274 -13.01234,-3.33188l-0.00005,-0.00007z" id="svg_285" fill="#007fff"/>
   <path stroke="null" d="m782.46826,384.63449c-3.28685,1.21569 -6.30355,4.18737 -7.74437,7.60928c-0.76543,1.89107 -0.90051,6.52867 -0.22512,8.96006c0.99055,3.46696 4.9528,7.33914 8.64488,8.46477l1.71096,0.49528l0,4.36746l0,4.36746l-30.84239,30.84239l-30.84239,30.84239l0,82.62159l0,82.62159l-10.35584,10.35584l-10.35584,10.35584l0,33.76904l0,33.76904l16.1191,16.1191l16.07407,16.07407l29.2665,0l29.2665,0l59.11833,59.11833l59.07332,59.07332l0,40.52285l0,40.52285l-9.68046,9.68046l-9.68046,9.68046l0,13.50762l0,13.50762l6.2135,6.2135l6.16847,6.16847l16.65939,0l16.65939,0l21.83731,21.83731l21.83731,21.83731l108.96144,0l108.96144,0l10.35584,10.35584l10.35584,10.35584l107.61068,0l107.61068,0l34.53448,34.53448l34.5795,34.5795l0,117.96652l0,117.96652l17.33477,17.33477l17.33477,17.33477l0,14.94843l0,14.99346l2.70153,0l2.70153,0l0,-16.07407l0,-16.1191l-17.33477,-17.33477l-17.33477,-17.3798l0,-118.14662l0,-118.19164l-35.88523,-35.88523l-35.93026,-35.93026l-107.61068,0l-107.61068,0l-10.35584,-10.35584l-10.35584,-10.35584l-109.18656,0l-109.18656,0l-22.06243,-22.06243l-22.06243,-22.06243l-16.43427,0l-16.43427,0l-4.63761,-4.63761l-4.5926,-4.5926l0,-11.03122l0,-10.98619l9.90558,-9.95061l9.90558,-9.95061l0,-42.50396l0,-42.54899l-60.69422,-60.69422l-60.69422,-60.69422l-29.22147,0.04503l-29.2665,0l-14.76832,-14.76832l-14.7233,-14.76832l0,-31.02249l0,-31.06752l10.58096,-10.58096l10.58096,-10.58096l0,-82.84671l0,-82.84671l30.61726,-30.61726l30.61726,-30.61726l0,-5.62818l0,-5.62818l1.9361,-0.81046c7.96949,-3.28685 10.58096,-13.95786 4.99783,-20.53158c-2.6565,-3.06173 -5.13289,-4.23239 -9.36529,-4.41249c-2.34133,-0.09005 -4.23239,0.09005 -5.35803,0.49528l-0.00002,-0.00015z" id="svg_286" fill="#007fff"/>
   <path stroke="null" d="m968.60321,445.05856c-3.64705,0.99055 -6.70878,2.79157 -9.77052,5.80827c-5.58315,5.53812 -7.78939,13.50762 -5.80827,21.16193c2.47639,9.45532 11.5265,16.43427 21.38705,16.43427c9.95061,0 19.36092,-7.42919 21.56716,-17.10965c1.12564,-4.86274 0.27015,-11.03122 -2.11619,-15.48873c-1.53087,-2.92665 -5.98838,-7.38416 -8.91503,-8.91503c-4.72766,-2.52142 -11.21133,-3.28685 -16.34422,-1.89107z" id="svg_301" fill="#007fff"/>
   <path stroke="null" d="m868.51177,501.70049c-5.58315,1.48584 -9.36529,6.34858 -9.59041,12.38199l-0.09005,2.83659l-7.51924,7.51924l-7.47422,7.47422l0,43.89976l0,43.89976l22.15249,22.15249l22.19751,22.19751l27.69061,0l27.69061,0l30.39214,-30.39214l30.39214,-30.39214l8.19462,0l8.23965,0l0,-22.28757l0,-22.28757l-22.06243,0l-22.06243,0l0,22.28757l0,22.28757l4.32243,0l4.32243,0l-23.32315,23.63833l-23.32315,23.63833l-22.78285,0l-22.73783,0l-18.14523,-18.14523l-18.1002,-18.14523l0,-38.22656l0,-38.27158l5.44807,-5.44807l5.44807,-5.49309l1.66595,0.45026c5.08786,1.39578 11.34639,-1.62092 14.22803,-6.93391c2.74656,-5.04284 1.35076,-12.24691 -3.10676,-15.89396c-1.03558,-0.85549 -2.61147,-1.84604 -3.46696,-2.20624c-2.25127,-0.94553 -6.16847,-1.17066 -8.59985,-0.54031l0.00003,-0.00002z" id="svg_318" fill="#007fff"/>
   <path stroke="null" d="m1192.78461,513.90237c-8.73492,1.84604 -15.53376,5.71823 -21.70223,12.33696c-18.95569,20.3965 -11.75162,53.49017 14.04792,64.47636c11.93173,5.04284 26.65503,3.73711 37.59621,-3.42193c4.18737,-2.70153 10.49092,-9.32026 12.7872,-13.41757c9.41031,-16.70442 6.61873,-36.42554 -6.97893,-49.43788c-5.08786,-4.81772 -10.35584,-7.87945 -17.06462,-9.90558c-4.09731,-1.21569 -14.31807,-1.57589 -18.68554,-0.63035z" id="svg_328" fill="#007fff"/>
   <path stroke="null" d="m1389.86075,513.67724c-5.89832,1.03558 -13.32751,4.45751 -18.1002,8.19462c-5.08786,4.05228 -9.86055,10.35584 -12.20188,16.1191c-2.83659,7.02396 -3.69208,16.34422 -2.16122,23.77341c3.0167,14.7233 14.40812,26.74508 29.22147,30.79737c4.86274,1.30573 15.12853,1.44081 19.76615,0.18011c12.20188,-3.24182 21.38705,-10.71604 26.65503,-21.65722c3.0167,-6.16847 3.87219,-10.08569 3.9172,-17.33477c0.04503,-4.32243 -0.18011,-6.97893 -0.72041,-9.18518c-3.69208,-14.81335 -14.27304,-25.8896 -28.68118,-29.98691c-3.78214,-1.12564 -13.8228,-1.62092 -17.69497,-0.90051l0,-0.00002z" id="svg_329" fill="#007fff"/>
   <path stroke="null" d="m681.61139,556.18121c-3.87219,1.39578 -7.06899,4.54757 -8.3297,8.3297c-0.90051,2.6565 -0.67538,7.20407 0.54031,9.72549c1.26072,2.79157 4.36746,5.6732 7.15904,6.75381c3.10676,1.17066 8.5098,0.81046 11.25635,-0.81046c4.54757,-2.70153 6.88888,-7.11401 6.52867,-12.427c-0.27015,-3.69208 -1.39578,-5.94335 -4.32243,-8.68991c-3.42193,-3.1968 -8.59985,-4.36746 -12.83223,-2.88162l-0.00002,-0.00002z" id="svg_346" fill="#007fff"/>
   <path stroke="null" d="m1550.96158,585.13254c-2.92665,1.08061 -4.9528,2.52142 -6.5737,4.77269c-2.79157,3.87219 -2.6565,-0.76543 -2.6565,79.96509l0,73.66153l-1.89107,1.53087c-8.77995,7.02396 -11.34639,18.95569 -6.34858,29.2665c0.63035,1.30573 2.47639,3.78214 4.09731,5.49309c10.53595,11.21133 28.68118,9.59041 37.05589,-3.33188c6.30355,-9.72549 4.90777,-21.56716 -3.51199,-29.94188l-3.28685,-3.24182l-0.09005,-74.87722l-0.13508,-74.83219l-0.99055,-1.80101c-1.21569,-2.2963 -4.50254,-5.35803 -6.70878,-6.30355c-2.74656,-1.12564 -6.34858,-1.26072 -8.96006,-0.3602l0.00002,0z" id="svg_350" fill="#007fff"/>
   <path stroke="null" d="m684.67312,619.44188c-7.56427,1.98112 -11.8867,9.99564 -9.41031,17.28974c0.90051,2.70153 4.14234,6.25853 6.84387,7.56427c2.88162,1.44081 7.96949,1.48584 10.94116,0.13508c6.43864,-2.97168 9.50035,-11.1663 6.52867,-17.51488c-1.17066,-2.52142 -4.45751,-5.80827 -6.84387,-6.79884c-1.89107,-0.81046 -6.25853,-1.17066 -8.05954,-0.67538l0.00002,0z" id="svg_363" fill="#007fff"/>
   <path stroke="null" d="m988.32433,650.23925c-8.96006,3.24182 -14.85838,11.57153 -14.81335,21.02685c0.04503,5.8533 2.16122,11.07624 6.30355,15.30864c8.5098,8.59985 22.10746,8.82497 30.79737,0.45026c11.39142,-10.89615 8.37472,-29.08641 -5.89832,-35.93026c-3.28685,-1.57589 -3.82716,-1.66595 -8.46477,-1.80101c-4.2774,-0.09005 -5.35803,0.04503 -7.92447,0.94553z" id="svg_380" fill="#007fff"/>
   <path stroke="null" d="m1195.84634,664.55731c-7.24908,0.76543 -15.98401,4.68263 -21.92737,9.81554c-5.40304,4.68263 -10.53595,13.10239 -12.427,20.30645c-1.21569,4.81772 -1.39578,12.92228 -0.31518,18.1002c1.66595,8.05954 6.70878,16.79447 12.74219,22.01742c13.86783,12.02179 33.58893,13.32751 49.12269,3.33188l3.24182,-2.11619l20.71168,20.7567l20.66665,20.7567l85.36814,0l85.36814,0l5.08786,5.08786l5.04284,5.04284l0,18.01015l0,18.01015l96.75956,96.75956c57.58748,57.58748 96.93965,96.62448 97.25485,96.44439c0.31518,-0.22512 0.49528,-2.61147 0.49528,-7.15904l0,-6.84387l-91.85179,-91.85179l-91.85179,-91.85179l0,-18.01015l0,-18.01015l-8.23965,-8.23965l-8.19462,-8.19462l-85.54823,0l-85.54823,0l-19.22584,-19.27087l-19.27087,-19.22584l0.94553,-1.35076c4.68263,-6.93391 7.06899,-15.62381 6.5737,-24.44879c-0.31518,-6.16847 -1.21569,-9.54538 -3.96223,-15.26361c-4.86274,-10.13072 -12.92228,-17.24472 -23.63833,-20.80173c-3.51199,-1.17066 -10.85112,-2.43136 -13.23746,-2.20624c-0.3602,0 -2.20624,0.18011 -4.14234,0.40523l-0.00002,0z" id="svg_381" fill="#007fff"/>
   <path stroke="null" d="m1392.47222,664.51229c-11.70659,1.26072 -22.73783,7.96949 -29.22147,17.78503c-2.20624,3.33188 -4.45751,8.23965 -5.49309,12.15685c-1.21569,4.41249 -1.21569,16.25416 0,20.48656c2.34133,8.5098 7.74437,16.43427 14.67827,21.70223c11.8867,9.05011 28.05081,10.76107 41.37833,4.36746c25.03411,-11.8867 31.15757,-43.94477 12.29193,-63.98107c-6.75381,-7.15904 -15.30864,-11.43645 -25.07914,-12.51705c-2.20624,-0.22512 -4.36746,-0.40523 -4.72766,-0.40523c-0.3602,0.04503 -2.07116,0.22512 -3.82716,0.40523z" id="svg_382" fill="#007fff"/>
   <path stroke="null" d="m769.32084,675.81367c-4.18737,0.58532 -9.50035,3.46696 -12.51705,6.70878c-8.01451,8.64488 -8.1496,21.29702 -0.31518,29.89685c5.40304,5.89832 13.05737,8.46477 20.53158,6.88888c10.71604,-2.2963 17.74,-10.89615 17.74,-21.70223c0,-8.96006 -4.77269,-16.38924 -12.92228,-20.12635c-2.38635,-1.03558 -7.69934,-2.25127 -9.36529,-2.11619c-0.22512,0.04503 -1.66595,0.22512 -3.15177,0.45026l-0.00002,0z" id="svg_383" fill="#007fff"/>
   <path stroke="null" d="m1639.16632,736.28277c-13.19243,4.14234 -20.71168,18.86564 -16.34422,32.01306c1.84604,5.44807 6.34858,11.03122 11.21133,13.8228c2.07116,1.21569 7.11401,3.06173 8.3297,3.06173c0.58532,0 0.67538,-2.83659 0.67538,-24.76396l0,-24.76396l-0.99055,0.04503c-0.58532,0 -1.84604,0.27015 -2.88162,0.58532l-0.00002,-0.00002z" id="svg_386" fill="#007fff"/>
   <path stroke="null" d="m974.86175,758.39023l0,22.28757l22.06243,0l22.06243,0l0,-22.28757l0,-22.28757l-22.06243,0l-22.06243,0l0,22.28757z" id="svg_387" fill="#007fff"/>
   <path stroke="null" d="m889.22346,739.47956c-2.88162,0.94553 -6.70878,4.50254 -8.01451,7.51924c-1.39578,3.28685 -1.12564,8.3297 0.58532,11.25635c4.45751,7.65431 14.45315,9.14015 20.7567,3.15177c6.52867,-6.25853 4.54757,-17.69497 -3.69208,-21.38705c-2.6565,-1.17066 -6.93391,-1.39578 -9.63543,-0.54031z" id="svg_388" fill="#007fff"/>
   <path stroke="null" d="m1193.55004,811.06993c-17.42483,3.33188 -30.88742,17.87508 -32.68844,35.48c-1.71096,16.92954 6.97893,32.68844 22.24254,40.34275c5.40304,2.70153 9.45532,3.69208 16.02904,3.96223c10.76107,0.45026 19.6761,-2.56645 27.96077,-9.41031c5.71823,-4.77269 11.03122,-13.23746 13.01234,-20.84676c1.26072,-4.72766 1.39578,-14.22803 0.27015,-18.82061c-3.60203,-14.76832 -14.90341,-26.29483 -29.49162,-30.07696c-4.63761,-1.21569 -12.69716,-1.48584 -17.33477,-0.63035l-0.00002,0.00002z" id="svg_395" fill="#007fff"/>
   <path stroke="null" d="m1357.80266,811.83536c-0.13508,0.31518 -0.18011,17.60492 -0.13508,38.40665l0.13508,37.82133l38.27158,0l38.27158,0l0,-38.27158l0,-38.27158l-38.18153,-0.13508c-30.30208,-0.09005 -38.22656,0 -38.36162,0.45026l-0.00002,0.00002z" id="svg_396" fill="#007fff"/>
   <path stroke="null" d="m991.56615,826.4236c-10.67101,2.88162 -18.50543,12.96731 -18.50543,23.81843c0.04503,16.16411 15.0835,28.09584 30.52722,24.17864c18.91066,-4.77269 25.30427,-27.64558 11.61656,-41.3333c-5.08786,-5.08786 -10.62599,-7.42919 -17.60492,-7.33914c-1.98112,0 -4.68263,0.31518 -6.03341,0.67538l-0.00002,-0.00002z" id="svg_399" fill="#007fff"/>
   <path stroke="null" d="m1626.82936,868.25218l0,24.08858l8.10457,0l8.10457,0l0,-24.08858l0,-24.08858l-8.10457,0l-8.10457,0l0,24.08858z" id="svg_405" fill="#007fff"/>
   <path stroke="null" d="m770.49151,899.09456c-8.37472,1.75599 -15.84893,9.2302 -17.55991,17.46985c-2.56645,12.24691 5.71823,24.35873 18.19026,26.70006c7.33914,1.35076 15.21858,-1.35076 20.48656,-7.06899c10.8061,-11.84168 5.8533,-30.97746 -9.36529,-36.24543c-2.97168,-1.03558 -8.87,-1.44081 -11.75162,-0.85549z" id="svg_425" fill="#007fff"/>
   <path stroke="null" d="m974.86175,940.06767l0,24.3137l24.08858,0l24.08858,0l0,-5.8533l0,-5.8533l44.25996,0l44.21494,0l15.0835,15.0835l15.0835,15.0835l170.19597,0l170.19597,0l79.10961,79.10961l79.10961,79.10961l1.39578,-1.30573l1.35076,-1.30573l0,-15.75888l0,-15.80391l-75.10234,-75.10234l-75.05731,-75.05731l-170.19597,0l-170.19597,0l-15.0835,-15.0835l-15.0835,-15.0835l-49.61798,0l-49.663,0l0,-5.40304l0,-5.40304l-24.08858,0l-24.08858,0l0,24.3137l-0.00003,-0.00007z" id="svg_429" fill="#007fff"/>
   <path stroke="null" d="m1640.5621,937.68132c-3.9172,1.57589 -8.3297,5.53812 -10.71604,9.59041c-3.37691,5.80827 -3.37691,14.58823 0.04503,20.84676c1.75599,3.28685 5.94335,7.24908 9.27523,8.87c1.57589,0.72041 3.10676,1.35076 3.37691,1.35076c0.3602,0 0.49528,-5.8533 0.49528,-20.71168c0,-11.39142 -0.13508,-20.71168 -0.31518,-20.66665c-0.22512,0 -1.17066,0.31518 -2.16122,0.72041l-0.00002,0z" id="svg_430" fill="#007fff"/>
   <path stroke="null" d="m692.55255,978.56438c-4.54757,1.44081 -7.78939,5.89832 -7.74437,10.8061c0,1.48584 0.27015,3.42193 0.67538,4.32243c1.39578,3.37691 4.72766,6.12344 8.3297,6.93391l1.44081,0.31518l0,6.5737l0,6.61873l24.53884,24.53884l24.53884,24.53884l0,20.93681l0,20.93681l20.71168,20.71168l20.71168,20.71168l0,19.13578l0,19.13578l9.59041,9.59041l9.54538,9.54538l73.16626,0l73.16626,0l7.65431,-7.65431l7.65431,-7.65431l108.73632,0l108.73632,0l68.52864,68.52864l68.52864,68.52864l-1.12564,1.48584c-2.43136,3.1968 -3.51199,7.78939 -2.79157,11.84168c0.85549,4.63761 3.37691,8.05954 7.65431,10.40087c2.61147,1.44081 3.10676,1.53087 6.88888,1.53087c4.77269,0 7.11401,-0.90051 10.26578,-4.00726c2.83659,-2.74656 4.09731,-5.62818 4.2774,-9.81554c0.22512,-4.63761 -0.67538,-7.29411 -3.557,-10.49092c-3.96223,-4.32243 -9.50035,-6.03341 -14.81335,-4.54757l-2.47639,0.67538l-69.56422,-69.56422l-69.56422,-69.51919l-111.0326,0l-110.98759,0l-7.87945,7.65431l-7.83442,7.60928l-70.64483,0.04503l-70.68986,0l-8.23965,-8.19462l-8.23965,-8.19462l0,-19.40595l0,-19.36092l-20.48656,-20.48656l-20.48656,-20.48656l0,-20.71168l0,-20.71168l-24.76396,-24.76396l-24.76396,-24.76396l0,-5.89832l0,-5.94335l1.35076,-0.54031c1.66595,-0.67538 4.36746,-3.64705 5.313,-5.80827c1.03558,-2.43136 0.85549,-6.75381 -0.3602,-9.2302c-1.26072,-2.6565 -4.09731,-5.08786 -6.93391,-5.89832c-2.70153,-0.81046 -4.36746,-0.81046 -7.02396,0l-0.00002,0.00003z" id="svg_436" fill="#007fff"/>
   <path stroke="null" d="m723.25987,978.56438c-5.89832,1.84604 -9.2302,8.05954 -7.51924,14.00289c0.58532,2.11619 1.21569,3.10676 3.06173,4.90777c2.56645,2.47639 4.72766,3.37691 8.23965,3.37691c4.14234,0 8.73492,-3.10676 10.35584,-7.02396c0.3602,-0.85549 0.63035,-2.79157 0.63035,-4.36746c0,-5.13289 -3.15177,-9.50035 -7.96949,-10.94116c-2.52142,-0.76543 -4.2774,-0.76543 -6.79884,0.04503l0,-0.00002z" id="svg_437" fill="#007fff"/>
   <path stroke="null" d="m994.35774,1008.73139c-11.30138,3.06173 -18.55046,13.86783 -16.92954,25.30427c0.99055,6.93391 5.76324,13.73274 11.75162,16.74945c9.45532,4.77269 19.49599,3.28685 26.65503,-3.96223c4.68263,-4.72766 6.75381,-9.63543 6.75381,-16.02904c0,-6.39361 -2.07116,-11.30138 -6.75381,-16.02904c-5.6732,-5.71823 -13.95786,-8.05954 -21.47711,-6.03341z" id="svg_450" fill="#007fff"/>
   <path stroke="null" d="m1233.30747,1037.54764l0,24.9891l26.02468,-0.09005l25.97965,-0.13508l0.13508,-24.89904l0.09005,-24.85402l-26.11473,0l-26.11473,0l0,24.9891z" id="svg_451" fill="#007fff"/>
   <path stroke="null" d="m1453.88685,1017.28622c-2.70153,0.85549 -5.98838,3.82716 -7.47422,6.70878c-1.75599,3.37691 -1.75599,8.05954 0,11.61656c2.25127,4.54757 6.34858,7.11401 11.34639,7.15904c3.46696,0.04503 5.6732,-0.63035 8.23965,-2.43136c7.83442,-5.62818 6.79884,-17.83006 -1.89107,-22.24254c-2.83659,-1.44081 -7.20407,-1.80101 -10.22076,-0.81046l0,-0.00002z" id="svg_452" fill="#007fff"/>
   <path stroke="null" d="m905.38757,1060.46556c-5.58315,2.07116 -9.00508,7.06899 -9.05011,13.10239c0,4.2774 1.30573,7.20407 4.54757,10.13072c5.313,4.86274 12.96731,4.86274 18.37035,-0.09005c3.10676,-2.83659 4.45751,-5.80827 4.45751,-10.04066c0,-5.17792 -2.97168,-10.08569 -7.60928,-12.51705c-2.2963,-1.17066 -8.19462,-1.53087 -10.71604,-0.58532l0,-0.00002z" id="svg_454" fill="#007fff"/>
   <path stroke="null" d="m793.85968,1109.18303c-4.2774,1.57589 -8.1496,5.53812 -9.45532,9.81554c-0.81046,2.61147 -0.3602,8.1496 0.85549,10.53595c1.53087,2.97168 4.32243,5.76324 7.20407,7.15904c2.11619,1.03558 3.10676,1.26072 6.12344,1.26072c3.0167,0 4.00726,-0.22512 6.16847,-1.26072c2.74656,-1.35076 6.93391,-5.49309 7.38416,-7.33914l0.27015,-1.08061l7.74437,0l7.69934,0l24.9891,24.9891l24.9891,24.9891l37.86635,0l37.82133,0l6.84387,-6.88888l6.84387,-6.84387l0,-20.98182l0,-20.98182l3.10676,-2.97168l3.10676,-3.0167l78.97453,0l78.9295,0l101.08199,101.08199l101.08199,101.08199l12.60711,0l12.60711,0l18.1002,18.1002l18.14523,18.14523l0,22.06243l0,22.06243l20.93681,20.93681l20.93681,20.93681l0,8.64488l0,8.68991l4.05228,0l4.05228,0l0,-10.26578l0,-10.22076l-20.93681,-20.93681l-20.93681,-20.93681l0,-22.28757l0,-22.28757l-20.3965,-20.3965l-20.35147,-20.35147l-12.60711,0l-12.60711,0l-101.08199,-101.08199l-101.08199,-101.08199l-82.39647,0l-82.39647,0l-5.53812,5.53812l-5.49309,5.49309l0,20.80173l0,20.80173l-4.36746,4.54757l-4.41249,4.50254l-34.44442,0l-34.44442,0l-24.9891,-24.9891l-24.9891,-24.9891l-9.05011,0l-9.00508,0l-1.03558,-2.43136c-1.35076,-3.33188 -4.05228,-6.25853 -7.06899,-7.74437c-3.1968,-1.57589 -8.3297,-1.9361 -11.43645,-0.81046l-0.00002,-0.00005z" id="svg_455" fill="#007fff"/>
   <path stroke="null" d="m975.62717,1123.18593c-0.18011,0.13508 -0.31518,10.58096 -0.31518,23.18807l0,22.87289l22.73783,0l22.73783,0l0,-23.18807l0,-23.18807l-22.42264,0c-12.33696,0 -22.60274,0.13508 -22.73783,0.31518l-0.00002,0z" id="svg_456" fill="#007fff"/>
   <path stroke="null" d="m1249.78677,1135.25272c-9.36529,2.38635 -16.92954,9.86055 -19.40595,19.13578c-0.85549,3.24182 -0.85549,9.95061 0,13.23746c2.34133,8.91503 10.04066,16.61437 18.95569,18.95569c3.37691,0.85549 9.59041,0.85549 13.01234,0c4.90777,-1.26072 8.28468,-3.24182 12.15685,-7.15904c5.80827,-5.8533 8.19462,-11.97676 7.74437,-19.85619c-0.40523,-6.75381 -2.88162,-12.33696 -7.69934,-17.15468c-3.10676,-3.10676 -5.80827,-4.81772 -10.13072,-6.39361c-3.82716,-1.39578 -10.71604,-1.75599 -14.63326,-0.76543l0.00002,0.00002z" id="svg_457" fill="#007fff"/>
   <path stroke="null" d="m818.66867,1142.05156c-8.55483,2.2963 -15.71387,9.45532 -18.28031,18.32534c-0.99055,3.46696 -0.99055,10.22076 0,13.64269c2.61147,9.00508 9.90558,16.1191 18.91066,18.41538c8.5098,2.16122 18.19026,-0.58532 24.53884,-7.02396c10.04066,-10.13072 10.08569,-26.29483 0.04503,-36.38052c-2.6565,-2.70153 -6.43864,-5.40304 -7.87945,-5.62818c-0.27015,-0.04503 -0.67538,-0.18011 -0.94553,-0.3602c-2.74656,-1.66595 -11.79665,-2.25127 -16.38924,-0.99055z" id="svg_462" fill="#007fff"/>
   <path stroke="null" d="m992.01641,1212.74142c-8.37472,2.25127 -15.21858,9.41031 -17.42483,18.19026c-0.99055,3.9172 -0.67538,10.04066 0.72041,13.73274c2.34133,6.16847 6.52867,10.85112 12.20188,13.73274c4.45751,2.20624 7.69934,2.88162 12.56208,2.56645c7.69934,-0.45026 14.36309,-4.32243 18.82061,-10.85112c1.30573,-1.9361 2.2963,-3.64705 2.16122,-3.78214c-0.13508,-0.13508 -0.09005,-0.45026 0.18011,-0.76543c1.53087,-1.84604 2.25127,-9.68046 1.30573,-14.27304c-1.80101,-8.59985 -9.18518,-16.34422 -17.74,-18.59549c-3.28685,-0.85549 -9.54538,-0.81046 -12.7872,0.04503z" id="svg_468" fill="#007fff"/>
   <path stroke="null" d="m1447.76339,1344.62078c-6.39361,1.71096 -12.60711,6.75381 -15.39868,12.427c-2.16122,4.45751 -3.06173,9.54538 -2.38635,14.04792c1.66595,11.43645 10.94116,20.12635 22.3326,20.89179c11.34639,0.76543 21.88234,-6.88888 24.80899,-17.92011c0.85549,-3.1968 0.85549,-9.00508 0,-12.33696c-2.11619,-8.1496 -8.96006,-14.99346 -17.10965,-17.10965c-3.28685,-0.85549 -9.09512,-0.81046 -12.24691,0l0,0.00002z" id="svg_485" fill="#007fff"/>
   <path stroke="null" d="m1535.02259,1344.6658c-7.87945,2.11619 -14.49818,8.73492 -16.88451,16.79447c-1.03558,3.51199 -0.94553,9.99564 0.18011,13.64269c1.75599,5.71823 6.70878,11.57153 12.0668,14.27304c13.64269,6.88888 29.67173,-0.13508 34.2193,-14.99346c1.12564,-3.73711 0.90051,-10.17575 -0.45026,-14.04792c-2.74656,-7.83442 -9.00508,-13.68772 -16.79447,-15.71387c-3.28685,-0.85549 -9.09512,-0.81046 -12.33696,0.04503l0,0.00002z" id="svg_486" fill="#007fff"/>
   <path stroke="null" d="m1627.7749,1344.62078c-8.01451,2.25127 -14.81335,9.14015 -16.92954,17.10965c-0.85549,3.33188 -0.85549,9.14015 0,12.33696c2.25127,8.5098 9.36529,15.35366 18.05518,17.42483c3.51199,0.81046 9.14015,0.63035 12.11182,-0.40523l1.80101,-0.63035l0.13508,-22.55772l0.09005,-22.55772l-1.66595,-0.54031c-2.74656,-0.85549 -10.8061,-0.94553 -13.59766,-0.18011z" id="svg_487" fill="#007fff"/>
   <path stroke="null" d="m1362.71044,1348.8982c-8.96006,1.35076 -16.07407,7.06899 -19.40595,15.57878c-1.08061,2.74656 -1.21569,3.73711 -1.21569,8.28468c0,4.54757 0.18011,5.53812 1.21569,8.23965c2.88162,7.38416 8.64488,12.74219 16.02904,14.90341c1.48584,0.45026 4.14234,0.72041 6.5737,0.72041c2.43136,0 5.08786,-0.27015 6.5737,-0.72041c10.40087,-3.06173 17.51488,-12.427 17.51488,-23.14306c0,-3.78214 -0.76543,-6.93391 -2.56645,-10.76107c-4.23239,-8.87 -15.03847,-14.63326 -24.71893,-13.10239z" id="svg_488" fill="#007fff"/>
   <path stroke="null" d="m1312.10191,1433.50089c-8.59985,2.74656 -15.35366,9.81554 -17.33477,18.1002c-0.3602,1.57589 -0.67538,3.73711 -0.67538,4.77269l0,1.9361l24.9891,0l24.9891,0l0,-2.16122c0,-5.08786 -2.92665,-11.79665 -6.88888,-15.84893c-5.08786,-5.22295 -10.94116,-7.65431 -18.19026,-7.60928c-2.92665,0 -5.26797,0.27015 -6.88888,0.81046l-0.00003,-0.00002z" id="svg_498" fill="#007fff"/>
   <path stroke="null" d="m1403.63852,1433.3208c-4.09731,0.90051 -8.91503,3.60203 -12.0668,6.75381c-4.2774,4.23239 -7.42919,11.21133 -7.42919,16.29919l0,1.9361l24.9891,0l24.9891,0l0,-1.9361c0,-5.22295 -2.97168,-11.79665 -7.20407,-16.07407c-6.2135,-6.30355 -14.76832,-8.82497 -23.27812,-6.97893l-0.00002,0z" id="svg_499" fill="#007fff"/>
   <path stroke="null" d="m1491.393,1433.54592c-4.68263,1.26072 -7.51924,2.88162 -11.1663,6.52867c-4.50254,4.45751 -7.15904,10.04066 -7.47422,15.75888l-0.09005,2.25127l25.07914,0.13508l25.07914,0.09005l0,-1.21569c-0.04503,-2.47639 -1.39578,-7.60928 -2.74656,-10.40087c-1.62092,-3.33188 -5.80827,-7.96949 -9.00508,-10.04066c-5.71823,-3.64705 -13.32751,-4.86274 -19.6761,-3.10676l0.00003,0.00002z" id="svg_500" fill="#007fff"/>
  </g>
 </g>
</svg>