<?xml version="1.0" standalone="no"?>
<!DOCTYPE svg PUBLIC "-//W3C//DTD SVG 20010904//EN"
 "http://www.w3.org/TR/2001/REC-SVG-20010904/DTD/svg10.dtd">
<svg version="1.0" xmlns="http://www.w3.org/2000/svg"
 width="2560.000000pt" height="1600.000000pt" viewBox="0 0 2560.000000 1600.000000"
 preserveAspectRatio="xMidYMid meet">

<g transform="translate(0.000000,1600.000000) scale(0.100000,-0.100000)"
fill="#000000" stroke="none">
<path d="M312 14087 l-2 -1908 577 -582 c550 -554 1291 -1301 1933 -1950 l295
-297 269 0 269 1 66 -65 67 -66 142 0 142 0 69 -72 c56 -58 68 -75 60 -89 -16
-30 -10 -66 16 -97 32 -38 72 -48 118 -28 42 17 57 41 57 91 0 63 -71 111
-131 88 -25 -10 -31 -6 -95 58 l-68 69 -146 0 -146 0 -69 70 -69 70 -277 0
-276 0 -163 168 c-90 92 -607 615 -1149 1162 -543 547 -1097 1107 -1231 1243
l-245 249 -5 1896 -5 1897 -3 -1908z m4017 -4992 c16 -8 34 -28 40 -45 29 -85
-78 -153 -136 -86 -39 45 -23 114 31 136 29 12 33 12 65 -5z"/>
<path d="M1932 14793 l-2 -1201 -26 -31 -26 -31 -237 0 -238 0 -41 -42 -42
-42 0 -995 1 -996 671 -680 c369 -374 797 -809 951 -967 l280 -288 476 0 476
0 218 -218 218 -218 -7 -41 c-12 -76 48 -135 120 -117 33 8 76 58 76 89 0 74
-79 128 -139 96 -14 -8 -56 29 -242 215 l-224 224 -480 0 -480 0 -721 728
c-396 400 -822 831 -947 958 l-227 231 0 990 0 989 33 32 33 32 240 0 240 0
27 28 27 28 -3 1215 -2 1214 -3 -1202z m2817 -5709 c39 -33 42 -80 8 -120 -49
-56 -137 -20 -137 57 0 29 7 43 31 63 17 14 39 26 49 26 10 0 32 -12 49 -26z"/>
<path d="M2060 14698 l0 -1292 -27 -28 -27 -28 -256 0 -256 0 -27 -28 c-23
-24 -27 -37 -27 -88 0 -50 4 -64 23 -82 23 -21 30 -22 278 -22 l255 0 27 -28
c33 -34 34 -62 4 -90 -23 -21 -30 -22 -278 -22 -254 0 -256 0 -277 -23 -32
-34 -31 -122 3 -159 l24 -28 254 0 253 0 27 -28 c33 -34 34 -62 4 -90 -23 -21
-30 -22 -278 -22 l-254 0 -28 -25 c-23 -22 -27 -34 -27 -82 0 -48 4 -61 27
-85 l27 -28 256 0 c236 0 258 -1 273 -18 23 -25 21 -45 -6 -70 -23 -21 -30
-22 -279 -22 -304 0 -288 7 -288 -117 0 -119 -17 -113 308 -113 269 0 271 0
286 -22 22 -32 20 -61 -7 -86 -23 -21 -30 -22 -283 -22 -259 0 -261 0 -282
-23 -32 -34 -32 -134 1 -165 23 -21 30 -22 278 -22 254 0 256 0 277 -23 27
-29 29 -78 4 -100 -16 -15 -47 -17 -219 -17 -234 0 -233 0 -233 -92 0 -44 4
-59 23 -76 22 -21 32 -22 217 -22 l194 0 28 -27 28 -27 0 -230 0 -229 637
-639 637 -638 121 0 120 0 80 80 c86 87 109 96 155 60 62 -49 160 -3 160 75 0
47 -14 71 -52 91 -55 29 -124 -2 -143 -63 -4 -17 -14 -23 -33 -23 -21 0 -47
-20 -112 -85 l-85 -85 -106 0 -107 0 -626 633 -626 632 0 210 0 211 -39 38
-39 38 -177 -2 c-171 -1 -179 0 -201 21 -26 25 -32 77 -12 97 8 8 68 12 202
12 l190 0 28 27 c23 22 28 35 28 73 0 39 -5 51 -33 78 l-33 32 -253 0 c-288 0
-280 -2 -281 81 0 79 -2 79 290 79 l254 0 28 27 c38 36 40 108 5 141 -23 21
-30 22 -288 22 -193 0 -268 3 -277 12 -7 7 -12 37 -12 68 0 92 -7 90 290 90
l254 0 28 27 c38 36 35 62 -10 106 l-38 37 -245 0 c-276 0 -279 1 -279 72 0
67 5 68 291 68 l255 0 27 28 c22 23 27 37 27 78 0 44 -4 54 -33 82 l-33 32
-255 0 c-235 0 -257 1 -272 18 -22 25 -21 75 1 95 16 15 50 17 270 17 l252 0
35 37 c48 51 47 87 -3 136 l-38 37 -251 0 c-249 0 -252 0 -267 22 -20 29 -20
67 0 96 15 22 18 22 273 22 l257 0 37 38 37 38 0 1307 c0 1155 -2 1307 -15
1307 -13 0 -15 -150 -15 -1292z m1884 -4797 c48 -42 35 -119 -23 -139 -77 -27
-142 59 -95 126 30 43 78 48 118 13z"/>
<path d="M2220 13488 l0 -2503 451 -457 451 -458 57 0 56 0 83 -83 c81 -81 82
-83 71 -115 -35 -100 87 -177 162 -103 31 31 39 83 19 122 -16 29 -68 52 -104
45 -29 -6 -38 1 -121 84 l-90 90 -56 0 -57 0 -446 453 -446 452 0 2488 c0
2204 -2 2487 -15 2487 -13 0 -15 -285 -15 -2502z m1314 -3587 c48 -41 35 -119
-23 -139 -81 -28 -144 64 -91 131 30 38 75 41 114 8z"/>
<path d="M2360 13522 l0 -2468 401 -407 401 -407 42 0 c68 0 86 27 86 127 0
99 11 113 91 113 30 0 60 -5 67 -12 7 -7 12 -35 12 -63 0 -45 -3 -53 -26 -65
-36 -20 -57 -65 -50 -106 9 -45 48 -74 101 -74 108 0 133 135 34 185 -27 14
-29 19 -29 74 0 80 -14 91 -112 91 -104 0 -116 -14 -120 -135 l-3 -90 -40 -3
-40 -4 -387 394 -387 393 -1 2463 c0 2455 0 2462 -20 2462 -20 0 -20 -7 -20
-2468z m1161 -3192 c27 -15 51 -67 43 -93 -20 -68 -94 -89 -139 -41 -64 69 14
177 96 134z"/>
<path d="M2520 13598 l0 -2393 232 -232 231 -231 -13 -31 c-7 -18 -10 -45 -6
-65 19 -101 173 -101 192 0 14 74 -42 132 -115 120 -36 -6 -37 -4 -263 222
l-228 227 0 2387 c0 2116 -2 2388 -15 2388 -13 0 -15 -272 -15 -2392z m595
-2873 c34 -33 34 -83 0 -115 -53 -50 -135 -13 -135 61 0 71 85 105 135 54z"/>
<path d="M2660 13700 l0 -2291 371 -374 372 -375 192 0 193 0 12 -30 c17 -41
46 -60 93 -60 73 0 122 85 87 151 -13 24 -61 49 -94 49 -28 0 -86 -44 -86 -66
0 -12 -33 -14 -188 -14 l-187 0 -363 363 -362 362 0 2288 c0 2280 0 2287 -20
2287 -20 0 -20 -7 -20 -2290z m1278 -2966 c54 -37 46 -115 -14 -140 -39 -16
-74 -7 -98 28 -52 74 38 164 112 112z"/>
<path d="M2820 13852 l0 -2139 23 -21 23 -22 521 0 c491 0 521 -1 536 -18 21
-23 22 -81 1 -110 l-15 -22 -458 0 -458 0 -21 -23 c-18 -19 -22 -35 -22 -93 0
-61 3 -74 23 -92 23 -22 25 -22 478 -22 341 0 458 -3 467 -12 16 -16 16 -90 0
-106 -9 -9 -95 -12 -323 -12 -360 0 -345 4 -345 -91 0 -49 4 -59 33 -87 l33
-32 306 0 306 0 81 -87 81 -87 0 -136 0 -135 -78 -78 c-69 -69 -81 -77 -115
-77 -49 0 -73 -13 -93 -52 -21 -40 -11 -91 23 -118 29 -23 98 -27 124 -7 38
29 49 84 27 132 -11 25 -8 30 65 103 l77 77 0 150 0 150 -98 98 -97 97 -300 0
-299 0 -28 27 c-22 21 -28 36 -28 70 0 73 1 73 348 72 224 -1 306 2 317 11 9
8 15 30 15 59 0 39 -5 52 -28 74 l-28 27 -450 0 c-337 0 -453 3 -462 12 -7 7
-12 39 -12 73 0 51 4 65 23 83 23 22 25 22 478 22 341 0 458 3 467 12 7 7 12
37 12 68 0 46 -4 61 -23 78 l-23 22 -516 0 c-486 0 -516 1 -531 18 -16 17 -17
181 -17 2150 0 1415 -3 2132 -10 2132 -7 0 -10 -719 -10 -2138z m1112 -3523
c25 -13 50 -72 41 -96 -22 -64 -93 -84 -138 -38 -67 66 14 179 97 134z"/>
<path d="M2960 14077 l0 -1912 183 -183 182 -182 360 0 359 0 28 -27 28 -27 0
-376 0 -375 85 -85 85 -85 0 -236 0 -236 -26 -13 c-59 -32 -68 -119 -17 -160
29 -23 98 -27 124 -7 24 18 39 52 39 87 0 37 -47 90 -79 90 -21 0 -21 4 -21
243 l0 242 -85 85 -85 85 0 380 0 381 -28 27 -28 27 -360 0 -360 0 -182 183
-182 183 0 1902 c0 1261 -3 1902 -10 1902 -7 0 -10 -644 -10 -1913z m1372
-3748 c25 -13 50 -72 41 -96 -22 -64 -93 -84 -138 -38 -67 66 14 179 97 134z"/>
<path d="M3120 14112 l0 -1877 138 -138 137 -137 388 0 389 0 29 -29 29 -29 0
-403 0 -403 120 -121 120 -122 0 -400 0 -399 -56 -60 c-55 -58 -57 -59 -109
-59 -63 0 -101 -28 -111 -81 -18 -94 99 -153 168 -83 28 28 30 34 25 83 l-5
53 54 54 54 53 0 426 0 425 -120 122 -120 122 0 403 0 404 -38 37 -38 37 -384
0 -385 0 -132 132 -133 133 0 1867 c0 1239 -3 1868 -10 1868 -7 0 -10 -633
-10 -1878z m1224 -4211 c48 -42 35 -119 -23 -139 -77 -27 -142 59 -95 126 30
43 78 48 118 13z"/>
<path d="M3710 14262 l0 -1727 78 -78 77 -77 236 0 235 0 32 -33 32 -33 0
-580 0 -579 135 -135 135 -135 0 -370 0 -370 115 -115 115 -115 0 -145 0 -145
266 -266 266 -266 -12 -35 c-37 -102 79 -181 158 -108 76 71 -2 199 -99 163
-26 -10 -36 -1 -298 261 l-271 272 0 145 0 144 -110 110 -110 110 0 380 0 380
-130 130 -130 130 0 576 0 576 -45 42 -45 41 -238 0 -238 0 -67 68 -67 68 0
1722 c0 1141 -3 1722 -10 1722 -7 0 -10 -583 -10 -1728z m1849 -5178 c60 -50
27 -147 -49 -147 -76 0 -109 97 -49 147 17 14 39 26 49 26 10 0 32 -12 49 -26z"/>
<path d="M4250 14617 l0 -1372 145 -145 145 -145 0 -860 1 -860 134 -137 135
-137 0 -378 0 -378 132 -132 131 -132 -31 -29 c-26 -25 -32 -38 -32 -72 0 -53
42 -100 90 -100 125 0 148 157 28 196 -15 5 -88 73 -162 151 l-136 141 0 379
0 378 -130 130 -130 130 0 865 0 865 -150 150 -150 150 0 1357 c0 899 -3 1358
-10 1358 -7 0 -10 -464 -10 -1373z m920 -4725 c53 -67 -11 -158 -91 -130 -38
13 -64 65 -50 100 25 66 100 82 141 30z"/>
<path d="M4390 14652 l0 -1337 140 -140 140 -140 0 -865 0 -865 135 -135 135
-135 0 -315 0 -316 45 -44 c35 -34 42 -47 35 -61 -21 -38 -7 -99 29 -126 26
-20 95 -16 124 7 33 27 44 78 24 117 -21 40 -57 57 -107 50 -38 -5 -44 -2 -80
36 l-39 42 -1 315 0 315 -135 135 -135 135 0 855 0 855 -145 145 -145 145 0
1332 c0 882 -3 1333 -10 1333 -7 0 -10 -453 -10 -1338z m753 -4324 c53 -28 64
-92 22 -133 -64 -65 -166 5 -131 90 22 51 63 68 109 43z"/>
<path d="M4600 14692 l0 -1297 135 -135 135 -135 0 -855 0 -855 215 -215 215
-215 0 -475 1 -475 63 -69 c57 -61 63 -71 54 -92 -6 -12 -8 -38 -4 -58 20
-108 178 -100 193 10 5 36 1 46 -25 75 -26 29 -36 33 -76 34 -41 0 -50 5 -101
55 l-55 54 0 472 0 472 -220 223 -219 224 -1 845 0 846 -140 144 -139 145 -1
1288 c0 1137 -2 1287 -15 1287 -13 0 -15 -151 -15 -1298z m969 -4798 c29 -37
27 -85 -4 -114 -75 -71 -178 32 -114 114 16 20 29 26 59 26 30 0 43 -6 59 -26z"/>
<path d="M4780 14763 l0 -1228 150 -159 150 -159 0 -228 c0 -202 2 -231 17
-249 16 -19 29 -20 213 -20 192 0 197 0 218 -23 28 -30 29 -82 3 -97 -12 -6
-99 -10 -214 -10 -189 0 -194 0 -215 -23 -32 -34 -32 -134 1 -165 22 -21 32
-22 220 -22 191 0 196 -1 211 -22 23 -33 21 -105 -3 -118 -12 -6 -99 -10 -213
-10 l-194 0 -22 -30 c-34 -45 -31 -118 6 -153 l28 -27 195 0 c138 0 198 -3
207 -12 16 -16 15 -103 0 -116 -8 -5 -101 -12 -215 -14 -241 -5 -243 -6 -243
-98 0 -49 4 -60 28 -83 l28 -27 185 0 c131 0 189 -4 197 -12 17 -17 15 -93 -2
-108 -10 -8 -62 -12 -155 -12 -177 -1 -181 -3 -181 -97 0 -97 6 -101 158 -101
l121 0 20 -29 c21 -28 21 -40 21 -490 l0 -460 -29 -16 c-65 -33 -80 -101 -35
-154 22 -27 32 -31 74 -31 42 0 52 4 74 31 41 49 30 116 -24 147 l-30 17 0
470 0 471 -38 37 -38 37 -110 0 c-72 0 -114 4 -122 12 -7 7 -12 30 -12 53 0
23 5 46 12 53 8 8 55 12 144 12 128 0 134 1 163 26 28 23 31 31 31 83 0 50 -4
61 -28 84 l-28 27 -183 0 c-163 0 -185 2 -197 18 -19 24 -17 46 4 65 16 15 45
17 203 17 l185 0 32 33 c28 29 32 40 32 88 0 47 -4 59 -28 82 l-28 27 -185 0
c-181 0 -186 1 -207 23 -27 28 -28 68 -4 90 16 15 46 17 214 17 190 0 195 0
216 23 18 19 22 35 22 87 0 56 -3 68 -27 92 l-27 28 -197 0 c-193 0 -198 1
-213 22 -24 34 -20 78 11 110 l27 28 191 0 c173 0 194 2 208 18 27 30 22 91
-10 124 l-27 28 -181 0 c-244 0 -225 -23 -225 270 l0 224 -155 157 -155 157 0
1221 c0 807 -3 1221 -10 1221 -7 0 -10 -416 -10 -1227z m784 -4448 c55 -51 20
-145 -54 -145 -47 0 -80 35 -80 87 0 41 40 83 80 83 15 0 39 -11 54 -25z"/>
<path d="M4932 14788 l-2 -1207 390 -393 389 -393 1 -1575 0 -1576 -72 -71
c-56 -56 -76 -70 -88 -63 -39 25 -110 -2 -130 -49 -37 -91 52 -172 139 -127
43 23 64 84 42 125 -8 14 4 32 60 90 l69 73 0 1590 0 1590 -392 395 -393 394
-5 1202 -5 1202 -3 -1207z m632 -5309 c56 -44 19 -142 -54 -142 -43 0 -80 37
-80 82 0 71 76 106 134 60z"/>
<path d="M5080 14821 l0 -1169 415 -419 414 -418 1 -1237 c0 -1219 0 -1237
-20 -1243 -10 -3 -31 -20 -46 -37 -21 -26 -25 -39 -20 -66 11 -71 83 -110 144
-78 38 20 52 44 52 88 0 42 -20 72 -60 88 l-30 12 0 1242 0 1241 -415 415
-415 415 0 1167 c0 772 -3 1168 -10 1168 -7 0 -10 -396 -10 -1169z m868 -4502
c19 -6 36 -23 46 -43 42 -89 -74 -165 -134 -88 -35 44 -18 111 34 132 11 5 21
9 22 9 1 1 15 -4 32 -10z"/>
<path d="M5210 14859 l0 -1131 450 -456 450 -457 0 -1320 0 -1320 -140 -145
c-86 -90 -141 -156 -145 -173 -22 -93 98 -156 166 -88 51 52 36 133 -31 161
-16 7 -30 15 -30 19 0 3 45 51 100 106 l100 100 0 1340 0 1340 -450 450 -450
450 0 1127 c0 745 -3 1128 -10 1128 -7 0 -10 -384 -10 -1131z m764 -4958 c48
-42 35 -119 -23 -139 -77 -27 -142 59 -95 126 30 43 78 48 118 13z"/>
<path d="M5360 14903 l0 -1088 450 -455 449 -455 0 -1380 1 -1381 -75 -74 -75
-74 0 -176 0 -176 -68 -67 c-62 -62 -70 -67 -100 -61 -45 9 -88 -12 -106 -51
-19 -40 -20 -56 -4 -90 27 -59 112 -73 159 -26 30 31 39 83 20 120 -8 14 2 30
55 82 l64 63 0 181 0 180 80 80 80 80 0 1389 0 1389 -455 458 -455 459 0 1080
c0 713 -3 1080 -10 1080 -7 0 -10 -369 -10 -1087z m617 -5425 c29 -32 34 -53
21 -88 -21 -61 -98 -74 -138 -23 -43 56 -9 133 59 133 26 0 44 -7 58 -22z"/>
<path d="M5510 14933 l0 -1058 445 -445 445 -446 0 -1450 0 -1450 -45 -44 -45
-44 0 -281 0 -280 -167 -167 c-132 -131 -171 -165 -183 -158 -23 15 -59 12
-91 -7 -104 -62 -19 -217 94 -170 46 20 61 48 54 107 l-6 47 160 159 159 159
0 285 0 286 45 44 45 44 0 1471 -1 1470 -439 443 -440 444 0 1049 c0 926 -2
1049 -15 1049 -13 0 -15 -124 -15 -1057z m449 -5838 c16 -8 34 -28 40 -45 29
-85 -78 -153 -136 -86 -39 45 -23 114 31 136 29 12 33 12 65 -5z"/>
<path d="M5660 14968 l0 -1023 440 -440 440 -441 0 -1729 0 -1729 60 -61 c58
-58 60 -63 50 -90 -15 -40 -4 -80 32 -110 42 -35 91 -34 129 4 80 80 -14 213
-114 160 -19 -11 -27 -6 -79 50 l-58 62 -1 1727 0 1727 -435 440 -434 439 0
1018 c0 898 -2 1018 -15 1018 -13 0 -15 -120 -15 -1022z m1144 -5499 c14 -17
26 -37 26 -45 0 -29 -29 -71 -58 -83 -80 -33 -149 73 -87 134 36 37 86 34 119
-6z"/>
<path d="M5810 15197 l0 -794 69 -67 70 -67 259 2 260 1 231 -233 230 -234 1
-1875 0 -1874 -67 -68 c-57 -57 -69 -65 -86 -57 -27 15 -80 3 -105 -24 -60
-65 -18 -167 69 -167 74 0 125 83 90 149 -8 14 3 31 60 87 l69 68 0 1886 0
1885 -238 238 -237 237 -265 0 -266 0 -62 63 -62 63 0 787 c0 518 -3 787 -10
787 -7 0 -10 -271 -10 -793z m987 -5299 c31 -34 36 -63 18 -98 -40 -78 -155
-47 -155 42 0 67 92 104 137 56z"/>
<path d="M7450 15162 l0 -828 74 -73 74 -73 -5 -62 c-5 -61 -6 -62 -84 -141
l-79 -80 0 -1065 0 -1066 -65 -64 -65 -64 0 -456 0 -456 75 -74 c72 -71 75
-76 75 -121 0 -63 34 -99 94 -99 23 0 51 7 63 15 32 22 46 80 29 119 -19 45
-42 60 -93 61 -40 1 -49 6 -113 70 l-70 69 0 426 0 426 60 59 60 59 1 1071 1
1070 74 69 c72 68 75 70 122 67 40 -1 53 2 74 24 14 14 29 36 32 48 16 65 -48
134 -113 122 -32 -6 -38 -2 -113 72 l-78 78 0 812 c0 716 -2 813 -15 813 -13
0 -15 -99 -15 -828z m295 -987 c62 -61 -7 -166 -89 -135 -25 9 -56 56 -56 84
0 8 12 28 26 45 33 40 83 43 119 6z m-144 -3584 c17 -18 29 -40 29 -56 0 -34
-50 -85 -84 -85 -34 0 -75 38 -82 77 -5 27 -1 37 24 63 39 39 74 39 113 1z"/>
<path d="M7990 14407 l0 -1582 -135 -135 -135 -135 0 -1010 0 -1011 -35 -34
c-32 -31 -35 -39 -35 -92 0 -32 -4 -58 -9 -58 -5 0 -23 -12 -40 -26 -26 -22
-31 -33 -31 -70 0 -61 32 -94 90 -94 23 0 50 5 62 11 26 14 48 67 41 102 -5
26 -54 77 -74 77 -5 0 -9 22 -9 48 0 41 5 53 30 77 l30 29 0 1016 0 1015 135
135 135 135 0 1592 c0 1055 -3 1593 -10 1593 -7 0 -10 -534 -10 -1583z m-269
-4096 c32 -33 36 -58 14 -100 -27 -53 -90 -57 -130 -9 -32 38 -29 81 11 116
34 30 70 28 105 -7z"/>
<path d="M8150 14358 l0 -1633 -145 -147 -145 -147 0 -1143 0 -1143 -102 -102
c-57 -55 -117 -108 -135 -117 -39 -20 -53 -43 -53 -91 0 -71 75 -115 143 -84
56 25 68 117 22 157 l-27 23 91 92 91 93 0 1145 0 1144 145 145 145 145 0
1647 c0 1458 -2 1648 -15 1648 -13 0 -15 -188 -15 -1632z m-431 -4455 c12 -10
24 -34 27 -54 17 -103 -139 -131 -161 -29 -7 30 15 84 37 93 28 12 77 6 97
-10z"/>
<path d="M8300 14308 l0 -1681 -140 -142 -140 -141 0 -945 0 -945 30 -29 c40
-38 38 -60 -5 -81 -102 -48 -72 -185 39 -184 44 1 66 13 84 47 27 49 1 122
-48 138 -15 5 -20 15 -20 39 0 22 -8 40 -25 56 l-25 23 0 936 0 936 140 140
140 140 0 1687 c0 1494 -2 1688 -15 1688 -13 0 -15 -194 -15 -1682z m-178
-3979 c25 -13 50 -72 41 -96 -22 -64 -93 -84 -138 -38 -67 66 14 179 97 134z"/>
<path d="M8440 14282 l0 -1707 -135 -135 -135 -135 0 -915 0 -916 45 -44 45
-44 0 -111 0 -111 -53 -52 -53 -52 -95 0 -95 0 -47 -48 -47 -48 0 -174 0 -174
65 -66 c64 -64 65 -67 54 -98 -34 -99 88 -177 162 -103 38 39 40 97 5 138 -21
24 -31 28 -80 28 -54 0 -57 2 -111 55 l-55 54 0 166 0 165 34 33 c33 32 34 32
132 32 l100 0 57 58 57 58 0 135 0 135 -40 39 -40 39 0 906 0 905 135 135 135
135 0 1712 c0 1706 0 1713 -20 1713 -20 0 -20 -7 -20 -1708z m-303 -4804 c29
-32 34 -53 21 -88 -21 -61 -98 -74 -138 -23 -43 56 -9 133 59 133 26 0 44 -7
58 -22z"/>
<path d="M8590 14234 l0 -1756 -135 -136 -135 -137 0 -811 0 -810 30 -29 30
-29 0 -196 0 -195 -97 -97 -98 -96 -72 -4 c-59 -3 -77 -8 -97 -27 -67 -63 -25
-170 67 -171 55 0 97 43 97 99 0 22 -4 43 -10 46 -19 12 -10 25 17 25 22 0 50
23 130 102 l103 103 0 220 0 221 -30 29 -30 29 0 785 1 786 129 134 130 134 0
1769 c0 1565 -2 1768 -15 1768 -13 0 -15 -202 -15 -1756z m-456 -4333 c48 -42
35 -119 -23 -139 -77 -27 -142 59 -95 126 30 43 78 48 118 13z"/>
<path d="M8720 14203 l0 -1786 -140 -142 -140 -141 0 -739 c0 -719 1 -741 20
-765 18 -23 20 -42 20 -274 l0 -249 -115 -117 -115 -116 0 -330 0 -330 -60
-59 c-53 -52 -64 -59 -94 -57 -45 4 -90 -20 -106 -57 -33 -80 45 -159 128
-130 47 16 66 52 58 113 l-6 52 65 64 65 64 0 331 0 330 105 105 105 105 0
291 c0 247 -2 293 -15 304 -13 11 -15 104 -15 728 l0 715 135 138 135 138 0
1801 c0 1593 -2 1800 -15 1800 -13 0 -15 -205 -15 -1787z m-605 -5123 c29 -11
58 -69 48 -97 -22 -64 -93 -84 -138 -38 -35 34 -33 78 4 116 32 31 45 34 86
19z"/>
<path d="M8880 14162 l0 -1827 -130 -130 -130 -130 0 -576 c0 -563 0 -576 -20
-594 -19 -18 -20 -31 -20 -424 l0 -407 -50 -49 c-36 -36 -50 -57 -50 -77 0
-20 -8 -31 -29 -43 -57 -29 -75 -83 -49 -140 13 -29 55 -55 88 -55 96 0 135
134 53 185 -45 28 -41 52 17 110 l50 49 0 402 c0 388 1 401 20 419 20 18 20
31 20 599 l0 581 130 130 130 130 0 1837 c0 1627 -2 1838 -15 1838 -13 0 -15
-210 -15 -1828z m-341 -4288 c59 -50 26 -144 -50 -144 -86 0 -111 116 -34 158
31 17 51 14 84 -14z"/>
<path d="M9020 14115 l0 -1874 -130 -133 -130 -133 0 -541 0 -540 -35 -34 -35
-34 0 -551 0 -550 -102 -101 c-57 -56 -118 -107 -136 -114 -71 -28 -82 -132
-19 -170 18 -11 42 -20 55 -20 54 0 102 48 102 103 0 22 -24 65 -44 79 -7 5
26 45 82 100 l92 93 0 556 0 555 30 29 30 29 0 545 0 546 135 140 134 140 1
1878 c0 1662 -2 1877 -15 1877 -13 0 -15 -215 -15 -1875z m-471 -4641 c29 -37
27 -85 -4 -114 -75 -71 -178 32 -114 114 16 20 29 26 59 26 30 0 43 -6 59 -26z"/>
<path d="M10350 14862 l0 -1127 115 -115 115 -115 0 -191 c0 -190 0 -192 -23
-207 -31 -20 -51 -69 -43 -103 4 -15 20 -39 37 -55 l29 -27 -1 -119 0 -118
-610 -614 -609 -614 -1 -306 0 -306 -289 -295 -290 -295 0 -290 0 -291 -65
-64 -65 -64 0 -161 0 -161 -63 -62 c-55 -54 -67 -62 -101 -62 -28 0 -45 -7
-67 -29 -40 -40 -40 -89 0 -133 24 -27 36 -33 71 -33 35 0 47 6 72 34 26 29
29 40 25 72 -5 36 -1 41 59 102 l64 65 0 159 0 159 65 70 64 69 1 290 0 290
285 285 285 285 0 320 0 320 610 610 610 610 0 140 0 140 28 13 c32 14 52 49
52 92 0 34 -44 90 -71 90 -18 0 -19 10 -19 208 l0 207 -110 110 -110 110 0
1117 0 1118 -25 0 -25 0 0 -1128z m316 -1776 c57 -48 20 -146 -55 -146 -17 0
-39 10 -55 26 -77 78 27 192 110 120z m-2143 -4008 c50 -26 62 -86 26 -132
-44 -56 -139 -21 -139 51 0 73 55 112 113 81z"/>
<path d="M13049 15673 c-173 -175 -638 -644 -1032 -1042 l-717 -724 0 -636 -1
-636 -779 -785 -779 -785 -1 -210 0 -210 -125 -125 -125 -125 0 -120 0 -121
-53 -52 -53 -52 -75 0 -75 0 -72 -73 -72 -72 0 -481 0 -480 -63 -62 -63 -62
-739 0 -739 0 -62 61 c-61 60 -61 61 -56 109 4 44 2 52 -26 80 -39 39 -88 41
-130 5 -36 -30 -45 -69 -26 -113 17 -42 73 -68 114 -54 25 9 32 5 96 -59 l68
-69 759 0 759 0 74 72 74 71 0 492 0 491 53 52 53 52 80 0 80 0 67 68 67 68 0
109 0 110 125 125 125 125 0 215 0 215 775 780 774 780 1 645 0 645 522 525
c288 289 753 757 1035 1040 282 284 513 519 513 523 0 33 -77 -35 -351 -310z
m-5726 -6603 c79 -63 8 -180 -88 -144 -19 8 -45 55 -45 84 0 29 53 80 83 80
13 0 36 -9 50 -20z"/>
<path d="M23680 13250 l-1915 -1922 -6 -377 c-3 -207 -7 -471 -8 -586 l-1
-211 -225 -224 -225 -225 0 -165 0 -165 140 -140 140 -140 0 -285 0 -286 -45
-44 -45 -44 0 -126 0 -126 48 -47 48 -47 150 0 149 0 89 89 c84 84 91 89 110
75 32 -22 81 -17 115 12 26 21 31 33 31 69 0 53 -29 92 -73 100 -67 13 -122
-35 -120 -104 2 -33 -7 -44 -85 -123 l-87 -88 -130 0 -131 0 -37 38 -37 38 0
109 0 109 40 41 41 42 5 304 6 304 -141 145 -140 145 0 145 0 145 224 230 225
230 0 584 0 585 198 195 c177 176 1495 1499 3045 3057 391 392 568 577 565
589 -2 12 -584 -566 -1918 -1905z m-1486 -4861 c31 -36 32 -54 7 -96 -36 -57
-114 -51 -143 12 -23 52 18 115 76 115 26 0 41 -7 60 -31z"/>
<path d="M25445 14866 c-77 -78 -916 -922 -1865 -1875 l-1725 -1732 -6 -267
c-4 -147 -7 -409 -8 -582 l-1 -315 -215 -215 -215 -215 0 -120 0 -120 155
-155 155 -155 0 -337 c0 -336 0 -338 -21 -338 -11 0 -34 -13 -50 -29 -62 -62
-20 -171 65 -171 25 0 45 9 68 29 27 24 33 36 33 71 0 37 -6 47 -38 75 l-37
32 0 328 0 328 -155 162 -155 163 0 113 0 114 220 220 220 220 0 573 0 574
1863 1864 c1024 1026 1863 1874 1865 1885 2 10 0 18 -5 18 -4 -1 -71 -65 -148
-143z m-3670 -6471 c62 -61 -7 -167 -87 -134 -29 12 -58 54 -58 83 0 8 12 28
26 45 33 40 83 43 119 6z"/>
<path d="M0 14901 c0 -16 19 -44 55 -82 l55 -58 0 -1713 1 -1713 307 -313 307
-313 382 1 381 0 738 -745 738 -745 296 0 295 0 145 -145 c90 -91 154 -146
171 -150 34 -8 94 17 108 43 14 26 14 77 1 103 -13 24 -61 49 -96 49 -17 0
-39 -13 -62 -36 l-35 -35 -106 105 -106 106 -301 0 -302 0 -732 740 -733 740
-381 0 -381 -1 -302 308 -302 308 -1 1714 0 1713 -70 72 c-61 62 -70 68 -70
47z m3929 -5806 c61 -31 59 -120 -4 -149 -39 -19 -74 -10 -99 26 -31 43 -12
108 38 128 29 12 33 12 65 -5z"/>
<path d="M23768 13079 l-1827 -1834 -1 -594 0 -595 -220 -221 -220 -221 0 -84
0 -84 57 -58 57 -58 89 0 88 0 50 -50 49 -50 0 -158 0 -158 75 -74 c74 -74 75
-75 75 -126 0 -60 19 -90 65 -102 40 -11 90 3 110 30 19 29 19 97 0 125 -22
31 -75 46 -111 33 -27 -11 -32 -8 -96 58 l-68 70 0 169 0 169 -53 52 -53 52
-90 0 -90 0 -52 53 -52 53 0 64 1 65 214 217 215 218 0 579 0 580 278 279
c152 153 788 791 1412 1418 2126 2134 1932 1935 1928 1979 l-3 38 -1827 -1834z
m-1574 -4320 c14 -17 26 -42 26 -56 0 -33 -51 -83 -85 -83 -34 0 -85 50 -85
83 0 41 46 87 85 87 25 0 40 -8 59 -31z"/>
<path d="M5996 14870 c-16 -5 -33 -15 -37 -22 -5 -7 -9 -74 -9 -149 0 -115 3
-139 17 -150 20 -17 269 -26 323 -12 38 10 45 24 55 106 l6 47 118 0 117 0
257 -259 257 -258 0 -2383 0 -2383 -135 -137 -135 -136 0 -149 1 -150 124
-130 124 -130 1 -140 0 -140 108 -108 107 -107 157 0 c148 0 158 1 183 23 17
14 28 36 32 63 5 36 1 46 -24 74 -33 37 -19 35 -202 24 l-104 -6 -68 68 -69
68 0 111 0 110 -125 125 -125 125 0 115 0 115 140 140 140 140 0 2417 0 2418
-296 300 -297 300 -147 0 c-148 0 -148 0 -154 24 -4 15 -17 28 -37 35 -37 13
-261 13 -303 1z m1629 -6635 c54 -53 13 -145 -65 -145 -33 0 -70 44 -70 83 0
79 82 116 135 62z"/>
<path d="M585 14793 c-11 -3 -32 -17 -47 -31 -53 -50 -32 -141 37 -161 78 -22
150 49 125 124 -16 49 -67 79 -115 68z m76 -42 c32 -33 36 -58 14 -100 -39
-76 -149 -42 -149 46 0 26 7 42 28 59 37 32 71 30 107 -5z"/>
<path d="M25330 14470 c-146 -148 -941 -947 -1767 -1776 l-1503 -1508 0 -625
0 -626 -155 -155 c-140 -140 -158 -155 -192 -157 -28 -1 -45 -10 -65 -33 -49
-54 -31 -127 38 -156 86 -36 171 69 118 145 -16 23 -15 25 63 105 44 44 112
115 151 156 l72 75 0 306 c0 168 3 449 7 623 l6 317 270 272 c148 150 785 790
1416 1422 1906 1912 1813 1817 1809 1853 -3 29 -14 19 -268 -238z m-3555
-4885 c44 -43 31 -112 -25 -135 -35 -15 -84 0 -100 31 -30 55 10 129 70 129
19 0 40 -9 55 -25z"/>
<path d="M23867 12848 l-1726 -1733 -1 -615 0 -615 -110 -110 -110 -110 0
-115 0 -115 95 -95 c52 -52 95 -101 95 -108 0 -7 -16 -28 -35 -46 -61 -58 -44
-144 35 -167 33 -10 43 -9 72 8 70 41 73 112 7 165 -23 18 -39 40 -39 52 0 14
-37 58 -100 121 l-100 100 0 85 0 85 115 115 115 115 0 615 0 615 512 515
c282 283 1051 1056 1710 1716 982 985 1198 1206 1198 1228 0 14 -2 26 -4 26
-2 0 -780 -780 -1729 -1732z m-1669 -3684 c39 -44 25 -105 -31 -129 -41 -17
-83 -2 -103 37 -47 91 65 168 134 92z"/>
<path d="M588 14522 c-46 -6 -78 -45 -78 -96 0 -37 5 -48 31 -70 57 -48 139
-26 160 43 10 34 9 44 -7 72 -21 36 -64 57 -106 51z m57 -18 c19 -8 45 -55 45
-84 0 -30 -53 -80 -84 -80 -33 0 -75 38 -82 76 -4 24 0 37 21 62 27 32 61 41
100 26z"/>
<path d="M25325 14145 c-148 -149 -903 -907 -1677 -1684 l-1408 -1413 0 -692
0 -693 -23 -21 c-17 -16 -36 -22 -72 -22 -65 0 -105 -35 -105 -92 0 -78 64
-123 134 -94 51 21 75 73 57 122 -12 34 -11 37 15 65 l27 28 6 690 6 690 1079
1083 c594 596 1340 1344 1659 1664 534 536 578 583 575 611 -3 28 -16 17 -273
-242z m-3134 -4564 c77 -77 -25 -188 -107 -117 -56 47 -20 146 52 146 15 0 38
-12 55 -29z"/>
<path d="M10571 14264 c-26 -22 -31 -33 -31 -69 0 -67 33 -100 99 -100 51 0
51 0 121 -77 l70 -76 0 -613 0 -612 -52 -56 c-29 -31 -328 -334 -665 -674
l-613 -617 0 -303 0 -302 -285 -285 -285 -285 0 -301 0 -301 -70 -65 c-65 -61
-70 -68 -70 -107 0 -88 92 -132 158 -76 40 33 48 72 26 119 -17 35 -17 36 4
59 22 23 22 28 22 333 l0 309 285 285 285 285 0 295 0 296 659 665 660 664 0
670 1 670 -80 80 c-75 74 -80 82 -80 121 0 35 -5 47 -31 68 -19 17 -43 26 -64
26 -21 0 -45 -9 -64 -26z m112 -4 c33 -26 43 -70 23 -108 -16 -32 -34 -42 -71
-42 -37 0 -55 10 -70 41 -22 42 -18 67 14 100 35 34 68 37 104 9z m-1728
-4793 c32 -46 4 -117 -50 -131 -35 -9 -79 16 -95 54 -37 89 90 156 145 77z"/>
<path d="M23978 12579 l-1617 -1624 -1 -1305 0 -1305 210 -210 210 -210 0 -50
0 -50 -182 -183 -181 -182 -731 2 -730 3 -7 34 c-11 51 -41 76 -95 76 -60 0
-94 -35 -94 -99 0 -39 5 -49 53 -95 l52 -51 415 0 c228 0 590 -3 803 -7 l389
-6 229 229 229 229 0 95 -1 95 -221 224 -221 224 6 756 c4 416 7 979 7 1251
l0 495 873 875 c480 481 1177 1182 1550 1556 l678 681 -3 88 -3 87 -1617
-1623z m-3070 -5039 c47 -44 36 -111 -23 -136 -43 -18 -81 -4 -104 37 -43 76
63 159 127 99z"/>
<path d="M6041 14109 c-28 -14 -54 -39 -73 -68 -27 -42 -29 -53 -26 -117 4
-86 30 -131 99 -169 48 -26 122 -33 164 -15 17 7 55 -27 253 -223 l232 -232 0
-1477 c0 -1027 -3 -1478 -11 -1478 -17 0 -41 -70 -34 -101 15 -68 117 -94 169
-43 30 31 35 88 11 120 -12 16 -14 216 -15 1519 l0 1500 -245 250 c-195 199
-244 254 -239 270 3 11 8 45 11 75 5 68 -22 128 -80 174 -32 26 -48 31 -105
34 -54 2 -76 -1 -111 -19z m755 -3793 c21 -17 28 -33 28 -59 0 -106 -144 -119
-161 -15 -5 32 -1 41 25 68 37 36 71 39 108 6z"/>
<path d="M24105 12387 l-1490 -1497 -6 -192 c-4 -106 -7 -624 -8 -1151 l-1
-957 122 -126 c117 -120 122 -127 123 -168 1 -49 17 -73 60 -92 87 -36 164 51
124 139 -14 32 -51 51 -93 50 -30 -1 -47 12 -156 122 l-122 123 4 1098 c2 673
8 1105 13 1116 6 9 601 610 1324 1335 723 725 1379 1384 1458 1464 l144 146
-3 43 -3 43 -1490 -1496z m-1124 -4017 c10 -6 26 -24 34 -40 43 -83 -67 -162
-130 -94 -34 37 -33 78 4 115 31 30 59 36 92 19z"/>
<path d="M24086 12068 l-1356 -1362 0 -701 0 -701 65 -65 c62 -63 64 -67 53
-96 -38 -102 89 -177 168 -98 63 63 -1 177 -90 161 -30 -6 -38 -1 -99 63 l-67
69 0 334 c0 184 3 491 7 682 l6 347 1345 1349 1344 1350 69 0 c55 0 69 3 69
15 0 12 -15 15 -79 15 l-79 0 -1356 -1362z m-1092 -2897 c45 -39 37 -109 -15
-136 -40 -21 -57 -19 -90 14 -78 78 22 195 105 122z"/>
<path d="M24210 11958 l-1285 -1291 -3 -522 -2 -522 -26 -11 c-31 -15 -58 -75
-49 -111 16 -64 86 -96 143 -67 38 20 52 44 52 89 0 38 -29 82 -60 92 -20 6
-20 17 -20 510 l0 504 1286 1290 c1201 1206 1289 1291 1320 1291 27 0 34 4 34
20 0 17 -7 20 -52 20 l-53 -1 -1285 -1291z m-1235 -2360 c80 -36 55 -158 -32
-158 -90 0 -113 126 -29 160 29 12 31 12 61 -2z"/>
<path d="M24343 11854 l-1218 -1225 -6 -317 c-4 -174 -7 -562 -8 -862 l-1
-544 -56 -57 c-52 -53 -59 -56 -86 -48 -21 6 -41 4 -63 -5 -69 -29 -86 -102
-37 -157 24 -26 36 -32 72 -32 37 0 48 5 73 33 27 30 29 37 23 84 l-6 52 55
54 55 54 0 426 c0 234 3 625 7 869 l6 444 1223 1226 c673 674 1223 1227 1224
1229 0 1 -9 2 -19 2 -12 0 -471 -454 -1238 -1226z m-1348 -3089 c46 -45 26
-127 -34 -140 -33 -7 -85 15 -95 40 -22 60 16 125 74 125 19 0 40 -9 55 -25z"/>
<path d="M25313 12580 l-283 -285 0 -382 0 -382 -740 -743 -739 -743 -1 -300
0 -301 -141 -139 c-77 -77 -145 -148 -150 -157 -15 -28 -10 -74 11 -101 41
-52 136 -44 165 14 25 48 19 78 -24 119 l-38 37 108 109 109 109 0 300 1 300
734 740 734 740 1 380 0 380 271 271 c224 224 270 275 267 295 -3 21 -42 -15
-285 -261z m-1908 -3415 c37 -36 34 -86 -6 -119 -35 -30 -49 -32 -88 -11 -51
26 -57 90 -14 137 24 27 79 23 108 -7z"/>
<path d="M24688 11994 c-15 -8 -32 -23 -38 -34 -15 -27 -12 -92 5 -114 12 -15
15 -52 15 -162 l0 -142 -690 -694 -689 -693 -1 -276 c0 -231 -2 -279 -15 -289
-21 -18 -29 -76 -15 -111 14 -32 55 -59 90 -59 36 0 77 28 90 61 11 25 11 41
2 75 -8 29 -12 135 -12 297 l0 252 685 685 685 685 0 176 c0 138 3 179 15 195
17 22 20 87 5 115 -12 22 -61 49 -87 49 -10 -1 -30 -7 -45 -16z m117 -45 c21
-39 19 -64 -9 -95 -43 -51 -125 -31 -141 33 -23 92 107 146 150 62z m-1397
-2372 c29 -27 30 -82 0 -114 -27 -29 -76 -30 -112 -2 -48 38 -29 119 34 142
22 8 52 -2 78 -26z"/>
<path d="M24640 10859 l-955 -961 -3 -270 -2 -270 -70 -76 -70 -76 0 -141 0
-141 -65 -64 -66 -65 -53 3 c-49 3 -55 1 -79 -28 -45 -53 -31 -126 30 -155 66
-32 138 12 136 83 0 20 -2 44 -4 53 -2 10 23 45 64 88 l67 71 0 143 0 143 65
64 65 64 0 281 0 280 870 870 c895 895 1034 1038 1028 1056 -2 5 -433 -423
-958 -952z m-1257 -2080 c51 -23 61 -92 21 -133 -32 -31 -71 -34 -107 -6 -33
26 -41 63 -22 101 23 44 64 58 108 38z"/>
<path d="M24722 10652 l-872 -867 -2 -482 -3 -483 -218 -218 -219 -219 -48 5
c-44 4 -52 1 -80 -26 -56 -56 -36 -140 40 -163 33 -10 43 -9 72 8 46 27 64 66
49 112 l-11 36 220 220 220 220 0 485 0 484 623 626 c342 343 658 659 702 702
111 106 408 418 403 423 -2 2 -396 -386 -876 -863z m-1321 -2301 c37 -37 38
-78 4 -115 -64 -69 -173 10 -130 94 29 55 82 64 126 21z"/>
<path d="M16793 11410 l-92 -70 -1519 0 -1519 0 -117 -75 -117 -75 -339 0
-339 0 24 -36 c68 -100 -10 -242 -127 -232 l-38 4 0 -81 0 -80 43 3 c79 5 147
-62 147 -146 0 -24 -5 -52 -10 -63 -10 -18 -7 -19 74 -19 l85 0 -15 28 c-44
85 33 202 134 202 97 0 169 -101 138 -192 l-14 -38 80 0 c77 0 79 0 67 21 -6
13 -9 45 -7 76 12 147 199 183 270 53 19 -35 20 -91 3 -132 -7 -17 4 -18 137
-18 l144 0 47 48 47 48 0 147 0 147 455 0 455 0 0 -96 0 -96 30 26 c72 60 173
37 219 -51 16 -31 14 -99 -4 -133 l-16 -30 182 0 182 0 164 170 165 170 867 0
866 0 108 -108 107 -107 0 -173 0 -174 382 -384 381 -384 142 0 141 0 57 -58
57 -58 1 -134 0 -135 559 -565 560 -565 0 -443 0 -443 565 -568 565 -568 0
-1301 0 -1301 155 -159 155 -159 0 -611 0 -610 350 -353 349 -354 1 -355 0
-355 83 -83 82 -82 980 0 980 0 133 132 132 131 0 315 0 315 -42 46 c-22 25
-82 89 -132 141 -51 52 -156 164 -235 248 l-144 152 -436 0 -436 0 -211 218
c-116 119 -268 276 -337 349 l-127 132 0 158 0 158 -208 208 -207 207 -47 0
-46 0 -171 183 -171 182 0 1320 -1 1320 -559 564 -560 564 0 431 0 431 -570
570 -570 570 0 140 0 140 -186 188 -186 187 -152 0 -151 0 -248 248 -247 247
0 164 0 163 -35 48 c-34 46 -35 50 -35 140 l0 93 -56 63 -56 64 -87 0 -87 0
-62 63 -62 63 0 62 0 62 -412 0 -413 0 -92 -70z m287 -18 c99 -49 108 -197 16
-257 -71 -47 -168 -18 -206 60 -26 53 -25 82 3 135 38 73 115 99 187 62z
m4860 -9199 c100 -68 131 -198 74 -304 -96 -175 -330 -164 -413 21 -37 81 -23
171 38 241 51 60 100 80 186 77 59 -3 77 -8 115 -35z m1273 -503 c33 -26 41
-63 22 -101 -29 -54 -100 -61 -132 -12 -24 36 -19 84 12 111 32 27 64 28 98 2z
m4 -212 c29 -32 34 -53 22 -88 -13 -35 -36 -50 -76 -50 -35 1 -59 19 -72 53
-19 49 22 107 74 107 20 0 39 -8 52 -22z m-586 -187 c31 -32 34 -45 19 -86
-11 -28 -64 -56 -89 -47 -33 11 -61 46 -61 74 0 81 75 114 131 59z m9 -259
c28 -35 25 -69 -10 -104 -26 -25 -36 -29 -63 -24 -80 15 -93 126 -17 154 34
13 68 3 90 -26z m1348 -98 c72 -50 24 -163 -61 -147 -61 12 -81 98 -33 140 32
27 62 29 94 7z m-1356 -144 c25 -26 29 -36 24 -62 -15 -78 -97 -100 -143 -39
-21 27 -15 79 12 106 33 34 70 32 107 -5z m745 -92 c49 -46 16 -138 -49 -138
-41 0 -63 14 -78 50 -14 34 0 83 29 100 28 16 74 11 98 -12z m310 0 c47 -44
14 -138 -48 -138 -42 0 -64 14 -79 50 -14 34 0 83 29 100 28 16 74 11 98 -12z
m305 8 c23 -17 39 -61 31 -83 -3 -10 -15 -28 -26 -40 -53 -60 -155 8 -126 84
13 35 37 52 74 52 17 0 38 -5 47 -13z"/>
<path d="M16971 11347 c-86 -50 -50 -187 49 -187 53 0 100 49 100 104 0 62
-94 114 -149 83z m107 -33 c33 -37 30 -86 -9 -118 -17 -14 -39 -26 -49 -26
-10 0 -32 12 -49 26 -52 44 -37 123 29 147 24 8 53 -3 78 -29z"/>
<path d="M12019 11376 c-100 -57 -25 -213 85 -176 99 32 84 174 -19 186 -25 3
-50 -1 -66 -10z m90 -11 c77 -39 45 -160 -41 -157 -73 2 -102 89 -49 143 33
33 50 35 90 14z"/>
<path d="M12404 11380 c-47 -19 -69 -92 -43 -142 14 -27 74 -51 109 -43 38 8
70 45 77 88 5 32 1 41 -30 72 -36 36 -68 43 -113 25z m97 -29 c53 -54 24 -141
-49 -143 -86 -3 -119 116 -43 157 39 21 59 18 92 -14z"/>
<path d="M0 11216 c0 -12 114 -135 303 -325 166 -168 705 -712 1196 -1208
l894 -903 851 0 852 0 53 -54 c49 -50 52 -55 46 -90 -20 -102 94 -168 166 -97
56 57 29 153 -47 167 -20 4 -46 2 -58 -4 -21 -9 -30 -4 -82 49 l-58 59 -857 0
-856 0 -924 933 c-1521 1535 -1479 1494 -1479 1473z m4345 -2543 c44 -44 35
-115 -17 -137 -39 -17 -74 -9 -98 22 -44 55 -9 132 60 132 23 0 45 -7 55 -17z"/>
<path d="M11789 11141 c-40 -40 -40 -89 0 -133 24 -27 36 -33 71 -33 99 0 137
135 51 180 -47 24 -88 19 -122 -14z m104 7 c50 -26 62 -86 26 -132 -44 -56
-139 -21 -139 51 0 73 55 112 113 81z"/>
<path d="M12189 11141 c-78 -78 4 -199 106 -157 72 30 81 137 15 171 -46 24
-88 19 -121 -14z m122 -10 c37 -37 38 -78 4 -115 -51 -56 -139 -18 -139 61 0
26 7 42 28 59 37 32 71 30 107 -5z"/>
<path d="M12597 11159 c-22 -13 -47 -61 -47 -93 0 -33 43 -82 79 -89 97 -20
161 95 92 164 -23 22 -39 29 -68 29 -21 0 -46 -5 -56 -11z m87 -9 c79 -30 54
-160 -31 -160 -87 0 -114 114 -38 158 25 14 37 15 69 2z"/>
<path d="M2 10994 c3 -41 25 -64 1013 -1060 556 -561 1082 -1092 1169 -1181
l159 -163 518 0 518 0 17 -29 c52 -88 184 -54 184 47 0 51 -30 89 -76 98 -46
8 -90 -11 -106 -47 l-13 -29 -501 0 -501 0 -914 923 c-502 507 -1038 1048
-1191 1202 l-279 280 3 -41z m3535 -2326 c31 -35 35 -57 17 -94 -26 -54 -91
-63 -131 -18 -48 53 -13 134 56 134 26 0 44 -7 58 -22z"/>
<path d="M24582 10296 l-632 -634 0 -128 0 -128 80 -82 c44 -45 80 -90 80
-101 0 -10 -11 -34 -25 -53 -35 -47 -33 -93 4 -131 59 -58 155 -28 168 53 7
47 -15 84 -63 104 -27 11 -34 20 -34 42 -1 20 -20 47 -80 107 l-80 80 0 116 0
115 623 627 622 628 178 -1 c111 0 177 4 177 10 0 6 -71 10 -193 10 l-193 0
-632 -634z m-367 -1131 c52 -51 16 -145 -55 -145 -44 0 -80 39 -80 85 0 46 36
85 80 85 19 0 40 -9 55 -25z"/>
<path d="M24844 10335 l-449 -456 -3 -58 -3 -57 -82 -82 c-81 -80 -83 -82
-113 -70 -104 39 -178 -89 -98 -169 22 -22 32 -25 72 -20 64 7 96 44 89 103
-4 42 -3 43 84 130 l89 89 0 60 0 59 447 448 448 448 137 0 c116 0 138 2 138
15 0 13 -24 15 -153 15 l-154 0 -449 -455z m-627 -757 c30 -28 31 -83 1 -115
-48 -51 -138 -15 -138 54 0 71 86 109 137 61z"/>
<path d="M0 10747 c0 -25 82 -111 563 -595 310 -312 578 -583 596 -602 18 -19
283 -287 589 -595 l557 -559 695 -1 695 0 70 67 c53 51 74 65 85 58 56 -36
140 17 140 88 0 76 -70 121 -141 91 -38 -15 -64 -69 -55 -112 5 -26 -1 -37
-56 -93 l-62 -64 -677 0 -676 0 -1009 1018 c-555 559 -1078 1087 -1161 1172
-139 141 -153 152 -153 127z m3945 -2074 c44 -44 35 -115 -17 -137 -39 -17
-74 -9 -98 22 -44 55 -9 132 60 132 23 0 45 -7 55 -17z"/>
<path d="M8847 10749 c-26 -15 -49 -74 -41 -107 16 -65 84 -98 142 -68 38 20
52 44 52 91 0 52 -44 95 -97 95 -21 0 -46 -5 -56 -11z m82 -10 c31 -11 61 -52
61 -83 0 -8 -12 -28 -26 -45 -67 -80 -188 12 -128 97 9 13 26 27 38 32 11 5
21 9 22 9 1 1 15 -4 33 -10z"/>
<path d="M14939 10721 c-23 -23 -29 -38 -29 -71 0 -114 159 -139 191 -30 30
100 -88 175 -162 101z m126 -16 c51 -50 17 -135 -53 -135 -43 1 -67 16 -81 53
-30 79 74 143 134 82z"/>
<path d="M12203 10726 c-39 -18 -53 -43 -53 -94 0 -50 38 -92 84 -92 27 0 51
-20 171 -140 l140 -140 1081 0 c1068 0 1081 0 1099 20 17 19 31 20 332 20
l313 0 95 -97 95 -98 0 -1546 0 -1546 25 -23 25 -23 0 -901 -1 -901 -649 -652
-648 -653 -299 0 -298 0 -188 -188 -187 -187 0 -330 0 -329 183 -186 c101
-102 492 -497 869 -877 l685 -693 1551 0 1551 0 422 -437 c233 -241 466 -482
519 -536 l95 -98 81 3 81 3 -576 583 -576 583 -1520 -1 -1520 -1 -857 863
-857 863 -1 281 0 281 136 142 136 141 303 0 304 0 574 578 c315 317 624 629
685 692 l112 115 0 946 c0 933 0 946 -20 964 -20 18 -20 31 -20 1564 l0 1546
-137 137 -138 137 -345 1 -345 1 -30 -31 -29 -30 -1021 0 -1020 0 -133 133
c-99 99 -135 142 -143 170 -16 59 -78 88 -136 63z m80 -17 c53 -24 60 -87 17
-131 -26 -25 -36 -29 -63 -24 -38 7 -77 48 -77 81 0 33 46 85 75 85 13 0 35
-5 48 -11z"/>
<path d="M12601 10706 c-88 -49 -50 -186 52 -186 37 0 84 36 92 69 21 95 -62
162 -144 117z m106 -28 c51 -48 15 -138 -56 -138 -71 0 -106 76 -60 134 27 34
82 36 116 4z"/>
<path d="M12999 10691 c-31 -31 -39 -83 -19 -122 13 -22 61 -49 90 -49 51 0
100 49 100 100 0 87 -109 132 -171 71z m130 -17 c45 -57 12 -134 -58 -134 -72
0 -109 84 -59 137 31 33 90 32 117 -3z"/>
<path d="M13421 10707 c-99 -57 -40 -204 73 -183 71 13 101 105 53 161 -27 32
-90 42 -126 22z m109 -32 c50 -53 13 -135 -61 -135 -71 0 -105 85 -54 135 33
34 83 34 115 0z"/>
<path d="M24962 10247 l-402 -403 0 -45 c0 -71 26 -89 127 -89 98 0 113 -12
113 -87 0 -64 -19 -83 -84 -83 -40 0 -48 3 -58 26 -14 30 -56 54 -94 54 -35 0
-94 -59 -94 -94 0 -35 25 -83 49 -96 39 -20 91 -12 122 19 16 16 29 37 29 45
0 13 12 16 63 16 86 0 97 13 97 112 0 65 -3 77 -23 96 -20 19 -35 22 -104 22
-65 0 -83 3 -96 18 -39 43 -34 49 375 459 l393 393 112 0 c106 0 113 1 113 20
0 19 -7 20 -118 20 l-117 0 -403 -403z m-344 -663 c54 -37 46 -115 -14 -140
-84 -35 -154 67 -89 131 28 29 70 32 103 9z"/>
<path d="M2 10468 c3 -53 -137 94 1342 -1400 l790 -798 1141 0 1142 0 119 122
c116 119 120 123 163 123 36 0 48 6 73 34 26 29 30 39 25 75 -12 85 -108 117
-169 56 -24 -25 -29 -37 -27 -70 3 -39 0 -43 -116 -160 l-120 -120 -1095 0
-1096 0 -539 542 c-297 299 -787 790 -1088 1093 l-548 550 3 -47z m4747 -1794
c40 -33 43 -83 6 -119 -50 -51 -135 -15 -135 58 0 36 13 58 45 75 31 17 51 14
84 -14z"/>
<path d="M1051 10484 c-59 -49 -33 -150 43 -170 17 -4 41 1 69 15 37 18 62 21
178 21 l136 0 687 -695 688 -695 278 0 c232 0 280 -2 290 -15 31 -38 125 -23
150 24 18 34 12 88 -14 118 -20 23 -30 27 -67 25 -24 -2 -166 -5 -314 -8
l-271 -5 -683 691 -683 690 -176 0 c-140 1 -181 4 -196 15 -31 23 -80 18 -115
-11z m121 -11 c25 -23 32 -67 14 -101 -26 -51 -92 -59 -131 -16 -73 78 38 188
117 117z m2347 -1378 c63 -32 57 -130 -8 -153 -102 -36 -157 118 -57 158 29
12 33 12 65 -5z"/>
<path d="M25290 10255 c-166 -166 -239 -233 -250 -229 -62 28 -125 9 -147 -44
-25 -59 3 -114 67 -133 30 -9 43 -8 68 5 41 21 55 50 49 101 l-4 43 228 231
c212 215 231 231 264 231 24 0 35 4 35 15 0 11 -11 15 -38 15 -35 0 -49 -12
-272 -235z m-256 -247 c40 -35 43 -78 11 -116 -41 -49 -103 -42 -133 15 -19
35 -14 63 17 94 35 35 71 37 105 7z"/>
<path d="M1 10195 l0 -90 201 -205 c111 -113 576 -582 1032 -1042 l830 -838
1288 0 1288 0 211 215 212 215 51 0 52 0 182 -183 182 -183 0 -736 0 -736 -32
-7 c-69 -15 -101 -75 -74 -138 17 -42 41 -57 92 -57 32 0 44 7 90 58 l54 57
-1 810 0 810 -222 228 -222 228 -96 -1 -95 0 -218 -220 -218 -220 -1242 0
-1243 0 -481 488 c-265 268 -738 746 -1051 1062 l-570 575 0 -90z m5566 -3627
c31 -34 36 -63 18 -98 -15 -29 -49 -50 -81 -50 -28 0 -74 56 -74 90 0 69 92
107 137 58z"/>
<path d="M14712 10137 c-89 -90 -92 -94 -92 -138 0 -42 -3 -48 -30 -59 -67
-28 -82 -109 -31 -161 40 -40 89 -40 133 0 27 24 33 36 33 69 0 42 -34 92 -62
92 -9 0 -13 15 -13 48 0 46 2 50 83 130 l82 82 235 0 235 0 93 -93 92 -92 0
-1546 c0 -1363 2 -1548 15 -1559 13 -11 15 -117 15 -849 l0 -836 -132 -135
c-72 -74 -357 -361 -632 -637 l-501 -503 -326 0 -326 0 -187 -190 -186 -190 0
-611 0 -611 296 -298 c265 -267 295 -300 285 -318 -33 -61 18 -142 89 -142 53
0 100 49 100 104 0 14 -13 40 -29 58 -24 27 -36 33 -75 33 l-47 1 -290 290
-289 289 0 595 0 595 183 183 182 182 327 0 326 0 636 641 636 641 0 858 c0
750 -2 859 -15 870 -13 11 -15 196 -15 1553 l0 1540 -102 103 -102 104 -251 0
-250 0 -93 -93z m-27 -232 c62 -61 -7 -166 -89 -135 -25 9 -56 56 -56 84 0 8
12 28 26 45 33 40 83 43 119 6z m-746 -8161 c31 -40 28 -87 -10 -118 -34 -29
-50 -32 -82 -14 -33 17 -46 39 -47 77 0 75 94 112 139 55z"/>
<path d="M25283 9908 l-313 -313 0 -195 0 -195 -33 -15 c-95 -44 -56 -186 50
-183 49 1 93 48 93 97 0 37 -29 81 -60 91 -19 6 -20 16 -20 193 l0 187 301
301 c237 237 300 306 297 323 -2 17 -60 -35 -315 -291z m-256 -733 c32 -22 43
-65 28 -102 -24 -57 -88 -71 -130 -28 -70 69 22 186 102 130z"/>
<path d="M9884 10190 c-47 -19 -69 -92 -43 -142 14 -27 74 -51 109 -43 44 10
75 50 75 97 0 70 -73 116 -141 88z m97 -29 c37 -38 39 -82 4 -116 -66 -67
-167 4 -130 91 24 58 81 70 126 25z"/>
<path d="M14819 10051 c-40 -41 -41 -99 -2 -136 15 -14 35 -26 43 -26 60 -6
106 16 116 56 6 25 7 25 122 25 112 0 117 -1 144 -27 l28 -27 0 -1591 0 -1592
25 -23 25 -23 0 -677 0 -676 -581 -587 -581 -587 -327 0 -328 0 -241 -249
-242 -249 0 -839 1 -838 912 -918 912 -918 1891 1 1891 0 72 -75 73 -75 81 0
82 0 -140 140 -140 140 -1895 0 -1895 0 -305 307 c-168 170 -556 561 -863 869
l-557 561 0 799 0 799 203 203 202 202 330 0 330 -1 617 623 617 623 1 734 0
733 -30 35 -30 34 0 1582 0 1581 -57 58 -57 58 -209 0 -209 0 -29 -29z m122
-10 c31 -31 36 -59 17 -94 -42 -80 -152 -51 -152 40 0 26 7 42 28 59 37 32 71
30 107 -5z"/>
<path d="M17728 10044 c-69 -37 -64 -136 10 -173 22 -12 22 -13 22 -239 l0
-227 272 -275 c150 -151 526 -530 835 -841 l563 -567 0 -439 0 -438 195 -195
195 -195 1 -1265 0 -1265 365 -369 c354 -359 364 -370 364 -408 0 -107 154
-137 189 -37 14 40 4 83 -26 111 -19 18 -36 23 -73 22 l-49 0 -351 351 -350
351 0 1280 0 1279 -180 180 -180 180 0 440 0 440 -302 305 c-167 168 -549 553
-850 856 l-548 550 0 205 c0 203 0 205 25 239 35 48 33 84 -9 126 -38 38 -73
43 -118 18z m110 -30 c47 -53 12 -134 -57 -134 -63 0 -101 57 -76 116 24 58
88 67 133 18z m2847 -6790 c19 -8 45 -55 45 -83 0 -11 -11 -32 -24 -47 -46
-54 -127 -30 -142 42 -4 24 0 37 21 62 27 32 61 41 100 26z"/>
<path d="M12204 9968 c-27 -13 -44 -49 -44 -92 0 -59 81 -112 130 -86 21 11
29 5 104 -69 l81 -81 150 0 150 0 87 -87 88 -88 0 -1519 0 -1519 -95 -96 -95
-97 0 -746 0 -747 -53 6 c-47 5 -57 2 -83 -20 -24 -21 -29 -33 -29 -72 0 -62
35 -95 100 -95 36 0 47 5 70 32 23 27 26 37 19 72 -4 23 -8 381 -11 796 l-3
755 100 100 100 100 0 1525 0 1525 -96 98 -95 97 -147 0 -147 0 -76 76 -77 76
15 36 c17 42 11 75 -22 108 -26 26 -81 32 -121 12z m91 -4 c20 -8 45 -56 45
-87 0 -33 -46 -77 -81 -77 -15 0 -40 11 -55 24 -72 61 2 174 91 140z m450
-5249 c38 -37 37 -88 -1 -122 -33 -30 -78 -30 -109 2 -52 51 -16 145 55 145
19 0 40 -9 55 -25z"/>
<path d="M12599 9951 c-40 -40 -40 -89 0 -133 24 -27 36 -33 71 -33 37 0 47 6
75 38 25 29 39 37 66 37 30 0 47 -12 137 -103 l102 -102 0 -1655 0 -1655 -100
-100 -100 -100 0 -610 0 -610 79 -79 c65 -65 78 -83 70 -97 -16 -32 -10 -76
16 -107 33 -39 74 -48 118 -27 105 50 50 203 -66 181 -31 -6 -38 -2 -115 78
l-82 84 0 578 0 579 100 100 100 100 0 1685 0 1685 -98 98 -97 97 -52 0 c-49
0 -52 1 -58 30 -16 71 -112 95 -166 41z m126 -6 c52 -51 16 -145 -55 -145 -44
0 -80 39 -80 85 0 46 36 85 80 85 19 0 40 -9 55 -25z m398 -5167 c50 -26 62
-86 26 -132 -44 -56 -139 -21 -139 51 0 73 55 112 113 81z"/>
<path d="M13429 9951 c-30 -31 -38 -75 -20 -110 8 -14 -3 -31 -60 -87 l-69
-68 0 -1791 0 -1790 -105 -105 -105 -105 0 -110 0 -109 61 -62 c56 -56 60 -64
49 -84 -25 -47 11 -117 68 -135 35 -10 90 13 107 45 37 72 -5 150 -82 150 -21
0 -45 -5 -53 -10 -11 -7 -30 5 -77 53 l-63 61 0 86 0 85 110 114 110 114 0
1781 0 1781 71 71 c69 69 73 71 104 63 41 -12 75 1 104 37 50 64 4 154 -79
154 -33 0 -48 -6 -71 -29z m126 -6 c52 -51 16 -145 -55 -145 -44 0 -80 39 -80
85 0 46 36 85 80 85 19 0 40 -9 55 -25z m-244 -4375 c10 -6 26 -24 34 -40 42
-82 -65 -160 -130 -95 -67 66 14 179 96 135z"/>
<path d="M11795 9937 c-39 -39 -43 -63 -19 -112 19 -40 61 -60 109 -51 33 6
38 3 99 -61 l65 -68 1 -150 0 -150 130 -130 130 -130 0 -881 0 -881 25 -23 25
-23 0 -942 0 -941 -722 -730 c-397 -401 -885 -893 -1085 -1094 l-363 -365 0
-122 0 -122 -29 -16 c-56 -29 -75 -83 -50 -139 15 -33 71 -59 109 -51 36 8 80
58 80 91 0 36 -24 78 -54 94 -26 13 -26 15 -26 129 l0 116 523 525 c287 289
778 782 1090 1096 l567 571 0 965 0 965 -25 23 -25 23 0 876 0 876 -135 135
-135 135 0 150 0 151 -64 63 -64 64 5 51 c7 68 -21 104 -84 113 -39 5 -46 2
-78 -30z m104 8 c31 -15 54 -65 44 -93 -22 -63 -94 -82 -138 -37 -35 34 -33
78 4 116 33 33 50 35 90 14z m-1666 -7017 c50 -26 62 -86 26 -132 -45 -57
-139 -21 -139 54 0 67 58 108 113 78z"/>
<path d="M2 9919 c3 -34 78 -112 987 -1028 l983 -991 687 0 688 0 22 -24 c18
-19 21 -31 16 -59 -8 -39 13 -90 44 -107 99 -52 204 77 124 152 -35 32 -64 39
-108 25 -32 -9 -36 -8 -56 16 l-20 27 -683 0 -682 0 -220 222 c-120 123 -571
578 -1002 1013 -737 744 -783 788 -780 754z m3535 -2061 c31 -34 36 -63 18
-97 -29 -58 -81 -67 -126 -22 -37 38 -39 82 -4 116 32 33 84 34 112 3z"/>
<path d="M17494 9908 c-30 -14 -48 -53 -47 -97 2 -35 -5 -45 -123 -162 l-124
-124 0 -1885 0 -1885 -90 -90 -90 -90 0 -420 0 -421 64 -63 64 -63 -5 -57 c-5
-51 -3 -58 21 -83 35 -34 68 -42 111 -24 47 20 68 68 54 119 -12 46 -42 67
-94 67 -37 0 -47 6 -103 63 l-62 63 0 404 0 405 90 90 90 90 0 1880 0 1880
118 118 c114 113 120 118 145 106 33 -15 72 -5 103 26 18 18 24 35 24 69 0 37
-5 48 -31 70 -32 28 -77 33 -115 14z m102 -22 c21 -17 28 -33 28 -59 0 -91
-110 -120 -152 -40 -19 35 -14 63 17 94 36 35 70 37 107 5z m-302 -5297 c34
-40 33 -74 -3 -110 -35 -35 -71 -37 -105 -6 -40 34 -43 77 -11 115 37 44 83
44 119 1z"/>
<path d="M9884 9770 c-60 -24 -73 -112 -25 -161 40 -40 89 -40 133 0 84 75 -2
204 -108 161z m105 -36 c12 -15 21 -39 21 -54 0 -35 -32 -76 -64 -82 -55 -11
-115 47 -100 96 20 67 103 90 143 40z"/>
<path d="M0 9747 c0 -28 42 -71 1554 -1594 l350 -353 611 0 610 0 110 -110
110 -110 115 0 115 0 95 95 c85 85 130 115 130 85 0 -6 11 -22 25 -35 18 -19
35 -25 69 -25 37 0 48 5 70 31 35 42 35 89 -2 130 -49 55 -137 39 -163 -28 -5
-14 -17 -23 -31 -23 -14 0 -58 -35 -129 -105 l-107 -106 -73 2 -74 3 -120 118
-121 118 -611 0 -610 0 -524 527 c-1461 1471 -1399 1410 -1399 1380z m3947
-1889 c30 -34 34 -55 18 -94 -35 -83 -155 -58 -155 33 0 72 91 112 137 61z"/>
<path d="M18041 9756 c-28 -16 -50 -52 -51 -84 0 -31 26 -79 50 -92 18 -10 20
-21 20 -128 l0 -117 765 -770 764 -770 0 -440 1 -440 195 -195 195 -195 0
-760 0 -760 465 -470 464 -470 0 -1065 1 -1065 205 -205 205 -205 0 -360 0
-360 -95 -102 -96 -102 -34 15 c-83 35 -190 5 -249 -69 -29 -36 -31 -44 -31
-122 0 -78 2 -86 31 -122 47 -58 98 -83 170 -83 53 0 68 4 110 33 88 60 118
169 70 262 l-26 50 100 100 100 100 0 405 0 404 -200 201 -200 201 0 1070 -1
1069 -459 465 -460 465 0 765 -1 765 -189 195 -190 195 0 425 0 425 -769 775
-770 775 0 104 c-1 98 0 104 24 122 13 11 27 35 31 55 16 87 -69 152 -145 110z
m104 -31 c34 -33 34 -83 0 -115 -75 -71 -178 32 -114 114 28 35 80 36 114 1z"/>
<path d="M25292 9717 l-32 -33 0 -304 0 -305 -87 -87 -88 -88 -130 0 -130 0
-80 80 c-75 76 -79 82 -76 120 6 89 -105 136 -170 71 -80 -80 22 -204 124
-150 19 11 28 4 94 -65 l74 -76 152 0 152 0 98 98 97 97 0 301 0 300 28 27
c21 20 38 27 68 27 22 0 45 -5 52 -12 9 -9 12 -95 12 -323 0 -362 -4 -348 91
-343 45 2 54 6 58 23 3 19 3 19 -16 3 -25 -23 -75 -23 -96 0 -15 16 -17 54
-17 329 0 358 4 343 -91 343 -49 0 -59 -4 -87 -33z m-667 -552 c52 -51 16
-145 -55 -145 -44 0 -80 39 -80 85 0 46 36 85 80 85 19 0 40 -9 55 -25z"/>
<path d="M2 9598 c3 -33 74 -107 922 -962 l918 -926 622 0 621 0 150 -150
c122 -122 149 -155 147 -174 -8 -60 59 -121 121 -109 70 14 102 115 52 166
-37 36 -70 42 -115 19 l-38 -19 -154 154 -153 153 -615 0 -616 0 -230 233
c-1675 1694 -1636 1654 -1632 1615z m3534 -2162 c21 -18 28 -32 28 -61 0 -43
-39 -85 -79 -85 -38 0 -85 46 -85 83 1 75 80 111 136 63z"/>
<path d="M13399 9531 c-31 -31 -39 -83 -19 -122 17 -31 68 -52 108 -44 33 6
39 3 98 -56 l64 -63 0 -1902 0 -1901 -45 -44 -45 -44 0 -320 0 -320 -198 -198
-197 -197 -67 0 c-65 0 -66 1 -87 35 -36 61 -105 73 -152 26 -23 -24 -29 -38
-29 -73 1 -64 36 -98 101 -98 24 0 41 9 70 40 l38 40 80 0 79 0 196 201 196
202 0 316 0 317 45 44 45 44 0 1925 0 1925 -65 66 c-64 64 -65 67 -54 98 35
102 -86 179 -162 103z m129 -17 c47 -52 12 -134 -57 -134 -94 0 -114 125 -26
160 28 12 56 3 83 -26z m-548 -5144 c44 -44 33 -111 -22 -134 -39 -17 -82 -4
-105 30 -20 31 -10 88 20 109 30 21 83 19 107 -5z"/>
<path d="M11814 9529 c-25 -13 -54 -60 -54 -89 0 -53 49 -100 103 -100 16 0
66 -44 165 -143 l142 -144 0 -868 0 -868 45 -48 45 -48 0 -833 0 -833 -203
-205 c-1701 -1720 -2001 -2019 -2019 -2017 -10 2 -32 18 -48 35 -24 27 -36 32
-73 32 -52 0 -83 -21 -96 -65 -14 -49 7 -97 52 -119 34 -16 42 -17 75 -4 26 9
42 25 55 51 16 31 24 37 51 37 25 0 41 9 66 37 19 21 515 522 1102 1115 l1068
1076 0 864 0 864 -45 44 -45 44 0 866 0 865 -139 139 -140 139 20 25 c27 34
25 94 -4 127 -25 30 -88 42 -123 24z m103 -31 c30 -34 34 -55 19 -92 -25 -60
-103 -68 -140 -14 -38 54 -2 128 63 128 26 0 44 -7 58 -22z m-1953 -6130 c15
-13 29 -37 32 -55 5 -27 1 -37 -24 -63 -32 -32 -56 -37 -95 -19 -52 24 -60 87
-18 130 35 35 71 37 105 7z"/>
<path d="M12199 9525 c-34 -19 -53 -65 -45 -110 10 -49 55 -78 112 -71 39 5
43 2 97 -52 l57 -58 0 -280 c0 -268 1 -282 20 -299 20 -18 20 -31 20 -1674 l0
-1655 -513 -516 c-283 -283 -548 -551 -590 -595 l-77 -80 0 -90 0 -90 -136
-136 c-130 -130 -137 -136 -163 -126 -71 26 -146 -43 -127 -118 19 -77 114
-98 173 -39 21 21 24 32 21 73 l-3 48 138 143 137 143 0 82 0 81 589 595 590
594 0 1681 1 1681 -25 23 -25 23 0 275 0 275 -61 63 c-51 54 -59 66 -50 83 45
84 -54 173 -140 126z m110 -31 c64 -81 -40 -184 -114 -114 -32 30 -34 84 -3
117 31 33 90 32 117 -3z m-1332 -5814 c28 -10 43 -30 56 -71 8 -27 -23 -77
-54 -88 -100 -35 -154 119 -55 159 11 5 21 9 22 9 1 1 15 -4 31 -9z"/>
<path d="M12619 9525 c-60 -32 -63 -130 -6 -165 35 -21 73 -25 97 -10 11 7 29
-4 73 -48 l57 -56 0 -1377 0 -1376 -95 -99 -94 -99 -1 -648 0 -648 -85 -87
-85 -87 0 -180 0 -181 -75 -74 -75 -75 0 -381 c0 -450 10 -414 -122 -414 -111
0 -118 7 -118 117 0 117 9 113 -243 113 l-207 0 -6 24 c-18 72 -123 98 -170
43 -26 -30 -32 -83 -14 -118 6 -10 25 -26 42 -35 44 -23 91 -11 125 31 l28 35
190 0 c239 0 235 2 235 -109 0 -68 3 -80 23 -99 21 -19 35 -22 118 -22 91 0
96 1 122 28 l27 28 0 370 0 370 75 74 75 74 0 186 0 185 80 80 80 80 0 650 1
650 99 105 100 105 0 1390 0 1391 -55 54 c-53 52 -56 57 -49 93 15 93 -67 155
-147 112z m110 -31 c29 -37 27 -85 -4 -114 -52 -49 -135 -13 -135 59 0 76 94
113 139 55z m-1131 -5690 c27 -31 28 -73 2 -107 -41 -52 -118 -38 -140 27 -29
89 75 150 138 80z"/>
<path d="M13841 9526 c-98 -54 -39 -204 71 -182 29 6 38 1 95 -56 l63 -62 0
-357 c0 -422 -11 -389 127 -389 116 0 123 -6 123 -116 0 -49 -5 -85 -12 -92
-7 -7 -43 -12 -93 -12 -72 0 -84 -3 -103 -23 -19 -20 -22 -35 -22 -112 0 -83
2 -91 27 -117 24 -26 33 -28 98 -28 57 0 75 -4 88 -18 16 -17 17 -111 17
-1153 l0 -1134 -183 -183 -183 -182 -32 11 c-100 35 -177 -87 -103 -162 76
-75 197 1 162 102 -11 31 -10 32 169 218 l180 186 0 1146 0 1146 -23 21 c-19
18 -35 22 -83 22 -93 0 -104 12 -104 119 0 113 7 121 112 121 100 0 108 9 108
120 0 77 -2 86 -27 112 -25 26 -32 28 -113 28 -54 0 -91 5 -98 12 -9 9 -12
105 -12 370 l0 357 -59 64 -59 63 11 41 c24 92 -61 164 -142 119z m109 -31
c31 -33 29 -80 -4 -113 -72 -73 -179 30 -115 112 28 36 86 36 119 1z m-5
-4210 c35 -34 33 -78 -4 -116 -43 -43 -97 -34 -126 20 -42 83 65 162 130 96z"/>
<path d="M16237 9510 c-56 -44 -42 -130 26 -163 31 -16 43 -17 69 -8 32 11 34
10 113 -69 l80 -80 145 0 145 0 87 -87 88 -88 0 -1520 0 -1520 -95 -95 -95
-95 0 -754 c0 -587 -3 -752 -12 -743 -7 7 -31 12 -55 12 -56 0 -93 -37 -93
-93 0 -49 13 -73 52 -93 37 -19 88 -12 113 16 16 18 17 71 16 832 l-2 813 96
95 95 95 0 1530 0 1530 -93 93 -92 92 -150 0 -151 0 -74 75 c-70 70 -73 76
-62 100 19 41 14 81 -14 114 -21 26 -33 31 -69 31 -27 0 -51 -7 -68 -20z m98
0 c30 -11 54 -60 47 -96 -6 -32 -48 -64 -84 -64 -41 0 -78 40 -78 84 0 26 7
40 31 60 34 29 45 31 84 16z m456 -5249 c36 -36 37 -70 3 -110 -36 -43 -82
-43 -119 1 -28 33 -29 74 -3 106 33 39 82 40 119 3z"/>
<path d="M16653 9515 c-34 -24 -47 -76 -29 -120 31 -72 136 -81 175 -14 13 24
22 29 57 29 38 0 46 -6 142 -104 l102 -103 0 -1653 0 -1653 -105 -107 -105
-106 0 -604 0 -605 80 -80 c76 -76 80 -82 71 -111 -13 -46 -3 -81 32 -110 26
-22 38 -25 71 -21 85 12 117 108 56 169 -27 27 -36 30 -75 26 -43 -5 -44 -5
-124 76 l-81 81 0 580 0 580 100 100 100 100 0 1680 0 1680 -102 102 c-100 99
-104 102 -153 105 -43 3 -50 6 -53 25 -2 12 -15 33 -29 47 -30 30 -95 36 -130
11z m111 -17 c15 -13 29 -37 32 -55 5 -27 1 -37 -24 -63 -39 -39 -74 -39 -113
-1 -17 18 -29 40 -29 56 0 34 50 85 84 85 14 0 36 -10 50 -22z m423 -5184 c43
-27 34 -120 -12 -138 -49 -19 -96 -1 -115 43 -17 42 -5 78 33 101 33 20 54 19
94 -6z"/>
<path d="M17487 9519 c-32 -19 -50 -75 -36 -116 l11 -35 -71 -72 -71 -71 0
-1790 0 -1790 -100 -100 -100 -100 0 -115 0 -116 54 -53 c54 -53 55 -55 49
-101 -7 -58 8 -87 54 -106 59 -25 122 6 137 68 8 35 -15 93 -44 108 -30 16
-87 15 -106 -1 -13 -11 -24 -3 -75 52 l-59 64 0 90 0 90 105 105 105 105 0
1784 0 1784 73 74 c69 71 74 74 101 63 36 -13 89 2 111 33 24 34 19 99 -10
131 -19 20 -33 26 -67 26 -24 0 -51 -5 -61 -11z m107 -21 c15 -13 29 -37 32
-55 5 -27 1 -37 -24 -63 -32 -32 -56 -37 -95 -19 -52 24 -60 87 -18 130 35 35
71 37 105 7z m-223 -4397 c55 -56 23 -141 -54 -141 -75 0 -110 97 -53 146 37
32 71 30 107 -5z"/>
<path d="M18289 9501 c-39 -40 -40 -89 -1 -132 22 -24 36 -31 67 -31 35 -1 48
-8 108 -67 l67 -65 0 -61 1 -60 604 -610 604 -610 1 -440 0 -439 195 -196 195
-196 0 -760 0 -759 198 -198 197 -197 130 0 130 0 85 85 c58 58 92 85 108 85
43 0 81 28 93 69 15 51 -3 90 -53 114 -32 16 -43 17 -73 7 -51 -17 -69 -49
-62 -110 l6 -49 -73 -66 -73 -65 -99 0 -99 0 -183 183 -182 182 0 755 0 755
-190 190 -190 190 0 446 0 446 -605 611 -605 610 0 63 0 63 -66 67 c-62 63
-65 68 -68 119 -2 43 -7 57 -30 76 -40 35 -99 33 -137 -5z m110 4 c73 -37 43
-155 -39 -155 -82 0 -112 130 -37 160 32 13 44 12 76 -5z m2636 -4501 c34 -37
33 -78 -4 -115 -36 -35 -70 -37 -107 -5 -21 17 -28 33 -28 59 0 79 88 117 139
61z"/>
<path d="M15839 9491 c-42 -42 -41 -101 2 -143 27 -28 34 -30 78 -25 l48 6 61
-62 62 -63 0 -152 0 -153 130 -133 130 -133 0 -880 0 -879 30 -29 30 -29 0
-935 0 -935 -537 -540 c-296 -297 -542 -546 -548 -552 -5 -6 -254 -257 -552
-557 l-543 -546 0 -123 -1 -123 -32 -20 c-45 -29 -61 -66 -47 -110 22 -66 80
-91 140 -60 37 19 50 43 50 91 0 29 -7 43 -35 70 l-35 33 0 113 0 113 1085
1095 1084 1095 1 966 0 966 -25 23 -25 23 0 876 0 876 -130 130 -130 130 0
150 0 150 -70 70 c-69 70 -70 71 -60 106 28 100 -89 172 -161 100z m136 -24
c23 -32 18 -74 -10 -103 -20 -20 -33 -25 -68 -22 -37 3 -44 7 -61 39 -17 32
-18 40 -6 69 25 61 108 70 145 17z m-1681 -6999 c40 -35 43 -78 11 -116 -34
-41 -84 -44 -120 -7 -35 34 -33 78 4 116 35 35 71 37 105 7z"/>
<path d="M18669 9471 c-23 -23 -29 -38 -29 -72 0 -35 6 -47 35 -74 33 -32 34
-35 37 -118 l3 -85 588 -591 587 -592 0 -447 0 -447 365 -365 365 -365 0 -629
0 -630 -35 -32 c-29 -27 -35 -38 -35 -74 0 -76 72 -121 143 -89 23 11 38 31
51 72 8 24 -18 83 -43 99 -21 13 -21 16 -21 661 l0 649 -370 376 -370 377 0
442 0 442 -582 587 -583 587 -3 74 c-3 71 -2 74 28 99 26 22 30 33 30 74 0 42
-4 52 -31 74 -43 36 -91 35 -130 -3z m108 0 c55 -34 53 -116 -4 -144 -42 -20
-83 -8 -106 31 -27 46 -14 91 33 114 43 22 38 22 77 -1z m1908 -4447 c19 -8
45 -55 45 -84 0 -29 -53 -80 -83 -80 -31 0 -73 33 -81 64 -7 29 8 74 32 92 18
14 60 18 87 8z"/>
<path d="M2 9429 l3 -47 889 -896 888 -896 587 0 586 0 215 -215 215 -215 90
0 91 0 57 58 57 58 0 90 0 90 48 47 48 47 160 0 161 0 69 75 c67 74 70 75 117
75 40 0 54 5 78 29 54 54 34 140 -38 160 -78 22 -149 -49 -123 -122 10 -30 8
-33 -57 -99 l-67 -68 -166 0 -166 0 -52 -53 -52 -53 0 -90 0 -90 -58 -57 c-57
-57 -58 -57 -119 -57 l-61 0 -214 220 -213 220 -578 0 -579 0 -616 622 c-340
343 -749 756 -910 918 l-292 295 2 -46z m4348 -1574 c34 -37 33 -90 -4 -121
-37 -32 -71 -30 -107 5 -37 37 -38 78 -4 115 32 35 83 36 115 1z"/>
<path d="M2 9303 c2 -13 337 -359 886 -912 l884 -891 567 0 566 0 215 -215
215 -215 125 0 124 0 156 155 156 155 327 0 327 0 13 -32 c27 -62 77 -86 133
-63 66 27 81 116 29 165 -48 45 -140 22 -161 -42 -5 -17 -24 -18 -343 -18
l-339 0 -150 -155 -151 -155 -113 0 -114 0 -219 220 -219 220 -566 0 -566 0
-451 458 c-978 993 -1333 1347 -1331 1325z m4712 -1868 c38 -35 36 -85 -5
-119 -38 -32 -70 -33 -105 -2 -39 33 -39 89 0 122 35 31 76 31 110 -1z"/>
<path d="M2 9148 c2 -18 250 -274 852 -882 l850 -856 575 0 576 0 225 -225
225 -225 165 0 165 0 135 135 135 135 290 0 291 0 39 -40 39 -40 126 0 126 0
47 48 47 48 0 150 0 149 -89 89 -89 89 15 33 c47 97 -79 184 -158 108 -41 -39
-41 -94 0 -135 29 -29 43 -33 90 -29 18 1 45 -19 107 -81 l84 -84 0 -140 0
-141 -38 -37 -38 -37 -100 0 -100 0 -44 45 -44 45 -306 0 -305 0 -140 -140
-140 -140 -145 0 -145 0 -225 225 -225 225 -580 0 -581 0 -230 233 c-1416
1430 -1486 1499 -1482 1475z m4713 -1293 c35 -34 33 -78 -4 -116 -47 -46 -101
-35 -127 26 -35 85 67 155 131 90z"/>
<path d="M11797 9124 c-51 -28 -62 -95 -22 -142 30 -36 77 -47 115 -28 27 13
30 12 89 -48 l61 -62 0 -146 c0 -117 -3 -148 -15 -158 -13 -11 -15 -91 -15
-614 l0 -601 80 -80 80 -80 0 -745 0 -745 -102 -102 c-86 -86 -108 -103 -133
-103 -27 0 -79 -48 -445 -417 -228 -230 -659 -664 -959 -966 l-544 -547 -136
0 -137 0 -27 28 c-26 27 -27 33 -27 127 l0 99 56 57 c54 55 56 56 102 51 37
-3 53 0 74 17 53 42 46 124 -14 161 -43 27 -84 20 -122 -21 -25 -29 -28 -37
-23 -79 6 -47 5 -47 -54 -106 l-59 -58 0 -106 0 -106 53 -52 53 -52 145 0 146
0 544 548 c299 301 731 735 959 965 329 330 420 417 440 417 19 0 53 27 133
108 l107 107 0 780 0 781 -75 74 -75 74 0 588 c0 380 4 589 10 593 6 4 10 71
10 168 l-1 162 -62 67 c-59 62 -62 69 -59 107 3 34 0 45 -26 71 -35 34 -79 39
-125 14z m108 -19 c36 -35 35 -96 -1 -124 -56 -44 -134 -8 -134 61 1 76 84
115 135 63z m-2020 -5050 c76 -75 -30 -194 -109 -122 -56 50 -21 147 54 147
19 0 40 -9 55 -25z"/>
<path d="M12599 9111 c-48 -48 -30 -137 31 -156 20 -6 20 -21 20 -1264 l0
-1257 -45 -44 -45 -44 0 -620 0 -620 -389 -391 c-213 -214 -432 -436 -486
-492 -88 -92 -100 -101 -121 -93 -38 15 -96 -9 -113 -47 -41 -89 37 -175 126
-138 42 18 67 66 56 108 -4 18 -8 35 -8 38 0 4 217 225 483 493 l482 487 0
618 0 618 50 49 49 49 1 1273 c0 1088 2 1272 14 1272 8 0 26 14 41 32 23 27
26 39 22 72 -12 84 -108 117 -168 57z m110 4 c47 -24 56 -83 20 -129 -26 -33
-75 -35 -113 -5 -36 28 -37 89 -1 124 28 29 54 31 94 10z m-1118 -5024 c31
-31 36 -59 17 -94 -42 -80 -152 -51 -152 40 0 26 7 42 28 59 37 32 71 30 107
-5z"/>
<path d="M13819 9111 c-54 -54 -33 -137 42 -163 l29 -10 0 -1712 0 -1711 -110
-110 -110 -110 0 -325 0 -325 -253 -253 -252 -252 -172 0 -171 0 -30 30 c-61
61 -157 29 -169 -56 -4 -36 -1 -46 24 -74 24 -27 37 -33 72 -34 36 -1 47 4 72
32 16 18 29 43 29 57 l0 25 184 0 184 0 256 263 256 262 0 320 0 320 105 105
105 105 0 1725 1 1725 32 20 c18 12 35 33 40 52 28 95 -93 164 -164 94z m122
-10 c37 -38 39 -82 4 -116 -65 -66 -173 12 -131 94 31 58 82 67 127 22z
m-1182 -4926 c38 -19 53 -62 36 -102 -24 -57 -88 -71 -130 -28 -37 36 -34 86
6 119 35 30 49 32 88 11z"/>
<path d="M14248 9114 c-15 -8 -32 -23 -38 -34 -13 -24 -13 -76 0 -101 16 -29
68 -52 104 -45 28 6 36 1 88 -56 l58 -63 -1 -1680 0 -1680 -218 -223 c-214
-218 -218 -223 -246 -212 -40 15 -80 4 -110 -32 -40 -47 -28 -116 26 -144 38
-19 68 -18 106 6 32 19 40 36 45 96 3 26 42 71 221 254 l217 222 0 1711 0
1711 -61 62 c-54 54 -60 64 -50 82 46 85 -54 174 -141 126z m110 -30 c56 -63
-7 -161 -87 -133 -41 14 -65 66 -50 108 22 62 92 75 137 25z m-341 -4096 c30
-34 34 -55 18 -94 -13 -32 -46 -54 -81 -54 -9 0 -29 13 -45 29 -35 35 -38 77
-8 115 27 35 86 37 116 4z"/>
<path d="M17449 9082 c-28 -25 -34 -37 -34 -71 0 -61 39 -96 105 -96 47 0 52
-3 115 -65 l65 -64 0 -1894 0 -1893 -50 -53 -50 -53 0 -319 0 -319 -193 -193
-192 -192 -70 0 c-68 1 -71 2 -90 33 -58 92 -185 56 -185 -53 0 -42 49 -90 92
-90 40 0 82 23 96 54 11 25 15 26 94 26 l83 0 203 203 202 202 0 317 0 316 45
50 45 50 0 1914 0 1915 -65 63 -64 64 6 56 c5 49 3 59 -18 84 -16 18 -37 29
-65 33 -36 5 -46 1 -75 -25z m95 8 c15 -5 34 -26 43 -45 16 -34 16 -38 -1 -70
-23 -43 -61 -57 -103 -40 -70 30 -69 127 1 155 28 12 31 12 60 0z m-515 -5176
c31 -40 28 -87 -10 -118 -35 -30 -49 -32 -88 -11 -32 16 -41 33 -41 78 0 72
95 107 139 51z"/>
<path d="M7481 9074 c-26 -21 -31 -33 -31 -68 0 -51 20 -81 63 -95 67 -22 131
24 131 95 0 28 -7 43 -32 65 -42 38 -89 39 -131 3z m120 -13 c37 -37 38 -78 4
-115 -39 -43 -105 -35 -131 16 -20 38 -10 82 23 108 36 28 69 25 104 -9z"/>
<path d="M8718 9071 c-79 -70 -3 -194 99 -160 67 22 85 108 34 160 -40 39 -89
40 -133 0z m110 3 c33 -23 45 -60 31 -101 -19 -58 -90 -73 -134 -28 -35 34
-33 78 4 116 33 32 65 37 99 13z"/>
<path d="M15858 9075 c-35 -20 -48 -44 -48 -90 0 -49 44 -95 92 -95 31 0 47
-14 171 -144 l137 -144 0 -869 0 -869 45 -44 45 -44 0 -840 0 -841 -398 -400
c-219 -220 -713 -718 -1099 -1107 -420 -425 -707 -708 -718 -708 -10 0 -33 16
-51 35 -27 29 -38 35 -74 35 -76 0 -124 -77 -88 -143 18 -34 40 -46 84 -47 48
0 88 27 98 65 5 20 12 25 39 25 31 0 81 48 638 611 332 335 830 838 1106 1117
l502 507 0 855 1 856 -45 44 -45 44 0 865 0 866 -142 142 c-126 126 -141 145
-130 161 23 33 33 66 27 92 -13 61 -93 96 -147 65z m110 -31 c27 -31 28 -73 2
-107 -40 -50 -108 -42 -137 17 -14 30 -14 39 -3 66 15 36 63 62 95 54 11 -3
30 -17 43 -30z m-1975 -6116 c79 -41 52 -158 -36 -158 -73 0 -106 91 -52 145
26 27 54 31 88 13z"/>
<path d="M16255 9081 c-36 -15 -57 -49 -59 -92 -1 -35 4 -46 33 -71 30 -27 39
-30 76 -25 42 6 44 5 104 -57 l61 -64 0 -280 c0 -236 2 -281 15 -292 13 -11
15 -209 15 -1671 l0 -1659 -587 -591 -588 -591 -3 -97 -3 -96 -131 -132 c-108
-109 -135 -130 -149 -122 -62 33 -139 -17 -139 -91 0 -88 92 -130 160 -74 29
25 31 31 29 81 l-3 54 142 142 142 142 1 85 0 85 584 590 585 590 0 1681 c0
1668 0 1681 -20 1699 -19 17 -20 31 -20 299 l0 282 -60 59 c-56 56 -59 61 -54
97 9 54 -2 86 -39 108 -34 21 -59 24 -92 11z m113 -57 c14 -31 14 -37 -1 -69
-29 -60 -97 -69 -137 -18 -26 33 -25 73 0 106 38 48 111 38 138 -19z m-1333
-5800 c19 -8 45 -55 45 -84 0 -11 -11 -32 -25 -45 -45 -46 -127 -26 -140 34
-7 31 15 85 37 94 19 8 64 8 83 1z"/>
<path d="M16675 9081 c-36 -16 -58 -49 -59 -92 -1 -35 4 -46 33 -71 31 -27 38
-30 81 -24 l48 6 56 -57 56 -58 0 -1369 0 -1369 -100 -102 -100 -101 0 -650 0
-649 -85 -85 -85 -85 0 -185 0 -186 -75 -74 -75 -74 0 -377 c0 -443 10 -409
-117 -409 -105 0 -113 8 -113 117 0 117 9 113 -248 113 -200 0 -212 1 -212 19
0 55 -81 96 -141 71 -72 -30 -77 -140 -8 -176 49 -25 88 -18 125 21 l33 35
208 -2 208 -3 3 -85 c4 -122 14 -130 147 -130 157 0 145 -34 145 416 l0 370
75 74 75 74 0 186 0 185 80 80 80 80 0 655 0 655 105 105 105 105 0 1390 0
1391 -58 57 c-58 57 -59 59 -54 106 3 39 0 52 -19 75 -26 29 -80 42 -114 27z
m69 -15 c47 -20 65 -66 43 -112 -29 -59 -97 -67 -137 -17 -41 53 -11 127 58
142 1 1 17 -5 36 -13z m-1105 -5710 c50 -53 14 -136 -60 -136 -29 0 -42 6 -58
26 -44 56 -11 134 58 134 27 0 44 -7 60 -24z"/>
<path d="M17888 9075 c-54 -30 -66 -104 -24 -152 21 -24 31 -28 80 -28 54 0
57 -2 111 -55 l55 -54 0 -362 c0 -337 1 -362 18 -377 15 -13 39 -17 115 -17
119 0 127 -8 127 -116 0 -94 -11 -104 -112 -104 -65 0 -77 -3 -96 -23 -19 -20
-22 -35 -22 -112 0 -83 2 -91 27 -117 24 -25 33 -28 93 -28 57 0 70 -3 88 -23
l22 -23 0 -1125 -1 -1124 -182 -187 -182 -188 -52 6 c-62 8 -93 -8 -113 -55
-40 -98 85 -177 161 -102 31 32 38 75 18 113 -10 19 7 39 175 207 l186 186 0
1146 0 1146 -23 21 c-19 18 -35 22 -88 22 -56 0 -69 4 -87 23 -19 20 -22 35
-22 104 0 104 9 113 112 113 100 0 108 9 108 121 0 80 -2 87 -28 112 -26 25
-35 27 -108 27 -122 0 -114 -29 -114 391 l0 353 -62 63 c-49 49 -60 65 -50 75
7 7 12 33 12 58 0 36 -5 52 -24 69 -30 28 -83 36 -118 16z m105 -24 c10 -9 20
-33 23 -52 17 -101 -136 -131 -161 -32 -20 81 79 142 138 84z m-7 -4215 c57
-48 20 -146 -55 -146 -17 0 -39 10 -55 26 -76 77 28 191 110 120z"/>
<path d="M25220 8805 l-85 -85 -233 0 -232 0 -10 25 c-5 13 -23 31 -39 40 -94
48 -183 -35 -139 -130 34 -75 151 -69 179 10 l13 35 236 0 235 0 85 85 85 85
142 0 c89 0 143 4 143 10 0 6 -56 10 -148 10 l-147 0 -85 -85z m-592 -48 c50
-46 11 -137 -59 -137 -86 0 -113 122 -35 156 36 15 62 10 94 -19z"/>
<path d="M24089 8771 c-71 -72 0 -193 96 -164 32 10 35 9 91 -48 l58 -59 421
0 422 0 118 120 119 120 93 0 c55 0 93 4 93 10 0 6 -41 10 -103 10 l-102 0
-120 -120 -120 -120 -390 0 -391 0 -63 64 c-59 59 -62 65 -56 98 8 40 -13 91
-44 108 -39 20 -91 12 -122 -19z m120 -7 c80 -67 -12 -188 -97 -128 -50 35
-46 110 7 139 38 20 55 18 90 -11z"/>
<path d="M11815 8721 c-39 -17 -60 -51 -60 -98 0 -37 5 -49 28 -69 15 -13 37
-24 48 -24 19 0 19 -12 19 -593 l0 -592 110 -110 110 -110 0 -705 0 -706 -68
-67 c-65 -65 -69 -67 -118 -67 l-50 0 -225 -227 c-1580 -1599 -1614 -1633
-1647 -1633 -25 0 -35 6 -44 26 -14 31 -56 54 -98 54 -47 0 -90 -47 -90 -97 0
-98 122 -133 182 -52 16 21 30 29 54 29 29 0 116 85 959 935 l927 935 47 0
c45 0 49 3 124 78 l77 77 0 715 0 715 -115 115 -115 115 0 582 c0 495 2 583
14 583 25 0 66 59 66 96 0 64 -78 119 -135 95z m90 -36 c42 -41 33 -105 -17
-131 -35 -18 -64 -13 -96 16 -50 46 -11 140 58 140 19 0 40 -9 55 -25z m-2024
-4924 c37 -38 39 -82 4 -116 -64 -65 -166 5 -131 90 26 61 80 72 127 26z"/>
<path d="M15845 8678 c-33 -19 -44 -41 -45 -84 0 -75 64 -121 134 -94 28 10
32 8 93 -52 l63 -62 0 -137 c0 -121 -2 -139 -20 -162 -19 -25 -20 -40 -20
-619 l0 -593 80 -80 80 -80 0 -745 0 -745 -102 -102 c-78 -79 -107 -103 -128
-103 -27 0 -4 23 -1520 -1503 l-425 -427 -134 0 c-128 0 -136 1 -168 26 l-33
25 0 99 0 99 58 61 c53 56 59 60 87 52 43 -11 70 -5 99 25 58 58 15 163 -66
163 -21 0 -48 -5 -59 -10 -31 -17 -51 -67 -44 -108 5 -35 2 -40 -55 -97 l-60
-59 0 -105 0 -105 57 -58 57 -58 141 0 140 0 746 753 c410 413 841 850 958
970 175 177 219 217 241 217 21 0 51 24 139 113 l111 112 0 775 0 775 -80 80
-80 80 0 576 c0 500 2 578 15 589 12 10 15 43 15 174 l0 162 -65 64 c-59 59
-65 68 -65 106 0 56 -7 72 -41 89 -33 18 -76 19 -104 3z m113 -34 c47 -53 9
-133 -64 -134 -58 0 -98 63 -72 116 27 58 93 66 136 18z m-2032 -5038 c57 -48
20 -146 -55 -146 -35 0 -81 44 -81 77 0 29 25 79 42 86 30 12 69 5 94 -17z"/>
<path d="M16653 8672 c-29 -22 -45 -66 -37 -100 8 -32 42 -72 61 -72 11 0 13
-220 13 -1258 l0 -1258 -45 -44 -45 -44 0 -621 0 -620 -484 -490 -483 -490
-44 3 c-56 5 -95 -23 -105 -74 -19 -101 106 -159 172 -81 23 27 26 38 21 79
l-6 47 484 488 484 488 1 620 0 621 45 44 45 44 0 1268 0 1267 30 16 c37 19
50 43 50 90 0 76 -98 124 -157 77z m119 -20 c32 -31 33 -75 3 -110 -35 -42
-85 -44 -120 -6 -73 79 41 190 117 116z m-1137 -5007 c38 -37 37 -88 -1 -122
-79 -71 -182 42 -109 121 32 34 77 35 110 1z"/>
<path d="M17877 8679 c-28 -16 -49 -68 -43 -104 7 -35 38 -69 74 -80 l22 -6 0
-1717 0 -1717 -105 -105 -105 -105 0 -320 -1 -320 -252 -258 -252 -257 -177 0
c-160 0 -178 2 -190 18 -34 48 -101 55 -147 16 -26 -21 -31 -33 -31 -69 0 -71
55 -112 126 -93 38 10 54 28 63 71 l7 32 179 3 180 2 258 258 257 257 0 324 0
324 105 107 105 106 0 1722 0 1721 23 12 c94 48 64 190 -40 189 -21 0 -46 -5
-56 -11z m92 -14 c55 -28 60 -104 9 -139 -74 -52 -164 38 -112 112 14 21 45
40 67 41 4 1 21 -6 36 -14z m-1148 -4954 c33 -33 37 -65 12 -101 -23 -34 -33
-40 -68 -40 -47 1 -85 41 -85 90 0 30 53 80 85 80 16 0 38 -12 56 -29z"/>
<path d="M18288 8665 c-15 -9 -31 -30 -38 -50 -24 -72 29 -140 105 -133 30 2
42 -4 90 -52 l55 -54 0 -1691 0 -1690 -216 -216 c-211 -212 -218 -217 -246
-207 -98 34 -173 -89 -99 -163 20 -19 40 -29 60 -29 67 0 106 41 104 109 -2
36 6 46 218 257 l219 219 0 1720 0 1721 -54 53 -54 54 5 53 c5 49 3 55 -25 83
-34 35 -78 40 -124 16z m102 -15 c27 -14 41 -64 28 -100 -28 -82 -158 -57
-158 30 0 60 74 100 130 70z m-315 -4123 c21 -30 19 -70 -5 -100 -40 -50 -108
-42 -137 17 -14 30 -14 39 -3 66 25 61 108 70 145 17z"/>
<path d="M9862 8650 c-50 -31 -74 -76 -69 -132 5 -61 29 -95 81 -118 126 -56
246 75 182 198 -35 68 -127 92 -194 52z"/>
<path d="M10315 8621 c-50 -21 -73 -82 -51 -135 27 -64 106 -78 157 -27 48 49
38 125 -21 156 -32 16 -55 18 -85 6z m99 -42 c30 -35 32 -49 11 -90 -29 -55
-97 -61 -135 -12 -44 56 -7 133 64 133 26 0 40 -7 60 -31z"/>
<path d="M25325 8450 l-130 -130 -365 0 -365 0 -115 -115 -115 -115 -145 0
-145 1 -160 -164 c-88 -90 -208 -210 -267 -266 -104 -100 -108 -103 -137 -93
-39 14 -95 -1 -116 -31 -24 -35 -20 -103 10 -132 35 -36 106 -35 142 1 22 23
25 32 21 79 l-5 54 269 271 269 270 142 0 142 0 109 109 109 108 369 -5 368
-5 138 137 138 136 57 0 c31 0 57 5 57 10 0 6 -31 10 -73 10 l-72 0 -130 -130z
m-1924 -919 c17 -18 29 -40 29 -56 0 -16 -12 -38 -29 -56 -18 -17 -40 -29 -56
-29 -16 0 -38 12 -56 29 -17 18 -29 40 -29 56 0 16 12 38 29 56 18 17 40 29
56 29 16 0 38 -12 56 -29z"/>
<path d="M25405 8315 l-130 -135 -375 0 -375 0 -133 -132 -133 -131 -27 25
c-36 34 -65 42 -107 28 -45 -15 -65 -44 -65 -96 0 -82 94 -123 158 -69 17 14
33 38 37 54 4 20 50 71 141 160 l135 131 377 0 377 0 135 135 c94 94 142 135
157 135 14 0 23 6 23 15 0 10 -10 15 -32 15 -29 0 -49 -16 -163 -135z m-1180
-388 c21 -30 19 -70 -5 -100 -40 -50 -108 -42 -137 17 -14 30 -14 39 -3 66 25
61 108 70 145 17z"/>
<path d="M0 8397 c0 -25 79 -108 538 -573 l537 -544 850 0 850 0 230 -230 230
-230 262 0 262 0 33 29 c30 26 38 28 85 24 48 -5 55 -3 83 25 22 23 30 40 30
67 0 82 -103 126 -167 71 -24 -21 -28 -32 -28 -74 0 -35 -6 -56 -19 -71 -18
-20 -28 -21 -275 -21 l-256 0 -225 225 -225 225 -850 0 -850 -1 -547 553
c-481 486 -547 550 -548 525z m3945 -1370 c57 -49 20 -147 -56 -147 -72 0
-106 96 -53 145 34 31 75 32 109 2z"/>
<path d="M25464 8172 l-129 -133 -310 1 -309 0 -43 -42 c-39 -38 -44 -41 -68
-30 -36 17 -98 -1 -119 -33 -26 -40 -21 -92 13 -126 34 -33 75 -38 121 -14 36
19 59 80 41 113 -10 19 -6 27 30 67 l42 45 316 0 316 0 119 119 c96 96 117
122 114 142 -4 21 -19 9 -134 -109z m-839 -237 c35 -34 33 -78 -4 -116 -47
-46 -101 -35 -127 26 -35 85 67 155 131 90z"/>
<path d="M15863 8269 c-42 -12 -63 -44 -63 -95 0 -46 34 -90 73 -96 l22 -3 3
-595 2 -595 110 -110 110 -110 0 -695 0 -695 -72 -72 c-69 -70 -74 -73 -119
-73 l-47 0 -923 -930 c-849 -857 -925 -930 -955 -930 -24 0 -34 5 -39 20 -17
52 -100 77 -150 44 -29 -19 -48 -72 -39 -108 8 -35 59 -76 92 -76 35 0 88 33
97 59 5 16 15 21 44 21 36 0 51 14 367 333 181 182 598 603 926 935 l597 602
48 0 c47 0 51 3 121 73 l72 72 0 720 0 720 -110 110 -110 110 0 587 c0 324 4
588 9 588 4 0 20 11 35 25 20 18 26 34 26 65 0 54 -14 79 -55 96 -19 8 -36 14
-37 13 -2 0 -17 -5 -35 -10z m88 -38 c36 -36 37 -70 3 -110 -34 -41 -75 -42
-115 -2 -17 18 -29 40 -29 56 0 16 12 38 29 56 18 17 40 29 56 29 16 0 38 -12
56 -29z m-2042 -4906 c57 -29 61 -103 9 -139 -74 -52 -164 38 -112 112 14 21
45 40 67 41 4 1 21 -6 36 -14z"/>
<path d="M0 8175 c0 -26 63 -93 498 -528 l497 -497 851 0 851 0 232 -235 231
-235 298 0 298 0 28 -29 c26 -27 27 -32 16 -65 -25 -76 17 -136 95 -136 36 0
48 5 69 31 44 52 30 125 -31 154 -20 10 -45 14 -61 10 -23 -5 -34 1 -67 35
l-39 40 -291 0 -290 0 -235 235 -235 235 -857 0 -856 0 -501 507 c-450 456
-501 505 -501 478z m3947 -1567 c29 -32 34 -53 21 -88 -10 -30 -51 -60 -82
-60 -8 0 -28 12 -45 26 -24 20 -31 34 -31 60 0 73 90 113 137 62z"/>
<path d="M10299 8157 c-85 -57 -43 -177 62 -177 45 0 89 48 89 95 0 49 -15 74
-55 91 -46 19 -56 18 -96 -9z m103 -11 c24 -18 39 -63 32 -92 -8 -31 -50 -64
-81 -64 -36 0 -83 51 -83 90 0 62 83 104 132 66z"/>
<path d="M10724 8171 c-12 -5 -31 -22 -43 -37 -73 -93 61 -207 148 -125 24 22
31 38 31 65 0 66 -77 121 -136 97z m95 -35 c39 -42 26 -117 -25 -136 -38 -15
-50 -12 -83 16 -38 31 -41 78 -10 118 28 35 86 36 118 2z"/>
<path d="M18659 8031 c-51 -52 -33 -128 37 -157 63 -26 134 24 134 94 0 50
-46 92 -100 92 -33 0 -48 -6 -71 -29z m134 -12 c43 -54 3 -139 -67 -139 -70 0
-103 94 -50 147 21 21 32 24 62 19 20 -3 45 -15 55 -27z"/>
<path d="M25440 7835 l-155 -155 -470 0 -471 0 -59 -60 -59 -59 -55 5 c-50 6
-59 4 -83 -19 -22 -21 -28 -35 -28 -70 0 -82 69 -128 138 -93 40 21 52 44 52
98 0 40 5 49 59 102 l60 59 464 -5 465 -5 152 152 c130 130 151 156 148 179
-3 24 -15 15 -158 -129z m-1228 -303 c10 -9 20 -31 24 -49 5 -27 1 -37 -24
-63 -51 -50 -121 -32 -138 37 -19 75 82 130 138 75z"/>
<path d="M7145 7790 c-164 -164 -171 -170 -203 -164 -108 20 -165 -108 -78
-178 66 -54 175 20 152 105 -5 18 22 50 167 195 l172 172 719 0 718 0 265
-270 265 -270 167 0 166 0 79 79 c57 57 83 77 97 74 30 -8 78 17 94 48 24 45
19 87 -14 120 -75 74 -201 -4 -164 -102 10 -25 6 -31 -56 -93 l-67 -66 -140 0
-141 0 -256 260 -257 260 -757 0 -758 0 -170 -170z m2749 -95 c37 -34 37 -95
0 -124 -36 -28 -79 -27 -109 4 -75 74 31 192 109 120z m-2917 -107 c51 -48 15
-138 -56 -138 -71 0 -106 76 -60 134 27 34 82 36 116 4z"/>
<path d="M2 7919 c2 -20 118 -143 447 -478 l444 -451 866 0 866 0 235 -235
235 -235 242 0 241 0 94 -100 93 -100 115 0 116 0 57 58 57 58 0 195 0 195 44
43 44 44 28 -22 c43 -34 118 -25 151 18 7 9 13 35 13 58 0 54 -42 93 -99 93
-41 0 -91 -36 -91 -65 0 -10 -29 -47 -65 -84 l-65 -68 0 -184 0 -185 -53 -52
-53 -52 -85 0 -84 0 -100 100 -100 100 -240 0 -240 0 -225 225 -226 226 -872
0 -872 -1 -460 463 c-360 361 -460 456 -458 436z m4344 -893 c21 -17 28 -33
28 -59 0 -88 -110 -122 -149 -46 -22 42 -18 67 14 100 36 35 70 37 107 5z"/>
<path d="M7805 7648 c-83 -84 -462 -467 -842 -850 l-693 -697 0 -473 0 -473
-408 -408 -407 -407 -251 0 -250 0 -307 -314 -307 -314 0 -286 c0 -231 -3
-286 -13 -286 -18 0 -53 -39 -62 -68 -9 -30 12 -88 38 -107 12 -8 39 -15 60
-15 106 0 135 150 37 190 l-30 12 0 277 1 276 305 308 305 307 254 0 253 0
411 417 411 417 1 471 0 470 832 838 832 837 186 0 187 0 244 -250 244 -250
484 0 485 0 133 133 132 132 54 0 c44 0 59 5 80 24 34 32 42 80 22 119 -32 62
-108 72 -158 22 -25 -26 -29 -36 -27 -75 l3 -46 -134 -134 -135 -135 -465 0
-465 0 -245 245 -245 245 -200 0 -201 0 -149 -152z m2386 43 c75 -76 -20 -187
-104 -121 -46 36 -43 92 7 132 31 26 64 22 97 -11z m-5778 -4581 c33 -26 41
-63 22 -100 -29 -57 -81 -66 -126 -21 -37 37 -38 78 -4 115 29 32 72 34 108 6z"/>
<path d="M11342 7764 c-13 -9 -27 -27 -32 -40 l-10 -24 -303 0 -304 0 -252
-260 -253 -260 -822 0 -821 0 -183 183 c-176 176 -182 184 -182 222 0 51 -20
80 -64 95 -27 9 -41 8 -68 -3 -41 -17 -54 -33 -63 -77 -6 -29 -102 -130 -554
-585 -301 -302 -653 -658 -784 -790 l-237 -240 0 -450 -1 -450 -442 -448 -442
-448 -253 1 -252 0 -260 -262 -259 -263 -1 -150 0 -151 45 -44 45 -44 0 -272
0 -273 -441 -445 -441 -446 -44 0 c-24 0 -44 4 -44 9 0 5 -12 23 -26 40 -22
27 -32 31 -74 31 -42 0 -52 -4 -74 -31 -80 -95 47 -214 142 -134 24 20 41 25
85 25 l55 0 456 462 456 461 0 317 0 316 -40 39 -40 39 0 111 0 110 248 248
247 247 250 0 250 -1 447 453 447 453 1 460 1 460 777 783 c747 752 778 782
797 766 15 -12 34 -15 76 -11 l56 5 179 -179 179 -179 855 0 855 0 250 250
250 250 292 0 c230 0 294 -3 300 -13 13 -22 56 -47 81 -47 64 0 110 59 98 124
-13 66 -98 99 -154 60z m91 -6 c79 -42 52 -158 -37 -158 -82 0 -106 118 -31
158 26 15 41 15 68 0z m-3297 -112 c54 -46 30 -127 -43 -142 -27 -5 -37 -1
-63 24 -38 38 -40 79 -5 116 31 33 74 34 111 2z m-4561 -5761 c52 -51 16 -145
-55 -145 -44 0 -80 39 -80 85 0 46 36 85 80 85 19 0 40 -9 55 -25z"/>
<path d="M0 7711 l0 -43 417 -419 417 -419 884 0 885 0 229 -235 230 -235 227
0 226 0 105 -105 105 -105 150 0 150 1 183 179 c172 170 182 182 182 218 0 48
-21 77 -64 92 -38 12 -89 -3 -115 -34 -22 -26 -19 -91 6 -124 l21 -29 -121
-121 -122 -122 -117 0 -117 0 -102 105 -102 105 -227 0 -226 0 -234 235 -234
235 -886 0 -885 0 -432 432 -433 433 0 -44z m4346 -1105 c54 -46 30 -127 -43
-142 -27 -5 -37 -1 -64 25 -27 28 -31 37 -26 69 12 69 80 94 133 48z"/>
<path d="M23713 7568 c-70 -19 -95 -100 -48 -156 30 -36 70 -47 111 -32 28 11
31 9 95 -59 l66 -71 831 0 c548 0 832 3 832 10 0 7 -279 10 -817 10 l-818 0
-71 71 c-65 65 -71 74 -62 95 13 29 3 87 -20 107 -28 25 -64 35 -99 25z m66
-23 c73 -37 43 -155 -39 -155 -85 0 -110 117 -35 158 27 15 41 15 74 -3z"/>
<path d="M24499 7541 c-38 -39 -40 -97 -5 -138 33 -38 102 -40 140 -4 14 14
26 30 26 38 0 11 86 13 470 13 441 0 470 1 470 18 0 16 -28 17 -465 14 l-466
-2 -11 30 c-21 63 -110 80 -159 31z m129 -17 c29 -33 28 -74 -3 -108 -61 -66
-169 2 -135 85 25 60 94 72 138 23z"/>
<path d="M2 7525 c3 -31 45 -77 382 -415 l380 -380 875 0 876 0 237 -237 236
-236 165 0 166 0 33 -34 c29 -30 33 -40 33 -89 0 -49 4 -59 28 -80 20 -17 40
-24 72 -24 36 0 47 5 69 31 34 40 34 88 1 127 -29 34 -63 46 -98 33 -21 -8
-30 -4 -68 35 l-43 44 -166 0 -165 0 -230 230 -230 230 -881 0 -881 0 -397
400 c-369 371 -397 397 -394 365z m3519 -1325 c10 -6 26 -24 34 -40 43 -83
-67 -162 -130 -94 -64 69 14 177 96 134z"/>
<path d="M11644 7505 l-25 -25 -230 0 -230 0 -554 -557 -554 -558 -1 -242 0
-242 -767 -775 -768 -776 -490 0 -491 0 -214 -217 c-118 -120 -466 -471 -774
-781 l-559 -563 -111 2 c-120 3 -145 -4 -165 -48 -24 -53 -9 -103 39 -128 41
-21 72 -19 114 10 32 21 48 25 115 25 l78 0 608 618 c335 339 685 695 780 790
l171 172 462 0 463 0 642 648 c353 356 715 721 804 812 l163 166 0 241 0 240
526 532 526 531 212 0 c197 0 214 -1 230 -19 24 -26 62 -34 101 -21 105 35 76
190 -35 190 -30 0 -47 -6 -66 -25z m105 0 c16 -8 34 -28 40 -45 28 -82 -73
-147 -134 -85 -35 34 -33 78 4 116 33 33 50 35 90 14z m-5890 -4771 c31 -40
28 -87 -10 -118 -35 -30 -49 -32 -88 -11 -32 16 -41 33 -41 78 0 72 95 107
139 51z"/>
<path d="M2 7383 c2 -13 143 -165 361 -387 l359 -366 876 0 877 0 235 -235
235 -235 95 0 95 0 125 -125 125 -125 131 0 131 0 47 50 47 50 228 0 c184 0
231 3 240 14 9 10 27 13 69 9 52 -5 59 -3 85 22 38 39 38 101 0 137 -38 35
-65 41 -108 24 -41 -18 -69 -70 -59 -111 4 -18 1 -32 -11 -45 -17 -19 -32 -20
-244 -20 l-227 0 -44 -45 -44 -45 -111 0 -110 0 -120 120 -120 120 -97 0 -97
0 -232 235 -232 235 -885 0 -885 0 -369 373 c-243 245 -367 365 -366 350z
m4344 -1197 c56 -48 20 -146 -54 -146 -36 0 -82 46 -82 83 0 36 49 87 84 87
14 0 37 -11 52 -24z"/>
<path d="M6893 7363 c-12 -2 -34 -18 -49 -35 -21 -26 -25 -39 -21 -72 l4 -41
-408 -411 -409 -410 0 -570 0 -569 -328 -328 -327 -327 -280 0 -280 0 -403
-403 -402 -402 0 -173 c0 -159 -2 -176 -20 -199 -50 -63 -4 -163 75 -163 50 0
74 15 91 57 19 44 10 87 -22 112 -24 19 -24 22 -24 176 l0 157 362 364 361
364 291 0 291 0 353 353 352 352 0 575 1 575 402 407 c320 324 410 409 439
418 77 23 102 104 51 159 -29 30 -61 41 -100 34z m82 -38 c52 -51 16 -145 -55
-145 -44 0 -80 39 -80 85 0 46 36 85 80 85 19 0 40 -9 55 -25z m-2890 -3891
c19 -8 45 -55 45 -84 0 -12 -14 -35 -30 -52 -26 -25 -36 -29 -63 -24 -46 9
-71 38 -71 82 0 59 62 100 119 78z"/>
<path d="M0 7151 l0 -63 297 -299 297 -299 895 0 896 0 243 -250 244 -250 111
0 112 0 105 -105 105 -105 226 0 c206 0 227 -2 242 -18 10 -10 17 -31 17 -46
0 -95 122 -142 180 -69 54 69 -8 175 -94 159 -27 -5 -37 -1 -61 24 l-29 30
-236 0 -235 0 -105 105 -105 105 -96 0 -97 0 -240 245 -239 245 -889 0 -889 0
-327 327 -328 328 0 -64z m3944 -1380 c46 -40 34 -117 -23 -141 -76 -31 -143
66 -91 133 30 38 75 41 114 8z"/>
<path d="M23305 7151 c-37 -16 -60 -51 -60 -93 0 -33 6 -45 34 -70 30 -27 39
-30 80 -25 l46 6 160 -159 160 -160 279 0 278 -1 52 -48 51 -48 608 -6 c512
-4 607 -3 607 9 0 11 -98 14 -600 16 l-599 3 -43 41 -43 42 -282 7 -282 7
-158 160 -158 160 3 52 c3 44 0 57 -20 80 -25 29 -79 42 -113 27z m95 -31 c60
-60 5 -164 -76 -144 -33 8 -64 50 -64 86 0 65 94 104 140 58z"/>
<path d="M23691 7147 c-31 -18 -50 -54 -51 -95 0 -67 81 -114 142 -81 18 10
28 3 87 -55 l67 -66 175 0 176 0 74 -80 73 -80 583 0 c321 0 583 4 583 8 0 5
-257 11 -572 15 l-571 6 -76 75 -76 76 -176 0 -175 0 -62 63 c-62 62 -62 63
-56 108 6 41 3 50 -22 78 -34 37 -86 49 -123 28z m104 -32 c37 -36 34 -86 -6
-119 -33 -28 -45 -31 -83 -16 -51 19 -64 94 -25 136 31 33 82 32 114 -1z"/>
<path d="M24115 7146 c-52 -23 -70 -62 -54 -121 11 -39 50 -65 98 -65 35 0 91
43 91 71 0 10 3 19 8 19 4 0 52 -45 107 -100 l100 -100 567 0 c372 0 568 3
568 10 0 7 -195 10 -564 10 l-564 0 -127 134 c-76 80 -140 139 -158 145 -36
13 -35 13 -72 -3z m95 -31 c34 -37 33 -90 -4 -121 -15 -13 -38 -24 -52 -24
-32 0 -84 51 -84 82 0 23 24 66 44 80 24 17 73 8 96 -17z"/>
<path d="M24531 7149 c-52 -11 -76 -41 -76 -95 0 -38 5 -50 28 -70 41 -35 99
-33 138 5 16 16 29 37 29 45 0 14 50 16 478 18 l477 3 -472 2 -473 3 -14 28
c-28 54 -63 73 -115 61z m67 -25 c35 -24 44 -59 28 -99 -25 -60 -89 -74 -131
-29 -69 75 21 186 103 128z"/>
<path d="M11446 7095 c-28 -19 -50 -25 -91 -25 l-53 0 -456 -462 -456 -463 0
-315 0 -316 40 -39 40 -39 0 -111 0 -110 -246 -252 -246 -253 -252 0 -253 0
-446 -447 -447 -448 0 -460 0 -459 -173 -176 c-1015 -1030 -1386 -1398 -1397
-1385 -18 21 -68 28 -102 14 l-31 -12 -176 181 -176 182 -860 0 -860 0 -250
-250 -250 -250 -288 0 -289 0 -19 25 c-40 50 -135 41 -164 -16 -19 -35 -19
-63 0 -98 32 -63 131 -65 170 -4 l20 32 298 1 298 0 256 260 255 260 828 0
828 0 176 -181 c168 -173 176 -183 176 -221 0 -55 43 -98 97 -98 52 0 80 22
94 73 13 46 38 72 1052 1093 l527 532 0 453 0 453 414 416 c227 228 424 427
436 443 l24 27 255 0 256 0 263 263 262 262 0 155 0 156 -45 44 -45 44 0 269
0 269 441 449 442 449 42 0 c38 0 44 -3 55 -30 28 -66 116 -76 164 -19 41 48
29 117 -25 145 -40 20 -71 17 -113 -11z m115 -14 c53 -54 24 -141 -49 -143
-85 -3 -118 116 -43 157 39 21 59 18 92 -14z m-4556 -5766 c62 -61 -7 -167
-87 -134 -35 14 -62 61 -52 92 20 67 93 89 139 42z m-3315 -100 c72 -77 -41
-185 -115 -110 -31 30 -32 73 -4 109 28 36 86 36 119 1z"/>
<path d="M4589 7031 c-42 -42 -41 -99 3 -136 l31 -26 -71 -72 -72 -72 0 -771
0 -770 -33 -32 -33 -32 -520 0 -521 0 -23 -25 c-26 -28 -61 -32 -80 -10 -10
13 -52 15 -259 15 l-247 0 -348 355 -348 355 -1034 0 -1034 0 0 -30 0 -30
1008 0 1007 0 353 -360 354 -360 302 0 303 0 23 25 23 25 531 0 530 0 43 42
43 42 0 771 0 770 83 81 c45 44 94 88 108 97 14 8 32 29 39 46 40 98 -85 177
-161 102z m126 -7 c74 -80 -29 -191 -111 -120 -22 18 -28 32 -27 62 2 76 88
112 138 58z"/>
<path d="M21965 7029 c-17 -4 -44 -22 -60 -39 -23 -24 -30 -41 -33 -88 -4 -55
-2 -61 28 -95 60 -69 152 -72 215 -7 22 23 29 41 32 82 5 67 -20 111 -80 138
-46 21 -57 22 -102 9z"/>
<path d="M22365 6967 c-18 -15 -28 -36 -32 -64 -5 -37 -2 -45 25 -73 63 -63
172 -22 172 65 0 81 -103 126 -165 72z m120 -12 c52 -51 16 -145 -55 -145 -44
0 -80 39 -80 85 0 46 36 85 80 85 19 0 40 -9 55 -25z"/>
<path d="M8009 6745 c-57 -31 -61 -114 -7 -160 34 -29 66 -32 108 -10 37 19
50 43 50 90 0 74 -82 118 -151 80z m93 -6 c25 -13 50 -72 41 -96 -22 -64 -93
-84 -138 -38 -35 34 -33 78 4 116 31 31 59 36 93 18z"/>
<path d="M9705 6671 c-12 -5 -27 -16 -34 -25 -12 -14 -80 -16 -695 -16 l-681
0 -85 -85 c-82 -82 -85 -84 -122 -79 -52 9 -93 -11 -113 -52 -22 -46 -12 -86
28 -120 41 -34 100 -29 136 12 20 24 23 35 18 80 l-5 51 77 77 77 76 664 -2
664 -3 8 -32 c27 -105 180 -95 195 13 4 35 1 46 -23 73 -31 33 -76 46 -109 32z
m90 -36 c37 -36 34 -86 -6 -119 -35 -30 -49 -32 -88 -11 -38 19 -53 62 -36
102 24 57 88 71 130 28z m-1701 -189 c35 -15 60 -62 49 -94 -22 -63 -94 -82
-138 -37 -49 48 -19 128 53 144 1 1 18 -5 36 -13z"/>
<path d="M22393 6535 c-99 -43 -72 -186 37 -189 35 -1 46 4 71 32 50 56 33
129 -37 158 -39 16 -31 17 -71 -1z m76 -20 c73 -37 43 -155 -39 -155 -85 0
-110 117 -35 158 27 15 41 15 74 -3z"/>
<path d="M22803 6535 c-112 -47 -62 -212 57 -189 46 10 75 48 75 100 0 71 -67
116 -132 89z m70 -17 c33 -17 46 -39 47 -76 0 -65 -74 -104 -127 -67 -82 57
-8 190 80 143z"/>
<path d="M8287 6432 c-53 -54 -57 -61 -57 -106 0 -45 -4 -52 -60 -110 -55 -57
-62 -62 -96 -58 -68 8 -122 -47 -110 -113 16 -84 135 -109 181 -38 13 20 16
38 11 77 l-6 52 55 54 c54 53 55 56 55 110 0 54 2 57 53 108 l53 52 590 0 590
0 59 -60 c55 -55 58 -61 47 -85 -33 -72 11 -145 87 -145 55 0 90 32 98 87 5
39 2 46 -31 79 -33 33 -41 36 -75 31 -37 -5 -42 -2 -102 59 l-63 64 -611 0
-611 0 -57 -58z m1508 -107 c37 -36 34 -86 -6 -119 -34 -29 -50 -32 -82 -14
-34 17 -46 39 -47 80 0 70 85 104 135 53z m-1700 -185 c29 -11 58 -69 48 -97
-22 -64 -93 -84 -138 -38 -35 34 -33 78 4 116 32 31 45 34 86 19z"/>
<path d="M23861 6377 c-52 -54 -68 -64 -82 -56 -35 18 -79 10 -110 -20 -89
-90 33 -227 129 -146 36 30 47 70 32 110 -10 27 -8 32 47 87 l57 58 833 0
c549 0 833 3 833 10 0 6 -91 10 -253 10 -140 0 -517 3 -838 6 l-584 6 -64 -65z
m-66 -92 c62 -61 -7 -167 -87 -134 -29 12 -58 54 -58 83 0 8 12 28 26 45 33
40 83 43 119 6z"/>
<path d="M0 6390 l0 -30 1167 0 1168 0 312 -312 c222 -222 313 -319 313 -335
0 -54 48 -103 100 -103 33 0 75 26 88 55 37 80 -31 163 -112 138 l-34 -10
-313 313 -314 314 -1187 0 -1188 0 0 -30z m3118 -623 c35 -32 30 -88 -10 -122
-36 -30 -68 -28 -105 7 -46 43 -20 127 42 140 27 6 45 -1 73 -25z"/>
<path d="M24084 6296 c-40 -40 -44 -75 -14 -123 22 -37 76 -53 121 -36 25 10
32 6 95 -58 l68 -69 623 0 c409 0 623 3 623 10 0 7 -211 10 -613 10 l-613 0
-67 68 c-63 64 -66 69 -60 104 17 107 -89 168 -163 94z m120 -8 c43 -39 36
-107 -14 -133 -40 -21 -54 -19 -89 11 -24 20 -31 34 -31 60 0 72 81 109 134
62z"/>
<path d="M24525 6321 c-26 -11 -51 -40 -60 -69 -9 -30 12 -88 38 -107 27 -19
87 -19 113 0 16 12 93 14 502 15 l482 0 0 60 0 60 -470 0 -469 0 -37 25 c-38
26 -64 30 -99 16z m91 -35 c54 -46 30 -127 -43 -142 -27 -5 -37 -1 -63 24 -79
79 22 191 106 118z"/>
<path d="M0 6245 l0 -25 1114 0 1114 0 360 -365 359 -365 118 0 118 0 72 69
72 70 160 0 159 0 74 -74 74 -75 141 0 141 0 59 -60 c53 -53 60 -66 61 -100 1
-75 57 -118 129 -99 44 12 65 43 65 94 0 32 -6 47 -29 69 -24 23 -36 27 -75
25 -45 -3 -48 -1 -114 64 l-68 67 -145 0 -145 0 -69 70 -69 70 -196 0 -196 0
-69 -70 -69 -70 -81 0 -80 0 -365 365 -365 365 -1127 0 -1128 0 0 -25z m4352
-873 c10 -9 20 -31 24 -49 5 -27 1 -37 -24 -63 -44 -43 -107 -36 -131 17 -18
39 -13 63 19 95 26 25 36 29 63 24 18 -4 40 -14 49 -24z"/>
<path d="M9194 6256 c-18 -8 -35 -19 -38 -25 -4 -7 -41 -11 -91 -11 l-83 0
-782 -790 -783 -790 -461 0 -461 1 -807 -813 -807 -813 -1 -245 0 -244 -522
-525 c-288 -289 -527 -529 -533 -533 -5 -4 -101 -8 -213 -8 -203 0 -203 0
-230 25 -41 38 -114 31 -149 -14 -18 -23 -16 -87 3 -116 23 -35 74 -49 116
-32 18 8 39 21 46 30 11 13 46 16 245 17 l232 1 550 556 550 556 5 244 5 244
760 769 760 768 492 1 491 1 773 780 773 780 119 0 c118 0 119 0 148 29 39 40
40 89 2 130 -34 37 -68 45 -109 27z m83 -21 c32 -22 43 -65 28 -102 -24 -57
-88 -71 -130 -28 -71 70 21 187 102 130z m-5903 -4766 c28 -33 32 -59 14 -92
-30 -57 -92 -64 -133 -15 -32 38 -29 81 11 116 36 32 77 29 108 -9z"/>
<path d="M23030 6015 l-125 -125 -140 0 -140 0 -108 -108 -107 -107 0 -161 c0
-161 0 -161 26 -188 36 -35 91 -36 133 0 l30 25 -6 142 -5 142 62 68 63 67
111 0 111 0 130 130 130 130 105 0 105 0 146 -146 147 -147 951 -5 951 -5 0
72 0 71 -938 0 -937 0 -135 135 -135 135 -150 0 -150 0 -125 -125z m-466 -566
c14 -17 26 -37 26 -44 0 -33 -22 -66 -53 -81 -30 -14 -38 -15 -63 -3 -37 18
-59 58 -50 92 17 71 94 91 140 36z"/>
<path d="M0 6100 l0 -30 1080 0 1080 0 357 -360 356 -360 181 0 182 0 78 80
79 80 97 0 96 0 107 -109 c59 -59 107 -115 107 -123 0 -26 46 -60 84 -61 93
-3 140 92 80 162 -21 26 -33 31 -68 31 -23 0 -52 -7 -65 -16 -23 -16 -25 -15
-125 85 l-101 101 -130 0 -130 0 -80 -80 -80 -80 -140 0 -140 0 -355 355 -355
355 -1097 0 -1098 0 0 -30z m3925 -710 c15 -6 32 -24 41 -45 13 -31 13 -39 -1
-65 -28 -55 -89 -67 -130 -25 -41 40 -31 104 20 133 25 14 37 15 70 2z"/>
<path d="M0 5940 l0 -30 1043 0 1042 0 359 -365 358 -365 257 0 257 0 29 30
c32 34 48 36 97 15 43 -18 100 -5 123 28 24 35 20 103 -10 132 -34 35 -106 35
-140 0 -14 -13 -25 -33 -25 -45 0 -16 -6 -20 -33 -20 -25 0 -42 -9 -67 -35
l-34 -35 -198 0 -198 0 -357 360 -356 360 -1073 0 -1074 0 0 -30z m3541 -569
c17 -18 29 -40 29 -56 0 -35 -50 -85 -85 -85 -16 0 -38 12 -56 29 -17 18 -29
40 -29 56 0 35 50 85 85 85 16 0 38 -12 56 -29z"/>
<path d="M23267 5899 c-29 -17 -49 -68 -42 -107 6 -33 3 -39 -57 -99 l-63 -64
-3 -771 -3 -772 66 -66 67 -67 486 -7 487 -7 53 -52 52 -51 0 -81 0 -81 68
-67 68 -67 104 0 105 0 130 -130 130 -130 210 0 210 0 132 -132 c121 -121 133
-130 133 -105 0 23 -25 55 -117 153 l-118 124 -210 0 -210 0 -130 130 -130
130 -118 0 -118 0 -50 53 -50 52 7 74 6 74 -73 73 -73 74 -477 0 -476 0 -67
69 -66 69 6 744 6 743 60 61 c59 61 60 61 108 56 44 -4 52 -2 80 26 41 42 42
92 1 133 -23 22 -39 29 -68 29 -21 0 -46 -5 -56 -11z m109 -23 c22 -18 28 -32
27 -62 -2 -76 -88 -112 -138 -58 -74 80 29 191 111 120z"/>
<path d="M10618 5885 c-34 -19 -48 -44 -48 -88 0 -41 30 -82 65 -91 l25 -6 0
-282 0 -282 -302 -303 -303 -303 -255 0 -255 0 -412 -419 -413 -419 0 -470 0
-470 -637 -644 c-350 -353 -722 -730 -827 -836 l-190 -192 -191 0 -190 0 -245
245 -245 245 -485 0 -485 0 -135 -135 -135 -135 -46 6 c-42 6 -50 3 -80 -24
-28 -25 -34 -37 -34 -72 0 -35 6 -47 33 -71 45 -40 93 -40 133 1 26 26 30 36
28 80 l-3 51 135 135 134 134 462 0 462 0 242 -245 243 -245 207 0 207 0 841
847 841 848 0 472 0 472 401 405 401 406 252 0 252 0 312 314 312 314 0 282 0
283 36 31 c32 27 37 38 37 75 0 32 -6 49 -25 67 -30 31 -84 39 -120 19z m112
-33 c25 -32 25 -72 0 -105 -40 -50 -108 -42 -137 17 -14 30 -14 39 -3 66 25
59 102 71 140 22z m-5811 -4563 c37 -13 65 -60 57 -95 -16 -63 -96 -85 -141
-39 -48 47 -24 115 51 145 1 0 15 -5 33 -11z"/>
<path d="M0 5660 c0 -20 7 -20 981 -20 l980 0 371 -375 370 -375 334 0 c323 0
334 -1 334 -19 0 -11 12 -33 26 -50 21 -26 33 -31 69 -31 52 0 91 28 100 71
20 91 -90 155 -163 94 l-29 -25 -320 0 -321 -1 -372 376 -373 375 -994 0
c-986 0 -993 0 -993 -20z m3503 -702 c53 -28 64 -92 22 -133 -64 -65 -166 5
-131 90 22 51 63 68 109 43z"/>
<path d="M23857 5593 c-73 -74 -79 -78 -121 -78 -64 0 -96 -32 -96 -96 0 -40
4 -51 31 -73 19 -17 43 -26 64 -26 21 0 45 9 64 26 26 22 31 33 31 71 0 44 4
50 74 119 l73 74 414 0 415 0 64 -65 64 -65 333 0 333 0 0 25 0 25 -318 0
-318 0 -69 70 -69 70 -446 0 -445 0 -78 -77z m-69 -113 c45 -42 36 -107 -19
-136 -30 -15 -35 -15 -66 0 -58 27 -68 91 -23 136 26 26 80 26 108 0z"/>
<path d="M10914 5556 c-22 -22 -34 -44 -34 -60 0 -33 24 -82 45 -89 13 -5 15
-31 15 -164 l0 -157 -367 -368 -368 -368 -290 0 -291 0 -348 -356 -349 -356 7
-566 6 -566 -411 -412 c-276 -276 -420 -414 -438 -417 -76 -16 -106 -112 -51
-167 38 -38 95 -38 141 -1 20 16 24 29 24 74 l0 54 407 409 408 409 0 565 0
565 326 333 326 332 285 0 286 0 398 403 398 402 0 173 c1 158 3 176 21 199
22 28 26 82 10 114 -13 24 -61 49 -96 49 -16 0 -38 -12 -60 -34z m118 0 c43
-32 42 -91 -1 -130 -74 -67 -177 49 -106 119 27 28 79 33 107 11z m-2864
-3919 c31 -29 30 -86 -3 -117 -72 -67 -176 27 -119 108 31 45 78 49 122 9z"/>
<path d="M7 5533 c-14 -13 -6 -33 12 -33 11 0 32 -11 47 -24 21 -18 28 -32 28
-60 0 -41 -19 -65 -67 -83 l-32 -11 31 -1 c46 -1 84 43 84 97 l0 42 898 0 897
0 405 -405 405 -405 455 0 455 0 89 89 89 90 25 -20 c28 -22 98 -25 123 -6 70
54 35 177 -51 177 -47 0 -60 -10 -187 -141 l-116 -119 -427 0 -428 0 -402 410
-403 410 -962 0 c-529 0 -965 -3 -968 -7z m3938 -588 c54 -54 21 -145 -52
-145 -45 0 -83 37 -83 82 1 76 84 115 135 63z"/>
<path d="M24101 5507 c-88 -51 -54 -187 48 -187 28 0 48 7 68 24 l28 25 90
-89 90 -89 588 -3 c553 -3 587 -2 587 15 0 16 -34 17 -574 17 l-574 0 -92 98
c-51 53 -102 113 -115 132 -12 19 -29 41 -38 48 -23 20 -79 24 -106 9z m104
-32 c46 -45 24 -125 -39 -141 -28 -7 -81 18 -90 41 -22 60 16 125 74 125 19 0
40 -9 55 -25z"/>
<path d="M24524 5510 c-12 -4 -31 -21 -44 -37 -29 -37 -23 -98 15 -130 49 -42
142 -21 160 37 5 16 15 20 53 20 37 0 52 -6 77 -29 l30 -28 393 -7 c344 -5
392 -4 392 9 0 13 -49 15 -378 15 l-378 0 -34 35 c-31 32 -39 35 -91 35 -53 0
-57 2 -69 29 -7 17 -26 36 -45 45 -37 18 -50 19 -81 6z m90 -31 c19 -15 26
-30 26 -55 0 -47 -13 -69 -50 -84 -35 -15 -84 0 -100 31 -45 82 51 166 124
108z"/>
<path d="M151 5296 c-84 -85 -97 -94 -123 -89 -17 3 -28 1 -28 -6 0 -6 11 -11
24 -11 27 0 76 -51 76 -78 0 -33 -39 -81 -72 -91 -33 -9 -33 -9 -5 -10 19 -1
39 9 59 29 25 26 29 36 27 75 -3 45 -2 47 81 130 l85 85 765 0 765 0 420 -420
420 -420 509 0 508 0 82 80 82 80 125 0 125 0 73 74 73 74 57 -5 c50 -5 59 -2
83 20 22 20 28 35 28 67 0 116 -160 139 -191 27 -9 -30 -32 -63 -83 -114 l-70
-73 -118 0 -117 0 -83 -85 -84 -85 -486 0 -486 0 -414 420 -415 420 -799 0
-799 0 -94 -94z m4195 -350 c21 -17 28 -33 28 -59 0 -88 -110 -122 -149 -46
-22 42 -18 67 14 100 36 35 70 37 107 5z"/>
<path d="M23864 5143 c-60 -67 -60 -67 -91 -54 -68 28 -138 -18 -138 -91 0
-33 6 -45 33 -69 45 -40 93 -40 134 1 28 28 30 36 26 80 -5 48 -4 49 51 104
l57 56 160 0 160 0 37 -38 37 -38 0 -100 0 -100 53 -52 53 -52 140 0 140 0 39
40 39 40 403 0 c352 0 403 2 403 15 0 13 -53 15 -413 15 l-414 0 -42 -45 -42
-44 -112 5 -112 6 -47 46 -48 46 0 101 0 101 -48 47 -48 47 -175 0 -175 0 -60
-67z m-81 -77 c9 -7 22 -27 28 -44 18 -53 -28 -112 -87 -112 -28 0 -74 56 -74
90 0 63 83 104 133 66z"/>
<path d="M23271 5086 c-47 -26 -63 -84 -37 -135 23 -43 89 -65 126 -41 11 7
30 -6 80 -55 l65 -65 338 -7 337 -6 99 -103 99 -103 292 -1 c260 -1 294 0 310
15 17 16 45 16 319 10 l301 -8 0 22 0 21 -329 0 c-280 0 -330 -2 -341 -15 -10
-13 -53 -15 -264 -15 l-251 0 -110 110 -110 110 -325 0 -324 0 -68 67 c-58 58
-66 70 -61 95 16 81 -73 144 -146 104z m106 -28 c16 -15 23 -33 23 -57 -1 -40
-14 -62 -47 -79 -32 -18 -48 -15 -82 14 -24 20 -31 34 -31 62 0 73 84 110 137
60z"/>
<path d="M24104 5084 c-92 -45 -58 -184 45 -184 22 0 43 5 46 10 12 19 25 10
25 -17 0 -21 23 -53 96 -130 l96 -103 227 0 227 0 30 31 29 31 338 -5 c320 -5
337 -4 337 13 0 17 -21 18 -352 22 l-353 4 -30 -28 -31 -28 -195 0 -194 0 -98
98 -97 97 0 69 c0 64 -2 70 -34 102 -38 38 -64 42 -112 18z m101 -29 c46 -45
24 -125 -40 -141 -52 -13 -99 29 -97 88 2 71 87 104 137 53z"/>
<path d="M24524 5090 c-65 -26 -84 -112 -35 -161 50 -49 138 -34 161 27 8 19
17 24 43 24 23 0 41 8 57 25 l23 25 414 0 c269 0 413 3 413 10 0 7 -148 10
-423 10 l-424 0 -23 -25 c-32 -34 -63 -33 -77 5 -11 29 -66 70 -93 69 -8 0
-25 -4 -36 -9z m91 -35 c52 -51 16 -145 -55 -145 -44 0 -80 39 -80 85 0 46 36
85 80 85 19 0 40 -9 55 -25z"/>
<path d="M22628 5004 c-35 -19 -48 -43 -48 -92 0 -33 6 -45 31 -66 19 -17 43
-26 64 -26 21 0 45 9 64 26 25 21 31 33 31 66 0 50 -13 74 -50 93 -36 19 -57
18 -92 -1z m87 -10 c25 -10 47 -62 40 -95 -9 -41 -52 -72 -89 -65 -39 8 -63
31 -71 66 -7 30 15 84 37 93 19 8 64 8 83 1z"/>
<path d="M20115 4733 c-32 -8 -64 -44 -71 -79 -17 -93 99 -153 167 -85 52 53
33 135 -38 162 -26 9 -26 10 -58 2z m82 -35 c39 -42 31 -108 -17 -133 -41 -21
-58 -19 -91 14 -37 38 -39 82 -4 116 32 33 84 34 112 3z"/>
<path d="M0 4691 c0 -6 4 -11 8 -11 11 0 32 -46 32 -69 0 -10 -10 -30 -21 -45
-12 -15 -19 -30 -15 -33 10 -10 35 18 46 53 10 28 9 40 -7 71 -17 36 -43 56
-43 34z"/>
<path d="M23275 4676 c-60 -26 -73 -109 -26 -157 24 -24 38 -29 76 -29 43 0
49 -3 106 -65 l61 -65 162 0 162 0 59 -60 59 -60 286 0 285 0 290 -289 290
-289 258 -6 257 -6 0 25 0 25 -227 0 -228 -1 -295 301 -295 300 -285 0 -286 0
-59 60 -59 60 -161 0 -161 0 -64 65 c-52 52 -64 71 -62 91 6 40 -17 81 -53 98
-39 19 -51 19 -90 2z m104 -32 c31 -40 28 -87 -10 -118 -35 -30 -49 -32 -88
-11 -32 16 -41 33 -41 78 0 72 95 107 139 51z"/>
<path d="M23700 4683 c-30 -11 -60 -47 -66 -78 -7 -37 16 -89 45 -105 35 -18
87 -12 118 14 l30 25 94 -95 94 -94 545 0 546 0 29 -30 29 -30 218 0 c139 0
218 4 218 10 0 6 -74 10 -203 10 l-203 0 -34 35 -34 35 -546 0 -545 0 -103
103 c-56 56 -102 110 -102 120 0 53 -76 100 -130 80z m87 -35 c30 -34 34 -55
18 -94 -13 -32 -46 -54 -81 -54 -28 0 -74 56 -74 90 0 69 92 107 137 58z"/>
<path d="M24080 4672 c-43 -21 -64 -62 -56 -106 17 -89 138 -106 184 -26 9 16
24 30 32 30 9 0 40 -25 70 -55 l55 -55 399 0 c389 1 399 0 418 -20 18 -19 30
-20 218 -20 193 0 200 1 200 20 0 19 -7 20 -194 20 -160 0 -196 3 -206 15 -11
13 -69 15 -414 15 l-402 0 -54 55 c-39 39 -62 55 -81 55 -20 0 -30 7 -38 29
-21 49 -81 69 -131 43z m99 -26 c57 -61 -1 -166 -79 -141 -34 11 -60 46 -60
82 0 73 90 111 139 59z"/>
<path d="M23695 4281 c-39 -16 -60 -51 -60 -98 0 -37 5 -49 28 -69 33 -28 91
-32 123 -9 19 13 23 12 44 -10 l23 -25 306 0 306 0 285 -285 285 -285 282 0
283 0 0 30 0 30 -263 0 -263 0 -289 290 -289 290 -297 0 -296 0 -47 50 c-25
27 -46 54 -46 60 0 12 -60 40 -82 39 -7 0 -22 -4 -33 -8z m89 -33 c43 -39 36
-107 -14 -133 -40 -21 -54 -19 -89 11 -24 20 -31 34 -31 60 0 72 81 109 134
62z"/>
<path d="M24930 4263 c-56 -20 -83 -89 -56 -141 20 -38 44 -52 91 -52 105 0
132 155 33 189 -33 12 -45 12 -68 4z m78 -29 c52 -36 46 -111 -10 -140 -84
-43 -159 63 -92 130 30 30 69 34 102 10z"/>
<path d="M6898 2849 c-28 -28 -30 -34 -25 -83 l5 -53 -54 -54 c-54 -53 -54
-54 -54 -114 0 -60 -1 -61 -53 -113 l-53 -52 -590 0 -590 0 -59 60 c-55 55
-58 61 -47 85 33 72 -11 145 -87 145 -61 0 -96 -35 -96 -95 0 -62 35 -95 100
-95 40 0 48 -4 106 -65 l62 -65 606 0 607 0 62 63 c58 58 62 66 62 108 0 42 4
49 63 107 55 55 66 62 92 57 56 -11 115 45 115 107 0 11 -15 35 -34 54 -46 46
-94 47 -138 3z m123 -8 c55 -55 25 -141 -50 -141 -65 0 -105 64 -76 120 29 55
82 64 126 21z m-1677 -203 c38 -35 39 -86 1 -123 -51 -52 -135 -15 -135 60 0
73 80 111 134 63z"/>
<path d="M6898 2539 c-28 -27 -30 -34 -25 -78 l6 -48 -82 -81 -82 -82 -647 0
c-355 0 -653 3 -662 6 -9 3 -16 13 -16 21 0 53 -70 103 -122 88 -36 -11 -67
-45 -74 -80 -7 -37 16 -89 45 -105 32 -16 86 -12 114 10 25 20 40 20 704 20
l678 0 89 89 c49 50 93 88 98 85 4 -3 26 -6 49 -6 74 -1 119 74 85 140 -32 62
-108 72 -158 21z m107 15 c21 -8 45 -56 45 -89 0 -35 -42 -75 -77 -75 -63 0
-103 57 -79 114 20 49 63 68 111 50z m-1667 -220 c51 -35 46 -111 -9 -139 -39
-21 -53 -19 -88 11 -80 67 12 188 97 128z"/>
<path d="M6899 2251 c-68 -68 -8 -184 85 -167 50 10 81 49 81 103 0 37 -5 49
-28 69 -41 35 -99 33 -138 -5z m129 -17 c64 -72 -28 -173 -106 -118 -32 22
-43 57 -31 94 22 61 92 73 137 24z"/>
<path d="M5300 1385 c-58 -58 -81 -75 -103 -75 -58 0 -107 -46 -107 -101 0
-51 49 -99 101 -99 69 0 120 81 88 141 -9 17 -1 29 52 84 l62 65 146 0 146 0
260 -260 260 -260 755 0 756 0 173 175 c152 153 176 173 193 164 50 -27 128
32 128 98 0 80 -104 123 -167 69 -22 -19 -28 -32 -28 -70 -1 -45 -3 -48 -164
-216 l-163 -170 -727 0 -726 0 -265 265 -265 265 -165 0 -166 0 -74 -75z
m2865 -10 c52 -51 16 -145 -55 -145 -44 0 -80 39 -80 85 0 46 36 85 80 85 19
0 40 -9 55 -25z m-2917 -108 c52 -47 14 -137 -59 -137 -95 0 -107 143 -14 162
27 6 45 -1 73 -25z"/>
</g>
</svg>
