<svg width="2560" height="1600" xmlns="http://www.w3.org/2000/svg" preserveAspectRatio="xMidYMid meet">

 <g>
  <title>background</title>
  <rect fill="none" id="canvas_background" height="502" width="502" y="-1" x="-1"/>
 </g>
 <g>
  <title>Layer 1</title>
  <g id="svg_1" fill="#000000" transform="translate(0,1600) scale(0.10000000149011612,-0.10000000149011612) ">
   <path id="svg_2" d="m312,14087l-2,-1908l577,-582c550,-554 1291,-1301 1933,-1950l295,-297l269,0l269,1l66,-65l67,-66l142,0l142,0l69,-72c56,-58 68,-75 60,-89c-16,-30 -10,-66 16,-97c32,-38 72,-48 118,-28c42,17 57,41 57,91c0,63 -71,111 -131,88c-25,-10 -31,-6 -95,58l-68,69l-146,0l-146,0l-69,70l-69,70l-277,0l-276,0l-163,168c-90,92 -607,615 -1149,1162c-543,547 -1097,1107 -1231,1243l-245,249l-5,1896l-5,1897l-3,-1908zm4017,-4992c16,-8 34,-28 40,-45c29,-85 -78,-153 -136,-86c-39,45 -23,114 31,136c29,12 33,12 65,-5z"/>
   <path id="svg_3" d="m1932,14793l-2,-1201l-26,-31l-26,-31l-237,0l-238,0l-41,-42l-42,-42l0,-995l1,-996l671,-680c369,-374 797,-809 951,-967l280,-288l476,0l476,0l218,-218l218,-218l-7,-41c-12,-76 48,-135 120,-117c33,8 76,58 76,89c0,74 -79,128 -139,96c-14,-8 -56,29 -242,215l-224,224l-480,0l-480,0l-721,728c-396,400 -822,831 -947,958l-227,231l0,990l0,989l33,32l33,32l240,0l240,0l27,28l27,28l-3,1215l-2,1214l-3,-1202zm2817,-5709c39,-33 42,-80 8,-120c-49,-56 -137,-20 -137,57c0,29 7,43 31,63c17,14 39,26 49,26c10,0 32,-12 49,-26z"/>
   <path id="svg_4" d="m2060,14698l0,-1292l-27,-28l-27,-28l-256,0l-256,0l-27,-28c-23,-24 -27,-37 -27,-88c0,-50 4,-64 23,-82c23,-21 30,-22 278,-22l255,0l27,-28c33,-34 34,-62 4,-90c-23,-21 -30,-22 -278,-22c-254,0 -256,0 -277,-23c-32,-34 -31,-122 3,-159l24,-28l254,0l253,0l27,-28c33,-34 34,-62 4,-90c-23,-21 -30,-22 -278,-22l-254,0l-28,-25c-23,-22 -27,-34 -27,-82c0,-48 4,-61 27,-85l27,-28l256,0c236,0 258,-1 273,-18c23,-25 21,-45 -6,-70c-23,-21 -30,-22 -279,-22c-304,0 -288,7 -288,-117c0,-119 -17,-113 308,-113c269,0 271,0 286,-22c22,-32 20,-61 -7,-86c-23,-21 -30,-22 -283,-22c-259,0 -261,0 -282,-23c-32,-34 -32,-134 1,-165c23,-21 30,-22 278,-22c254,0 256,0 277,-23c27,-29 29,-78 4,-100c-16,-15 -47,-17 -219,-17c-234,0 -233,0 -233,-92c0,-44 4,-59 23,-76c22,-21 32,-22 217,-22l194,0l28,-27l28,-27l0,-230l0,-229l637,-639l637,-638l121,0l120,0l80,80c86,87 109,96 155,60c62,-49 160,-3 160,75c0,47 -14,71 -52,91c-55,29 -124,-2 -143,-63c-4,-17 -14,-23 -33,-23c-21,0 -47,-20 -112,-85l-85,-85l-106,0l-107,0l-626,633l-626,632l0,210l0,211l-39,38l-39,38l-177,-2c-171,-1 -179,0 -201,21c-26,25 -32,77 -12,97c8,8 68,12 202,12l190,0l28,27c23,22 28,35 28,73c0,39 -5,51 -33,78l-33,32l-253,0c-288,0 -280,-2 -281,81c0,79 -2,79 290,79l254,0l28,27c38,36 40,108 5,141c-23,21 -30,22 -288,22c-193,0 -268,3 -277,12c-7,7 -12,37 -12,68c0,92 -7,90 290,90l254,0l28,27c38,36 35,62 -10,106l-38,37l-245,0c-276,0 -279,1 -279,72c0,67 5,68 291,68l255,0l27,28c22,23 27,37 27,78c0,44 -4,54 -33,82l-33,32l-255,0c-235,0 -257,1 -272,18c-22,25 -21,75 1,95c16,15 50,17 270,17l252,0l35,37c48,51 47,87 -3,136l-38,37l-251,0c-249,0 -252,0 -267,22c-20,29 -20,67 0,96c15,22 18,22 273,22l257,0l37,38l37,38l0,1307c0,1155 -2,1307 -15,1307c-13,0 -15,-150 -15,-1292zm1884,-4797c48,-42 35,-119 -23,-139c-77,-27 -142,59 -95,126c30,43 78,48 118,13z"/>
   <path id="svg_5" d="m2220,13488l0,-2503l451,-457l451,-458l57,0l56,0l83,-83c81,-81 82,-83 71,-115c-35,-100 87,-177 162,-103c31,31 39,83 19,122c-16,29 -68,52 -104,45c-29,-6 -38,1 -121,84l-90,90l-56,0l-57,0l-446,453l-446,452l0,2488c0,2204 -2,2487 -15,2487c-13,0 -15,-285 -15,-2502zm1314,-3587c48,-41 35,-119 -23,-139c-81,-28 -144,64 -91,131c30,38 75,41 114,8z"/>
   <path id="svg_6" d="m2360,13522l0,-2468l401,-407l401,-407l42,0c68,0 86,27 86,127c0,99 11,113 91,113c30,0 60,-5 67,-12c7,-7 12,-35 12,-63c0,-45 -3,-53 -26,-65c-36,-20 -57,-65 -50,-106c9,-45 48,-74 101,-74c108,0 133,135 34,185c-27,14 -29,19 -29,74c0,80 -14,91 -112,91c-104,0 -116,-14 -120,-135l-3,-90l-40,-3l-40,-4l-387,394l-387,393l-1,2463c0,2455 0,2462 -20,2462c-20,0 -20,-7 -20,-2468zm1161,-3192c27,-15 51,-67 43,-93c-20,-68 -94,-89 -139,-41c-64,69 14,177 96,134z"/>
   <path id="svg_7" d="m2520,13598l0,-2393l232,-232l231,-231l-13,-31c-7,-18 -10,-45 -6,-65c19,-101 173,-101 192,0c14,74 -42,132 -115,120c-36,-6 -37,-4 -263,222l-228,227l0,2387c0,2116 -2,2388 -15,2388c-13,0 -15,-272 -15,-2392zm595,-2873c34,-33 34,-83 0,-115c-53,-50 -135,-13 -135,61c0,71 85,105 135,54z"/>
   <path id="svg_8" d="m2660,13700l0,-2291l371,-374l372,-375l192,0l193,0l12,-30c17,-41 46,-60 93,-60c73,0 122,85 87,151c-13,24 -61,49 -94,49c-28,0 -86,-44 -86,-66c0,-12 -33,-14 -188,-14l-187,0l-363,363l-362,362l0,2288c0,2280 0,2287 -20,2287c-20,0 -20,-7 -20,-2290zm1278,-2966c54,-37 46,-115 -14,-140c-39,-16 -74,-7 -98,28c-52,74 38,164 112,112z"/>
   <path id="svg_9" d="m2820,13852l0,-2139l23,-21l23,-22l521,0c491,0 521,-1 536,-18c21,-23 22,-81 1,-110l-15,-22l-458,0l-458,0l-21,-23c-18,-19 -22,-35 -22,-93c0,-61 3,-74 23,-92c23,-22 25,-22 478,-22c341,0 458,-3 467,-12c16,-16 16,-90 0,-106c-9,-9 -95,-12 -323,-12c-360,0 -345,4 -345,-91c0,-49 4,-59 33,-87l33,-32l306,0l306,0l81,-87l81,-87l0,-136l0,-135l-78,-78c-69,-69 -81,-77 -115,-77c-49,0 -73,-13 -93,-52c-21,-40 -11,-91 23,-118c29,-23 98,-27 124,-7c38,29 49,84 27,132c-11,25 -8,30 65,103l77,77l0,150l0,150l-98,98l-97,97l-300,0l-299,0l-28,27c-22,21 -28,36 -28,70c0,73 1,73 348,72c224,-1 306,2 317,11c9,8 15,30 15,59c0,39 -5,52 -28,74l-28,27l-450,0c-337,0 -453,3 -462,12c-7,7 -12,39 -12,73c0,51 4,65 23,83c23,22 25,22 478,22c341,0 458,3 467,12c7,7 12,37 12,68c0,46 -4,61 -23,78l-23,22l-516,0c-486,0 -516,1 -531,18c-16,17 -17,181 -17,2150c0,1415 -3,2132 -10,2132c-7,0 -10,-719 -10,-2138zm1112,-3523c25,-13 50,-72 41,-96c-22,-64 -93,-84 -138,-38c-67,66 14,179 97,134z"/>
   <path id="svg_10" d="m2960,14077l0,-1912l183,-183l182,-182l360,0l359,0l28,-27l28,-27l0,-376l0,-375l85,-85l85,-85l0,-236l0,-236l-26,-13c-59,-32 -68,-119 -17,-160c29,-23 98,-27 124,-7c24,18 39,52 39,87c0,37 -47,90 -79,90c-21,0 -21,4 -21,243l0,242l-85,85l-85,85l0,380l0,381l-28,27l-28,27l-360,0l-360,0l-182,183l-182,183l0,1902c0,1261 -3,1902 -10,1902c-7,0 -10,-644 -10,-1913zm1372,-3748c25,-13 50,-72 41,-96c-22,-64 -93,-84 -138,-38c-67,66 14,179 97,134z"/>
   <path id="svg_11" d="m3120,14112l0,-1877l138,-138l137,-137l388,0l389,0l29,-29l29,-29l0,-403l0,-403l120,-121l120,-122l0,-400l0,-399l-56,-60c-55,-58 -57,-59 -109,-59c-63,0 -101,-28 -111,-81c-18,-94 99,-153 168,-83c28,28 30,34 25,83l-5,53l54,54l54,53l0,426l0,425l-120,122l-120,122l0,403l0,404l-38,37l-38,37l-384,0l-385,0l-132,132l-133,133l0,1867c0,1239 -3,1868 -10,1868c-7,0 -10,-633 -10,-1878zm1224,-4211c48,-42 35,-119 -23,-139c-77,-27 -142,59 -95,126c30,43 78,48 118,13z"/>
   <path id="svg_12" d="m3710,14262l0,-1727l78,-78l77,-77l236,0l235,0l32,-33l32,-33l0,-580l0,-579l135,-135l135,-135l0,-370l0,-370l115,-115l115,-115l0,-145l0,-145l266,-266l266,-266l-12,-35c-37,-102 79,-181 158,-108c76,71 -2,199 -99,163c-26,-10 -36,-1 -298,261l-271,272l0,145l0,144l-110,110l-110,110l0,380l0,380l-130,130l-130,130l0,576l0,576l-45,42l-45,41l-238,0l-238,0l-67,68l-67,68l0,1722c0,1141 -3,1722 -10,1722c-7,0 -10,-583 -10,-1728zm1849,-5178c60,-50 27,-147 -49,-147c-76,0 -109,97 -49,147c17,14 39,26 49,26c10,0 32,-12 49,-26z"/>
   <path id="svg_13" d="m4250,14617l0,-1372l145,-145l145,-145l0,-860l1,-860l134,-137l135,-137l0,-378l0,-378l132,-132l131,-132l-31,-29c-26,-25 -32,-38 -32,-72c0,-53 42,-100 90,-100c125,0 148,157 28,196c-15,5 -88,73 -162,151l-136,141l0,379l0,378l-130,130l-130,130l0,865l0,865l-150,150l-150,150l0,1357c0,899 -3,1358 -10,1358c-7,0 -10,-464 -10,-1373zm920,-4725c53,-67 -11,-158 -91,-130c-38,13 -64,65 -50,100c25,66 100,82 141,30z"/>
   <path id="svg_14" d="m4390,14652l0,-1337l140,-140l140,-140l0,-865l0,-865l135,-135l135,-135l0,-315l0,-316l45,-44c35,-34 42,-47 35,-61c-21,-38 -7,-99 29,-126c26,-20 95,-16 124,7c33,27 44,78 24,117c-21,40 -57,57 -107,50c-38,-5 -44,-2 -80,36l-39,42l-1,315l0,315l-135,135l-135,135l0,855l0,855l-145,145l-145,145l0,1332c0,882 -3,1333 -10,1333c-7,0 -10,-453 -10,-1338zm753,-4324c53,-28 64,-92 22,-133c-64,-65 -166,5 -131,90c22,51 63,68 109,43z"/>
   <path id="svg_15" d="m4600,14692l0,-1297l135,-135l135,-135l0,-855l0,-855l215,-215l215,-215l0,-475l1,-475l63,-69c57,-61 63,-71 54,-92c-6,-12 -8,-38 -4,-58c20,-108 178,-100 193,10c5,36 1,46 -25,75c-26,29 -36,33 -76,34c-41,0 -50,5 -101,55l-55,54l0,472l0,472l-220,223l-219,224l-1,845l0,846l-140,144l-139,145l-1,1288c0,1137 -2,1287 -15,1287c-13,0 -15,-151 -15,-1298zm969,-4798c29,-37 27,-85 -4,-114c-75,-71 -178,32 -114,114c16,20 29,26 59,26c30,0 43,-6 59,-26z"/>
   <path id="svg_16" d="m4780,14763l0,-1228l150,-159l150,-159l0,-228c0,-202 2,-231 17,-249c16,-19 29,-20 213,-20c192,0 197,0 218,-23c28,-30 29,-82 3,-97c-12,-6 -99,-10 -214,-10c-189,0 -194,0 -215,-23c-32,-34 -32,-134 1,-165c22,-21 32,-22 220,-22c191,0 196,-1 211,-22c23,-33 21,-105 -3,-118c-12,-6 -99,-10 -213,-10l-194,0l-22,-30c-34,-45 -31,-118 6,-153l28,-27l195,0c138,0 198,-3 207,-12c16,-16 15,-103 0,-116c-8,-5 -101,-12 -215,-14c-241,-5 -243,-6 -243,-98c0,-49 4,-60 28,-83l28,-27l185,0c131,0 189,-4 197,-12c17,-17 15,-93 -2,-108c-10,-8 -62,-12 -155,-12c-177,-1 -181,-3 -181,-97c0,-97 6,-101 158,-101l121,0l20,-29c21,-28 21,-40 21,-490l0,-460l-29,-16c-65,-33 -80,-101 -35,-154c22,-27 32,-31 74,-31c42,0 52,4 74,31c41,49 30,116 -24,147l-30,17l0,470l0,471l-38,37l-38,37l-110,0c-72,0 -114,4 -122,12c-7,7 -12,30 -12,53c0,23 5,46 12,53c8,8 55,12 144,12c128,0 134,1 163,26c28,23 31,31 31,83c0,50 -4,61 -28,84l-28,27l-183,0c-163,0 -185,2 -197,18c-19,24 -17,46 4,65c16,15 45,17 203,17l185,0l32,33c28,29 32,40 32,88c0,47 -4,59 -28,82l-28,27l-185,0c-181,0 -186,1 -207,23c-27,28 -28,68 -4,90c16,15 46,17 214,17c190,0 195,0 216,23c18,19 22,35 22,87c0,56 -3,68 -27,92l-27,28l-197,0c-193,0 -198,1 -213,22c-24,34 -20,78 11,110l27,28l191,0c173,0 194,2 208,18c27,30 22,91 -10,124l-27,28l-181,0c-244,0 -225,-23 -225,270l0,224l-155,157l-155,157l0,1221c0,807 -3,1221 -10,1221c-7,0 -10,-416 -10,-1227zm784,-4448c55,-51 20,-145 -54,-145c-47,0 -80,35 -80,87c0,41 40,83 80,83c15,0 39,-11 54,-25z"/>
   <path id="svg_17" d="m4932,14788l-2,-1207l390,-393l389,-393l1,-1575l0,-1576l-72,-71c-56,-56 -76,-70 -88,-63c-39,25 -110,-2 -130,-49c-37,-91 52,-172 139,-127c43,23 64,84 42,125c-8,14 4,32 60,90l69,73l0,1590l0,1590l-392,395l-393,394l-5,1202l-5,1202l-3,-1207zm632,-5309c56,-44 19,-142 -54,-142c-43,0 -80,37 -80,82c0,71 76,106 134,60z"/>
   <path id="svg_18" d="m5080,14821l0,-1169l415,-419l414,-418l1,-1237c0,-1219 0,-1237 -20,-1243c-10,-3 -31,-20 -46,-37c-21,-26 -25,-39 -20,-66c11,-71 83,-110 144,-78c38,20 52,44 52,88c0,42 -20,72 -60,88l-30,12l0,1242l0,1241l-415,415l-415,415l0,1167c0,772 -3,1168 -10,1168c-7,0 -10,-396 -10,-1169zm868,-4502c19,-6 36,-23 46,-43c42,-89 -74,-165 -134,-88c-35,44 -18,111 34,132c11,5 21,9 22,9c1,1 15,-4 32,-10z"/>
   <path id="svg_19" d="m5210,14859l0,-1131l450,-456l450,-457l0,-1320l0,-1320l-140,-145c-86,-90 -141,-156 -145,-173c-22,-93 98,-156 166,-88c51,52 36,133 -31,161c-16,7 -30,15 -30,19c0,3 45,51 100,106l100,100l0,1340l0,1340l-450,450l-450,450l0,1127c0,745 -3,1128 -10,1128c-7,0 -10,-384 -10,-1131zm764,-4958c48,-42 35,-119 -23,-139c-77,-27 -142,59 -95,126c30,43 78,48 118,13z"/>
   <path id="svg_20" d="m5360,14903l0,-1088l450,-455l449,-455l0,-1380l1,-1381l-75,-74l-75,-74l0,-176l0,-176l-68,-67c-62,-62 -70,-67 -100,-61c-45,9 -88,-12 -106,-51c-19,-40 -20,-56 -4,-90c27,-59 112,-73 159,-26c30,31 39,83 20,120c-8,14 2,30 55,82l64,63l0,181l0,180l80,80l80,80l0,1389l0,1389l-455,458l-455,459l0,1080c0,713 -3,1080 -10,1080c-7,0 -10,-369 -10,-1087zm617,-5425c29,-32 34,-53 21,-88c-21,-61 -98,-74 -138,-23c-43,56 -9,133 59,133c26,0 44,-7 58,-22z"/>
   <path id="svg_21" d="m5510,14933l0,-1058l445,-445l445,-446l0,-1450l0,-1450l-45,-44l-45,-44l0,-281l0,-280l-167,-167c-132,-131 -171,-165 -183,-158c-23,15 -59,12 -91,-7c-104,-62 -19,-217 94,-170c46,20 61,48 54,107l-6,47l160,159l159,159l0,285l0,286l45,44l45,44l0,1471l-1,1470l-439,443l-440,444l0,1049c0,926 -2,1049 -15,1049c-13,0 -15,-124 -15,-1057zm449,-5838c16,-8 34,-28 40,-45c29,-85 -78,-153 -136,-86c-39,45 -23,114 31,136c29,12 33,12 65,-5z"/>
   <path id="svg_22" d="m5660,14968l0,-1023l440,-440l440,-441l0,-1729l0,-1729l60,-61c58,-58 60,-63 50,-90c-15,-40 -4,-80 32,-110c42,-35 91,-34 129,4c80,80 -14,213 -114,160c-19,-11 -27,-6 -79,50l-58,62l-1,1727l0,1727l-435,440l-434,439l0,1018c0,898 -2,1018 -15,1018c-13,0 -15,-120 -15,-1022zm1144,-5499c14,-17 26,-37 26,-45c0,-29 -29,-71 -58,-83c-80,-33 -149,73 -87,134c36,37 86,34 119,-6z"/>
   <path id="svg_23" d="m5810,15197l0,-794l69,-67l70,-67l259,2l260,1l231,-233l230,-234l1,-1875l0,-1874l-67,-68c-57,-57 -69,-65 -86,-57c-27,15 -80,3 -105,-24c-60,-65 -18,-167 69,-167c74,0 125,83 90,149c-8,14 3,31 60,87l69,68l0,1886l0,1885l-238,238l-237,237l-265,0l-266,0l-62,63l-62,63l0,787c0,518 -3,787 -10,787c-7,0 -10,-271 -10,-793zm987,-5299c31,-34 36,-63 18,-98c-40,-78 -155,-47 -155,42c0,67 92,104 137,56z"/>
   <path id="svg_24" d="m7450,15162l0,-828l74,-73l74,-73l-5,-62c-5,-61 -6,-62 -84,-141l-79,-80l0,-1065l0,-1066l-65,-64l-65,-64l0,-456l0,-456l75,-74c72,-71 75,-76 75,-121c0,-63 34,-99 94,-99c23,0 51,7 63,15c32,22 46,80 29,119c-19,45 -42,60 -93,61c-40,1 -49,6 -113,70l-70,69l0,426l0,426l60,59l60,59l1,1071l1,1070l74,69c72,68 75,70 122,67c40,-1 53,2 74,24c14,14 29,36 32,48c16,65 -48,134 -113,122c-32,-6 -38,-2 -113,72l-78,78l0,812c0,716 -2,813 -15,813c-13,0 -15,-99 -15,-828zm295,-987c62,-61 -7,-166 -89,-135c-25,9 -56,56 -56,84c0,8 12,28 26,45c33,40 83,43 119,6zm-144,-3584c17,-18 29,-40 29,-56c0,-34 -50,-85 -84,-85c-34,0 -75,38 -82,77c-5,27 -1,37 24,63c39,39 74,39 113,1z"/>
   <path id="svg_25" d="m7990,14407l0,-1582l-135,-135l-135,-135l0,-1010l0,-1011l-35,-34c-32,-31 -35,-39 -35,-92c0,-32 -4,-58 -9,-58c-5,0 -23,-12 -40,-26c-26,-22 -31,-33 -31,-70c0,-61 32,-94 90,-94c23,0 50,5 62,11c26,14 48,67 41,102c-5,26 -54,77 -74,77c-5,0 -9,22 -9,48c0,41 5,53 30,77l30,29l0,1016l0,1015l135,135l135,135l0,1592c0,1055 -3,1593 -10,1593c-7,0 -10,-534 -10,-1583zm-269,-4096c32,-33 36,-58 14,-100c-27,-53 -90,-57 -130,-9c-32,38 -29,81 11,116c34,30 70,28 105,-7z"/>
   <path id="svg_26" d="m8150,14358l0,-1633l-145,-147l-145,-147l0,-1143l0,-1143l-102,-102c-57,-55 -117,-108 -135,-117c-39,-20 -53,-43 -53,-91c0,-71 75,-115 143,-84c56,25 68,117 22,157l-27,23l91,92l91,93l0,1145l0,1144l145,145l145,145l0,1647c0,1458 -2,1648 -15,1648c-13,0 -15,-188 -15,-1632zm-431,-4455c12,-10 24,-34 27,-54c17,-103 -139,-131 -161,-29c-7,30 15,84 37,93c28,12 77,6 97,-10z"/>
   <path id="svg_27" d="m8300,14308l0,-1681l-140,-142l-140,-141l0,-945l0,-945l30,-29c40,-38 38,-60 -5,-81c-102,-48 -72,-185 39,-184c44,1 66,13 84,47c27,49 1,122 -48,138c-15,5 -20,15 -20,39c0,22 -8,40 -25,56l-25,23l0,936l0,936l140,140l140,140l0,1687c0,1494 -2,1688 -15,1688c-13,0 -15,-194 -15,-1682zm-178,-3979c25,-13 50,-72 41,-96c-22,-64 -93,-84 -138,-38c-67,66 14,179 97,134z"/>
   <path id="svg_28" d="m8440,14282l0,-1707l-135,-135l-135,-135l0,-915l0,-916l45,-44l45,-44l0,-111l0,-111l-53,-52l-53,-52l-95,0l-95,0l-47,-48l-47,-48l0,-174l0,-174l65,-66c64,-64 65,-67 54,-98c-34,-99 88,-177 162,-103c38,39 40,97 5,138c-21,24 -31,28 -80,28c-54,0 -57,2 -111,55l-55,54l0,166l0,165l34,33c33,32 34,32 132,32l100,0l57,58l57,58l0,135l0,135l-40,39l-40,39l0,906l0,905l135,135l135,135l0,1712c0,1706 0,1713 -20,1713c-20,0 -20,-7 -20,-1708zm-303,-4804c29,-32 34,-53 21,-88c-21,-61 -98,-74 -138,-23c-43,56 -9,133 59,133c26,0 44,-7 58,-22z"/>
   <path id="svg_29" d="m8590,14234l0,-1756l-135,-136l-135,-137l0,-811l0,-810l30,-29l30,-29l0,-196l0,-195l-97,-97l-98,-96l-72,-4c-59,-3 -77,-8 -97,-27c-67,-63 -25,-170 67,-171c55,0 97,43 97,99c0,22 -4,43 -10,46c-19,12 -10,25 17,25c22,0 50,23 130,102l103,103l0,220l0,221l-30,29l-30,29l0,785l1,786l129,134l130,134l0,1769c0,1565 -2,1768 -15,1768c-13,0 -15,-202 -15,-1756zm-456,-4333c48,-42 35,-119 -23,-139c-77,-27 -142,59 -95,126c30,43 78,48 118,13z"/>
   <path id="svg_30" d="m8720,14203l0,-1786l-140,-142l-140,-141l0,-739c0,-719 1,-741 20,-765c18,-23 20,-42 20,-274l0,-249l-115,-117l-115,-116l0,-330l0,-330l-60,-59c-53,-52 -64,-59 -94,-57c-45,4 -90,-20 -106,-57c-33,-80 45,-159 128,-130c47,16 66,52 58,113l-6,52l65,64l65,64l0,331l0,330l105,105l105,105l0,291c0,247 -2,293 -15,304c-13,11 -15,104 -15,728l0,715l135,138l135,138l0,1801c0,1593 -2,1800 -15,1800c-13,0 -15,-205 -15,-1787zm-605,-5123c29,-11 58,-69 48,-97c-22,-64 -93,-84 -138,-38c-35,34 -33,78 4,116c32,31 45,34 86,19z"/>
   <path id="svg_31" d="m8880,14162l0,-1827l-130,-130l-130,-130l0,-576c0,-563 0,-576 -20,-594c-19,-18 -20,-31 -20,-424l0,-407l-50,-49c-36,-36 -50,-57 -50,-77c0,-20 -8,-31 -29,-43c-57,-29 -75,-83 -49,-140c13,-29 55,-55 88,-55c96,0 135,134 53,185c-45,28 -41,52 17,110l50,49l0,402c0,388 1,401 20,419c20,18 20,31 20,599l0,581l130,130l130,130l0,1837c0,1627 -2,1838 -15,1838c-13,0 -15,-210 -15,-1828zm-341,-4288c59,-50 26,-144 -50,-144c-86,0 -111,116 -34,158c31,17 51,14 84,-14z"/>
   <path id="svg_32" d="m9020,14115l0,-1874l-130,-133l-130,-133l0,-541l0,-540l-35,-34l-35,-34l0,-551l0,-550l-102,-101c-57,-56 -118,-107 -136,-114c-71,-28 -82,-132 -19,-170c18,-11 42,-20 55,-20c54,0 102,48 102,103c0,22 -24,65 -44,79c-7,5 26,45 82,100l92,93l0,556l0,555l30,29l30,29l0,545l0,546l135,140l134,140l1,1878c0,1662 -2,1877 -15,1877c-13,0 -15,-215 -15,-1875zm-471,-4641c29,-37 27,-85 -4,-114c-75,-71 -178,32 -114,114c16,20 29,26 59,26c30,0 43,-6 59,-26z"/>
   <path id="svg_33" d="m10350,14862l0,-1127l115,-115l115,-115l0,-191c0,-190 0,-192 -23,-207c-31,-20 -51,-69 -43,-103c4,-15 20,-39 37,-55l29,-27l-1,-119l0,-118l-610,-614l-609,-614l-1,-306l0,-306l-289,-295l-290,-295l0,-290l0,-291l-65,-64l-65,-64l0,-161l0,-161l-63,-62c-55,-54 -67,-62 -101,-62c-28,0 -45,-7 -67,-29c-40,-40 -40,-89 0,-133c24,-27 36,-33 71,-33c35,0 47,6 72,34c26,29 29,40 25,72c-5,36 -1,41 59,102l64,65l0,159l0,159l65,70l64,69l1,290l0,290l285,285l285,285l0,320l0,320l610,610l610,610l0,140l0,140l28,13c32,14 52,49 52,92c0,34 -44,90 -71,90c-18,0 -19,10 -19,208l0,207l-110,110l-110,110l0,1117l0,1118l-25,0l-25,0l0,-1128zm316,-1776c57,-48 20,-146 -55,-146c-17,0 -39,10 -55,26c-77,78 27,192 110,120zm-2143,-4008c50,-26 62,-86 26,-132c-44,-56 -139,-21 -139,51c0,73 55,112 113,81z"/>
   <path id="svg_34" d="m13049,15673c-173,-175 -638,-644 -1032,-1042l-717,-724l0,-636l-1,-636l-779,-785l-779,-785l-1,-210l0,-210l-125,-125l-125,-125l0,-120l0,-121l-53,-52l-53,-52l-75,0l-75,0l-72,-73l-72,-72l0,-481l0,-480l-63,-62l-63,-62l-739,0l-739,0l-62,61c-61,60 -61,61 -56,109c4,44 2,52 -26,80c-39,39 -88,41 -130,5c-36,-30 -45,-69 -26,-113c17,-42 73,-68 114,-54c25,9 32,5 96,-59l68,-69l759,0l759,0l74,72l74,71l0,492l0,491l53,52l53,52l80,0l80,0l67,68l67,68l0,109l0,110l125,125l125,125l0,215l0,215l775,780l774,780l1,645l0,645l522,525c288,289 753,757 1035,1040c282,284 513,519 513,523c0,33 -77,-35 -351,-310zm-5726,-6603c79,-63 8,-180 -88,-144c-19,8 -45,55 -45,84c0,29 53,80 83,80c13,0 36,-9 50,-20z"/>
   <path id="svg_35" d="m23680,13250l-1915,-1922l-6,-377c-3,-207 -7,-471 -8,-586l-1,-211l-225,-224l-225,-225l0,-165l0,-165l140,-140l140,-140l0,-285l0,-286l-45,-44l-45,-44l0,-126l0,-126l48,-47l48,-47l150,0l149,0l89,89c84,84 91,89 110,75c32,-22 81,-17 115,12c26,21 31,33 31,69c0,53 -29,92 -73,100c-67,13 -122,-35 -120,-104c2,-33 -7,-44 -85,-123l-87,-88l-130,0l-131,0l-37,38l-37,38l0,109l0,109l40,41l41,42l5,304l6,304l-141,145l-140,145l0,145l0,145l224,230l225,230l0,584l0,585l198,195c177,176 1495,1499 3045,3057c391,392 568,577 565,589c-2,12 -584,-566 -1918,-1905zm-1486,-4861c31,-36 32,-54 7,-96c-36,-57 -114,-51 -143,12c-23,52 18,115 76,115c26,0 41,-7 60,-31z"/>
   <path id="svg_36" d="m25445,14866c-77,-78 -916,-922 -1865,-1875l-1725,-1732l-6,-267c-4,-147 -7,-409 -8,-582l-1,-315l-215,-215l-215,-215l0,-120l0,-120l155,-155l155,-155l0,-337c0,-336 0,-338 -21,-338c-11,0 -34,-13 -50,-29c-62,-62 -20,-171 65,-171c25,0 45,9 68,29c27,24 33,36 33,71c0,37 -6,47 -38,75l-37,32l0,328l0,328l-155,162l-155,163l0,113l0,114l220,220l220,220l0,573l0,574l1863,1864c1024,1026 1863,1874 1865,1885c2,10 0,18 -5,18c-4,-1 -71,-65 -148,-143zm-3670,-6471c62,-61 -7,-167 -87,-134c-29,12 -58,54 -58,83c0,8 12,28 26,45c33,40 83,43 119,6z"/>
   <path id="svg_37" d="m0,14901c0,-16 19,-44 55,-82l55,-58l0,-1713l1,-1713l307,-313l307,-313l382,1l381,0l738,-745l738,-745l296,0l295,0l145,-145c90,-91 154,-146 171,-150c34,-8 94,17 108,43c14,26 14,77 1,103c-13,24 -61,49 -96,49c-17,0 -39,-13 -62,-36l-35,-35l-106,105l-106,106l-301,0l-302,0l-732,740l-733,740l-381,0l-381,-1l-302,308l-302,308l-1,1714l0,1713l-70,72c-61,62 -70,68 -70,47zm3929,-5806c61,-31 59,-120 -4,-149c-39,-19 -74,-10 -99,26c-31,43 -12,108 38,128c29,12 33,12 65,-5z"/>
   <path id="svg_38" d="m23768,13079l-1827,-1834l-1,-594l0,-595l-220,-221l-220,-221l0,-84l0,-84l57,-58l57,-58l89,0l88,0l50,-50l49,-50l0,-158l0,-158l75,-74c74,-74 75,-75 75,-126c0,-60 19,-90 65,-102c40,-11 90,3 110,30c19,29 19,97 0,125c-22,31 -75,46 -111,33c-27,-11 -32,-8 -96,58l-68,70l0,169l0,169l-53,52l-53,52l-90,0l-90,0l-52,53l-52,53l0,64l1,65l214,217l215,218l0,579l0,580l278,279c152,153 788,791 1412,1418c2126,2134 1932,1935 1928,1979l-3,38l-1827,-1834zm-1574,-4320c14,-17 26,-42 26,-56c0,-33 -51,-83 -85,-83c-34,0 -85,50 -85,83c0,41 46,87 85,87c25,0 40,-8 59,-31z"/>
   <path id="svg_39" d="m5996,14870c-16,-5 -33,-15 -37,-22c-5,-7 -9,-74 -9,-149c0,-115 3,-139 17,-150c20,-17 269,-26 323,-12c38,10 45,24 55,106l6,47l118,0l117,0l257,-259l257,-258l0,-2383l0,-2383l-135,-137l-135,-136l0,-149l1,-150l124,-130l124,-130l1,-140l0,-140l108,-108l107,-107l157,0c148,0 158,1 183,23c17,14 28,36 32,63c5,36 1,46 -24,74c-33,37 -19,35 -202,24l-104,-6l-68,68l-69,68l0,111l0,110l-125,125l-125,125l0,115l0,115l140,140l140,140l0,2417l0,2418l-296,300l-297,300l-147,0c-148,0 -148,0 -154,24c-4,15 -17,28 -37,35c-37,13 -261,13 -303,1zm1629,-6635c54,-53 13,-145 -65,-145c-33,0 -70,44 -70,83c0,79 82,116 135,62z"/>
   <path id="svg_40" d="m585,14793c-11,-3 -32,-17 -47,-31c-53,-50 -32,-141 37,-161c78,-22 150,49 125,124c-16,49 -67,79 -115,68zm76,-42c32,-33 36,-58 14,-100c-39,-76 -149,-42 -149,46c0,26 7,42 28,59c37,32 71,30 107,-5z"/>
   <path id="svg_41" d="m25330,14470c-146,-148 -941,-947 -1767,-1776l-1503,-1508l0,-625l0,-626l-155,-155c-140,-140 -158,-155 -192,-157c-28,-1 -45,-10 -65,-33c-49,-54 -31,-127 38,-156c86,-36 171,69 118,145c-16,23 -15,25 63,105c44,44 112,115 151,156l72,75l0,306c0,168 3,449 7,623l6,317l270,272c148,150 785,790 1416,1422c1906,1912 1813,1817 1809,1853c-3,29 -14,19 -268,-238zm-3555,-4885c44,-43 31,-112 -25,-135c-35,-15 -84,0 -100,31c-30,55 10,129 70,129c19,0 40,-9 55,-25z"/>
   <path id="svg_42" d="m23867,12848l-1726,-1733l-1,-615l0,-615l-110,-110l-110,-110l0,-115l0,-115l95,-95c52,-52 95,-101 95,-108c0,-7 -16,-28 -35,-46c-61,-58 -44,-144 35,-167c33,-10 43,-9 72,8c70,41 73,112 7,165c-23,18 -39,40 -39,52c0,14 -37,58 -100,121l-100,100l0,85l0,85l115,115l115,115l0,615l0,615l512,515c282,283 1051,1056 1710,1716c982,985 1198,1206 1198,1228c0,14 -2,26 -4,26c-2,0 -780,-780 -1729,-1732zm-1669,-3684c39,-44 25,-105 -31,-129c-41,-17 -83,-2 -103,37c-47,91 65,168 134,92z"/>
   <path id="svg_43" d="m588,14522c-46,-6 -78,-45 -78,-96c0,-37 5,-48 31,-70c57,-48 139,-26 160,43c10,34 9,44 -7,72c-21,36 -64,57 -106,51zm57,-18c19,-8 45,-55 45,-84c0,-30 -53,-80 -84,-80c-33,0 -75,38 -82,76c-4,24 0,37 21,62c27,32 61,41 100,26z"/>
   <path id="svg_44" d="m25325,14145c-148,-149 -903,-907 -1677,-1684l-1408,-1413l0,-692l0,-693l-23,-21c-17,-16 -36,-22 -72,-22c-65,0 -105,-35 -105,-92c0,-78 64,-123 134,-94c51,21 75,73 57,122c-12,34 -11,37 15,65l27,28l6,690l6,690l1079,1083c594,596 1340,1344 1659,1664c534,536 578,583 575,611c-3,28 -16,17 -273,-242zm-3134,-4564c77,-77 -25,-188 -107,-117c-56,47 -20,146 52,146c15,0 38,-12 55,-29z"/>
   <path id="svg_45" d="m10571,14264c-26,-22 -31,-33 -31,-69c0,-67 33,-100 99,-100c51,0 51,0 121,-77l70,-76l0,-613l0,-612l-52,-56c-29,-31 -328,-334 -665,-674l-613,-617l0,-303l0,-302l-285,-285l-285,-285l0,-301l0,-301l-70,-65c-65,-61 -70,-68 -70,-107c0,-88 92,-132 158,-76c40,33 48,72 26,119c-17,35 -17,36 4,59c22,23 22,28 22,333l0,309l285,285l285,285l0,295l0,296l659,665l660,664l0,670l1,670l-80,80c-75,74 -80,82 -80,121c0,35 -5,47 -31,68c-19,17 -43,26 -64,26c-21,0 -45,-9 -64,-26zm112,-4c33,-26 43,-70 23,-108c-16,-32 -34,-42 -71,-42c-37,0 -55,10 -70,41c-22,42 -18,67 14,100c35,34 68,37 104,9zm-1728,-4793c32,-46 4,-117 -50,-131c-35,-9 -79,16 -95,54c-37,89 90,156 145,77z"/>
   <path id="svg_46" d="m23978,12579l-1617,-1624l-1,-1305l0,-1305l210,-210l210,-210l0,-50l0,-50l-182,-183l-181,-182l-731,2l-730,3l-7,34c-11,51 -41,76 -95,76c-60,0 -94,-35 -94,-99c0,-39 5,-49 53,-95l52,-51l415,0c228,0 590,-3 803,-7l389,-6l229,229l229,229l0,95l-1,95l-221,224l-221,224l6,756c4,416 7,979 7,1251l0,495l873,875c480,481 1177,1182 1550,1556l678,681l-3,88l-3,87l-1617,-1623zm-3070,-5039c47,-44 36,-111 -23,-136c-43,-18 -81,-4 -104,37c-43,76 63,159 127,99z"/>
   <path id="svg_47" d="m6041,14109c-28,-14 -54,-39 -73,-68c-27,-42 -29,-53 -26,-117c4,-86 30,-131 99,-169c48,-26 122,-33 164,-15c17,7 55,-27 253,-223l232,-232l0,-1477c0,-1027 -3,-1478 -11,-1478c-17,0 -41,-70 -34,-101c15,-68 117,-94 169,-43c30,31 35,88 11,120c-12,16 -14,216 -15,1519l0,1500l-245,250c-195,199 -244,254 -239,270c3,11 8,45 11,75c5,68 -22,128 -80,174c-32,26 -48,31 -105,34c-54,2 -76,-1 -111,-19zm755,-3793c21,-17 28,-33 28,-59c0,-106 -144,-119 -161,-15c-5,32 -1,41 25,68c37,36 71,39 108,6z"/>
   <path id="svg_48" d="m24105,12387l-1490,-1497l-6,-192c-4,-106 -7,-624 -8,-1151l-1,-957l122,-126c117,-120 122,-127 123,-168c1,-49 17,-73 60,-92c87,-36 164,51 124,139c-14,32 -51,51 -93,50c-30,-1 -47,12 -156,122l-122,123l4,1098c2,673 8,1105 13,1116c6,9 601,610 1324,1335c723,725 1379,1384 1458,1464l144,146l-3,43l-3,43l-1490,-1496zm-1124,-4017c10,-6 26,-24 34,-40c43,-83 -67,-162 -130,-94c-34,37 -33,78 4,115c31,30 59,36 92,19z"/>
   <path id="svg_49" d="m24086,12068l-1356,-1362l0,-701l0,-701l65,-65c62,-63 64,-67 53,-96c-38,-102 89,-177 168,-98c63,63 -1,177 -90,161c-30,-6 -38,-1 -99,63l-67,69l0,334c0,184 3,491 7,682l6,347l1345,1349l1344,1350l69,0c55,0 69,3 69,15c0,12 -15,15 -79,15l-79,0l-1356,-1362zm-1092,-2897c45,-39 37,-109 -15,-136c-40,-21 -57,-19 -90,14c-78,78 22,195 105,122z"/>
   <path id="svg_50" d="m24210,11958l-1285,-1291l-3,-522l-2,-522l-26,-11c-31,-15 -58,-75 -49,-111c16,-64 86,-96 143,-67c38,20 52,44 52,89c0,38 -29,82 -60,92c-20,6 -20,17 -20,510l0,504l1286,1290c1201,1206 1289,1291 1320,1291c27,0 34,4 34,20c0,17 -7,20 -52,20l-53,-1l-1285,-1291zm-1235,-2360c80,-36 55,-158 -32,-158c-90,0 -113,126 -29,160c29,12 31,12 61,-2z"/>
   <path id="svg_51" d="m24343,11854l-1218,-1225l-6,-317c-4,-174 -7,-562 -8,-862l-1,-544l-56,-57c-52,-53 -59,-56 -86,-48c-21,6 -41,4 -63,-5c-69,-29 -86,-102 -37,-157c24,-26 36,-32 72,-32c37,0 48,5 73,33c27,30 29,37 23,84l-6,52l55,54l55,54l0,426c0,234 3,625 7,869l6,444l1223,1226c673,674 1223,1227 1224,1229c0,1 -9,2 -19,2c-12,0 -471,-454 -1238,-1226zm-1348,-3089c46,-45 26,-127 -34,-140c-33,-7 -85,15 -95,40c-22,60 16,125 74,125c19,0 40,-9 55,-25z"/>
   <path id="svg_52" d="m25313,12580l-283,-285l0,-382l0,-382l-740,-743l-739,-743l-1,-300l0,-301l-141,-139c-77,-77 -145,-148 -150,-157c-15,-28 -10,-74 11,-101c41,-52 136,-44 165,14c25,48 19,78 -24,119l-38,37l108,109l109,109l0,300l1,300l734,740l734,740l1,380l0,380l271,271c224,224 270,275 267,295c-3,21 -42,-15 -285,-261zm-1908,-3415c37,-36 34,-86 -6,-119c-35,-30 -49,-32 -88,-11c-51,26 -57,90 -14,137c24,27 79,23 108,-7z"/>
   <path id="svg_53" d="m24688,11994c-15,-8 -32,-23 -38,-34c-15,-27 -12,-92 5,-114c12,-15 15,-52 15,-162l0,-142l-690,-694l-689,-693l-1,-276c0,-231 -2,-279 -15,-289c-21,-18 -29,-76 -15,-111c14,-32 55,-59 90,-59c36,0 77,28 90,61c11,25 11,41 2,75c-8,29 -12,135 -12,297l0,252l685,685l685,685l0,176c0,138 3,179 15,195c17,22 20,87 5,115c-12,22 -61,49 -87,49c-10,-1 -30,-7 -45,-16zm117,-45c21,-39 19,-64 -9,-95c-43,-51 -125,-31 -141,33c-23,92 107,146 150,62zm-1397,-2372c29,-27 30,-82 0,-114c-27,-29 -76,-30 -112,-2c-48,38 -29,119 34,142c22,8 52,-2 78,-26z"/>
   <path id="svg_54" d="m24640,10859l-955,-961l-3,-270l-2,-270l-70,-76l-70,-76l0,-141l0,-141l-65,-64l-66,-65l-53,3c-49,3 -55,1 -79,-28c-45,-53 -31,-126 30,-155c66,-32 138,12 136,83c0,20 -2,44 -4,53c-2,10 23,45 64,88l67,71l0,143l0,143l65,64l65,64l0,281l0,280l870,870c895,895 1034,1038 1028,1056c-2,5 -433,-423 -958,-952zm-1257,-2080c51,-23 61,-92 21,-133c-32,-31 -71,-34 -107,-6c-33,26 -41,63 -22,101c23,44 64,58 108,38z"/>
   <path id="svg_55" d="m24722,10652l-872,-867l-2,-482l-3,-483l-218,-218l-219,-219l-48,5c-44,4 -52,1 -80,-26c-56,-56 -36,-140 40,-163c33,-10 43,-9 72,8c46,27 64,66 49,112l-11,36l220,220l220,220l0,485l0,484l623,626c342,343 658,659 702,702c111,106 408,418 403,423c-2,2 -396,-386 -876,-863zm-1321,-2301c37,-37 38,-78 4,-115c-64,-69 -173,10 -130,94c29,55 82,64 126,21z"/>
   <path id="svg_56" d="m16793,11410l-92,-70l-1519,0l-1519,0l-117,-75l-117,-75l-339,0l-339,0l24,-36c68,-100 -10,-242 -127,-232l-38,4l0,-81l0,-80l43,3c79,5 147,-62 147,-146c0,-24 -5,-52 -10,-63c-10,-18 -7,-19 74,-19l85,0l-15,28c-44,85 33,202 134,202c97,0 169,-101 138,-192l-14,-38l80,0c77,0 79,0 67,21c-6,13 -9,45 -7,76c12,147 199,183 270,53c19,-35 20,-91 3,-132c-7,-17 4,-18 137,-18l144,0l47,48l47,48l0,147l0,147l455,0l455,0l0,-96l0,-96l30,26c72,60 173,37 219,-51c16,-31 14,-99 -4,-133l-16,-30l182,0l182,0l164,170l165,170l867,0l866,0l108,-108l107,-107l0,-173l0,-174l382,-384l381,-384l142,0l141,0l57,-58l57,-58l1,-134l0,-135l559,-565l560,-565l0,-443l0,-443l565,-568l565,-568l0,-1301l0,-1301l155,-159l155,-159l0,-611l0,-610l350,-353l349,-354l1,-355l0,-355l83,-83l82,-82l980,0l980,0l133,132l132,131l0,315l0,315l-42,46c-22,25 -82,89 -132,141c-51,52 -156,164 -235,248l-144,152l-436,0l-436,0l-211,218c-116,119 -268,276 -337,349l-127,132l0,158l0,158l-208,208l-207,207l-47,0l-46,0l-171,183l-171,182l0,1320l-1,1320l-559,564l-560,564l0,431l0,431l-570,570l-570,570l0,140l0,140l-186,188l-186,187l-152,0l-151,0l-248,248l-247,247l0,164l0,163l-35,48c-34,46 -35,50 -35,140l0,93l-56,63l-56,64l-87,0l-87,0l-62,63l-62,63l0,62l0,62l-412,0l-413,0l-92,-70zm287,-18c99,-49 108,-197 16,-257c-71,-47 -168,-18 -206,60c-26,53 -25,82 3,135c38,73 115,99 187,62zm4860,-9199c100,-68 131,-198 74,-304c-96,-175 -330,-164 -413,21c-37,81 -23,171 38,241c51,60 100,80 186,77c59,-3 77,-8 115,-35zm1273,-503c33,-26 41,-63 22,-101c-29,-54 -100,-61 -132,-12c-24,36 -19,84 12,111c32,27 64,28 98,2zm4,-212c29,-32 34,-53 22,-88c-13,-35 -36,-50 -76,-50c-35,1 -59,19 -72,53c-19,49 22,107 74,107c20,0 39,-8 52,-22zm-586,-187c31,-32 34,-45 19,-86c-11,-28 -64,-56 -89,-47c-33,11 -61,46 -61,74c0,81 75,114 131,59zm9,-259c28,-35 25,-69 -10,-104c-26,-25 -36,-29 -63,-24c-80,15 -93,126 -17,154c34,13 68,3 90,-26zm1348,-98c72,-50 24,-163 -61,-147c-61,12 -81,98 -33,140c32,27 62,29 94,7zm-1356,-144c25,-26 29,-36 24,-62c-15,-78 -97,-100 -143,-39c-21,27 -15,79 12,106c33,34 70,32 107,-5zm745,-92c49,-46 16,-138 -49,-138c-41,0 -63,14 -78,50c-14,34 0,83 29,100c28,16 74,11 98,-12zm310,0c47,-44 14,-138 -48,-138c-42,0 -64,14 -79,50c-14,34 0,83 29,100c28,16 74,11 98,-12zm305,8c23,-17 39,-61 31,-83c-3,-10 -15,-28 -26,-40c-53,-60 -155,8 -126,84c13,35 37,52 74,52c17,0 38,-5 47,-13z"/>
   <path id="svg_57" d="m16971,11347c-86,-50 -50,-187 49,-187c53,0 100,49 100,104c0,62 -94,114 -149,83zm107,-33c33,-37 30,-86 -9,-118c-17,-14 -39,-26 -49,-26c-10,0 -32,12 -49,26c-52,44 -37,123 29,147c24,8 53,-3 78,-29z"/>
   <path id="svg_58" d="m12019,11376c-100,-57 -25,-213 85,-176c99,32 84,174 -19,186c-25,3 -50,-1 -66,-10zm90,-11c77,-39 45,-160 -41,-157c-73,2 -102,89 -49,143c33,33 50,35 90,14z"/>
   <path id="svg_59" d="m12404,11380c-47,-19 -69,-92 -43,-142c14,-27 74,-51 109,-43c38,8 70,45 77,88c5,32 1,41 -30,72c-36,36 -68,43 -113,25zm97,-29c53,-54 24,-141 -49,-143c-86,-3 -119,116 -43,157c39,21 59,18 92,-14z"/>
   <path id="svg_60" d="m0,11216c0,-12 114,-135 303,-325c166,-168 705,-712 1196,-1208l894,-903l851,0l852,0l53,-54c49,-50 52,-55 46,-90c-20,-102 94,-168 166,-97c56,57 29,153 -47,167c-20,4 -46,2 -58,-4c-21,-9 -30,-4 -82,49l-58,59l-857,0l-856,0l-924,933c-1521,1535 -1479,1494 -1479,1473zm4345,-2543c44,-44 35,-115 -17,-137c-39,-17 -74,-9 -98,22c-44,55 -9,132 60,132c23,0 45,-7 55,-17z"/>
   <path id="svg_61" d="m11789,11141c-40,-40 -40,-89 0,-133c24,-27 36,-33 71,-33c99,0 137,135 51,180c-47,24 -88,19 -122,-14zm104,7c50,-26 62,-86 26,-132c-44,-56 -139,-21 -139,51c0,73 55,112 113,81z"/>
   <path id="svg_62" d="m12189,11141c-78,-78 4,-199 106,-157c72,30 81,137 15,171c-46,24 -88,19 -121,-14zm122,-10c37,-37 38,-78 4,-115c-51,-56 -139,-18 -139,61c0,26 7,42 28,59c37,32 71,30 107,-5z"/>
   <path id="svg_63" d="m12597,11159c-22,-13 -47,-61 -47,-93c0,-33 43,-82 79,-89c97,-20 161,95 92,164c-23,22 -39,29 -68,29c-21,0 -46,-5 -56,-11zm87,-9c79,-30 54,-160 -31,-160c-87,0 -114,114 -38,158c25,14 37,15 69,2z"/>
   <path id="svg_64" d="m2,10994c3,-41 25,-64 1013,-1060c556,-561 1082,-1092 1169,-1181l159,-163l518,0l518,0l17,-29c52,-88 184,-54 184,47c0,51 -30,89 -76,98c-46,8 -90,-11 -106,-47l-13,-29l-501,0l-501,0l-914,923c-502,507 -1038,1048 -1191,1202l-279,280l3,-41zm3535,-2326c31,-35 35,-57 17,-94c-26,-54 -91,-63 -131,-18c-48,53 -13,134 56,134c26,0 44,-7 58,-22z"/>
   <path id="svg_65" d="m24582,10296l-632,-634l0,-128l0,-128l80,-82c44,-45 80,-90 80,-101c0,-10 -11,-34 -25,-53c-35,-47 -33,-93 4,-131c59,-58 155,-28 168,53c7,47 -15,84 -63,104c-27,11 -34,20 -34,42c-1,20 -20,47 -80,107l-80,80l0,116l0,115l623,627l622,628l178,-1c111,0 177,4 177,10c0,6 -71,10 -193,10l-193,0l-632,-634zm-367,-1131c52,-51 16,-145 -55,-145c-44,0 -80,39 -80,85c0,46 36,85 80,85c19,0 40,-9 55,-25z"/>
   <path id="svg_66" d="m24844,10335l-449,-456l-3,-58l-3,-57l-82,-82c-81,-80 -83,-82 -113,-70c-104,39 -178,-89 -98,-169c22,-22 32,-25 72,-20c64,7 96,44 89,103c-4,42 -3,43 84,130l89,89l0,60l0,59l447,448l448,448l137,0c116,0 138,2 138,15c0,13 -24,15 -153,15l-154,0l-449,-455zm-627,-757c30,-28 31,-83 1,-115c-48,-51 -138,-15 -138,54c0,71 86,109 137,61z"/>
   <path id="svg_67" d="m0,10747c0,-25 82,-111 563,-595c310,-312 578,-583 596,-602c18,-19 283,-287 589,-595l557,-559l695,-1l695,0l70,67c53,51 74,65 85,58c56,-36 140,17 140,88c0,76 -70,121 -141,91c-38,-15 -64,-69 -55,-112c5,-26 -1,-37 -56,-93l-62,-64l-677,0l-676,0l-1009,1018c-555,559 -1078,1087 -1161,1172c-139,141 -153,152 -153,127zm3945,-2074c44,-44 35,-115 -17,-137c-39,-17 -74,-9 -98,22c-44,55 -9,132 60,132c23,0 45,-7 55,-17z"/>
   <path id="svg_68" d="m8847,10749c-26,-15 -49,-74 -41,-107c16,-65 84,-98 142,-68c38,20 52,44 52,91c0,52 -44,95 -97,95c-21,0 -46,-5 -56,-11zm82,-10c31,-11 61,-52 61,-83c0,-8 -12,-28 -26,-45c-67,-80 -188,12 -128,97c9,13 26,27 38,32c11,5 21,9 22,9c1,1 15,-4 33,-10z"/>
   <path id="svg_69" d="m14939,10721c-23,-23 -29,-38 -29,-71c0,-114 159,-139 191,-30c30,100 -88,175 -162,101zm126,-16c51,-50 17,-135 -53,-135c-43,1 -67,16 -81,53c-30,79 74,143 134,82z"/>
   <path id="svg_70" d="m12203,10726c-39,-18 -53,-43 -53,-94c0,-50 38,-92 84,-92c27,0 51,-20 171,-140l140,-140l1081,0c1068,0 1081,0 1099,20c17,19 31,20 332,20l313,0l95,-97l95,-98l0,-1546l0,-1546l25,-23l25,-23l0,-901l-1,-901l-649,-652l-648,-653l-299,0l-298,0l-188,-188l-187,-187l0,-330l0,-329l183,-186c101,-102 492,-497 869,-877l685,-693l1551,0l1551,0l422,-437c233,-241 466,-482 519,-536l95,-98l81,3l81,3l-576,583l-576,583l-1520,-1l-1520,-1l-857,863l-857,863l-1,281l0,281l136,142l136,141l303,0l304,0l574,578c315,317 624,629 685,692l112,115l0,946c0,933 0,946 -20,964c-20,18 -20,31 -20,1564l0,1546l-137,137l-138,137l-345,1l-345,1l-30,-31l-29,-30l-1021,0l-1020,0l-133,133c-99,99 -135,142 -143,170c-16,59 -78,88 -136,63zm80,-17c53,-24 60,-87 17,-131c-26,-25 -36,-29 -63,-24c-38,7 -77,48 -77,81c0,33 46,85 75,85c13,0 35,-5 48,-11z"/>
   <path id="svg_71" d="m12601,10706c-88,-49 -50,-186 52,-186c37,0 84,36 92,69c21,95 -62,162 -144,117zm106,-28c51,-48 15,-138 -56,-138c-71,0 -106,76 -60,134c27,34 82,36 116,4z"/>
   <path id="svg_72" d="m12999,10691c-31,-31 -39,-83 -19,-122c13,-22 61,-49 90,-49c51,0 100,49 100,100c0,87 -109,132 -171,71zm130,-17c45,-57 12,-134 -58,-134c-72,0 -109,84 -59,137c31,33 90,32 117,-3z"/>
   <path id="svg_73" d="m13421,10707c-99,-57 -40,-204 73,-183c71,13 101,105 53,161c-27,32 -90,42 -126,22zm109,-32c50,-53 13,-135 -61,-135c-71,0 -105,85 -54,135c33,34 83,34 115,0z"/>
   <path id="svg_74" d="m24962,10247l-402,-403l0,-45c0,-71 26,-89 127,-89c98,0 113,-12 113,-87c0,-64 -19,-83 -84,-83c-40,0 -48,3 -58,26c-14,30 -56,54 -94,54c-35,0 -94,-59 -94,-94c0,-35 25,-83 49,-96c39,-20 91,-12 122,19c16,16 29,37 29,45c0,13 12,16 63,16c86,0 97,13 97,112c0,65 -3,77 -23,96c-20,19 -35,22 -104,22c-65,0 -83,3 -96,18c-39,43 -34,49 375,459l393,393l112,0c106,0 113,1 113,20c0,19 -7,20 -118,20l-117,0l-403,-403zm-344,-663c54,-37 46,-115 -14,-140c-84,-35 -154,67 -89,131c28,29 70,32 103,9z"/>
   <path id="svg_75" d="m2,10468c3,-53 -137,94 1342,-1400l790,-798l1141,0l1142,0l119,122c116,119 120,123 163,123c36,0 48,6 73,34c26,29 30,39 25,75c-12,85 -108,117 -169,56c-24,-25 -29,-37 -27,-70c3,-39 0,-43 -116,-160l-120,-120l-1095,0l-1096,0l-539,542c-297,299 -787,790 -1088,1093l-548,550l3,-47zm4747,-1794c40,-33 43,-83 6,-119c-50,-51 -135,-15 -135,58c0,36 13,58 45,75c31,17 51,14 84,-14z"/>
   <path id="svg_76" d="m1051,10484c-59,-49 -33,-150 43,-170c17,-4 41,1 69,15c37,18 62,21 178,21l136,0l687,-695l688,-695l278,0c232,0 280,-2 290,-15c31,-38 125,-23 150,24c18,34 12,88 -14,118c-20,23 -30,27 -67,25c-24,-2 -166,-5 -314,-8l-271,-5l-683,691l-683,690l-176,0c-140,1 -181,4 -196,15c-31,23 -80,18 -115,-11zm121,-11c25,-23 32,-67 14,-101c-26,-51 -92,-59 -131,-16c-73,78 38,188 117,117zm2347,-1378c63,-32 57,-130 -8,-153c-102,-36 -157,118 -57,158c29,12 33,12 65,-5z"/>
   <path id="svg_77" d="m25290,10255c-166,-166 -239,-233 -250,-229c-62,28 -125,9 -147,-44c-25,-59 3,-114 67,-133c30,-9 43,-8 68,5c41,21 55,50 49,101l-4,43l228,231c212,215 231,231 264,231c24,0 35,4 35,15c0,11 -11,15 -38,15c-35,0 -49,-12 -272,-235zm-256,-247c40,-35 43,-78 11,-116c-41,-49 -103,-42 -133,15c-19,35 -14,63 17,94c35,35 71,37 105,7z"/>
   <path id="svg_78" d="m1,10195l0,-90l201,-205c111,-113 576,-582 1032,-1042l830,-838l1288,0l1288,0l211,215l212,215l51,0l52,0l182,-183l182,-183l0,-736l0,-736l-32,-7c-69,-15 -101,-75 -74,-138c17,-42 41,-57 92,-57c32,0 44,7 90,58l54,57l-1,810l0,810l-222,228l-222,228l-96,-1l-95,0l-218,-220l-218,-220l-1242,0l-1243,0l-481,488c-265,268 -738,746 -1051,1062l-570,575l0,-90zm5566,-3627c31,-34 36,-63 18,-98c-15,-29 -49,-50 -81,-50c-28,0 -74,56 -74,90c0,69 92,107 137,58z"/>
   <path id="svg_79" d="m14712,10137c-89,-90 -92,-94 -92,-138c0,-42 -3,-48 -30,-59c-67,-28 -82,-109 -31,-161c40,-40 89,-40 133,0c27,24 33,36 33,69c0,42 -34,92 -62,92c-9,0 -13,15 -13,48c0,46 2,50 83,130l82,82l235,0l235,0l93,-93l92,-92l0,-1546c0,-1363 2,-1548 15,-1559c13,-11 15,-117 15,-849l0,-836l-132,-135c-72,-74 -357,-361 -632,-637l-501,-503l-326,0l-326,0l-187,-190l-186,-190l0,-611l0,-611l296,-298c265,-267 295,-300 285,-318c-33,-61 18,-142 89,-142c53,0 100,49 100,104c0,14 -13,40 -29,58c-24,27 -36,33 -75,33l-47,1l-290,290l-289,289l0,595l0,595l183,183l182,182l327,0l326,0l636,641l636,641l0,858c0,750 -2,859 -15,870c-13,11 -15,196 -15,1553l0,1540l-102,103l-102,104l-251,0l-250,0l-93,-93zm-27,-232c62,-61 -7,-166 -89,-135c-25,9 -56,56 -56,84c0,8 12,28 26,45c33,40 83,43 119,6zm-746,-8161c31,-40 28,-87 -10,-118c-34,-29 -50,-32 -82,-14c-33,17 -46,39 -47,77c0,75 94,112 139,55z"/>
   <path id="svg_80" d="m25283,9908l-313,-313l0,-195l0,-195l-33,-15c-95,-44 -56,-186 50,-183c49,1 93,48 93,97c0,37 -29,81 -60,91c-19,6 -20,16 -20,193l0,187l301,301c237,237 300,306 297,323c-2,17 -60,-35 -315,-291zm-256,-733c32,-22 43,-65 28,-102c-24,-57 -88,-71 -130,-28c-70,69 22,186 102,130z"/>
   <path id="svg_81" d="m9884,10190c-47,-19 -69,-92 -43,-142c14,-27 74,-51 109,-43c44,10 75,50 75,97c0,70 -73,116 -141,88zm97,-29c37,-38 39,-82 4,-116c-66,-67 -167,4 -130,91c24,58 81,70 126,25z"/>
   <path id="svg_82" d="m14819,10051c-40,-41 -41,-99 -2,-136c15,-14 35,-26 43,-26c60,-6 106,16 116,56c6,25 7,25 122,25c112,0 117,-1 144,-27l28,-27l0,-1591l0,-1592l25,-23l25,-23l0,-677l0,-676l-581,-587l-581,-587l-327,0l-328,0l-241,-249l-242,-249l0,-839l1,-838l912,-918l912,-918l1891,1l1891,0l72,-75l73,-75l81,0l82,0l-140,140l-140,140l-1895,0l-1895,0l-305,307c-168,170 -556,561 -863,869l-557,561l0,799l0,799l203,203l202,202l330,0l330,-1l617,623l617,623l1,734l0,733l-30,35l-30,34l0,1582l0,1581l-57,58l-57,58l-209,0l-209,0l-29,-29zm122,-10c31,-31 36,-59 17,-94c-42,-80 -152,-51 -152,40c0,26 7,42 28,59c37,32 71,30 107,-5z"/>
   <path id="svg_83" d="m17728,10044c-69,-37 -64,-136 10,-173c22,-12 22,-13 22,-239l0,-227l272,-275c150,-151 526,-530 835,-841l563,-567l0,-439l0,-438l195,-195l195,-195l1,-1265l0,-1265l365,-369c354,-359 364,-370 364,-408c0,-107 154,-137 189,-37c14,40 4,83 -26,111c-19,18 -36,23 -73,22l-49,0l-351,351l-350,351l0,1280l0,1279l-180,180l-180,180l0,440l0,440l-302,305c-167,168 -549,553 -850,856l-548,550l0,205c0,203 0,205 25,239c35,48 33,84 -9,126c-38,38 -73,43 -118,18zm110,-30c47,-53 12,-134 -57,-134c-63,0 -101,57 -76,116c24,58 88,67 133,18zm2847,-6790c19,-8 45,-55 45,-83c0,-11 -11,-32 -24,-47c-46,-54 -127,-30 -142,42c-4,24 0,37 21,62c27,32 61,41 100,26z"/>
   <path id="svg_84" d="m12204,9968c-27,-13 -44,-49 -44,-92c0,-59 81,-112 130,-86c21,11 29,5 104,-69l81,-81l150,0l150,0l87,-87l88,-88l0,-1519l0,-1519l-95,-96l-95,-97l0,-746l0,-747l-53,6c-47,5 -57,2 -83,-20c-24,-21 -29,-33 -29,-72c0,-62 35,-95 100,-95c36,0 47,5 70,32c23,27 26,37 19,72c-4,23 -8,381 -11,796l-3,755l100,100l100,100l0,1525l0,1525l-96,98l-95,97l-147,0l-147,0l-76,76l-77,76l15,36c17,42 11,75 -22,108c-26,26 -81,32 -121,12zm91,-4c20,-8 45,-56 45,-87c0,-33 -46,-77 -81,-77c-15,0 -40,11 -55,24c-72,61 2,174 91,140zm450,-5249c38,-37 37,-88 -1,-122c-33,-30 -78,-30 -109,2c-52,51 -16,145 55,145c19,0 40,-9 55,-25z"/>
   <path id="svg_85" d="m12599,9951c-40,-40 -40,-89 0,-133c24,-27 36,-33 71,-33c37,0 47,6 75,38c25,29 39,37 66,37c30,0 47,-12 137,-103l102,-102l0,-1655l0,-1655l-100,-100l-100,-100l0,-610l0,-610l79,-79c65,-65 78,-83 70,-97c-16,-32 -10,-76 16,-107c33,-39 74,-48 118,-27c105,50 50,203 -66,181c-31,-6 -38,-2 -115,78l-82,84l0,578l0,579l100,100l100,100l0,1685l0,1685l-98,98l-97,97l-52,0c-49,0 -52,1 -58,30c-16,71 -112,95 -166,41zm126,-6c52,-51 16,-145 -55,-145c-44,0 -80,39 -80,85c0,46 36,85 80,85c19,0 40,-9 55,-25zm398,-5167c50,-26 62,-86 26,-132c-44,-56 -139,-21 -139,51c0,73 55,112 113,81z"/>
   <path id="svg_86" d="m13429,9951c-30,-31 -38,-75 -20,-110c8,-14 -3,-31 -60,-87l-69,-68l0,-1791l0,-1790l-105,-105l-105,-105l0,-110l0,-109l61,-62c56,-56 60,-64 49,-84c-25,-47 11,-117 68,-135c35,-10 90,13 107,45c37,72 -5,150 -82,150c-21,0 -45,-5 -53,-10c-11,-7 -30,5 -77,53l-63,61l0,86l0,85l110,114l110,114l0,1781l0,1781l71,71c69,69 73,71 104,63c41,-12 75,1 104,37c50,64 4,154 -79,154c-33,0 -48,-6 -71,-29zm126,-6c52,-51 16,-145 -55,-145c-44,0 -80,39 -80,85c0,46 36,85 80,85c19,0 40,-9 55,-25zm-244,-4375c10,-6 26,-24 34,-40c42,-82 -65,-160 -130,-95c-67,66 14,179 96,135z"/>
   <path id="svg_87" d="m11795,9937c-39,-39 -43,-63 -19,-112c19,-40 61,-60 109,-51c33,6 38,3 99,-61l65,-68l1,-150l0,-150l130,-130l130,-130l0,-881l0,-881l25,-23l25,-23l0,-942l0,-941l-722,-730c-397,-401 -885,-893 -1085,-1094l-363,-365l0,-122l0,-122l-29,-16c-56,-29 -75,-83 -50,-139c15,-33 71,-59 109,-51c36,8 80,58 80,91c0,36 -24,78 -54,94c-26,13 -26,15 -26,129l0,116l523,525c287,289 778,782 1090,1096l567,571l0,965l0,965l-25,23l-25,23l0,876l0,876l-135,135l-135,135l0,150l0,151l-64,63l-64,64l5,51c7,68 -21,104 -84,113c-39,5 -46,2 -78,-30zm104,8c31,-15 54,-65 44,-93c-22,-63 -94,-82 -138,-37c-35,34 -33,78 4,116c33,33 50,35 90,14zm-1666,-7017c50,-26 62,-86 26,-132c-45,-57 -139,-21 -139,54c0,67 58,108 113,78z"/>
   <path id="svg_88" d="m2,9919c3,-34 78,-112 987,-1028l983,-991l687,0l688,0l22,-24c18,-19 21,-31 16,-59c-8,-39 13,-90 44,-107c99,-52 204,77 124,152c-35,32 -64,39 -108,25c-32,-9 -36,-8 -56,16l-20,27l-683,0l-682,0l-220,222c-120,123 -571,578 -1002,1013c-737,744 -783,788 -780,754zm3535,-2061c31,-34 36,-63 18,-97c-29,-58 -81,-67 -126,-22c-37,38 -39,82 -4,116c32,33 84,34 112,3z"/>
   <path id="svg_89" d="m17494,9908c-30,-14 -48,-53 -47,-97c2,-35 -5,-45 -123,-162l-124,-124l0,-1885l0,-1885l-90,-90l-90,-90l0,-420l0,-421l64,-63l64,-63l-5,-57c-5,-51 -3,-58 21,-83c35,-34 68,-42 111,-24c47,20 68,68 54,119c-12,46 -42,67 -94,67c-37,0 -47,6 -103,63l-62,63l0,404l0,405l90,90l90,90l0,1880l0,1880l118,118c114,113 120,118 145,106c33,-15 72,-5 103,26c18,18 24,35 24,69c0,37 -5,48 -31,70c-32,28 -77,33 -115,14zm102,-22c21,-17 28,-33 28,-59c0,-91 -110,-120 -152,-40c-19,35 -14,63 17,94c36,35 70,37 107,5zm-302,-5297c34,-40 33,-74 -3,-110c-35,-35 -71,-37 -105,-6c-40,34 -43,77 -11,115c37,44 83,44 119,1z"/>
   <path id="svg_90" d="m9884,9770c-60,-24 -73,-112 -25,-161c40,-40 89,-40 133,0c84,75 -2,204 -108,161zm105,-36c12,-15 21,-39 21,-54c0,-35 -32,-76 -64,-82c-55,-11 -115,47 -100,96c20,67 103,90 143,40z"/>
   <path id="svg_91" d="m0,9747c0,-28 42,-71 1554,-1594l350,-353l611,0l610,0l110,-110l110,-110l115,0l115,0l95,95c85,85 130,115 130,85c0,-6 11,-22 25,-35c18,-19 35,-25 69,-25c37,0 48,5 70,31c35,42 35,89 -2,130c-49,55 -137,39 -163,-28c-5,-14 -17,-23 -31,-23c-14,0 -58,-35 -129,-105l-107,-106l-73,2l-74,3l-120,118l-121,118l-611,0l-610,0l-524,527c-1461,1471 -1399,1410 -1399,1380zm3947,-1889c30,-34 34,-55 18,-94c-35,-83 -155,-58 -155,33c0,72 91,112 137,61z"/>
   <path id="svg_92" d="m18041,9756c-28,-16 -50,-52 -51,-84c0,-31 26,-79 50,-92c18,-10 20,-21 20,-128l0,-117l765,-770l764,-770l0,-440l1,-440l195,-195l195,-195l0,-760l0,-760l465,-470l464,-470l0,-1065l1,-1065l205,-205l205,-205l0,-360l0,-360l-95,-102l-96,-102l-34,15c-83,35 -190,5 -249,-69c-29,-36 -31,-44 -31,-122c0,-78 2,-86 31,-122c47,-58 98,-83 170,-83c53,0 68,4 110,33c88,60 118,169 70,262l-26,50l100,100l100,100l0,405l0,404l-200,201l-200,201l0,1070l-1,1069l-459,465l-460,465l0,765l-1,765l-189,195l-190,195l0,425l0,425l-769,775l-770,775l0,104c-1,98 0,104 24,122c13,11 27,35 31,55c16,87 -69,152 -145,110zm104,-31c34,-33 34,-83 0,-115c-75,-71 -178,32 -114,114c28,35 80,36 114,1z"/>
   <path id="svg_93" d="m25292,9717l-32,-33l0,-304l0,-305l-87,-87l-88,-88l-130,0l-130,0l-80,80c-75,76 -79,82 -76,120c6,89 -105,136 -170,71c-80,-80 22,-204 124,-150c19,11 28,4 94,-65l74,-76l152,0l152,0l98,98l97,97l0,301l0,300l28,27c21,20 38,27 68,27c22,0 45,-5 52,-12c9,-9 12,-95 12,-323c0,-362 -4,-348 91,-343c45,2 54,6 58,23c3,19 3,19 -16,3c-25,-23 -75,-23 -96,0c-15,16 -17,54 -17,329c0,358 4,343 -91,343c-49,0 -59,-4 -87,-33zm-667,-552c52,-51 16,-145 -55,-145c-44,0 -80,39 -80,85c0,46 36,85 80,85c19,0 40,-9 55,-25z"/>
   <path id="svg_94" d="m2,9598c3,-33 74,-107 922,-962l918,-926l622,0l621,0l150,-150c122,-122 149,-155 147,-174c-8,-60 59,-121 121,-109c70,14 102,115 52,166c-37,36 -70,42 -115,19l-38,-19l-154,154l-153,153l-615,0l-616,0l-230,233c-1675,1694 -1636,1654 -1632,1615zm3534,-2162c21,-18 28,-32 28,-61c0,-43 -39,-85 -79,-85c-38,0 -85,46 -85,83c1,75 80,111 136,63z"/>
   <path id="svg_95" d="m13399,9531c-31,-31 -39,-83 -19,-122c17,-31 68,-52 108,-44c33,6 39,3 98,-56l64,-63l0,-1902l0,-1901l-45,-44l-45,-44l0,-320l0,-320l-198,-198l-197,-197l-67,0c-65,0 -66,1 -87,35c-36,61 -105,73 -152,26c-23,-24 -29,-38 -29,-73c1,-64 36,-98 101,-98c24,0 41,9 70,40l38,40l80,0l79,0l196,201l196,202l0,316l0,317l45,44l45,44l0,1925l0,1925l-65,66c-64,64 -65,67 -54,98c35,102 -86,179 -162,103zm129,-17c47,-52 12,-134 -57,-134c-94,0 -114,125 -26,160c28,12 56,3 83,-26zm-548,-5144c44,-44 33,-111 -22,-134c-39,-17 -82,-4 -105,30c-20,31 -10,88 20,109c30,21 83,19 107,-5z"/>
   <path id="svg_96" d="m11814,9529c-25,-13 -54,-60 -54,-89c0,-53 49,-100 103,-100c16,0 66,-44 165,-143l142,-144l0,-868l0,-868l45,-48l45,-48l0,-833l0,-833l-203,-205c-1701,-1720 -2001,-2019 -2019,-2017c-10,2 -32,18 -48,35c-24,27 -36,32 -73,32c-52,0 -83,-21 -96,-65c-14,-49 7,-97 52,-119c34,-16 42,-17 75,-4c26,9 42,25 55,51c16,31 24,37 51,37c25,0 41,9 66,37c19,21 515,522 1102,1115l1068,1076l0,864l0,864l-45,44l-45,44l0,866l0,865l-139,139l-140,139l20,25c27,34 25,94 -4,127c-25,30 -88,42 -123,24zm103,-31c30,-34 34,-55 19,-92c-25,-60 -103,-68 -140,-14c-38,54 -2,128 63,128c26,0 44,-7 58,-22zm-1953,-6130c15,-13 29,-37 32,-55c5,-27 1,-37 -24,-63c-32,-32 -56,-37 -95,-19c-52,24 -60,87 -18,130c35,35 71,37 105,7z"/>
   <path id="svg_97" d="m12199,9525c-34,-19 -53,-65 -45,-110c10,-49 55,-78 112,-71c39,5 43,2 97,-52l57,-58l0,-280c0,-268 1,-282 20,-299c20,-18 20,-31 20,-1674l0,-1655l-513,-516c-283,-283 -548,-551 -590,-595l-77,-80l0,-90l0,-90l-136,-136c-130,-130 -137,-136 -163,-126c-71,26 -146,-43 -127,-118c19,-77 114,-98 173,-39c21,21 24,32 21,73l-3,48l138,143l137,143l0,82l0,81l589,595l590,594l0,1681l1,1681l-25,23l-25,23l0,275l0,275l-61,63c-51,54 -59,66 -50,83c45,84 -54,173 -140,126zm110,-31c64,-81 -40,-184 -114,-114c-32,30 -34,84 -3,117c31,33 90,32 117,-3zm-1332,-5814c28,-10 43,-30 56,-71c8,-27 -23,-77 -54,-88c-100,-35 -154,119 -55,159c11,5 21,9 22,9c1,1 15,-4 31,-9z"/>
   <path id="svg_98" d="m12619,9525c-60,-32 -63,-130 -6,-165c35,-21 73,-25 97,-10c11,7 29,-4 73,-48l57,-56l0,-1377l0,-1376l-95,-99l-94,-99l-1,-648l0,-648l-85,-87l-85,-87l0,-180l0,-181l-75,-74l-75,-75l0,-381c0,-450 10,-414 -122,-414c-111,0 -118,7 -118,117c0,117 9,113 -243,113l-207,0l-6,24c-18,72 -123,98 -170,43c-26,-30 -32,-83 -14,-118c6,-10 25,-26 42,-35c44,-23 91,-11 125,31l28,35l190,0c239,0 235,2 235,-109c0,-68 3,-80 23,-99c21,-19 35,-22 118,-22c91,0 96,1 122,28l27,28l0,370l0,370l75,74l75,74l0,186l0,185l80,80l80,80l0,650l1,650l99,105l100,105l0,1390l0,1391l-55,54c-53,52 -56,57 -49,93c15,93 -67,155 -147,112zm110,-31c29,-37 27,-85 -4,-114c-52,-49 -135,-13 -135,59c0,76 94,113 139,55zm-1131,-5690c27,-31 28,-73 2,-107c-41,-52 -118,-38 -140,27c-29,89 75,150 138,80z"/>
   <path id="svg_99" d="m13841,9526c-98,-54 -39,-204 71,-182c29,6 38,1 95,-56l63,-62l0,-357c0,-422 -11,-389 127,-389c116,0 123,-6 123,-116c0,-49 -5,-85 -12,-92c-7,-7 -43,-12 -93,-12c-72,0 -84,-3 -103,-23c-19,-20 -22,-35 -22,-112c0,-83 2,-91 27,-117c24,-26 33,-28 98,-28c57,0 75,-4 88,-18c16,-17 17,-111 17,-1153l0,-1134l-183,-183l-183,-182l-32,11c-100,35 -177,-87 -103,-162c76,-75 197,1 162,102c-11,31 -10,32 169,218l180,186l0,1146l0,1146l-23,21c-19,18 -35,22 -83,22c-93,0 -104,12 -104,119c0,113 7,121 112,121c100,0 108,9 108,120c0,77 -2,86 -27,112c-25,26 -32,28 -113,28c-54,0 -91,5 -98,12c-9,9 -12,105 -12,370l0,357l-59,64l-59,63l11,41c24,92 -61,164 -142,119zm109,-31c31,-33 29,-80 -4,-113c-72,-73 -179,30 -115,112c28,36 86,36 119,1zm-5,-4210c35,-34 33,-78 -4,-116c-43,-43 -97,-34 -126,20c-42,83 65,162 130,96z"/>
   <path id="svg_100" d="m16237,9510c-56,-44 -42,-130 26,-163c31,-16 43,-17 69,-8c32,11 34,10 113,-69l80,-80l145,0l145,0l87,-87l88,-88l0,-1520l0,-1520l-95,-95l-95,-95l0,-754c0,-587 -3,-752 -12,-743c-7,7 -31,12 -55,12c-56,0 -93,-37 -93,-93c0,-49 13,-73 52,-93c37,-19 88,-12 113,16c16,18 17,71 16,832l-2,813l96,95l95,95l0,1530l0,1530l-93,93l-92,92l-150,0l-151,0l-74,75c-70,70 -73,76 -62,100c19,41 14,81 -14,114c-21,26 -33,31 -69,31c-27,0 -51,-7 -68,-20zm98,0c30,-11 54,-60 47,-96c-6,-32 -48,-64 -84,-64c-41,0 -78,40 -78,84c0,26 7,40 31,60c34,29 45,31 84,16zm456,-5249c36,-36 37,-70 3,-110c-36,-43 -82,-43 -119,1c-28,33 -29,74 -3,106c33,39 82,40 119,3z"/>
   <path id="svg_101" d="m16653,9515c-34,-24 -47,-76 -29,-120c31,-72 136,-81 175,-14c13,24 22,29 57,29c38,0 46,-6 142,-104l102,-103l0,-1653l0,-1653l-105,-107l-105,-106l0,-604l0,-605l80,-80c76,-76 80,-82 71,-111c-13,-46 -3,-81 32,-110c26,-22 38,-25 71,-21c85,12 117,108 56,169c-27,27 -36,30 -75,26c-43,-5 -44,-5 -124,76l-81,81l0,580l0,580l100,100l100,100l0,1680l0,1680l-102,102c-100,99 -104,102 -153,105c-43,3 -50,6 -53,25c-2,12 -15,33 -29,47c-30,30 -95,36 -130,11zm111,-17c15,-13 29,-37 32,-55c5,-27 1,-37 -24,-63c-39,-39 -74,-39 -113,-1c-17,18 -29,40 -29,56c0,34 50,85 84,85c14,0 36,-10 50,-22zm423,-5184c43,-27 34,-120 -12,-138c-49,-19 -96,-1 -115,43c-17,42 -5,78 33,101c33,20 54,19 94,-6z"/>
   <path id="svg_102" d="m17487,9519c-32,-19 -50,-75 -36,-116l11,-35l-71,-72l-71,-71l0,-1790l0,-1790l-100,-100l-100,-100l0,-115l0,-116l54,-53c54,-53 55,-55 49,-101c-7,-58 8,-87 54,-106c59,-25 122,6 137,68c8,35 -15,93 -44,108c-30,16 -87,15 -106,-1c-13,-11 -24,-3 -75,52l-59,64l0,90l0,90l105,105l105,105l0,1784l0,1784l73,74c69,71 74,74 101,63c36,-13 89,2 111,33c24,34 19,99 -10,131c-19,20 -33,26 -67,26c-24,0 -51,-5 -61,-11zm107,-21c15,-13 29,-37 32,-55c5,-27 1,-37 -24,-63c-32,-32 -56,-37 -95,-19c-52,24 -60,87 -18,130c35,35 71,37 105,7zm-223,-4397c55,-56 23,-141 -54,-141c-75,0 -110,97 -53,146c37,32 71,30 107,-5z"/>
   <path id="svg_103" d="m18289,9501c-39,-40 -40,-89 -1,-132c22,-24 36,-31 67,-31c35,-1 48,-8 108,-67l67,-65l0,-61l1,-60l604,-610l604,-610l1,-440l0,-439l195,-196l195,-196l0,-760l0,-759l198,-198l197,-197l130,0l130,0l85,85c58,58 92,85 108,85c43,0 81,28 93,69c15,51 -3,90 -53,114c-32,16 -43,17 -73,7c-51,-17 -69,-49 -62,-110l6,-49l-73,-66l-73,-65l-99,0l-99,0l-183,183l-182,182l0,755l0,755l-190,190l-190,190l0,446l0,446l-605,611l-605,610l0,63l0,63l-66,67c-62,63 -65,68 -68,119c-2,43 -7,57 -30,76c-40,35 -99,33 -137,-5zm110,4c73,-37 43,-155 -39,-155c-82,0 -112,130 -37,160c32,13 44,12 76,-5zm2636,-4501c34,-37 33,-78 -4,-115c-36,-35 -70,-37 -107,-5c-21,17 -28,33 -28,59c0,79 88,117 139,61z"/>
   <path id="svg_104" d="m15839,9491c-42,-42 -41,-101 2,-143c27,-28 34,-30 78,-25l48,6l61,-62l62,-63l0,-152l0,-153l130,-133l130,-133l0,-880l0,-879l30,-29l30,-29l0,-935l0,-935l-537,-540c-296,-297 -542,-546 -548,-552c-5,-6 -254,-257 -552,-557l-543,-546l0,-123l-1,-123l-32,-20c-45,-29 -61,-66 -47,-110c22,-66 80,-91 140,-60c37,19 50,43 50,91c0,29 -7,43 -35,70l-35,33l0,113l0,113l1085,1095l1084,1095l1,966l0,966l-25,23l-25,23l0,876l0,876l-130,130l-130,130l0,150l0,150l-70,70c-69,70 -70,71 -60,106c28,100 -89,172 -161,100zm136,-24c23,-32 18,-74 -10,-103c-20,-20 -33,-25 -68,-22c-37,3 -44,7 -61,39c-17,32 -18,40 -6,69c25,61 108,70 145,17zm-1681,-6999c40,-35 43,-78 11,-116c-34,-41 -84,-44 -120,-7c-35,34 -33,78 4,116c35,35 71,37 105,7z"/>
   <path id="svg_105" d="m18669,9471c-23,-23 -29,-38 -29,-72c0,-35 6,-47 35,-74c33,-32 34,-35 37,-118l3,-85l588,-591l587,-592l0,-447l0,-447l365,-365l365,-365l0,-629l0,-630l-35,-32c-29,-27 -35,-38 -35,-74c0,-76 72,-121 143,-89c23,11 38,31 51,72c8,24 -18,83 -43,99c-21,13 -21,16 -21,661l0,649l-370,376l-370,377l0,442l0,442l-582,587l-583,587l-3,74c-3,71 -2,74 28,99c26,22 30,33 30,74c0,42 -4,52 -31,74c-43,36 -91,35 -130,-3zm108,0c55,-34 53,-116 -4,-144c-42,-20 -83,-8 -106,31c-27,46 -14,91 33,114c43,22 38,22 77,-1zm1908,-4447c19,-8 45,-55 45,-84c0,-29 -53,-80 -83,-80c-31,0 -73,33 -81,64c-7,29 8,74 32,92c18,14 60,18 87,8z"/>
   <path id="svg_106" d="m2,9429l3,-47l889,-896l888,-896l587,0l586,0l215,-215l215,-215l90,0l91,0l57,58l57,58l0,90l0,90l48,47l48,47l160,0l161,0l69,75c67,74 70,75 117,75c40,0 54,5 78,29c54,54 34,140 -38,160c-78,22 -149,-49 -123,-122c10,-30 8,-33 -57,-99l-67,-68l-166,0l-166,0l-52,-53l-52,-53l0,-90l0,-90l-58,-57c-57,-57 -58,-57 -119,-57l-61,0l-214,220l-213,220l-578,0l-579,0l-616,622c-340,343 -749,756 -910,918l-292,295l2,-46zm4348,-1574c34,-37 33,-90 -4,-121c-37,-32 -71,-30 -107,5c-37,37 -38,78 -4,115c32,35 83,36 115,1z"/>
   <path id="svg_107" d="m2,9303c2,-13 337,-359 886,-912l884,-891l567,0l566,0l215,-215l215,-215l125,0l124,0l156,155l156,155l327,0l327,0l13,-32c27,-62 77,-86 133,-63c66,27 81,116 29,165c-48,45 -140,22 -161,-42c-5,-17 -24,-18 -343,-18l-339,0l-150,-155l-151,-155l-113,0l-114,0l-219,220l-219,220l-566,0l-566,0l-451,458c-978,993 -1333,1347 -1331,1325zm4712,-1868c38,-35 36,-85 -5,-119c-38,-32 -70,-33 -105,-2c-39,33 -39,89 0,122c35,31 76,31 110,-1z"/>
   <path id="svg_108" d="m2,9148c2,-18 250,-274 852,-882l850,-856l575,0l576,0l225,-225l225,-225l165,0l165,0l135,135l135,135l290,0l291,0l39,-40l39,-40l126,0l126,0l47,48l47,48l0,150l0,149l-89,89l-89,89l15,33c47,97 -79,184 -158,108c-41,-39 -41,-94 0,-135c29,-29 43,-33 90,-29c18,1 45,-19 107,-81l84,-84l0,-140l0,-141l-38,-37l-38,-37l-100,0l-100,0l-44,45l-44,45l-306,0l-305,0l-140,-140l-140,-140l-145,0l-145,0l-225,225l-225,225l-580,0l-581,0l-230,233c-1416,1430 -1486,1499 -1482,1475zm4713,-1293c35,-34 33,-78 -4,-116c-47,-46 -101,-35 -127,26c-35,85 67,155 131,90z"/>
   <path id="svg_109" d="m11797,9124c-51,-28 -62,-95 -22,-142c30,-36 77,-47 115,-28c27,13 30,12 89,-48l61,-62l0,-146c0,-117 -3,-148 -15,-158c-13,-11 -15,-91 -15,-614l0,-601l80,-80l80,-80l0,-745l0,-745l-102,-102c-86,-86 -108,-103 -133,-103c-27,0 -79,-48 -445,-417c-228,-230 -659,-664 -959,-966l-544,-547l-136,0l-137,0l-27,28c-26,27 -27,33 -27,127l0,99l56,57c54,55 56,56 102,51c37,-3 53,0 74,17c53,42 46,124 -14,161c-43,27 -84,20 -122,-21c-25,-29 -28,-37 -23,-79c6,-47 5,-47 -54,-106l-59,-58l0,-106l0,-106l53,-52l53,-52l145,0l146,0l544,548c299,301 731,735 959,965c329,330 420,417 440,417c19,0 53,27 133,108l107,107l0,780l0,781l-75,74l-75,74l0,588c0,380 4,589 10,593c6,4 10,71 10,168l-1,162l-62,67c-59,62 -62,69 -59,107c3,34 0,45 -26,71c-35,34 -79,39 -125,14zm108,-19c36,-35 35,-96 -1,-124c-56,-44 -134,-8 -134,61c1,76 84,115 135,63zm-2020,-5050c76,-75 -30,-194 -109,-122c-56,50 -21,147 54,147c19,0 40,-9 55,-25z"/>
   <path id="svg_110" d="m12599,9111c-48,-48 -30,-137 31,-156c20,-6 20,-21 20,-1264l0,-1257l-45,-44l-45,-44l0,-620l0,-620l-389,-391c-213,-214 -432,-436 -486,-492c-88,-92 -100,-101 -121,-93c-38,15 -96,-9 -113,-47c-41,-89 37,-175 126,-138c42,18 67,66 56,108c-4,18 -8,35 -8,38c0,4 217,225 483,493l482,487l0,618l0,618l50,49l49,49l1,1273c0,1088 2,1272 14,1272c8,0 26,14 41,32c23,27 26,39 22,72c-12,84 -108,117 -168,57zm110,4c47,-24 56,-83 20,-129c-26,-33 -75,-35 -113,-5c-36,28 -37,89 -1,124c28,29 54,31 94,10zm-1118,-5024c31,-31 36,-59 17,-94c-42,-80 -152,-51 -152,40c0,26 7,42 28,59c37,32 71,30 107,-5z"/>
   <path id="svg_111" d="m13819,9111c-54,-54 -33,-137 42,-163l29,-10l0,-1712l0,-1711l-110,-110l-110,-110l0,-325l0,-325l-253,-253l-252,-252l-172,0l-171,0l-30,30c-61,61 -157,29 -169,-56c-4,-36 -1,-46 24,-74c24,-27 37,-33 72,-34c36,-1 47,4 72,32c16,18 29,43 29,57l0,25l184,0l184,0l256,263l256,262l0,320l0,320l105,105l105,105l0,1725l1,1725l32,20c18,12 35,33 40,52c28,95 -93,164 -164,94zm122,-10c37,-38 39,-82 4,-116c-65,-66 -173,12 -131,94c31,58 82,67 127,22zm-1182,-4926c38,-19 53,-62 36,-102c-24,-57 -88,-71 -130,-28c-37,36 -34,86 6,119c35,30 49,32 88,11z"/>
   <path id="svg_112" d="m14248,9114c-15,-8 -32,-23 -38,-34c-13,-24 -13,-76 0,-101c16,-29 68,-52 104,-45c28,6 36,1 88,-56l58,-63l-1,-1680l0,-1680l-218,-223c-214,-218 -218,-223 -246,-212c-40,15 -80,4 -110,-32c-40,-47 -28,-116 26,-144c38,-19 68,-18 106,6c32,19 40,36 45,96c3,26 42,71 221,254l217,222l0,1711l0,1711l-61,62c-54,54 -60,64 -50,82c46,85 -54,174 -141,126zm110,-30c56,-63 -7,-161 -87,-133c-41,14 -65,66 -50,108c22,62 92,75 137,25zm-341,-4096c30,-34 34,-55 18,-94c-13,-32 -46,-54 -81,-54c-9,0 -29,13 -45,29c-35,35 -38,77 -8,115c27,35 86,37 116,4z"/>
   <path id="svg_113" d="m17449,9082c-28,-25 -34,-37 -34,-71c0,-61 39,-96 105,-96c47,0 52,-3 115,-65l65,-64l0,-1894l0,-1893l-50,-53l-50,-53l0,-319l0,-319l-193,-193l-192,-192l-70,0c-68,1 -71,2 -90,33c-58,92 -185,56 -185,-53c0,-42 49,-90 92,-90c40,0 82,23 96,54c11,25 15,26 94,26l83,0l203,203l202,202l0,317l0,316l45,50l45,50l0,1914l0,1915l-65,63l-64,64l6,56c5,49 3,59 -18,84c-16,18 -37,29 -65,33c-36,5 -46,1 -75,-25zm95,8c15,-5 34,-26 43,-45c16,-34 16,-38 -1,-70c-23,-43 -61,-57 -103,-40c-70,30 -69,127 1,155c28,12 31,12 60,0zm-515,-5176c31,-40 28,-87 -10,-118c-35,-30 -49,-32 -88,-11c-32,16 -41,33 -41,78c0,72 95,107 139,51z"/>
   <path id="svg_114" d="m7481,9074c-26,-21 -31,-33 -31,-68c0,-51 20,-81 63,-95c67,-22 131,24 131,95c0,28 -7,43 -32,65c-42,38 -89,39 -131,3zm120,-13c37,-37 38,-78 4,-115c-39,-43 -105,-35 -131,16c-20,38 -10,82 23,108c36,28 69,25 104,-9z"/>
   <path id="svg_115" d="m8718,9071c-79,-70 -3,-194 99,-160c67,22 85,108 34,160c-40,39 -89,40 -133,0zm110,3c33,-23 45,-60 31,-101c-19,-58 -90,-73 -134,-28c-35,34 -33,78 4,116c33,32 65,37 99,13z"/>
   <path id="svg_116" d="m15858,9075c-35,-20 -48,-44 -48,-90c0,-49 44,-95 92,-95c31,0 47,-14 171,-144l137,-144l0,-869l0,-869l45,-44l45,-44l0,-840l0,-841l-398,-400c-219,-220 -713,-718 -1099,-1107c-420,-425 -707,-708 -718,-708c-10,0 -33,16 -51,35c-27,29 -38,35 -74,35c-76,0 -124,-77 -88,-143c18,-34 40,-46 84,-47c48,0 88,27 98,65c5,20 12,25 39,25c31,0 81,48 638,611c332,335 830,838 1106,1117l502,507l0,855l1,856l-45,44l-45,44l0,865l0,866l-142,142c-126,126 -141,145 -130,161c23,33 33,66 27,92c-13,61 -93,96 -147,65zm110,-31c27,-31 28,-73 2,-107c-40,-50 -108,-42 -137,17c-14,30 -14,39 -3,66c15,36 63,62 95,54c11,-3 30,-17 43,-30zm-1975,-6116c79,-41 52,-158 -36,-158c-73,0 -106,91 -52,145c26,27 54,31 88,13z"/>
   <path id="svg_117" d="m16255,9081c-36,-15 -57,-49 -59,-92c-1,-35 4,-46 33,-71c30,-27 39,-30 76,-25c42,6 44,5 104,-57l61,-64l0,-280c0,-236 2,-281 15,-292c13,-11 15,-209 15,-1671l0,-1659l-587,-591l-588,-591l-3,-97l-3,-96l-131,-132c-108,-109 -135,-130 -149,-122c-62,33 -139,-17 -139,-91c0,-88 92,-130 160,-74c29,25 31,31 29,81l-3,54l142,142l142,142l1,85l0,85l584,590l585,590l0,1681c0,1668 0,1681 -20,1699c-19,17 -20,31 -20,299l0,282l-60,59c-56,56 -59,61 -54,97c9,54 -2,86 -39,108c-34,21 -59,24 -92,11zm113,-57c14,-31 14,-37 -1,-69c-29,-60 -97,-69 -137,-18c-26,33 -25,73 0,106c38,48 111,38 138,-19zm-1333,-5800c19,-8 45,-55 45,-84c0,-11 -11,-32 -25,-45c-45,-46 -127,-26 -140,34c-7,31 15,85 37,94c19,8 64,8 83,1z"/>
   <path id="svg_118" d="m16675,9081c-36,-16 -58,-49 -59,-92c-1,-35 4,-46 33,-71c31,-27 38,-30 81,-24l48,6l56,-57l56,-58l0,-1369l0,-1369l-100,-102l-100,-101l0,-650l0,-649l-85,-85l-85,-85l0,-185l0,-186l-75,-74l-75,-74l0,-377c0,-443 10,-409 -117,-409c-105,0 -113,8 -113,117c0,117 9,113 -248,113c-200,0 -212,1 -212,19c0,55 -81,96 -141,71c-72,-30 -77,-140 -8,-176c49,-25 88,-18 125,21l33,35l208,-2l208,-3l3,-85c4,-122 14,-130 147,-130c157,0 145,-34 145,416l0,370l75,74l75,74l0,186l0,185l80,80l80,80l0,655l0,655l105,105l105,105l0,1390l0,1391l-58,57c-58,57 -59,59 -54,106c3,39 0,52 -19,75c-26,29 -80,42 -114,27zm69,-15c47,-20 65,-66 43,-112c-29,-59 -97,-67 -137,-17c-41,53 -11,127 58,142c1,1 17,-5 36,-13zm-1105,-5710c50,-53 14,-136 -60,-136c-29,0 -42,6 -58,26c-44,56 -11,134 58,134c27,0 44,-7 60,-24z"/>
   <path id="svg_119" d="m17888,9075c-54,-30 -66,-104 -24,-152c21,-24 31,-28 80,-28c54,0 57,-2 111,-55l55,-54l0,-362c0,-337 1,-362 18,-377c15,-13 39,-17 115,-17c119,0 127,-8 127,-116c0,-94 -11,-104 -112,-104c-65,0 -77,-3 -96,-23c-19,-20 -22,-35 -22,-112c0,-83 2,-91 27,-117c24,-25 33,-28 93,-28c57,0 70,-3 88,-23l22,-23l0,-1125l-1,-1124l-182,-187l-182,-188l-52,6c-62,8 -93,-8 -113,-55c-40,-98 85,-177 161,-102c31,32 38,75 18,113c-10,19 7,39 175,207l186,186l0,1146l0,1146l-23,21c-19,18 -35,22 -88,22c-56,0 -69,4 -87,23c-19,20 -22,35 -22,104c0,104 9,113 112,113c100,0 108,9 108,121c0,80 -2,87 -28,112c-26,25 -35,27 -108,27c-122,0 -114,-29 -114,391l0,353l-62,63c-49,49 -60,65 -50,75c7,7 12,33 12,58c0,36 -5,52 -24,69c-30,28 -83,36 -118,16zm105,-24c10,-9 20,-33 23,-52c17,-101 -136,-131 -161,-32c-20,81 79,142 138,84zm-7,-4215c57,-48 20,-146 -55,-146c-17,0 -39,10 -55,26c-76,77 28,191 110,120z"/>
   <path id="svg_120" d="m25220,8805l-85,-85l-233,0l-232,0l-10,25c-5,13 -23,31 -39,40c-94,48 -183,-35 -139,-130c34,-75 151,-69 179,10l13,35l236,0l235,0l85,85l85,85l142,0c89,0 143,4 143,10c0,6 -56,10 -148,10l-147,0l-85,-85zm-592,-48c50,-46 11,-137 -59,-137c-86,0 -113,122 -35,156c36,15 62,10 94,-19z"/>
   <path id="svg_121" d="m24089,8771c-71,-72 0,-193 96,-164c32,10 35,9 91,-48l58,-59l421,0l422,0l118,120l119,120l93,0c55,0 93,4 93,10c0,6 -41,10 -103,10l-102,0l-120,-120l-120,-120l-390,0l-391,0l-63,64c-59,59 -62,65 -56,98c8,40 -13,91 -44,108c-39,20 -91,12 -122,-19zm120,-7c80,-67 -12,-188 -97,-128c-50,35 -46,110 7,139c38,20 55,18 90,-11z"/>
   <path id="svg_122" d="m11815,8721c-39,-17 -60,-51 -60,-98c0,-37 5,-49 28,-69c15,-13 37,-24 48,-24c19,0 19,-12 19,-593l0,-592l110,-110l110,-110l0,-705l0,-706l-68,-67c-65,-65 -69,-67 -118,-67l-50,0l-225,-227c-1580,-1599 -1614,-1633 -1647,-1633c-25,0 -35,6 -44,26c-14,31 -56,54 -98,54c-47,0 -90,-47 -90,-97c0,-98 122,-133 182,-52c16,21 30,29 54,29c29,0 116,85 959,935l927,935l47,0c45,0 49,3 124,78l77,77l0,715l0,715l-115,115l-115,115l0,582c0,495 2,583 14,583c25,0 66,59 66,96c0,64 -78,119 -135,95zm90,-36c42,-41 33,-105 -17,-131c-35,-18 -64,-13 -96,16c-50,46 -11,140 58,140c19,0 40,-9 55,-25zm-2024,-4924c37,-38 39,-82 4,-116c-64,-65 -166,5 -131,90c26,61 80,72 127,26z"/>
   <path id="svg_123" d="m15845,8678c-33,-19 -44,-41 -45,-84c0,-75 64,-121 134,-94c28,10 32,8 93,-52l63,-62l0,-137c0,-121 -2,-139 -20,-162c-19,-25 -20,-40 -20,-619l0,-593l80,-80l80,-80l0,-745l0,-745l-102,-102c-78,-79 -107,-103 -128,-103c-27,0 -4,23 -1520,-1503l-425,-427l-134,0c-128,0 -136,1 -168,26l-33,25l0,99l0,99l58,61c53,56 59,60 87,52c43,-11 70,-5 99,25c58,58 15,163 -66,163c-21,0 -48,-5 -59,-10c-31,-17 -51,-67 -44,-108c5,-35 2,-40 -55,-97l-60,-59l0,-105l0,-105l57,-58l57,-58l141,0l140,0l746,753c410,413 841,850 958,970c175,177 219,217 241,217c21,0 51,24 139,113l111,112l0,775l0,775l-80,80l-80,80l0,576c0,500 2,578 15,589c12,10 15,43 15,174l0,162l-65,64c-59,59 -65,68 -65,106c0,56 -7,72 -41,89c-33,18 -76,19 -104,3zm113,-34c47,-53 9,-133 -64,-134c-58,0 -98,63 -72,116c27,58 93,66 136,18zm-2032,-5038c57,-48 20,-146 -55,-146c-35,0 -81,44 -81,77c0,29 25,79 42,86c30,12 69,5 94,-17z"/>
   <path id="svg_124" d="m16653,8672c-29,-22 -45,-66 -37,-100c8,-32 42,-72 61,-72c11,0 13,-220 13,-1258l0,-1258l-45,-44l-45,-44l0,-621l0,-620l-484,-490l-483,-490l-44,3c-56,5 -95,-23 -105,-74c-19,-101 106,-159 172,-81c23,27 26,38 21,79l-6,47l484,488l484,488l1,620l0,621l45,44l45,44l0,1268l0,1267l30,16c37,19 50,43 50,90c0,76 -98,124 -157,77zm119,-20c32,-31 33,-75 3,-110c-35,-42 -85,-44 -120,-6c-73,79 41,190 117,116zm-1137,-5007c38,-37 37,-88 -1,-122c-79,-71 -182,42 -109,121c32,34 77,35 110,1z"/>
   <path id="svg_125" d="m17877,8679c-28,-16 -49,-68 -43,-104c7,-35 38,-69 74,-80l22,-6l0,-1717l0,-1717l-105,-105l-105,-105l0,-320l-1,-320l-252,-258l-252,-257l-177,0c-160,0 -178,2 -190,18c-34,48 -101,55 -147,16c-26,-21 -31,-33 -31,-69c0,-71 55,-112 126,-93c38,10 54,28 63,71l7,32l179,3l180,2l258,258l257,257l0,324l0,324l105,107l105,106l0,1722l0,1721l23,12c94,48 64,190 -40,189c-21,0 -46,-5 -56,-11zm92,-14c55,-28 60,-104 9,-139c-74,-52 -164,38 -112,112c14,21 45,40 67,41c4,1 21,-6 36,-14zm-1148,-4954c33,-33 37,-65 12,-101c-23,-34 -33,-40 -68,-40c-47,1 -85,41 -85,90c0,30 53,80 85,80c16,0 38,-12 56,-29z"/>
   <path id="svg_126" d="m18288,8665c-15,-9 -31,-30 -38,-50c-24,-72 29,-140 105,-133c30,2 42,-4 90,-52l55,-54l0,-1691l0,-1690l-216,-216c-211,-212 -218,-217 -246,-207c-98,34 -173,-89 -99,-163c20,-19 40,-29 60,-29c67,0 106,41 104,109c-2,36 6,46 218,257l219,219l0,1720l0,1721l-54,53l-54,54l5,53c5,49 3,55 -25,83c-34,35 -78,40 -124,16zm102,-15c27,-14 41,-64 28,-100c-28,-82 -158,-57 -158,30c0,60 74,100 130,70zm-315,-4123c21,-30 19,-70 -5,-100c-40,-50 -108,-42 -137,17c-14,30 -14,39 -3,66c25,61 108,70 145,17z"/>
   <path id="svg_127" d="m9862,8650c-50,-31 -74,-76 -69,-132c5,-61 29,-95 81,-118c126,-56 246,75 182,198c-35,68 -127,92 -194,52z"/>
   <path id="svg_128" d="m10315,8621c-50,-21 -73,-82 -51,-135c27,-64 106,-78 157,-27c48,49 38,125 -21,156c-32,16 -55,18 -85,6zm99,-42c30,-35 32,-49 11,-90c-29,-55 -97,-61 -135,-12c-44,56 -7,133 64,133c26,0 40,-7 60,-31z"/>
   <path id="svg_129" d="m25325,8450l-130,-130l-365,0l-365,0l-115,-115l-115,-115l-145,0l-145,1l-160,-164c-88,-90 -208,-210 -267,-266c-104,-100 -108,-103 -137,-93c-39,14 -95,-1 -116,-31c-24,-35 -20,-103 10,-132c35,-36 106,-35 142,1c22,23 25,32 21,79l-5,54l269,271l269,270l142,0l142,0l109,109l109,108l369,-5l368,-5l138,137l138,136l57,0c31,0 57,5 57,10c0,6 -31,10 -73,10l-72,0l-130,-130zm-1924,-919c17,-18 29,-40 29,-56c0,-16 -12,-38 -29,-56c-18,-17 -40,-29 -56,-29c-16,0 -38,12 -56,29c-17,18 -29,40 -29,56c0,16 12,38 29,56c18,17 40,29 56,29c16,0 38,-12 56,-29z"/>
   <path id="svg_130" d="m25405,8315l-130,-135l-375,0l-375,0l-133,-132l-133,-131l-27,25c-36,34 -65,42 -107,28c-45,-15 -65,-44 -65,-96c0,-82 94,-123 158,-69c17,14 33,38 37,54c4,20 50,71 141,160l135,131l377,0l377,0l135,135c94,94 142,135 157,135c14,0 23,6 23,15c0,10 -10,15 -32,15c-29,0 -49,-16 -163,-135zm-1180,-388c21,-30 19,-70 -5,-100c-40,-50 -108,-42 -137,17c-14,30 -14,39 -3,66c25,61 108,70 145,17z"/>
   <path id="svg_131" d="m0,8397c0,-25 79,-108 538,-573l537,-544l850,0l850,0l230,-230l230,-230l262,0l262,0l33,29c30,26 38,28 85,24c48,-5 55,-3 83,25c22,23 30,40 30,67c0,82 -103,126 -167,71c-24,-21 -28,-32 -28,-74c0,-35 -6,-56 -19,-71c-18,-20 -28,-21 -275,-21l-256,0l-225,225l-225,225l-850,0l-850,-1l-547,553c-481,486 -547,550 -548,525zm3945,-1370c57,-49 20,-147 -56,-147c-72,0 -106,96 -53,145c34,31 75,32 109,2z"/>
   <path id="svg_132" d="m25464,8172l-129,-133l-310,1l-309,0l-43,-42c-39,-38 -44,-41 -68,-30c-36,17 -98,-1 -119,-33c-26,-40 -21,-92 13,-126c34,-33 75,-38 121,-14c36,19 59,80 41,113c-10,19 -6,27 30,67l42,45l316,0l316,0l119,119c96,96 117,122 114,142c-4,21 -19,9 -134,-109zm-839,-237c35,-34 33,-78 -4,-116c-47,-46 -101,-35 -127,26c-35,85 67,155 131,90z"/>
   <path id="svg_133" d="m15863,8269c-42,-12 -63,-44 -63,-95c0,-46 34,-90 73,-96l22,-3l3,-595l2,-595l110,-110l110,-110l0,-695l0,-695l-72,-72c-69,-70 -74,-73 -119,-73l-47,0l-923,-930c-849,-857 -925,-930 -955,-930c-24,0 -34,5 -39,20c-17,52 -100,77 -150,44c-29,-19 -48,-72 -39,-108c8,-35 59,-76 92,-76c35,0 88,33 97,59c5,16 15,21 44,21c36,0 51,14 367,333c181,182 598,603 926,935l597,602l48,0c47,0 51,3 121,73l72,72l0,720l0,720l-110,110l-110,110l0,587c0,324 4,588 9,588c4,0 20,11 35,25c20,18 26,34 26,65c0,54 -14,79 -55,96c-19,8 -36,14 -37,13c-2,0 -17,-5 -35,-10zm88,-38c36,-36 37,-70 3,-110c-34,-41 -75,-42 -115,-2c-17,18 -29,40 -29,56c0,16 12,38 29,56c18,17 40,29 56,29c16,0 38,-12 56,-29zm-2042,-4906c57,-29 61,-103 9,-139c-74,-52 -164,38 -112,112c14,21 45,40 67,41c4,1 21,-6 36,-14z"/>
   <path id="svg_134" d="m0,8175c0,-26 63,-93 498,-528l497,-497l851,0l851,0l232,-235l231,-235l298,0l298,0l28,-29c26,-27 27,-32 16,-65c-25,-76 17,-136 95,-136c36,0 48,5 69,31c44,52 30,125 -31,154c-20,10 -45,14 -61,10c-23,-5 -34,1 -67,35l-39,40l-291,0l-290,0l-235,235l-235,235l-857,0l-856,0l-501,507c-450,456 -501,505 -501,478zm3947,-1567c29,-32 34,-53 21,-88c-10,-30 -51,-60 -82,-60c-8,0 -28,12 -45,26c-24,20 -31,34 -31,60c0,73 90,113 137,62z"/>
   <path id="svg_135" d="m10299,8157c-85,-57 -43,-177 62,-177c45,0 89,48 89,95c0,49 -15,74 -55,91c-46,19 -56,18 -96,-9zm103,-11c24,-18 39,-63 32,-92c-8,-31 -50,-64 -81,-64c-36,0 -83,51 -83,90c0,62 83,104 132,66z"/>
   <path id="svg_136" d="m10724,8171c-12,-5 -31,-22 -43,-37c-73,-93 61,-207 148,-125c24,22 31,38 31,65c0,66 -77,121 -136,97zm95,-35c39,-42 26,-117 -25,-136c-38,-15 -50,-12 -83,16c-38,31 -41,78 -10,118c28,35 86,36 118,2z"/>
   <path id="svg_137" d="m18659,8031c-51,-52 -33,-128 37,-157c63,-26 134,24 134,94c0,50 -46,92 -100,92c-33,0 -48,-6 -71,-29zm134,-12c43,-54 3,-139 -67,-139c-70,0 -103,94 -50,147c21,21 32,24 62,19c20,-3 45,-15 55,-27z"/>
   <path id="svg_138" d="m25440,7835l-155,-155l-470,0l-471,0l-59,-60l-59,-59l-55,5c-50,6 -59,4 -83,-19c-22,-21 -28,-35 -28,-70c0,-82 69,-128 138,-93c40,21 52,44 52,98c0,40 5,49 59,102l60,59l464,-5l465,-5l152,152c130,130 151,156 148,179c-3,24 -15,15 -158,-129zm-1228,-303c10,-9 20,-31 24,-49c5,-27 1,-37 -24,-63c-51,-50 -121,-32 -138,37c-19,75 82,130 138,75z"/>
   <path id="svg_139" d="m7145,7790c-164,-164 -171,-170 -203,-164c-108,20 -165,-108 -78,-178c66,-54 175,20 152,105c-5,18 22,50 167,195l172,172l719,0l718,0l265,-270l265,-270l167,0l166,0l79,79c57,57 83,77 97,74c30,-8 78,17 94,48c24,45 19,87 -14,120c-75,74 -201,-4 -164,-102c10,-25 6,-31 -56,-93l-67,-66l-140,0l-141,0l-256,260l-257,260l-757,0l-758,0l-170,-170zm2749,-95c37,-34 37,-95 0,-124c-36,-28 -79,-27 -109,4c-75,74 31,192 109,120zm-2917,-107c51,-48 15,-138 -56,-138c-71,0 -106,76 -60,134c27,34 82,36 116,4z"/>
   <path id="svg_140" d="m2,7919c2,-20 118,-143 447,-478l444,-451l866,0l866,0l235,-235l235,-235l242,0l241,0l94,-100l93,-100l115,0l116,0l57,58l57,58l0,195l0,195l44,43l44,44l28,-22c43,-34 118,-25 151,18c7,9 13,35 13,58c0,54 -42,93 -99,93c-41,0 -91,-36 -91,-65c0,-10 -29,-47 -65,-84l-65,-68l0,-184l0,-185l-53,-52l-53,-52l-85,0l-84,0l-100,100l-100,100l-240,0l-240,0l-225,225l-226,226l-872,0l-872,-1l-460,463c-360,361 -460,456 -458,436zm4344,-893c21,-17 28,-33 28,-59c0,-88 -110,-122 -149,-46c-22,42 -18,67 14,100c36,35 70,37 107,5z"/>
   <path id="svg_141" d="m7805,7648c-83,-84 -462,-467 -842,-850l-693,-697l0,-473l0,-473l-408,-408l-407,-407l-251,0l-250,0l-307,-314l-307,-314l0,-286c0,-231 -3,-286 -13,-286c-18,0 -53,-39 -62,-68c-9,-30 12,-88 38,-107c12,-8 39,-15 60,-15c106,0 135,150 37,190l-30,12l0,277l1,276l305,308l305,307l254,0l253,0l411,417l411,417l1,471l0,470l832,838l832,837l186,0l187,0l244,-250l244,-250l484,0l485,0l133,133l132,132l54,0c44,0 59,5 80,24c34,32 42,80 22,119c-32,62 -108,72 -158,22c-25,-26 -29,-36 -27,-75l3,-46l-134,-134l-135,-135l-465,0l-465,0l-245,245l-245,245l-200,0l-201,0l-149,-152zm2386,43c75,-76 -20,-187 -104,-121c-46,36 -43,92 7,132c31,26 64,22 97,-11zm-5778,-4581c33,-26 41,-63 22,-100c-29,-57 -81,-66 -126,-21c-37,37 -38,78 -4,115c29,32 72,34 108,6z"/>
   <path id="svg_142" d="m11342,7764c-13,-9 -27,-27 -32,-40l-10,-24l-303,0l-304,0l-252,-260l-253,-260l-822,0l-821,0l-183,183c-176,176 -182,184 -182,222c0,51 -20,80 -64,95c-27,9 -41,8 -68,-3c-41,-17 -54,-33 -63,-77c-6,-29 -102,-130 -554,-585c-301,-302 -653,-658 -784,-790l-237,-240l0,-450l-1,-450l-442,-448l-442,-448l-253,1l-252,0l-260,-262l-259,-263l-1,-150l0,-151l45,-44l45,-44l0,-272l0,-273l-441,-445l-441,-446l-44,0c-24,0 -44,4 -44,9c0,5 -12,23 -26,40c-22,27 -32,31 -74,31c-42,0 -52,-4 -74,-31c-80,-95 47,-214 142,-134c24,20 41,25 85,25l55,0l456,462l456,461l0,317l0,316l-40,39l-40,39l0,111l0,110l248,248l247,247l250,0l250,-1l447,453l447,453l1,460l1,460l777,783c747,752 778,782 797,766c15,-12 34,-15 76,-11l56,5l179,-179l179,-179l855,0l855,0l250,250l250,250l292,0c230,0 294,-3 300,-13c13,-22 56,-47 81,-47c64,0 110,59 98,124c-13,66 -98,99 -154,60zm91,-6c79,-42 52,-158 -37,-158c-82,0 -106,118 -31,158c26,15 41,15 68,0zm-3297,-112c54,-46 30,-127 -43,-142c-27,-5 -37,-1 -63,24c-38,38 -40,79 -5,116c31,33 74,34 111,2zm-4561,-5761c52,-51 16,-145 -55,-145c-44,0 -80,39 -80,85c0,46 36,85 80,85c19,0 40,-9 55,-25z"/>
   <path id="svg_143" d="m0,7711l0,-43l417,-419l417,-419l884,0l885,0l229,-235l230,-235l227,0l226,0l105,-105l105,-105l150,0l150,1l183,179c172,170 182,182 182,218c0,48 -21,77 -64,92c-38,12 -89,-3 -115,-34c-22,-26 -19,-91 6,-124l21,-29l-121,-121l-122,-122l-117,0l-117,0l-102,105l-102,105l-227,0l-226,0l-234,235l-234,235l-886,0l-885,0l-432,432l-433,433l0,-44zm4346,-1105c54,-46 30,-127 -43,-142c-27,-5 -37,-1 -64,25c-27,28 -31,37 -26,69c12,69 80,94 133,48z"/>
   <path id="svg_144" d="m23713,7568c-70,-19 -95,-100 -48,-156c30,-36 70,-47 111,-32c28,11 31,9 95,-59l66,-71l831,0c548,0 832,3 832,10c0,7 -279,10 -817,10l-818,0l-71,71c-65,65 -71,74 -62,95c13,29 3,87 -20,107c-28,25 -64,35 -99,25zm66,-23c73,-37 43,-155 -39,-155c-85,0 -110,117 -35,158c27,15 41,15 74,-3z"/>
   <path id="svg_145" d="m24499,7541c-38,-39 -40,-97 -5,-138c33,-38 102,-40 140,-4c14,14 26,30 26,38c0,11 86,13 470,13c441,0 470,1 470,18c0,16 -28,17 -465,14l-466,-2l-11,30c-21,63 -110,80 -159,31zm129,-17c29,-33 28,-74 -3,-108c-61,-66 -169,2 -135,85c25,60 94,72 138,23z"/>
   <path id="svg_146" d="m2,7525c3,-31 45,-77 382,-415l380,-380l875,0l876,0l237,-237l236,-236l165,0l166,0l33,-34c29,-30 33,-40 33,-89c0,-49 4,-59 28,-80c20,-17 40,-24 72,-24c36,0 47,5 69,31c34,40 34,88 1,127c-29,34 -63,46 -98,33c-21,-8 -30,-4 -68,35l-43,44l-166,0l-165,0l-230,230l-230,230l-881,0l-881,0l-397,400c-369,371 -397,397 -394,365zm3519,-1325c10,-6 26,-24 34,-40c43,-83 -67,-162 -130,-94c-64,69 14,177 96,134z"/>
   <path id="svg_147" d="m11644,7505l-25,-25l-230,0l-230,0l-554,-557l-554,-558l-1,-242l0,-242l-767,-775l-768,-776l-490,0l-491,0l-214,-217c-118,-120 -466,-471 -774,-781l-559,-563l-111,2c-120,3 -145,-4 -165,-48c-24,-53 -9,-103 39,-128c41,-21 72,-19 114,10c32,21 48,25 115,25l78,0l608,618c335,339 685,695 780,790l171,172l462,0l463,0l642,648c353,356 715,721 804,812l163,166l0,241l0,240l526,532l526,531l212,0c197,0 214,-1 230,-19c24,-26 62,-34 101,-21c105,35 76,190 -35,190c-30,0 -47,-6 -66,-25zm105,0c16,-8 34,-28 40,-45c28,-82 -73,-147 -134,-85c-35,34 -33,78 4,116c33,33 50,35 90,14zm-5890,-4771c31,-40 28,-87 -10,-118c-35,-30 -49,-32 -88,-11c-32,16 -41,33 -41,78c0,72 95,107 139,51z"/>
   <path id="svg_148" d="m2,7383c2,-13 143,-165 361,-387l359,-366l876,0l877,0l235,-235l235,-235l95,0l95,0l125,-125l125,-125l131,0l131,0l47,50l47,50l228,0c184,0 231,3 240,14c9,10 27,13 69,9c52,-5 59,-3 85,22c38,39 38,101 0,137c-38,35 -65,41 -108,24c-41,-18 -69,-70 -59,-111c4,-18 1,-32 -11,-45c-17,-19 -32,-20 -244,-20l-227,0l-44,-45l-44,-45l-111,0l-110,0l-120,120l-120,120l-97,0l-97,0l-232,235l-232,235l-885,0l-885,0l-369,373c-243,245 -367,365 -366,350zm4344,-1197c56,-48 20,-146 -54,-146c-36,0 -82,46 -82,83c0,36 49,87 84,87c14,0 37,-11 52,-24z"/>
   <path id="svg_149" d="m6893,7363c-12,-2 -34,-18 -49,-35c-21,-26 -25,-39 -21,-72l4,-41l-408,-411l-409,-410l0,-570l0,-569l-328,-328l-327,-327l-280,0l-280,0l-403,-403l-402,-402l0,-173c0,-159 -2,-176 -20,-199c-50,-63 -4,-163 75,-163c50,0 74,15 91,57c19,44 10,87 -22,112c-24,19 -24,22 -24,176l0,157l362,364l361,364l291,0l291,0l353,353l352,352l0,575l1,575l402,407c320,324 410,409 439,418c77,23 102,104 51,159c-29,30 -61,41 -100,34zm82,-38c52,-51 16,-145 -55,-145c-44,0 -80,39 -80,85c0,46 36,85 80,85c19,0 40,-9 55,-25zm-2890,-3891c19,-8 45,-55 45,-84c0,-12 -14,-35 -30,-52c-26,-25 -36,-29 -63,-24c-46,9 -71,38 -71,82c0,59 62,100 119,78z"/>
   <path id="svg_150" d="m0,7151l0,-63l297,-299l297,-299l895,0l896,0l243,-250l244,-250l111,0l112,0l105,-105l105,-105l226,0c206,0 227,-2 242,-18c10,-10 17,-31 17,-46c0,-95 122,-142 180,-69c54,69 -8,175 -94,159c-27,-5 -37,-1 -61,24l-29,30l-236,0l-235,0l-105,105l-105,105l-96,0l-97,0l-240,245l-239,245l-889,0l-889,0l-327,327l-328,328l0,-64zm3944,-1380c46,-40 34,-117 -23,-141c-76,-31 -143,66 -91,133c30,38 75,41 114,8z"/>
   <path id="svg_151" d="m23305,7151c-37,-16 -60,-51 -60,-93c0,-33 6,-45 34,-70c30,-27 39,-30 80,-25l46,6l160,-159l160,-160l279,0l278,-1l52,-48l51,-48l608,-6c512,-4 607,-3 607,9c0,11 -98,14 -600,16l-599,3l-43,41l-43,42l-282,7l-282,7l-158,160l-158,160l3,52c3,44 0,57 -20,80c-25,29 -79,42 -113,27zm95,-31c60,-60 5,-164 -76,-144c-33,8 -64,50 -64,86c0,65 94,104 140,58z"/>
   <path id="svg_152" d="m23691,7147c-31,-18 -50,-54 -51,-95c0,-67 81,-114 142,-81c18,10 28,3 87,-55l67,-66l175,0l176,0l74,-80l73,-80l583,0c321,0 583,4 583,8c0,5 -257,11 -572,15l-571,6l-76,75l-76,76l-176,0l-175,0l-62,63c-62,62 -62,63 -56,108c6,41 3,50 -22,78c-34,37 -86,49 -123,28zm104,-32c37,-36 34,-86 -6,-119c-33,-28 -45,-31 -83,-16c-51,19 -64,94 -25,136c31,33 82,32 114,-1z"/>
   <path id="svg_153" d="m24115,7146c-52,-23 -70,-62 -54,-121c11,-39 50,-65 98,-65c35,0 91,43 91,71c0,10 3,19 8,19c4,0 52,-45 107,-100l100,-100l567,0c372,0 568,3 568,10c0,7 -195,10 -564,10l-564,0l-127,134c-76,80 -140,139 -158,145c-36,13 -35,13 -72,-3zm95,-31c34,-37 33,-90 -4,-121c-15,-13 -38,-24 -52,-24c-32,0 -84,51 -84,82c0,23 24,66 44,80c24,17 73,8 96,-17z"/>
   <path id="svg_154" d="m24531,7149c-52,-11 -76,-41 -76,-95c0,-38 5,-50 28,-70c41,-35 99,-33 138,5c16,16 29,37 29,45c0,14 50,16 478,18l477,3l-472,2l-473,3l-14,28c-28,54 -63,73 -115,61zm67,-25c35,-24 44,-59 28,-99c-25,-60 -89,-74 -131,-29c-69,75 21,186 103,128z"/>
   <path id="svg_155" d="m11446,7095c-28,-19 -50,-25 -91,-25l-53,0l-456,-462l-456,-463l0,-315l0,-316l40,-39l40,-39l0,-111l0,-110l-246,-252l-246,-253l-252,0l-253,0l-446,-447l-447,-448l0,-460l0,-459l-173,-176c-1015,-1030 -1386,-1398 -1397,-1385c-18,21 -68,28 -102,14l-31,-12l-176,181l-176,182l-860,0l-860,0l-250,-250l-250,-250l-288,0l-289,0l-19,25c-40,50 -135,41 -164,-16c-19,-35 -19,-63 0,-98c32,-63 131,-65 170,-4l20,32l298,1l298,0l256,260l255,260l828,0l828,0l176,-181c168,-173 176,-183 176,-221c0,-55 43,-98 97,-98c52,0 80,22 94,73c13,46 38,72 1052,1093l527,532l0,453l0,453l414,416c227,228 424,427 436,443l24,27l255,0l256,0l263,263l262,262l0,155l0,156l-45,44l-45,44l0,269l0,269l441,449l442,449l42,0c38,0 44,-3 55,-30c28,-66 116,-76 164,-19c41,48 29,117 -25,145c-40,20 -71,17 -113,-11zm115,-14c53,-54 24,-141 -49,-143c-85,-3 -118,116 -43,157c39,21 59,18 92,-14zm-4556,-5766c62,-61 -7,-167 -87,-134c-35,14 -62,61 -52,92c20,67 93,89 139,42zm-3315,-100c72,-77 -41,-185 -115,-110c-31,30 -32,73 -4,109c28,36 86,36 119,1z"/>
   <path id="svg_156" d="m4589,7031c-42,-42 -41,-99 3,-136l31,-26l-71,-72l-72,-72l0,-771l0,-770l-33,-32l-33,-32l-520,0l-521,0l-23,-25c-26,-28 -61,-32 -80,-10c-10,13 -52,15 -259,15l-247,0l-348,355l-348,355l-1034,0l-1034,0l0,-30l0,-30l1008,0l1007,0l353,-360l354,-360l302,0l303,0l23,25l23,25l531,0l530,0l43,42l43,42l0,771l0,770l83,81c45,44 94,88 108,97c14,8 32,29 39,46c40,98 -85,177 -161,102zm126,-7c74,-80 -29,-191 -111,-120c-22,18 -28,32 -27,62c2,76 88,112 138,58z"/>
   <path id="svg_157" d="m21965,7029c-17,-4 -44,-22 -60,-39c-23,-24 -30,-41 -33,-88c-4,-55 -2,-61 28,-95c60,-69 152,-72 215,-7c22,23 29,41 32,82c5,67 -20,111 -80,138c-46,21 -57,22 -102,9z"/>
   <path id="svg_158" d="m22365,6967c-18,-15 -28,-36 -32,-64c-5,-37 -2,-45 25,-73c63,-63 172,-22 172,65c0,81 -103,126 -165,72zm120,-12c52,-51 16,-145 -55,-145c-44,0 -80,39 -80,85c0,46 36,85 80,85c19,0 40,-9 55,-25z"/>
   <path id="svg_159" d="m8009,6745c-57,-31 -61,-114 -7,-160c34,-29 66,-32 108,-10c37,19 50,43 50,90c0,74 -82,118 -151,80zm93,-6c25,-13 50,-72 41,-96c-22,-64 -93,-84 -138,-38c-35,34 -33,78 4,116c31,31 59,36 93,18z"/>
   <path id="svg_160" d="m9705,6671c-12,-5 -27,-16 -34,-25c-12,-14 -80,-16 -695,-16l-681,0l-85,-85c-82,-82 -85,-84 -122,-79c-52,9 -93,-11 -113,-52c-22,-46 -12,-86 28,-120c41,-34 100,-29 136,12c20,24 23,35 18,80l-5,51l77,77l77,76l664,-2l664,-3l8,-32c27,-105 180,-95 195,13c4,35 1,46 -23,73c-31,33 -76,46 -109,32zm90,-36c37,-36 34,-86 -6,-119c-35,-30 -49,-32 -88,-11c-38,19 -53,62 -36,102c24,57 88,71 130,28zm-1701,-189c35,-15 60,-62 49,-94c-22,-63 -94,-82 -138,-37c-49,48 -19,128 53,144c1,1 18,-5 36,-13z"/>
   <path id="svg_161" d="m22393,6535c-99,-43 -72,-186 37,-189c35,-1 46,4 71,32c50,56 33,129 -37,158c-39,16 -31,17 -71,-1zm76,-20c73,-37 43,-155 -39,-155c-85,0 -110,117 -35,158c27,15 41,15 74,-3z"/>
   <path id="svg_162" d="m22803,6535c-112,-47 -62,-212 57,-189c46,10 75,48 75,100c0,71 -67,116 -132,89zm70,-17c33,-17 46,-39 47,-76c0,-65 -74,-104 -127,-67c-82,57 -8,190 80,143z"/>
   <path id="svg_163" d="m8287,6432c-53,-54 -57,-61 -57,-106c0,-45 -4,-52 -60,-110c-55,-57 -62,-62 -96,-58c-68,8 -122,-47 -110,-113c16,-84 135,-109 181,-38c13,20 16,38 11,77l-6,52l55,54c54,53 55,56 55,110c0,54 2,57 53,108l53,52l590,0l590,0l59,-60c55,-55 58,-61 47,-85c-33,-72 11,-145 87,-145c55,0 90,32 98,87c5,39 2,46 -31,79c-33,33 -41,36 -75,31c-37,-5 -42,-2 -102,59l-63,64l-611,0l-611,0l-57,-58zm1508,-107c37,-36 34,-86 -6,-119c-34,-29 -50,-32 -82,-14c-34,17 -46,39 -47,80c0,70 85,104 135,53zm-1700,-185c29,-11 58,-69 48,-97c-22,-64 -93,-84 -138,-38c-35,34 -33,78 4,116c32,31 45,34 86,19z"/>
   <path id="svg_164" d="m23861,6377c-52,-54 -68,-64 -82,-56c-35,18 -79,10 -110,-20c-89,-90 33,-227 129,-146c36,30 47,70 32,110c-10,27 -8,32 47,87l57,58l833,0c549,0 833,3 833,10c0,6 -91,10 -253,10c-140,0 -517,3 -838,6l-584,6l-64,-65zm-66,-92c62,-61 -7,-167 -87,-134c-29,12 -58,54 -58,83c0,8 12,28 26,45c33,40 83,43 119,6z"/>
   <path id="svg_165" d="m0,6390l0,-30l1167,0l1168,0l312,-312c222,-222 313,-319 313,-335c0,-54 48,-103 100,-103c33,0 75,26 88,55c37,80 -31,163 -112,138l-34,-10l-313,313l-314,314l-1187,0l-1188,0l0,-30zm3118,-623c35,-32 30,-88 -10,-122c-36,-30 -68,-28 -105,7c-46,43 -20,127 42,140c27,6 45,-1 73,-25z"/>
   <path id="svg_166" d="m24084,6296c-40,-40 -44,-75 -14,-123c22,-37 76,-53 121,-36c25,10 32,6 95,-58l68,-69l623,0c409,0 623,3 623,10c0,7 -211,10 -613,10l-613,0l-67,68c-63,64 -66,69 -60,104c17,107 -89,168 -163,94zm120,-8c43,-39 36,-107 -14,-133c-40,-21 -54,-19 -89,11c-24,20 -31,34 -31,60c0,72 81,109 134,62z"/>
   <path id="svg_167" d="m24525,6321c-26,-11 -51,-40 -60,-69c-9,-30 12,-88 38,-107c27,-19 87,-19 113,0c16,12 93,14 502,15l482,0l0,60l0,60l-470,0l-469,0l-37,25c-38,26 -64,30 -99,16zm91,-35c54,-46 30,-127 -43,-142c-27,-5 -37,-1 -63,24c-79,79 22,191 106,118z"/>
   <path id="svg_168" d="m0,6245l0,-25l1114,0l1114,0l360,-365l359,-365l118,0l118,0l72,69l72,70l160,0l159,0l74,-74l74,-75l141,0l141,0l59,-60c53,-53 60,-66 61,-100c1,-75 57,-118 129,-99c44,12 65,43 65,94c0,32 -6,47 -29,69c-24,23 -36,27 -75,25c-45,-3 -48,-1 -114,64l-68,67l-145,0l-145,0l-69,70l-69,70l-196,0l-196,0l-69,-70l-69,-70l-81,0l-80,0l-365,365l-365,365l-1127,0l-1128,0l0,-25zm4352,-873c10,-9 20,-31 24,-49c5,-27 1,-37 -24,-63c-44,-43 -107,-36 -131,17c-18,39 -13,63 19,95c26,25 36,29 63,24c18,-4 40,-14 49,-24z"/>
   <path id="svg_169" d="m9194,6256c-18,-8 -35,-19 -38,-25c-4,-7 -41,-11 -91,-11l-83,0l-782,-790l-783,-790l-461,0l-461,1l-807,-813l-807,-813l-1,-245l0,-244l-522,-525c-288,-289 -527,-529 -533,-533c-5,-4 -101,-8 -213,-8c-203,0 -203,0 -230,25c-41,38 -114,31 -149,-14c-18,-23 -16,-87 3,-116c23,-35 74,-49 116,-32c18,8 39,21 46,30c11,13 46,16 245,17l232,1l550,556l550,556l5,244l5,244l760,769l760,768l492,1l491,1l773,780l773,780l119,0c118,0 119,0 148,29c39,40 40,89 2,130c-34,37 -68,45 -109,27zm83,-21c32,-22 43,-65 28,-102c-24,-57 -88,-71 -130,-28c-71,70 21,187 102,130zm-5903,-4766c28,-33 32,-59 14,-92c-30,-57 -92,-64 -133,-15c-32,38 -29,81 11,116c36,32 77,29 108,-9z"/>
   <path id="svg_170" d="m23030,6015l-125,-125l-140,0l-140,0l-108,-108l-107,-107l0,-161c0,-161 0,-161 26,-188c36,-35 91,-36 133,0l30,25l-6,142l-5,142l62,68l63,67l111,0l111,0l130,130l130,130l105,0l105,0l146,-146l147,-147l951,-5l951,-5l0,72l0,71l-938,0l-937,0l-135,135l-135,135l-150,0l-150,0l-125,-125zm-466,-566c14,-17 26,-37 26,-44c0,-33 -22,-66 -53,-81c-30,-14 -38,-15 -63,-3c-37,18 -59,58 -50,92c17,71 94,91 140,36z"/>
   <path id="svg_171" d="m0,6100l0,-30l1080,0l1080,0l357,-360l356,-360l181,0l182,0l78,80l79,80l97,0l96,0l107,-109c59,-59 107,-115 107,-123c0,-26 46,-60 84,-61c93,-3 140,92 80,162c-21,26 -33,31 -68,31c-23,0 -52,-7 -65,-16c-23,-16 -25,-15 -125,85l-101,101l-130,0l-130,0l-80,-80l-80,-80l-140,0l-140,0l-355,355l-355,355l-1097,0l-1098,0l0,-30zm3925,-710c15,-6 32,-24 41,-45c13,-31 13,-39 -1,-65c-28,-55 -89,-67 -130,-25c-41,40 -31,104 20,133c25,14 37,15 70,2z"/>
   <path id="svg_172" d="m0,5940l0,-30l1043,0l1042,0l359,-365l358,-365l257,0l257,0l29,30c32,34 48,36 97,15c43,-18 100,-5 123,28c24,35 20,103 -10,132c-34,35 -106,35 -140,0c-14,-13 -25,-33 -25,-45c0,-16 -6,-20 -33,-20c-25,0 -42,-9 -67,-35l-34,-35l-198,0l-198,0l-357,360l-356,360l-1073,0l-1074,0l0,-30zm3541,-569c17,-18 29,-40 29,-56c0,-35 -50,-85 -85,-85c-16,0 -38,12 -56,29c-17,18 -29,40 -29,56c0,35 50,85 85,85c16,0 38,-12 56,-29z"/>
   <path id="svg_173" d="m23267,5899c-29,-17 -49,-68 -42,-107c6,-33 3,-39 -57,-99l-63,-64l-3,-771l-3,-772l66,-66l67,-67l486,-7l487,-7l53,-52l52,-51l0,-81l0,-81l68,-67l68,-67l104,0l105,0l130,-130l130,-130l210,0l210,0l132,-132c121,-121 133,-130 133,-105c0,23 -25,55 -117,153l-118,124l-210,0l-210,0l-130,130l-130,130l-118,0l-118,0l-50,53l-50,52l7,74l6,74l-73,73l-73,74l-477,0l-476,0l-67,69l-66,69l6,744l6,743l60,61c59,61 60,61 108,56c44,-4 52,-2 80,26c41,42 42,92 1,133c-23,22 -39,29 -68,29c-21,0 -46,-5 -56,-11zm109,-23c22,-18 28,-32 27,-62c-2,-76 -88,-112 -138,-58c-74,80 29,191 111,120z"/>
   <path id="svg_174" d="m10618,5885c-34,-19 -48,-44 -48,-88c0,-41 30,-82 65,-91l25,-6l0,-282l0,-282l-302,-303l-303,-303l-255,0l-255,0l-412,-419l-413,-419l0,-470l0,-470l-637,-644c-350,-353 -722,-730 -827,-836l-190,-192l-191,0l-190,0l-245,245l-245,245l-485,0l-485,0l-135,-135l-135,-135l-46,6c-42,6 -50,3 -80,-24c-28,-25 -34,-37 -34,-72c0,-35 6,-47 33,-71c45,-40 93,-40 133,1c26,26 30,36 28,80l-3,51l135,135l134,134l462,0l462,0l242,-245l243,-245l207,0l207,0l841,847l841,848l0,472l0,472l401,405l401,406l252,0l252,0l312,314l312,314l0,282l0,283l36,31c32,27 37,38 37,75c0,32 -6,49 -25,67c-30,31 -84,39 -120,19zm112,-33c25,-32 25,-72 0,-105c-40,-50 -108,-42 -137,17c-14,30 -14,39 -3,66c25,59 102,71 140,22zm-5811,-4563c37,-13 65,-60 57,-95c-16,-63 -96,-85 -141,-39c-48,47 -24,115 51,145c1,0 15,-5 33,-11z"/>
   <path id="svg_175" d="m0,5660c0,-20 7,-20 981,-20l980,0l371,-375l370,-375l334,0c323,0 334,-1 334,-19c0,-11 12,-33 26,-50c21,-26 33,-31 69,-31c52,0 91,28 100,71c20,91 -90,155 -163,94l-29,-25l-320,0l-321,-1l-372,376l-373,375l-994,0c-986,0 -993,0 -993,-20zm3503,-702c53,-28 64,-92 22,-133c-64,-65 -166,5 -131,90c22,51 63,68 109,43z"/>
   <path id="svg_176" d="m23857,5593c-73,-74 -79,-78 -121,-78c-64,0 -96,-32 -96,-96c0,-40 4,-51 31,-73c19,-17 43,-26 64,-26c21,0 45,9 64,26c26,22 31,33 31,71c0,44 4,50 74,119l73,74l414,0l415,0l64,-65l64,-65l333,0l333,0l0,25l0,25l-318,0l-318,0l-69,70l-69,70l-446,0l-445,0l-78,-77zm-69,-113c45,-42 36,-107 -19,-136c-30,-15 -35,-15 -66,0c-58,27 -68,91 -23,136c26,26 80,26 108,0z"/>
   <path id="svg_177" d="m10914,5556c-22,-22 -34,-44 -34,-60c0,-33 24,-82 45,-89c13,-5 15,-31 15,-164l0,-157l-367,-368l-368,-368l-290,0l-291,0l-348,-356l-349,-356l7,-566l6,-566l-411,-412c-276,-276 -420,-414 -438,-417c-76,-16 -106,-112 -51,-167c38,-38 95,-38 141,-1c20,16 24,29 24,74l0,54l407,409l408,409l0,565l0,565l326,333l326,332l285,0l286,0l398,403l398,402l0,173c1,158 3,176 21,199c22,28 26,82 10,114c-13,24 -61,49 -96,49c-16,0 -38,-12 -60,-34zm118,0c43,-32 42,-91 -1,-130c-74,-67 -177,49 -106,119c27,28 79,33 107,11zm-2864,-3919c31,-29 30,-86 -3,-117c-72,-67 -176,27 -119,108c31,45 78,49 122,9z"/>
   <path id="svg_178" d="m7,5533c-14,-13 -6,-33 12,-33c11,0 32,-11 47,-24c21,-18 28,-32 28,-60c0,-41 -19,-65 -67,-83l-32,-11l31,-1c46,-1 84,43 84,97l0,42l898,0l897,0l405,-405l405,-405l455,0l455,0l89,89l89,90l25,-20c28,-22 98,-25 123,-6c70,54 35,177 -51,177c-47,0 -60,-10 -187,-141l-116,-119l-427,0l-428,0l-402,410l-403,410l-962,0c-529,0 -965,-3 -968,-7zm3938,-588c54,-54 21,-145 -52,-145c-45,0 -83,37 -83,82c1,76 84,115 135,63z"/>
   <path id="svg_179" d="m24101,5507c-88,-51 -54,-187 48,-187c28,0 48,7 68,24l28,25l90,-89l90,-89l588,-3c553,-3 587,-2 587,15c0,16 -34,17 -574,17l-574,0l-92,98c-51,53 -102,113 -115,132c-12,19 -29,41 -38,48c-23,20 -79,24 -106,9zm104,-32c46,-45 24,-125 -39,-141c-28,-7 -81,18 -90,41c-22,60 16,125 74,125c19,0 40,-9 55,-25z"/>
   <path id="svg_180" d="m24524,5510c-12,-4 -31,-21 -44,-37c-29,-37 -23,-98 15,-130c49,-42 142,-21 160,37c5,16 15,20 53,20c37,0 52,-6 77,-29l30,-28l393,-7c344,-5 392,-4 392,9c0,13 -49,15 -378,15l-378,0l-34,35c-31,32 -39,35 -91,35c-53,0 -57,2 -69,29c-7,17 -26,36 -45,45c-37,18 -50,19 -81,6zm90,-31c19,-15 26,-30 26,-55c0,-47 -13,-69 -50,-84c-35,-15 -84,0 -100,31c-45,82 51,166 124,108z"/>
   <path id="svg_181" d="m151,5296c-84,-85 -97,-94 -123,-89c-17,3 -28,1 -28,-6c0,-6 11,-11 24,-11c27,0 76,-51 76,-78c0,-33 -39,-81 -72,-91c-33,-9 -33,-9 -5,-10c19,-1 39,9 59,29c25,26 29,36 27,75c-3,45 -2,47 81,130l85,85l765,0l765,0l420,-420l420,-420l509,0l508,0l82,80l82,80l125,0l125,0l73,74l73,74l57,-5c50,-5 59,-2 83,20c22,20 28,35 28,67c0,116 -160,139 -191,27c-9,-30 -32,-63 -83,-114l-70,-73l-118,0l-117,0l-83,-85l-84,-85l-486,0l-486,0l-414,420l-415,420l-799,0l-799,0l-94,-94zm4195,-350c21,-17 28,-33 28,-59c0,-88 -110,-122 -149,-46c-22,42 -18,67 14,100c36,35 70,37 107,5z"/>
   <path id="svg_182" d="m23864,5143c-60,-67 -60,-67 -91,-54c-68,28 -138,-18 -138,-91c0,-33 6,-45 33,-69c45,-40 93,-40 134,1c28,28 30,36 26,80c-5,48 -4,49 51,104l57,56l160,0l160,0l37,-38l37,-38l0,-100l0,-100l53,-52l53,-52l140,0l140,0l39,40l39,40l403,0c352,0 403,2 403,15c0,13 -53,15 -413,15l-414,0l-42,-45l-42,-44l-112,5l-112,6l-47,46l-48,46l0,101l0,101l-48,47l-48,47l-175,0l-175,0l-60,-67zm-81,-77c9,-7 22,-27 28,-44c18,-53 -28,-112 -87,-112c-28,0 -74,56 -74,90c0,63 83,104 133,66z"/>
   <path id="svg_183" d="m23271,5086c-47,-26 -63,-84 -37,-135c23,-43 89,-65 126,-41c11,7 30,-6 80,-55l65,-65l338,-7l337,-6l99,-103l99,-103l292,-1c260,-1 294,0 310,15c17,16 45,16 319,10l301,-8l0,22l0,21l-329,0c-280,0 -330,-2 -341,-15c-10,-13 -53,-15 -264,-15l-251,0l-110,110l-110,110l-325,0l-324,0l-68,67c-58,58 -66,70 -61,95c16,81 -73,144 -146,104zm106,-28c16,-15 23,-33 23,-57c-1,-40 -14,-62 -47,-79c-32,-18 -48,-15 -82,14c-24,20 -31,34 -31,62c0,73 84,110 137,60z"/>
   <path id="svg_184" d="m24104,5084c-92,-45 -58,-184 45,-184c22,0 43,5 46,10c12,19 25,10 25,-17c0,-21 23,-53 96,-130l96,-103l227,0l227,0l30,31l29,31l338,-5c320,-5 337,-4 337,13c0,17 -21,18 -352,22l-353,4l-30,-28l-31,-28l-195,0l-194,0l-98,98l-97,97l0,69c0,64 -2,70 -34,102c-38,38 -64,42 -112,18zm101,-29c46,-45 24,-125 -40,-141c-52,-13 -99,29 -97,88c2,71 87,104 137,53z"/>
   <path id="svg_185" d="m24524,5090c-65,-26 -84,-112 -35,-161c50,-49 138,-34 161,27c8,19 17,24 43,24c23,0 41,8 57,25l23,25l414,0c269,0 413,3 413,10c0,7 -148,10 -423,10l-424,0l-23,-25c-32,-34 -63,-33 -77,5c-11,29 -66,70 -93,69c-8,0 -25,-4 -36,-9zm91,-35c52,-51 16,-145 -55,-145c-44,0 -80,39 -80,85c0,46 36,85 80,85c19,0 40,-9 55,-25z"/>
   <path id="svg_186" d="m22628,5004c-35,-19 -48,-43 -48,-92c0,-33 6,-45 31,-66c19,-17 43,-26 64,-26c21,0 45,9 64,26c25,21 31,33 31,66c0,50 -13,74 -50,93c-36,19 -57,18 -92,-1zm87,-10c25,-10 47,-62 40,-95c-9,-41 -52,-72 -89,-65c-39,8 -63,31 -71,66c-7,30 15,84 37,93c19,8 64,8 83,1z"/>
   <path id="svg_187" d="m20115,4733c-32,-8 -64,-44 -71,-79c-17,-93 99,-153 167,-85c52,53 33,135 -38,162c-26,9 -26,10 -58,2zm82,-35c39,-42 31,-108 -17,-133c-41,-21 -58,-19 -91,14c-37,38 -39,82 -4,116c32,33 84,34 112,3z"/>
   <path id="svg_188" d="m0,4691c0,-6 4,-11 8,-11c11,0 32,-46 32,-69c0,-10 -10,-30 -21,-45c-12,-15 -19,-30 -15,-33c10,-10 35,18 46,53c10,28 9,40 -7,71c-17,36 -43,56 -43,34z"/>
   <path id="svg_189" d="m23275,4676c-60,-26 -73,-109 -26,-157c24,-24 38,-29 76,-29c43,0 49,-3 106,-65l61,-65l162,0l162,0l59,-60l59,-60l286,0l285,0l290,-289l290,-289l258,-6l257,-6l0,25l0,25l-227,0l-228,-1l-295,301l-295,300l-285,0l-286,0l-59,60l-59,60l-161,0l-161,0l-64,65c-52,52 -64,71 -62,91c6,40 -17,81 -53,98c-39,19 -51,19 -90,2zm104,-32c31,-40 28,-87 -10,-118c-35,-30 -49,-32 -88,-11c-32,16 -41,33 -41,78c0,72 95,107 139,51z"/>
   <path id="svg_190" d="m23700,4683c-30,-11 -60,-47 -66,-78c-7,-37 16,-89 45,-105c35,-18 87,-12 118,14l30,25l94,-95l94,-94l545,0l546,0l29,-30l29,-30l218,0c139,0 218,4 218,10c0,6 -74,10 -203,10l-203,0l-34,35l-34,35l-546,0l-545,0l-103,103c-56,56 -102,110 -102,120c0,53 -76,100 -130,80zm87,-35c30,-34 34,-55 18,-94c-13,-32 -46,-54 -81,-54c-28,0 -74,56 -74,90c0,69 92,107 137,58z"/>
   <path id="svg_191" d="m24080,4672c-43,-21 -64,-62 -56,-106c17,-89 138,-106 184,-26c9,16 24,30 32,30c9,0 40,-25 70,-55l55,-55l399,0c389,1 399,0 418,-20c18,-19 30,-20 218,-20c193,0 200,1 200,20c0,19 -7,20 -194,20c-160,0 -196,3 -206,15c-11,13 -69,15 -414,15l-402,0l-54,55c-39,39 -62,55 -81,55c-20,0 -30,7 -38,29c-21,49 -81,69 -131,43zm99,-26c57,-61 -1,-166 -79,-141c-34,11 -60,46 -60,82c0,73 90,111 139,59z"/>
   <path id="svg_192" d="m23695,4281c-39,-16 -60,-51 -60,-98c0,-37 5,-49 28,-69c33,-28 91,-32 123,-9c19,13 23,12 44,-10l23,-25l306,0l306,0l285,-285l285,-285l282,0l283,0l0,30l0,30l-263,0l-263,0l-289,290l-289,290l-297,0l-296,0l-47,50c-25,27 -46,54 -46,60c0,12 -60,40 -82,39c-7,0 -22,-4 -33,-8zm89,-33c43,-39 36,-107 -14,-133c-40,-21 -54,-19 -89,11c-24,20 -31,34 -31,60c0,72 81,109 134,62z"/>
   <path id="svg_193" d="m24930,4263c-56,-20 -83,-89 -56,-141c20,-38 44,-52 91,-52c105,0 132,155 33,189c-33,12 -45,12 -68,4zm78,-29c52,-36 46,-111 -10,-140c-84,-43 -159,63 -92,130c30,30 69,34 102,10z"/>
   <path id="svg_194" d="m6898,2849c-28,-28 -30,-34 -25,-83l5,-53l-54,-54c-54,-53 -54,-54 -54,-114c0,-60 -1,-61 -53,-113l-53,-52l-590,0l-590,0l-59,60c-55,55 -58,61 -47,85c33,72 -11,145 -87,145c-61,0 -96,-35 -96,-95c0,-62 35,-95 100,-95c40,0 48,-4 106,-65l62,-65l606,0l607,0l62,63c58,58 62,66 62,108c0,42 4,49 63,107c55,55 66,62 92,57c56,-11 115,45 115,107c0,11 -15,35 -34,54c-46,46 -94,47 -138,3zm123,-8c55,-55 25,-141 -50,-141c-65,0 -105,64 -76,120c29,55 82,64 126,21zm-1677,-203c38,-35 39,-86 1,-123c-51,-52 -135,-15 -135,60c0,73 80,111 134,63z"/>
   <path id="svg_195" d="m6898,2539c-28,-27 -30,-34 -25,-78l6,-48l-82,-81l-82,-82l-647,0c-355,0 -653,3 -662,6c-9,3 -16,13 -16,21c0,53 -70,103 -122,88c-36,-11 -67,-45 -74,-80c-7,-37 16,-89 45,-105c32,-16 86,-12 114,10c25,20 40,20 704,20l678,0l89,89c49,50 93,88 98,85c4,-3 26,-6 49,-6c74,-1 119,74 85,140c-32,62 -108,72 -158,21zm107,15c21,-8 45,-56 45,-89c0,-35 -42,-75 -77,-75c-63,0 -103,57 -79,114c20,49 63,68 111,50zm-1667,-220c51,-35 46,-111 -9,-139c-39,-21 -53,-19 -88,11c-80,67 12,188 97,128z"/>
   <path id="svg_196" d="m6899,2251c-68,-68 -8,-184 85,-167c50,10 81,49 81,103c0,37 -5,49 -28,69c-41,35 -99,33 -138,-5zm129,-17c64,-72 -28,-173 -106,-118c-32,22 -43,57 -31,94c22,61 92,73 137,24z"/>
   <path id="svg_197" d="m5300,1385c-58,-58 -81,-75 -103,-75c-58,0 -107,-46 -107,-101c0,-51 49,-99 101,-99c69,0 120,81 88,141c-9,17 -1,29 52,84l62,65l146,0l146,0l260,-260l260,-260l755,0l756,0l173,175c152,153 176,173 193,164c50,-27 128,32 128,98c0,80 -104,123 -167,69c-22,-19 -28,-32 -28,-70c-1,-45 -3,-48 -164,-216l-163,-170l-727,0l-726,0l-265,265l-265,265l-165,0l-166,0l-74,-75zm2865,-10c52,-51 16,-145 -55,-145c-44,0 -80,39 -80,85c0,46 36,85 80,85c19,0 40,-9 55,-25zm-2917,-108c52,-47 14,-137 -59,-137c-95,0 -107,143 -14,162c27,6 45,-1 73,-25z"/>
  </g>
 </g>
</svg>